<svg width="1280" height="720" xmlns="http://www.w3.org/2000/svg" xmlns:xlink="http://www.w3.org/1999/xlink" overflow="hidden"><g><rect x="0" y="0" width="1280" height="720" fill="#FFFFFF"/><path d="M1162.31 388.514 1027 234" stroke="#000000" stroke-width="4" stroke-miterlimit="8" fill="none" fill-rule="evenodd"/><path d="M0 0 132.571 164.571" stroke="#000000" stroke-width="4" stroke-miterlimit="8" fill="none" fill-rule="evenodd" transform="matrix(1 0 0 -1 1033 388.571)"/><path d="M571 284 571 420.851" stroke="#000000" stroke-width="4" stroke-miterlimit="8" fill="none" fill-rule="evenodd"/><path d="M0 0 0.000104987 136.851" stroke="#000000" stroke-width="4" stroke-miterlimit="8" fill="none" fill-rule="evenodd" transform="matrix(1 0 0 -1 441 420.851)"/><path d="M572.766 283.021 440 282" stroke="#000000" stroke-width="4" stroke-miterlimit="8" fill="none" fill-rule="evenodd"/><path d="M569.702 422.957 440 281" stroke="#000000" stroke-width="4" stroke-miterlimit="8" fill="none" fill-rule="evenodd"/><path d="M0 0 126.638 137.872" stroke="#000000" stroke-width="4" stroke-miterlimit="8" fill="none" fill-rule="evenodd" transform="matrix(-1 0 0 1 569.638 284)"/><path d="M570.681 423.021 442 422" stroke="#000000" stroke-width="4" stroke-miterlimit="8" fill="none" fill-rule="evenodd"/><path d="M0 0 104.17 52.0848" stroke="#000000" stroke-width="4" stroke-miterlimit="8" fill="none" fill-rule="evenodd" transform="matrix(1 0 0 -1 174 340.085)"/><path d="M0 0 41.3616 112.34" stroke="#000000" stroke-width="4" stroke-miterlimit="8" fill="none" fill-rule="evenodd" transform="matrix(1 0 0 -1 174 339.34)"/><path d="M174.809 340.34 136 228" stroke="#000000" stroke-width="4" stroke-miterlimit="8" fill="none" fill-rule="evenodd"/><path d="M175.043 340.575 77 289" stroke="#000000" stroke-width="4" stroke-miterlimit="8" fill="none" fill-rule="evenodd"/><path d="M0 0 80.6807 70.4681" stroke="#000000" stroke-width="4" stroke-miterlimit="8" fill="none" fill-rule="evenodd" transform="matrix(-1 0 0 1 175.681 340)"/><path d="M175 340 255.681 413.021" stroke="#000000" stroke-width="4" stroke-miterlimit="8" fill="none" fill-rule="evenodd"/><path d="M176 341 198.468 433.936" stroke="#000000" stroke-width="4" stroke-miterlimit="8" fill="none" fill-rule="evenodd"/><path d="M0 0 25.0212 90.3832" stroke="#000000" stroke-width="4" stroke-miterlimit="8" fill="none" fill-rule="evenodd" transform="matrix(-1 0 0 1 176.021 343)"/><path d="M94 410 151.702 432.979" stroke="#000000" stroke-width="4" stroke-miterlimit="8" fill="none" fill-rule="evenodd"/><path d="M0 0 57.7019 24" stroke="#000000" stroke-width="4" stroke-miterlimit="8" fill="none" fill-rule="evenodd" transform="matrix(-1 0 0 1 255.702 411)"/><path d="M215.17 227.511 135 227" stroke="#000000" stroke-width="4" stroke-miterlimit="8" fill="none" fill-rule="evenodd"/><path d="M125 227.5C125 221.149 130.149 216 136.5 216 142.851 216 148 221.149 148 227.5 148 233.851 142.851 239 136.5 239 130.149 239 125 233.851 125 227.5Z" stroke="#042433" stroke-width="2" stroke-miterlimit="8" fill="#156082" fill-rule="evenodd"/><path d="M204 227.5C204 221.149 209.149 216 215.5 216 221.851 216 227 221.149 227 227.5 227 233.851 221.851 239 215.5 239 209.149 239 204 233.851 204 227.5Z" stroke="#042433" stroke-width="2" stroke-miterlimit="8" fill="#156082" fill-rule="evenodd"/><path d="M163 339.5C163 333.149 168.149 328 174.5 328 180.851 328 186 333.149 186 339.5 186 345.851 180.851 351 174.5 351 168.149 351 163 345.851 163 339.5Z" stroke="#042433" stroke-width="2" stroke-miterlimit="8" fill="#156082" fill-rule="evenodd"/><path d="M67 288.5C67 282.149 72.1487 277 78.5 277 84.8513 277 90 282.149 90 288.5 90 294.851 84.8513 300 78.5 300 72.1487 300 67 294.851 67 288.5Z" stroke="#042433" stroke-width="2" stroke-miterlimit="8" fill="#156082" fill-rule="evenodd"/><path d="M266 288.5C266 282.149 271.149 277 277.5 277 283.851 277 289 282.149 289 288.5 289 294.851 283.851 300 277.5 300 271.149 300 266 294.851 266 288.5Z" stroke="#042433" stroke-width="2" stroke-miterlimit="8" fill="#156082" fill-rule="evenodd"/><path d="M83 410.5C83 404.149 88.1487 399 94.5 399 100.851 399 106 404.149 106 410.5 106 416.851 100.851 422 94.5 422 88.1487 422 83 416.851 83 410.5Z" stroke="#042433" stroke-width="2" stroke-miterlimit="8" fill="#156082" fill-rule="evenodd"/><path d="M140 432.5C140 426.149 145.149 421 151.5 421 157.851 421 163 426.149 163 432.5 163 438.851 157.851 444 151.5 444 145.149 444 140 438.851 140 432.5Z" stroke="#042433" stroke-width="2" stroke-miterlimit="8" fill="#156082" fill-rule="evenodd"/><path d="M186 432.5C186 426.149 191.149 421 197.5 421 203.851 421 209 426.149 209 432.5 209 438.851 203.851 444 197.5 444 191.149 444 186 438.851 186 432.5Z" stroke="#042433" stroke-width="2" stroke-miterlimit="8" fill="#156082" fill-rule="evenodd"/><path d="M243 410.5C243 404.149 248.149 399 254.5 399 260.851 399 266 404.149 266 410.5 266 416.851 260.851 422 254.5 422 248.149 422 243 416.851 243 410.5Z" stroke="#042433" stroke-width="2" stroke-miterlimit="8" fill="#156082" fill-rule="evenodd"/><text font-family="KoPubWorldDotum Bold,KoPubWorldDotum Bold_MSFontService,sans-serif" font-weight="700" font-size="37" transform="translate(111.958 506)">Graph 1</text><path d="M430 421.5C430 415.149 435.149 410 441.5 410 447.851 410 453 415.149 453 421.5 453 427.851 447.851 433 441.5 433 435.149 433 430 427.851 430 421.5Z" stroke="#042433" stroke-width="2" stroke-miterlimit="8" fill="#156082" fill-rule="evenodd"/><path d="M496 422.5C496 416.149 501.149 411 507.5 411 513.851 411 519 416.149 519 422.5 519 428.851 513.851 434 507.5 434 501.149 434 496 428.851 496 422.5Z" stroke="#042433" stroke-width="2" stroke-miterlimit="8" fill="#156082" fill-rule="evenodd"/><path d="M560 422.5C560 416.149 565.149 411 571.5 411 577.851 411 583 416.149 583 422.5 583 428.851 577.851 434 571.5 434 565.149 434 560 428.851 560 422.5Z" stroke="#042433" stroke-width="2" stroke-miterlimit="8" fill="#156082" fill-rule="evenodd"/><path d="M430 283.5C430 277.149 435.149 272 441.5 272 447.851 272 453 277.149 453 283.5 453 289.851 447.851 295 441.5 295 435.149 295 430 289.851 430 283.5Z" stroke="#042433" stroke-width="2" stroke-miterlimit="8" fill="#156082" fill-rule="evenodd"/><path d="M560 283.5C560 277.149 565.149 272 571.5 272 577.851 272 583 277.149 583 283.5 583 289.851 577.851 295 571.5 295 565.149 295 560 289.851 560 283.5Z" stroke="#042433" stroke-width="2" stroke-miterlimit="8" fill="#156082" fill-rule="evenodd"/><text font-family="KoPubWorldDotum Bold,KoPubWorldDotum Bold_MSFontService,sans-serif" font-weight="700" font-size="37" transform="translate(440.725 506)">Graph 2</text><path d="M817 207 817.33 312.129" stroke="#000000" stroke-width="4" stroke-miterlimit="8" fill="none" fill-rule="evenodd"/><path d="M881.319 424.298 818 314" stroke="#000000" stroke-width="4" stroke-miterlimit="8" fill="none" fill-rule="evenodd"/><path d="M879.681 422.021 751 421" stroke="#000000" stroke-width="4" stroke-miterlimit="8" fill="none" fill-rule="evenodd"/><path d="M0 0 70.4681 106.212" stroke="#000000" stroke-width="4" stroke-miterlimit="8" fill="none" fill-rule="evenodd" transform="matrix(1 0 0 -1 750 421.212)"/><path d="M883.362 426.51 818 210" stroke="#000000" stroke-width="4" stroke-miterlimit="8" fill="none" fill-rule="evenodd"/><path d="M0 0 91.9151 124.596" stroke="#000000" stroke-width="4" stroke-miterlimit="8" fill="none" fill-rule="evenodd" transform="matrix(1 0 0 -1 726 332.596)"/><path d="M748.489 424.957 725 331" stroke="#000000" stroke-width="4" stroke-miterlimit="8" fill="none" fill-rule="evenodd"/><path d="M739 422.5C739 416.149 744.149 411 750.5 411 756.851 411 762 416.149 762 422.5 762 428.851 756.851 434 750.5 434 744.149 434 739 428.851 739 422.5Z" stroke="#042433" stroke-width="2" stroke-miterlimit="8" fill="#156082" fill-rule="evenodd"/><path d="M869 423.5C869 417.149 874.149 412 880.5 412 886.851 412 892 417.149 892 423.5 892 429.851 886.851 435 880.5 435 874.149 435 869 429.851 869 423.5Z" stroke="#042433" stroke-width="2" stroke-miterlimit="8" fill="#156082" fill-rule="evenodd"/><path d="M716 331.5C716 325.149 721.149 320 727.5 320 733.851 320 739 325.149 739 331.5 739 337.851 733.851 343 727.5 343 721.149 343 716 337.851 716 331.5Z" stroke="#042433" stroke-width="2" stroke-miterlimit="8" fill="#156082" fill-rule="evenodd"/><path d="M806 311.5C806 305.149 811.149 300 817.5 300 823.851 300 829 305.149 829 311.5 829 317.851 823.851 323 817.5 323 811.149 323 806 317.851 806 311.5Z" stroke="#042433" stroke-width="2" stroke-miterlimit="8" fill="#156082" fill-rule="evenodd"/><path d="M806 206.5C806 200.149 811.149 195 817.5 195 823.851 195 829 200.149 829 206.5 829 212.851 823.851 218 817.5 218 811.149 218 806 212.851 806 206.5Z" stroke="#042433" stroke-width="2" stroke-miterlimit="8" fill="#156082" fill-rule="evenodd"/><text font-family="KoPubWorldDotum Bold,KoPubWorldDotum Bold_MSFontService,sans-serif" font-weight="700" font-size="37" transform="translate(738.226 505)">Graph 3</text><path d="M1012 299.5C1012 229.084 1050.73 172 1098.5 172 1146.27 172 1185 229.084 1185 299.5 1185 369.916 1146.27 427 1098.5 427 1050.73 427 1012 369.916 1012 299.5Z" stroke="#042433" stroke-width="4" stroke-miterlimit="8" fill="none" fill-rule="evenodd"/><path d="M1098 173 1100.04 426.277" stroke="#000000" stroke-width="4" stroke-miterlimit="8" fill="none" fill-rule="evenodd"/><path d="M0 0 85.7873 134.809" stroke="#000000" stroke-width="4" stroke-miterlimit="8" fill="none" fill-rule="evenodd" transform="matrix(1 0 0 -1 1100 429.809)"/><path d="M1026 235 1096.47 427" stroke="#000000" stroke-width="4" stroke-miterlimit="8" fill="none" fill-rule="evenodd"/><path d="M1014 319 1097.74 431.34" stroke="#000000" stroke-width="4" stroke-miterlimit="8" fill="none" fill-rule="evenodd"/><path d="M0 0 124.596 2.04241" stroke="#000000" stroke-width="4" stroke-miterlimit="8" fill="none" fill-rule="evenodd" transform="matrix(1 0 0 -1 1037 387.042)"/><path d="M1011 317 1164.19 389.511" stroke="#000000" stroke-width="4" stroke-miterlimit="8" fill="none" fill-rule="evenodd"/><path d="M1096 172 1162.38 390.553" stroke="#000000" stroke-width="4" stroke-miterlimit="8" fill="none" fill-rule="evenodd"/><path d="M0 0 8.17018 164.426" stroke="#000000" stroke-width="4" stroke-miterlimit="8" fill="none" fill-rule="evenodd" transform="matrix(-1 0 0 1 1169.17 220)"/><path d="M0 0 150.128 94.9787" stroke="#000000" stroke-width="4" stroke-miterlimit="8" fill="none" fill-rule="evenodd" transform="matrix(1 0 0 -1 1037 387.979)"/><path d="M0 0 176.681 25.5318" stroke="#000000" stroke-width="4" stroke-miterlimit="8" fill="none" fill-rule="evenodd" transform="matrix(1 0 0 -1 1011 318.532)"/><path d="M1027 234 1185.3 296.298" stroke="#000000" stroke-width="4" stroke-miterlimit="8" fill="none" fill-rule="evenodd"/><path d="M1096 174 1186.89 293.489" stroke="#000000" stroke-width="4" stroke-miterlimit="8" fill="none" fill-rule="evenodd"/><path d="M0 0 69.4469 201.192" stroke="#000000" stroke-width="4" stroke-miterlimit="8" fill="none" fill-rule="evenodd" transform="matrix(1 0 0 -1 1099 422.192)"/><path d="M0 0 150.128 99.064" stroke="#000000" stroke-width="4" stroke-miterlimit="8" fill="none" fill-rule="evenodd" transform="matrix(1 0 0 -1 1018 317.064)"/><path d="M0 0 145.021 8.17018" stroke="#000000" stroke-width="4" stroke-miterlimit="8" fill="none" fill-rule="evenodd" transform="matrix(1 0 0 -1 1020 232.17)"/><path d="M0 0 85.7873 145.021" stroke="#000000" stroke-width="4" stroke-miterlimit="8" fill="none" fill-rule="evenodd" transform="matrix(1 0 0 -1 1014 318.021)"/><path d="M0 0 55.149 216.511" stroke="#000000" stroke-width="4" stroke-miterlimit="8" fill="none" fill-rule="evenodd" transform="matrix(-1 0 0 1 1095.15 171)"/><path d="M1036.26 385.212 1024 231" stroke="#000000" stroke-width="4" stroke-miterlimit="8" fill="none" fill-rule="evenodd"/><path d="M1086 426.5C1086 420.149 1091.15 415 1097.5 415 1103.85 415 1109 420.149 1109 426.5 1109 432.851 1103.85 438 1097.5 438 1091.15 438 1086 432.851 1086 426.5Z" stroke="#042433" stroke-width="2" stroke-miterlimit="8" fill="#156082" fill-rule="evenodd"/><path d="M1150 387.5C1150 381.149 1155.15 376 1161.5 376 1167.85 376 1173 381.149 1173 387.5 1173 393.851 1167.85 399 1161.5 399 1155.15 399 1150 393.851 1150 387.5Z" stroke="#042433" stroke-width="2" stroke-miterlimit="8" fill="#156082" fill-rule="evenodd"/><path d="M1023 388.5C1023 382.149 1028.15 377 1034.5 377 1040.85 377 1046 382.149 1046 388.5 1046 394.851 1040.85 400 1034.5 400 1028.15 400 1023 394.851 1023 388.5Z" stroke="#042433" stroke-width="2" stroke-miterlimit="8" fill="#156082" fill-rule="evenodd"/><path d="M1001 319.5C1001 313.149 1006.15 308 1012.5 308 1018.85 308 1024 313.149 1024 319.5 1024 325.851 1018.85 331 1012.5 331 1006.15 331 1001 325.851 1001 319.5Z" stroke="#042433" stroke-width="2" stroke-miterlimit="8" fill="#156082" fill-rule="evenodd"/><path d="M1175 293.5C1175 287.149 1180.15 282 1186.5 282 1192.85 282 1198 287.149 1198 293.5 1198 299.851 1192.85 305 1186.5 305 1180.15 305 1175 299.851 1175 293.5Z" stroke="#042433" stroke-width="2" stroke-miterlimit="8" fill="#156082" fill-rule="evenodd"/><path d="M1015 234C1015 227.925 1020.15 223 1026.5 223 1032.85 223 1038 227.925 1038 234 1038 240.075 1032.85 245 1026.5 245 1020.15 245 1015 240.075 1015 234Z" stroke="#042433" stroke-width="2" stroke-miterlimit="8" fill="#156082" fill-rule="evenodd"/><path d="M1085 173.5C1085 167.149 1090.15 162 1096.5 162 1102.85 162 1108 167.149 1108 173.5 1108 179.851 1102.85 185 1096.5 185 1090.15 185 1085 179.851 1085 173.5Z" stroke="#042433" stroke-width="2" stroke-miterlimit="8" fill="#156082" fill-rule="evenodd"/><path d="M1156 222.5C1156 216.149 1161.15 211 1167.5 211 1173.85 211 1179 216.149 1179 222.5 1179 228.851 1173.85 234 1167.5 234 1161.15 234 1156 228.851 1156 222.5Z" stroke="#042433" stroke-width="2" stroke-miterlimit="8" fill="#156082" fill-rule="evenodd"/><text font-family="KoPubWorldDotum Bold,KoPubWorldDotum Bold_MSFontService,sans-serif" font-weight="700" font-size="37" transform="translate(1033.53 506)">Graph 4</text></g></svg>