<?xml version="1.0" encoding="UTF-8" standalone="no"?>
<svg
   width="264.41742"
   height="344.01715"
   overflow="hidden"
   version="1.1"
   id="svg68"
   sodipodi:docname="231219_3.svg"
   inkscape:version="1.3.2 (091e20e, 2023-11-25, custom)"
   xmlns:inkscape="http://www.inkscape.org/namespaces/inkscape"
   xmlns:sodipodi="http://sodipodi.sourceforge.net/DTD/sodipodi-0.dtd"
   xmlns="http://www.w3.org/2000/svg"
   xmlns:svg="http://www.w3.org/2000/svg">
  <defs
     id="defs68">
    <clipPath
       clipPathUnits="userSpaceOnUse"
       id="clipPath70">
      <rect
         style="opacity:0.32;fill:#000000"
         id="rect70"
         width="264.41742"
         height="344.01715"
         x="375.12509"
         y="215.92566" />
    </clipPath>
  </defs>
  <sodipodi:namedview
     id="namedview68"
     pagecolor="#ffffff"
     bordercolor="#000000"
     borderopacity="0.25"
     inkscape:showpageshadow="2"
     inkscape:pageopacity="0.0"
     inkscape:pagecheckerboard="0"
     inkscape:deskcolor="#d1d1d1"
     showgrid="false"
     inkscape:zoom="1.0929688"
     inkscape:cx="264.87491"
     inkscape:cy="144.10293"
     inkscape:window-width="1920"
     inkscape:window-height="1017"
     inkscape:window-x="-8"
     inkscape:window-y="-8"
     inkscape:window-maximized="1"
     inkscape:current-layer="svg68" />
  <g
     id="g68"
     transform="translate(-375.12509,-215.92566)">
    <rect
       x="0"
       y="0"
       width="1280"
       height="720"
       fill="#ffffff"
       id="rect1"
       clip-path="url(#clipPath70)" />
    <path
       d="M 571,284 V 420.851"
       stroke="#000000"
       stroke-width="4"
       stroke-miterlimit="8"
       fill="none"
       fill-rule="evenodd"
       id="path1" />
    <path
       d="M 0,0 1.04987e-4,136.851"
       stroke="#000000"
       stroke-width="4"
       stroke-miterlimit="8"
       fill="none"
       fill-rule="evenodd"
       transform="matrix(1,0,0,-1,441,420.851)"
       id="path2" />
    <path
       d="M 572.766,283.021 440,282"
       stroke="#000000"
       stroke-width="4"
       stroke-miterlimit="8"
       fill="none"
       fill-rule="evenodd"
       id="path3" />
    <path
       d="M 570.681,423.021 442,422"
       stroke="#000000"
       stroke-width="4"
       stroke-miterlimit="8"
       fill="none"
       fill-rule="evenodd"
       id="path4" />
    <path
       d="M 0,0 104.17,52.085"
       stroke="#000000"
       stroke-width="4"
       stroke-miterlimit="8"
       fill="none"
       fill-rule="evenodd"
       transform="matrix(1,0,0,-1,174,340.085)"
       id="path5" />
    <path
       d="M 0,0 41.3617,112.34"
       stroke="#000000"
       stroke-width="4"
       stroke-miterlimit="8"
       fill="none"
       fill-rule="evenodd"
       transform="matrix(1,0,0,-1,174,339.34)"
       id="path6" />
    <path
       d="M 174.809,340.34 136,228"
       stroke="#000000"
       stroke-width="4"
       stroke-miterlimit="8"
       fill="none"
       fill-rule="evenodd"
       id="path7" />
    <path
       d="M 175.043,340.574 77,289"
       stroke="#000000"
       stroke-width="4"
       stroke-miterlimit="8"
       fill="none"
       fill-rule="evenodd"
       id="path8" />
    <path
       d="M 0,0 80.6808,70.4681"
       stroke="#000000"
       stroke-width="4"
       stroke-miterlimit="8"
       fill="none"
       fill-rule="evenodd"
       transform="matrix(-1,0,0,1,175.681,340)"
       id="path9" />
    <path
       d="m 175,340 80.681,73.021"
       stroke="#000000"
       stroke-width="4"
       stroke-miterlimit="8"
       fill="none"
       fill-rule="evenodd"
       id="path10" />
    <path
       d="m 176,341 22.468,92.936"
       stroke="#000000"
       stroke-width="4"
       stroke-miterlimit="8"
       fill="none"
       fill-rule="evenodd"
       id="path11" />
    <path
       d="M 0,0 25.0212,90.383"
       stroke="#000000"
       stroke-width="4"
       stroke-miterlimit="8"
       fill="none"
       fill-rule="evenodd"
       transform="matrix(-1,0,0,1,176.021,343)"
       id="path12" />
    <path
       d="m 94,410 57.702,22.979"
       stroke="#000000"
       stroke-width="4"
       stroke-miterlimit="8"
       fill="none"
       fill-rule="evenodd"
       id="path13" />
    <path
       d="M 0,0 57.7022,24"
       stroke="#000000"
       stroke-width="4"
       stroke-miterlimit="8"
       fill="none"
       fill-rule="evenodd"
       transform="matrix(-1,0,0,1,255.702,411)"
       id="path14" />
    <path
       d="M 215.17,227.511 135,227"
       stroke="#000000"
       stroke-width="4"
       stroke-miterlimit="8"
       fill="none"
       fill-rule="evenodd"
       id="path15" />
    <path
       d="m 125,227.5 c 0,-6.351 5.149,-11.5 11.5,-11.5 6.351,0 11.5,5.149 11.5,11.5 0,6.351 -5.149,11.5 -11.5,11.5 -6.351,0 -11.5,-5.149 -11.5,-11.5 z"
       stroke="#042433"
       stroke-width="2"
       stroke-miterlimit="8"
       fill="#156082"
       fill-rule="evenodd"
       id="path16" />
    <path
       d="m 204,227.5 c 0,-6.351 5.149,-11.5 11.5,-11.5 6.351,0 11.5,5.149 11.5,11.5 0,6.351 -5.149,11.5 -11.5,11.5 -6.351,0 -11.5,-5.149 -11.5,-11.5 z"
       stroke="#042433"
       stroke-width="2"
       stroke-miterlimit="8"
       fill="#156082"
       fill-rule="evenodd"
       id="path17" />
    <path
       d="m 163,339.5 c 0,-6.351 5.149,-11.5 11.5,-11.5 6.351,0 11.5,5.149 11.5,11.5 0,6.351 -5.149,11.5 -11.5,11.5 -6.351,0 -11.5,-5.149 -11.5,-11.5 z"
       stroke="#042433"
       stroke-width="2"
       stroke-miterlimit="8"
       fill="#156082"
       fill-rule="evenodd"
       id="path18" />
    <path
       d="M 67,288.5 C 67,282.149 72.1487,277 78.5,277 84.8513,277 90,282.149 90,288.5 90,294.851 84.8513,300 78.5,300 72.1487,300 67,294.851 67,288.5 Z"
       stroke="#042433"
       stroke-width="2"
       stroke-miterlimit="8"
       fill="#156082"
       fill-rule="evenodd"
       id="path19" />
    <path
       d="m 266,288.5 c 0,-6.351 5.149,-11.5 11.5,-11.5 6.351,0 11.5,5.149 11.5,11.5 0,6.351 -5.149,11.5 -11.5,11.5 -6.351,0 -11.5,-5.149 -11.5,-11.5 z"
       stroke="#042433"
       stroke-width="2"
       stroke-miterlimit="8"
       fill="#156082"
       fill-rule="evenodd"
       id="path20" />
    <path
       d="m 83,410.5 c 0,-6.351 5.1487,-11.5 11.5,-11.5 6.351,0 11.5,5.149 11.5,11.5 0,6.351 -5.149,11.5 -11.5,11.5 C 88.1487,422 83,416.851 83,410.5 Z"
       stroke="#042433"
       stroke-width="2"
       stroke-miterlimit="8"
       fill="#156082"
       fill-rule="evenodd"
       id="path21" />
    <path
       d="m 140,432.5 c 0,-6.351 5.149,-11.5 11.5,-11.5 6.351,0 11.5,5.149 11.5,11.5 0,6.351 -5.149,11.5 -11.5,11.5 -6.351,0 -11.5,-5.149 -11.5,-11.5 z"
       stroke="#042433"
       stroke-width="2"
       stroke-miterlimit="8"
       fill="#156082"
       fill-rule="evenodd"
       id="path22" />
    <path
       d="m 186,432.5 c 0,-6.351 5.149,-11.5 11.5,-11.5 6.351,0 11.5,5.149 11.5,11.5 0,6.351 -5.149,11.5 -11.5,11.5 -6.351,0 -11.5,-5.149 -11.5,-11.5 z"
       stroke="#042433"
       stroke-width="2"
       stroke-miterlimit="8"
       fill="#156082"
       fill-rule="evenodd"
       id="path23" />
    <path
       d="m 243,410.5 c 0,-6.351 5.149,-11.5 11.5,-11.5 6.351,0 11.5,5.149 11.5,11.5 0,6.351 -5.149,11.5 -11.5,11.5 -6.351,0 -11.5,-5.149 -11.5,-11.5 z"
       stroke="#042433"
       stroke-width="2"
       stroke-miterlimit="8"
       fill="#156082"
       fill-rule="evenodd"
       id="path24" />
    <text
       font-family="'KoPubWorldDotum Bold', 'KoPubWorldDotum Bold_MSFontService', sans-serif"
       font-weight="700"
       font-size="37px"
       transform="translate(111.958,506)"
       id="text24">Graph 1</text>
    <path
       d="m 430,421.5 c 0,-6.351 5.149,-11.5 11.5,-11.5 6.351,0 11.5,5.149 11.5,11.5 0,6.351 -5.149,11.5 -11.5,11.5 -6.351,0 -11.5,-5.149 -11.5,-11.5 z"
       stroke="#042433"
       stroke-width="2"
       stroke-miterlimit="8"
       fill="#156082"
       fill-rule="evenodd"
       id="path25" />
    <path
       d="m 496,352.5 c 0,-6.351 5.149,-11.5 11.5,-11.5 6.351,0 11.5,5.149 11.5,11.5 0,6.351 -5.149,11.5 -11.5,11.5 -6.351,0 -11.5,-5.149 -11.5,-11.5 z"
       stroke="#042433"
       stroke-width="2"
       stroke-miterlimit="8"
       fill="#156082"
       fill-rule="evenodd"
       id="path26" />
    <path
       d="m 560,422.5 c 0,-6.351 5.149,-11.5 11.5,-11.5 6.351,0 11.5,5.149 11.5,11.5 0,6.351 -5.149,11.5 -11.5,11.5 -6.351,0 -11.5,-5.149 -11.5,-11.5 z"
       stroke="#042433"
       stroke-width="2"
       stroke-miterlimit="8"
       fill="#156082"
       fill-rule="evenodd"
       id="path27" />
    <path
       d="m 430,283.5 c 0,-6.351 5.149,-11.5 11.5,-11.5 6.351,0 11.5,5.149 11.5,11.5 0,6.351 -5.149,11.5 -11.5,11.5 -6.351,0 -11.5,-5.149 -11.5,-11.5 z"
       stroke="#042433"
       stroke-width="2"
       stroke-miterlimit="8"
       fill="#156082"
       fill-rule="evenodd"
       id="path28" />
    <path
       d="m 560,283.5 c 0,-6.351 5.149,-11.5 11.5,-11.5 6.351,0 11.5,5.149 11.5,11.5 0,6.351 -5.149,11.5 -11.5,11.5 -6.351,0 -11.5,-5.149 -11.5,-11.5 z"
       stroke="#042433"
       stroke-width="2"
       stroke-miterlimit="8"
       fill="#156082"
       fill-rule="evenodd"
       id="path29" />
    <text
       font-family="'KoPubWorldDotum Bold', 'KoPubWorldDotum Bold_MSFontService', sans-serif"
       font-weight="700"
       font-size="37px"
       transform="translate(440.724,506)"
       id="text29">Graph 5</text>
    <path
       d="m 817,207 0.33,105.129"
       stroke="#000000"
       stroke-width="4"
       stroke-miterlimit="8"
       fill="none"
       fill-rule="evenodd"
       id="path30" />
    <path
       d="M 881.319,424.298 818,314"
       stroke="#000000"
       stroke-width="4"
       stroke-miterlimit="8"
       fill="none"
       fill-rule="evenodd"
       id="path31" />
    <path
       d="M 879.681,422.021 751,421"
       stroke="#000000"
       stroke-width="4"
       stroke-miterlimit="8"
       fill="none"
       fill-rule="evenodd"
       id="path32" />
    <path
       d="M 0,0 70.4681,106.213"
       stroke="#000000"
       stroke-width="4"
       stroke-miterlimit="8"
       fill="none"
       fill-rule="evenodd"
       transform="matrix(1,0,0,-1,750,421.213)"
       id="path33" />
    <path
       d="M 883.362,426.511 818,210"
       stroke="#000000"
       stroke-width="4"
       stroke-miterlimit="8"
       fill="none"
       fill-rule="evenodd"
       id="path34" />
    <path
       d="M 0,0 91.915,124.596"
       stroke="#000000"
       stroke-width="4"
       stroke-miterlimit="8"
       fill="none"
       fill-rule="evenodd"
       transform="matrix(1,0,0,-1,726,332.596)"
       id="path35" />
    <path
       d="M 748.489,424.957 725,331"
       stroke="#000000"
       stroke-width="4"
       stroke-miterlimit="8"
       fill="none"
       fill-rule="evenodd"
       id="path36" />
    <path
       d="m 739,422.5 c 0,-6.351 5.149,-11.5 11.5,-11.5 6.351,0 11.5,5.149 11.5,11.5 0,6.351 -5.149,11.5 -11.5,11.5 -6.351,0 -11.5,-5.149 -11.5,-11.5 z"
       stroke="#042433"
       stroke-width="2"
       stroke-miterlimit="8"
       fill="#156082"
       fill-rule="evenodd"
       id="path37" />
    <path
       d="m 869,423.5 c 0,-6.351 5.149,-11.5 11.5,-11.5 6.351,0 11.5,5.149 11.5,11.5 0,6.351 -5.149,11.5 -11.5,11.5 -6.351,0 -11.5,-5.149 -11.5,-11.5 z"
       stroke="#042433"
       stroke-width="2"
       stroke-miterlimit="8"
       fill="#156082"
       fill-rule="evenodd"
       id="path38" />
    <path
       d="m 716,331.5 c 0,-6.351 5.149,-11.5 11.5,-11.5 6.351,0 11.5,5.149 11.5,11.5 0,6.351 -5.149,11.5 -11.5,11.5 -6.351,0 -11.5,-5.149 -11.5,-11.5 z"
       stroke="#042433"
       stroke-width="2"
       stroke-miterlimit="8"
       fill="#156082"
       fill-rule="evenodd"
       id="path39" />
    <path
       d="m 806,311.5 c 0,-6.351 5.149,-11.5 11.5,-11.5 6.351,0 11.5,5.149 11.5,11.5 0,6.351 -5.149,11.5 -11.5,11.5 -6.351,0 -11.5,-5.149 -11.5,-11.5 z"
       stroke="#042433"
       stroke-width="2"
       stroke-miterlimit="8"
       fill="#156082"
       fill-rule="evenodd"
       id="path40" />
    <path
       d="m 806,206.5 c 0,-6.351 5.149,-11.5 11.5,-11.5 6.351,0 11.5,5.149 11.5,11.5 0,6.351 -5.149,11.5 -11.5,11.5 -6.351,0 -11.5,-5.149 -11.5,-11.5 z"
       stroke="#042433"
       stroke-width="2"
       stroke-miterlimit="8"
       fill="#156082"
       fill-rule="evenodd"
       id="path41" />
    <text
       font-family="'KoPubWorldDotum Bold', 'KoPubWorldDotum Bold_MSFontService', sans-serif"
       font-weight="700"
       font-size="37px"
       transform="translate(738.225,505)"
       id="text41">Graph 3</text>
    <path
       d="m 1012,299.5 c 0,-70.416 38.73,-127.5 86.5,-127.5 47.77,0 86.5,57.084 86.5,127.5 0,70.416 -38.73,127.5 -86.5,127.5 -47.77,0 -86.5,-57.084 -86.5,-127.5 z"
       stroke="#042433"
       stroke-width="4"
       stroke-miterlimit="8"
       fill="none"
       fill-rule="evenodd"
       id="path42" />
    <path
       d="m 1098,173 2.04,253.277"
       stroke="#000000"
       stroke-width="4"
       stroke-miterlimit="8"
       fill="none"
       fill-rule="evenodd"
       id="path43" />
    <path
       d="M 0,0 85.7873,134.809"
       stroke="#000000"
       stroke-width="4"
       stroke-miterlimit="8"
       fill="none"
       fill-rule="evenodd"
       transform="matrix(1,0,0,-1,1100,429.809)"
       id="path44" />
    <path
       d="m 1026,235 70.47,192"
       stroke="#000000"
       stroke-width="4"
       stroke-miterlimit="8"
       fill="none"
       fill-rule="evenodd"
       id="path45" />
    <path
       d="m 1014,319 83.74,112.34"
       stroke="#000000"
       stroke-width="4"
       stroke-miterlimit="8"
       fill="none"
       fill-rule="evenodd"
       id="path46" />
    <path
       d="M 0,0 124.596,2.04262"
       stroke="#000000"
       stroke-width="4"
       stroke-miterlimit="8"
       fill="none"
       fill-rule="evenodd"
       transform="matrix(1,0,0,-1,1037,387.043)"
       id="path47" />
    <path
       d="m 1011,317 153.19,72.511"
       stroke="#000000"
       stroke-width="4"
       stroke-miterlimit="8"
       fill="none"
       fill-rule="evenodd"
       id="path48" />
    <path
       d="m 1096,172 66.38,218.553"
       stroke="#000000"
       stroke-width="4"
       stroke-miterlimit="8"
       fill="none"
       fill-rule="evenodd"
       id="path49" />
    <path
       d="M 0,0 8.17018,164.426"
       stroke="#000000"
       stroke-width="4"
       stroke-miterlimit="8"
       fill="none"
       fill-rule="evenodd"
       transform="matrix(-1,0,0,1,1169.17,220)"
       id="path50" />
    <path
       d="M 0,0 150.128,94.9787"
       stroke="#000000"
       stroke-width="4"
       stroke-miterlimit="8"
       fill="none"
       fill-rule="evenodd"
       transform="matrix(1,0,0,-1,1037,387.979)"
       id="path51" />
    <path
       d="M 0,0 176.681,25.5319"
       stroke="#000000"
       stroke-width="4"
       stroke-miterlimit="8"
       fill="none"
       fill-rule="evenodd"
       transform="matrix(1,0,0,-1,1011,318.532)"
       id="path52" />
    <path
       d="m 1027,234 158.3,62.298"
       stroke="#000000"
       stroke-width="4"
       stroke-miterlimit="8"
       fill="none"
       fill-rule="evenodd"
       id="path53" />
    <path
       d="m 1096,174 90.89,119.489"
       stroke="#000000"
       stroke-width="4"
       stroke-miterlimit="8"
       fill="none"
       fill-rule="evenodd"
       id="path54" />
    <path
       d="M 0,0 69.4468,201.191"
       stroke="#000000"
       stroke-width="4"
       stroke-miterlimit="8"
       fill="none"
       fill-rule="evenodd"
       transform="matrix(1,0,0,-1,1099,422.191)"
       id="path55" />
    <path
       d="M 0,0 150.128,99.0638"
       stroke="#000000"
       stroke-width="4"
       stroke-miterlimit="8"
       fill="none"
       fill-rule="evenodd"
       transform="matrix(1,0,0,-1,1018,317.064)"
       id="path56" />
    <path
       d="M 0,0 145.021,8.17018"
       stroke="#000000"
       stroke-width="4"
       stroke-miterlimit="8"
       fill="none"
       fill-rule="evenodd"
       transform="matrix(1,0,0,-1,1020,232.17)"
       id="path57" />
    <path
       d="M 0,0 85.7872,145.021"
       stroke="#000000"
       stroke-width="4"
       stroke-miterlimit="8"
       fill="none"
       fill-rule="evenodd"
       transform="matrix(1,0,0,-1,1014,318.021)"
       id="path58" />
    <path
       d="M 0,0 55.149,216.511"
       stroke="#000000"
       stroke-width="4"
       stroke-miterlimit="8"
       fill="none"
       fill-rule="evenodd"
       transform="matrix(-1,0,0,1,1095.15,171)"
       id="path59" />
    <path
       d="M 1036.26,385.213 1024,231"
       stroke="#000000"
       stroke-width="4"
       stroke-miterlimit="8"
       fill="none"
       fill-rule="evenodd"
       id="path60" />
    <path
       d="m 1086,426.5 c 0,-6.351 5.15,-11.5 11.5,-11.5 6.35,0 11.5,5.149 11.5,11.5 0,6.351 -5.15,11.5 -11.5,11.5 -6.35,0 -11.5,-5.149 -11.5,-11.5 z"
       stroke="#042433"
       stroke-width="2"
       stroke-miterlimit="8"
       fill="#156082"
       fill-rule="evenodd"
       id="path61" />
    <path
       d="m 1150,387.5 c 0,-6.351 5.15,-11.5 11.5,-11.5 6.35,0 11.5,5.149 11.5,11.5 0,6.351 -5.15,11.5 -11.5,11.5 -6.35,0 -11.5,-5.149 -11.5,-11.5 z"
       stroke="#042433"
       stroke-width="2"
       stroke-miterlimit="8"
       fill="#156082"
       fill-rule="evenodd"
       id="path62" />
    <path
       d="m 1023,388.5 c 0,-6.351 5.15,-11.5 11.5,-11.5 6.35,0 11.5,5.149 11.5,11.5 0,6.351 -5.15,11.5 -11.5,11.5 -6.35,0 -11.5,-5.149 -11.5,-11.5 z"
       stroke="#042433"
       stroke-width="2"
       stroke-miterlimit="8"
       fill="#156082"
       fill-rule="evenodd"
       id="path63" />
    <path
       d="m 1001,319.5 c 0,-6.351 5.15,-11.5 11.5,-11.5 6.35,0 11.5,5.149 11.5,11.5 0,6.351 -5.15,11.5 -11.5,11.5 -6.35,0 -11.5,-5.149 -11.5,-11.5 z"
       stroke="#042433"
       stroke-width="2"
       stroke-miterlimit="8"
       fill="#156082"
       fill-rule="evenodd"
       id="path64" />
    <path
       d="m 1175,293.5 c 0,-6.351 5.15,-11.5 11.5,-11.5 6.35,0 11.5,5.149 11.5,11.5 0,6.351 -5.15,11.5 -11.5,11.5 -6.35,0 -11.5,-5.149 -11.5,-11.5 z"
       stroke="#042433"
       stroke-width="2"
       stroke-miterlimit="8"
       fill="#156082"
       fill-rule="evenodd"
       id="path65" />
    <path
       d="m 1015,234 c 0,-6.075 5.15,-11 11.5,-11 6.35,0 11.5,4.925 11.5,11 0,6.075 -5.15,11 -11.5,11 -6.35,0 -11.5,-4.925 -11.5,-11 z"
       stroke="#042433"
       stroke-width="2"
       stroke-miterlimit="8"
       fill="#156082"
       fill-rule="evenodd"
       id="path66" />
    <path
       d="m 1085,173.5 c 0,-6.351 5.15,-11.5 11.5,-11.5 6.35,0 11.5,5.149 11.5,11.5 0,6.351 -5.15,11.5 -11.5,11.5 -6.35,0 -11.5,-5.149 -11.5,-11.5 z"
       stroke="#042433"
       stroke-width="2"
       stroke-miterlimit="8"
       fill="#156082"
       fill-rule="evenodd"
       id="path67" />
    <path
       d="m 1156,222.5 c 0,-6.351 5.15,-11.5 11.5,-11.5 6.35,0 11.5,5.149 11.5,11.5 0,6.351 -5.15,11.5 -11.5,11.5 -6.35,0 -11.5,-5.149 -11.5,-11.5 z"
       stroke="#042433"
       stroke-width="2"
       stroke-miterlimit="8"
       fill="#156082"
       fill-rule="evenodd"
       id="path68" />
    <text
       font-family="'KoPubWorldDotum Bold', 'KoPubWorldDotum Bold_MSFontService', sans-serif"
       font-weight="700"
       font-size="37px"
       transform="translate(1033.53,506)"
       id="text68">Graph 4</text>
  </g>
</svg>
