<svg width="1280" height="720" xmlns="http://www.w3.org/2000/svg" xmlns:xlink="http://www.w3.org/1999/xlink" overflow="hidden"><defs><clipPath id="clip0"><rect x="0" y="0" width="1280" height="720"/></clipPath><clipPath id="clip1"><rect x="396" y="163" width="58" height="281"/></clipPath><clipPath id="clip2"><rect x="453" y="163" width="57" height="281"/></clipPath><clipPath id="clip3"><rect x="509" y="163" width="58" height="281"/></clipPath><clipPath id="clip4"><rect x="396" y="220" width="58" height="280"/></clipPath><clipPath id="clip5"><rect x="453" y="220" width="57" height="280"/></clipPath><clipPath id="clip6"><rect x="509" y="220" width="58" height="280"/></clipPath><clipPath id="clip7"><rect x="396" y="276" width="58" height="281"/></clipPath><clipPath id="clip8"><rect x="453" y="276" width="57" height="281"/></clipPath><clipPath id="clip9"><rect x="509" y="276" width="58" height="281"/></clipPath><clipPath id="clip10"><rect x="739" y="-33" width="58" height="281"/></clipPath><clipPath id="clip11"><rect x="739" y="24" width="58" height="281"/></clipPath><clipPath id="clip12"><rect x="739" y="80" width="58" height="281"/></clipPath><clipPath id="clip13"><rect x="739" y="137" width="58" height="281"/></clipPath><clipPath id="clip14"><rect x="739" y="194" width="58" height="281"/></clipPath><clipPath id="clip15"><rect x="739" y="250" width="58" height="281"/></clipPath><clipPath id="clip16"><rect x="739" y="307" width="58" height="281"/></clipPath><clipPath id="clip17"><rect x="739" y="364" width="58" height="281"/></clipPath><clipPath id="clip18"><rect x="739" y="421" width="58" height="281"/></clipPath></defs><g clip-path="url(#clip0)"><rect x="0" y="0" width="1280" height="720" fill="#FFFFFF"/><path d="M396.445 274.961 453.137 274.961 453.137 331.654 396.445 331.654Z" fill="#548235" fill-rule="evenodd"/><path d="M453.137 274.961 509.83 274.961 509.83 331.654 453.137 331.654Z" fill="#2E75B6" fill-rule="evenodd"/><path d="M509.83 274.961 566.523 274.961 566.523 331.654 509.83 331.654Z" fill="#C55A11" fill-rule="evenodd"/><path d="M396.445 331.654 453.137 331.654 453.137 388.346 396.445 388.346Z" fill="#A9D18E" fill-rule="evenodd"/><path d="M453.137 331.654 509.83 331.654 509.83 388.346 453.137 388.346Z" fill="#9DC3E6" fill-rule="evenodd"/><path d="M509.83 331.654 566.523 331.654 566.523 388.346 509.83 388.346Z" fill="#F4B183" fill-rule="evenodd"/><path d="M396.445 388.346 453.137 388.346 453.137 445.039 396.445 445.039Z" fill="#E2F0D9" fill-rule="evenodd"/><path d="M453.137 388.346 509.83 388.346 509.83 445.039 453.137 445.039Z" fill="#DEEBF7" fill-rule="evenodd"/><path d="M509.83 388.346 566.523 388.346 566.523 445.039 509.83 445.039Z" fill="#F8CBAD" fill-rule="evenodd"/><path d="M453.137 274.294 453.137 445.706" stroke="#000000" stroke-width="1.33333" stroke-linejoin="round" stroke-miterlimit="10" fill="none" fill-rule="evenodd"/><path d="M509.83 274.294 509.83 445.706" stroke="#000000" stroke-width="1.33333" stroke-linejoin="round" stroke-miterlimit="10" fill="none" fill-rule="evenodd"/><path d="M395.778 331.654 567.19 331.654" stroke="#000000" stroke-width="1.33333" stroke-linejoin="round" stroke-miterlimit="10" fill="none" fill-rule="evenodd"/><path d="M395.778 388.346 567.19 388.346" stroke="#000000" stroke-width="1.33333" stroke-linejoin="round" stroke-miterlimit="10" fill="none" fill-rule="evenodd"/><path d="M396.445 274.294 396.445 445.706" stroke="#000000" stroke-width="1.33333" stroke-linejoin="round" stroke-miterlimit="10" fill="none" fill-rule="evenodd"/><path d="M566.523 274.294 566.523 445.706" stroke="#000000" stroke-width="1.33333" stroke-linejoin="round" stroke-miterlimit="10" fill="none" fill-rule="evenodd"/><path d="M395.778 274.961 567.19 274.961" stroke="#000000" stroke-width="1.33333" stroke-linejoin="round" stroke-miterlimit="10" fill="none" fill-rule="evenodd"/><path d="M395.778 445.039 567.19 445.039" stroke="#000000" stroke-width="1.33333" stroke-linejoin="round" stroke-miterlimit="10" fill="none" fill-rule="evenodd"/><g clip-path="url(#clip1)"><text font-family="Malgun Gothic,Malgun Gothic_MSFontService,sans-serif" font-weight="400" font-size="33" transform="translate(415.624 316)">1</text></g><g clip-path="url(#clip2)"><text font-family="Malgun Gothic,Malgun Gothic_MSFontService,sans-serif" font-weight="400" font-size="33" transform="translate(472.317 316)">2</text></g><g clip-path="url(#clip3)"><text font-family="Malgun Gothic,Malgun Gothic_MSFontService,sans-serif" font-weight="400" font-size="33" transform="translate(529.01 316)">3</text></g><g clip-path="url(#clip4)"><text font-family="Malgun Gothic,Malgun Gothic_MSFontService,sans-serif" font-weight="400" font-size="33" transform="translate(415.624 373)">4</text></g><g clip-path="url(#clip5)"><text font-family="Malgun Gothic,Malgun Gothic_MSFontService,sans-serif" font-weight="400" font-size="33" transform="translate(472.317 373)">5</text></g><g clip-path="url(#clip6)"><text font-family="Malgun Gothic,Malgun Gothic_MSFontService,sans-serif" font-weight="400" font-size="33" transform="translate(529.01 373)">6</text></g><g clip-path="url(#clip7)"><text font-family="Malgun Gothic,Malgun Gothic_MSFontService,sans-serif" font-weight="400" font-size="33" transform="translate(415.624 430)">7</text></g><g clip-path="url(#clip8)"><text font-family="Malgun Gothic,Malgun Gothic_MSFontService,sans-serif" font-weight="400" font-size="33" transform="translate(472.317 430)">8</text></g><g clip-path="url(#clip9)"><text font-family="Malgun Gothic,Malgun Gothic_MSFontService,sans-serif" font-weight="400" font-size="33" transform="translate(529.01 430)">9</text></g><path d="M739.556 79.1111 796.249 79.1111 796.249 135.804 739.556 135.804Z" fill="#548235" fill-rule="evenodd"/><path d="M739.556 135.804 796.249 135.804 796.249 192.497 739.556 192.497Z" fill="#2E75B6" fill-rule="evenodd"/><path d="M739.556 192.497 796.249 192.497 796.249 249.19 739.556 249.19Z" fill="#C55A11" fill-rule="evenodd"/><path d="M739.556 249.19 796.249 249.19 796.249 305.883 739.556 305.883Z" fill="#A9D18E" fill-rule="evenodd"/><path d="M739.556 305.883 796.249 305.883 796.249 362.576 739.556 362.576Z" fill="#9DC3E6" fill-rule="evenodd"/><path d="M739.556 362.576 796.249 362.576 796.249 419.269 739.556 419.269Z" fill="#F4B183" fill-rule="evenodd"/><path d="M739.556 419.269 796.249 419.269 796.249 475.961 739.556 475.961Z" fill="#E2F0D9" fill-rule="evenodd"/><path d="M739.556 475.961 796.249 475.961 796.249 532.654 739.556 532.654Z" fill="#DEEBF7" fill-rule="evenodd"/><path d="M739.556 532.654 796.249 532.654 796.249 589.347 739.556 589.347Z" fill="#F8CBAD" fill-rule="evenodd"/><path d="M738.889 135.804 796.915 135.804" stroke="#000000" stroke-width="1.33333" stroke-linejoin="round" stroke-miterlimit="10" fill="none" fill-rule="evenodd"/><path d="M738.889 192.497 796.915 192.497" stroke="#000000" stroke-width="1.33333" stroke-linejoin="round" stroke-miterlimit="10" fill="none" fill-rule="evenodd"/><path d="M738.889 249.19 796.915 249.19" stroke="#000000" stroke-width="1.33333" stroke-linejoin="round" stroke-miterlimit="10" fill="none" fill-rule="evenodd"/><path d="M738.889 305.883 796.915 305.883" stroke="#000000" stroke-width="1.33333" stroke-linejoin="round" stroke-miterlimit="10" fill="none" fill-rule="evenodd"/><path d="M738.889 362.576 796.915 362.576" stroke="#000000" stroke-width="1.33333" stroke-linejoin="round" stroke-miterlimit="10" fill="none" fill-rule="evenodd"/><path d="M738.889 419.269 796.915 419.269" stroke="#000000" stroke-width="1.33333" stroke-linejoin="round" stroke-miterlimit="10" fill="none" fill-rule="evenodd"/><path d="M738.889 475.961 796.915 475.961" stroke="#000000" stroke-width="1.33333" stroke-linejoin="round" stroke-miterlimit="10" fill="none" fill-rule="evenodd"/><path d="M738.889 532.654 796.915 532.654" stroke="#000000" stroke-width="1.33333" stroke-linejoin="round" stroke-miterlimit="10" fill="none" fill-rule="evenodd"/><path d="M739.556 78.4444 739.556 590.014" stroke="#000000" stroke-width="1.33333" stroke-linejoin="round" stroke-miterlimit="10" fill="none" fill-rule="evenodd"/><path d="M796.249 78.4444 796.249 590.014" stroke="#000000" stroke-width="1.33333" stroke-linejoin="round" stroke-miterlimit="10" fill="none" fill-rule="evenodd"/><path d="M738.889 79.1111 796.915 79.1111" stroke="#000000" stroke-width="1.33333" stroke-linejoin="round" stroke-miterlimit="10" fill="none" fill-rule="evenodd"/><path d="M738.889 589.347 796.915 589.347" stroke="#000000" stroke-width="1.33333" stroke-linejoin="round" stroke-miterlimit="10" fill="none" fill-rule="evenodd"/><g clip-path="url(#clip10)"><text font-family="Malgun Gothic,Malgun Gothic_MSFontService,sans-serif" font-weight="400" font-size="33" transform="translate(758.735 120)">1</text></g><g clip-path="url(#clip11)"><text font-family="Malgun Gothic,Malgun Gothic_MSFontService,sans-serif" font-weight="400" font-size="33" transform="translate(758.735 177)">2</text></g><g clip-path="url(#clip12)"><text font-family="Malgun Gothic,Malgun Gothic_MSFontService,sans-serif" font-weight="400" font-size="33" transform="translate(758.735 234)">3</text></g><g clip-path="url(#clip13)"><text font-family="Malgun Gothic,Malgun Gothic_MSFontService,sans-serif" font-weight="400" font-size="33" transform="translate(758.735 291)">4</text></g><g clip-path="url(#clip14)"><text font-family="Malgun Gothic,Malgun Gothic_MSFontService,sans-serif" font-weight="400" font-size="33" transform="translate(758.735 347)">5</text></g><g clip-path="url(#clip15)"><text font-family="Malgun Gothic,Malgun Gothic_MSFontService,sans-serif" font-weight="400" font-size="33" transform="translate(758.735 404)">6</text></g><g clip-path="url(#clip16)"><text font-family="Malgun Gothic,Malgun Gothic_MSFontService,sans-serif" font-weight="400" font-size="33" transform="translate(758.735 461)">7</text></g><g clip-path="url(#clip17)"><text font-family="Malgun Gothic,Malgun Gothic_MSFontService,sans-serif" font-weight="400" font-size="33" transform="translate(758.735 517)">8</text></g><g clip-path="url(#clip18)"><text font-family="Malgun Gothic,Malgun Gothic_MSFontService,sans-serif" font-weight="400" font-size="33" transform="translate(758.735 574)">9</text></g><path d="M0.103834-2.9982 14.6467-2.49455 18.2859-2.11148 17.6578 3.85555 14.1234 3.48352 14.3337 3.4982-0.103834 2.9982ZM24.2529-1.48337 29.0947-0.97371 42.2275 1.24428 41.2283 7.16049 28.1879 4.95811 28.3734 4.98352 23.6248 4.48366ZM48.2704 2.59717 57.2793 4.72653 65.8246 7.30626 64.0906 13.0502 55.633 10.497 55.8099 10.5446 46.8903 8.43628ZM71.7288 9.16076 83.638 13.5975 88.6435 15.8396 86.1908 21.3154 81.2737 19.1129 81.4527 19.1862 69.6341 14.7833ZM94.1193 18.2923 95.8147 19.0517 107.249 25.0862 110.324 27.0132 107.139 32.0978 104.157 30.2298 104.35 30.3407 93.0997 24.4032 93.2736 24.4879 91.6666 23.7681ZM115.409 30.1987 117.82 31.7094 127.337 38.7988 130.168 41.3274 126.171 45.8025 123.439 43.3625 123.645 43.5308 114.333 36.5933 114.532 36.7298 112.223 35.2833ZM134.643 45.3242 135.734 46.2991 142.968 54.1791 146.717 59.5282 141.803 62.9716 138.168 57.7842 138.415 58.0913 131.415 50.4663 131.627 50.675 130.646 49.7992ZM150.107 64.7856 151.17 66.6253 153.151 70.9832 154.742 75.2915 155.882 79.7153 156.333 82.738 150.398 83.6237 149.97 80.7553 150.032 81.0608 148.97 76.9358 149.061 77.2266 147.561 73.1641 147.644 73.3664 145.769 69.2414 145.903 69.5015 144.913 67.7887ZM156.839 88.9762 157.057 92.5685 157.03 92.3071 157.655 96.4946 157.593 96.1892 158.655 100.314 158.564 100.023 160.064 104.086 159.981 103.884 160.634 105.319 155.171 107.802 154.474 106.267 152.883 101.959 151.743 97.5347 151.076 93.0628 150.85 89.3392ZM163.247 110.385 164.035 111.748 163.894 111.528 169.457 119.466 169.21 119.159 173.763 124.119 169.343 128.176 164.657 123.071 158.906 114.865 158.052 113.388ZM177.775 128.162 184.186 133.887 183.98 133.719 191.522 139.338 187.937 144.149 180.288 138.451 173.778 132.637ZM196.304 142.513 203.457 146.951 203.287 146.853 211.742 151.362 208.918 156.656 200.377 152.101 193.14 147.611ZM216.936 153.92 226.351 158.137 226.165 158.061 233.372 160.724 231.292 166.352 223.991 163.654 214.483 159.396ZM238.827 162.735 251.988 166.689 251.818 166.644 255.96 167.627 254.574 173.465 250.346 172.461 237.1 168.481ZM261.798 169.013 265.506 169.894 265.312 169.854 279.303 172.217 278.304 178.134 264.216 175.754 260.411 174.851ZM285.053 172.746 292.85 173.467 292.297 179.442 284.501 178.721ZM290.014 167.32 307.556 177.183 289.14 185.298Z" fill="#548235" transform="matrix(1 0 0 -1 432 275.183)"/><path d="M489.645 447.93 486.52 448.617 487.465 448.232 484.465 450.107 485.041 449.638 482.166 452.638 482.509 452.208 480.009 456.02 480.198 455.687 479.084 457.978 473.688 455.355 474.886 452.891 477.643 448.686 480.968 445.217 484.724 442.869 488.355 442.07ZM477.086 463.167 476.544 464.854 476.632 464.513 475.569 469.95 475.618 469.577 475.243 475.139 475.144 474.148 475.519 475.523 474.938 474.402 476.125 475.839 475.587 475.331 477.056 476.409 473.508 481.247 471.737 479.948 469.901 477.725 469.223 475.24 469.645 468.985 470.777 463.189 471.373 461.333ZM481.82 478.779 482.757 479.185 482.511 479.091 486.449 480.404 486.366 480.378 490.928 481.753 490.798 481.717 495.986 483.029 495.918 483.013 498.561 483.616 497.226 489.466 494.548 488.854 489.261 487.517 484.593 486.11 480.489 484.742 479.431 484.283ZM504.339 484.847 507.952 485.556 507.912 485.548 514.787 486.798 514.751 486.792 521.978 488.017 520.975 493.933 513.731 492.705 506.818 491.448 503.184 490.735ZM527.857 488.906 529.947 489.221 529.899 489.214 538.274 490.339 538.255 490.337 545.63 491.278 544.871 497.23 537.485 496.287 529.077 495.158 526.962 494.839ZM551.553 491.98 556.22 492.52 556.204 492.518 565.829 493.581 565.8 493.578 569.401 493.94 568.801 499.91 565.185 499.546 555.538 498.481 550.864 497.94ZM575.371 494.541 575.738 494.578 575.696 494.574 593.262 496.094 592.745 502.072 575.158 500.55 574.77 500.511ZM599.195 496.567 617.151 497.835 616.728 503.82 598.773 502.552ZM623.106 498.206 641.074 499.274 640.718 505.264 622.75 504.195ZM647.023 499.55 665.005 500.35 664.738 506.344 646.756 505.544ZM670.968 500.555 688.958 501.153 688.758 507.15 670.768 506.552ZM694.917 501.287 712.913 501.649 712.793 507.647 694.796 507.286ZM718.872 501.714 724.882 501.753 724.844 507.752 718.833 507.714ZM721.921 495.733 739.863 504.85 721.805 513.733Z" fill="#BDD7EE"/></g></svg>