<svg width="1280" height="720" xmlns="http://www.w3.org/2000/svg" xmlns:xlink="http://www.w3.org/1999/xlink" overflow="hidden"><defs><clipPath id="clip0"><rect x="0" y="0" width="1280" height="720"/></clipPath></defs><g clip-path="url(#clip0)"><rect x="0" y="0" width="1280" height="720" fill="#FFFFFF"/><path d="M1008.27 316.643 1056.93 316.643 1056.93 366.243 1008.27 366.243Z" fill="#00B0F0" fill-rule="evenodd"/><path d="M1056.93 316.643 1105.58 316.643 1105.58 366.243 1056.93 366.243Z" fill="#00B0F0" fill-rule="evenodd"/><path d="M1008.27 366.243 1056.93 366.243 1056.93 415.843 1008.27 415.843Z" fill="#00B0F0" fill-rule="evenodd"/><path d="M1056.93 366.243 1105.58 366.243 1105.58 415.843 1056.93 415.843Z" fill="#00B0F0" fill-rule="evenodd"/><path d="M1056.93 315.977 1056.93 416.51" stroke="#000000" stroke-width="1.33333" stroke-linejoin="round" stroke-miterlimit="10" fill="none" fill-rule="evenodd"/><path d="M1007.6 366.243 1106.25 366.243" stroke="#000000" stroke-width="1.33333" stroke-linejoin="round" stroke-miterlimit="10" fill="none" fill-rule="evenodd"/><path d="M1008.27 315.977 1008.27 416.51" stroke="#000000" stroke-width="1.33333" stroke-linejoin="round" stroke-miterlimit="10" fill="none" fill-rule="evenodd"/><path d="M1105.58 315.977 1105.58 416.51" stroke="#000000" stroke-width="1.33333" stroke-linejoin="round" stroke-miterlimit="10" fill="none" fill-rule="evenodd"/><path d="M1007.6 316.643 1106.25 316.643" stroke="#000000" stroke-width="1.33333" stroke-linejoin="round" stroke-miterlimit="10" fill="none" fill-rule="evenodd"/><path d="M1007.6 415.843 1106.25 415.843" stroke="#000000" stroke-width="1.33333" stroke-linejoin="round" stroke-miterlimit="10" fill="none" fill-rule="evenodd"/><path d="M988.075 335.405 1036.73 335.405 1036.73 385.005 988.075 385.005Z" fill="#FFC000" fill-rule="evenodd"/><path d="M1036.73 335.405 1085.39 335.405 1085.39 385.005 1036.73 385.005Z" fill="#FFC000" fill-rule="evenodd"/><path d="M988.075 385.005 1036.73 385.005 1036.73 434.605 988.075 434.605Z" fill="#FFC000" fill-rule="evenodd"/><path d="M1036.73 385.005 1085.39 385.005 1085.39 434.605 1036.73 434.605Z" fill="#FFC000" fill-rule="evenodd"/><path d="M1036.73 334.738 1036.73 435.272" stroke="#000000" stroke-width="1.33333" stroke-linejoin="round" stroke-miterlimit="10" fill="none" fill-rule="evenodd"/><path d="M987.408 385.005 1086.05 385.005" stroke="#000000" stroke-width="1.33333" stroke-linejoin="round" stroke-miterlimit="10" fill="none" fill-rule="evenodd"/><path d="M988.075 334.738 988.075 435.272" stroke="#000000" stroke-width="1.33333" stroke-linejoin="round" stroke-miterlimit="10" fill="none" fill-rule="evenodd"/><path d="M1085.39 334.738 1085.39 435.272" stroke="#000000" stroke-width="1.33333" stroke-linejoin="round" stroke-miterlimit="10" fill="none" fill-rule="evenodd"/><path d="M987.408 335.405 1086.05 335.405" stroke="#000000" stroke-width="1.33333" stroke-linejoin="round" stroke-miterlimit="10" fill="none" fill-rule="evenodd"/><path d="M987.408 434.605 1086.05 434.605" stroke="#000000" stroke-width="1.33333" stroke-linejoin="round" stroke-miterlimit="10" fill="none" fill-rule="evenodd"/><path d="M968.713 354.846 1017.37 354.846 1017.37 404.447 968.713 404.447Z" fill="#EA94C7" fill-rule="evenodd"/><path d="M1017.37 354.846 1066.02 354.846 1066.02 404.447 1017.37 404.447Z" fill="#EA94C7" fill-rule="evenodd"/><path d="M968.713 404.447 1017.37 404.447 1017.37 454.047 968.713 454.047Z" fill="#EA94C7" fill-rule="evenodd"/><path d="M1017.37 404.447 1066.02 404.447 1066.02 454.047 1017.37 454.047Z" fill="#EA94C7" fill-rule="evenodd"/><path d="M1017.37 354.18 1017.37 454.713" stroke="#000000" stroke-width="1.33333" stroke-linejoin="round" stroke-miterlimit="10" fill="none" fill-rule="evenodd"/><path d="M968.046 404.447 1066.69 404.447" stroke="#000000" stroke-width="1.33333" stroke-linejoin="round" stroke-miterlimit="10" fill="none" fill-rule="evenodd"/><path d="M968.713 354.18 968.713 454.713" stroke="#000000" stroke-width="1.33333" stroke-linejoin="round" stroke-miterlimit="10" fill="none" fill-rule="evenodd"/><path d="M1066.02 354.18 1066.02 454.713" stroke="#000000" stroke-width="1.33333" stroke-linejoin="round" stroke-miterlimit="10" fill="none" fill-rule="evenodd"/><path d="M968.046 354.846 1066.69 354.846" stroke="#000000" stroke-width="1.33333" stroke-linejoin="round" stroke-miterlimit="10" fill="none" fill-rule="evenodd"/><path d="M968.046 454.047 1066.69 454.047" stroke="#000000" stroke-width="1.33333" stroke-linejoin="round" stroke-miterlimit="10" fill="none" fill-rule="evenodd"/><path d="M218.764 274.961 275.457 274.961 275.457 331.654 218.764 331.654Z" fill="#9DC3E6" fill-rule="evenodd"/><path d="M275.457 274.961 332.15 274.961 332.15 331.654 275.457 331.654Z" fill="#9DC3E6" fill-rule="evenodd"/><path d="M332.15 274.961 388.843 274.961 388.843 331.654 332.15 331.654Z" fill="#9DC3E6" fill-rule="evenodd"/><path d="M218.764 331.654 275.457 331.654 275.457 388.346 218.764 388.346Z" fill="#9DC3E6" fill-rule="evenodd"/><path d="M275.457 331.654 332.15 331.654 332.15 388.346 275.457 388.346Z" fill="#9DC3E6" fill-rule="evenodd"/><path d="M332.15 331.654 388.843 331.654 388.843 388.346 332.15 388.346Z" fill="#9DC3E6" fill-rule="evenodd"/><path d="M218.764 388.346 275.457 388.346 275.457 445.039 218.764 445.039Z" fill="#9DC3E6" fill-rule="evenodd"/><path d="M275.457 388.346 332.15 388.346 332.15 445.039 275.457 445.039Z" fill="#9DC3E6" fill-rule="evenodd"/><path d="M332.15 388.346 388.843 388.346 388.843 445.039 332.15 445.039Z" fill="#9DC3E6" fill-rule="evenodd"/><path d="M275.457 274.294 275.457 445.706" stroke="#000000" stroke-width="1.33333" stroke-linejoin="round" stroke-miterlimit="10" fill="none" fill-rule="evenodd"/><path d="M332.15 274.294 332.15 445.706" stroke="#000000" stroke-width="1.33333" stroke-linejoin="round" stroke-miterlimit="10" fill="none" fill-rule="evenodd"/><path d="M218.097 331.654 389.509 331.654" stroke="#000000" stroke-width="1.33333" stroke-linejoin="round" stroke-miterlimit="10" fill="none" fill-rule="evenodd"/><path d="M218.097 388.346 389.509 388.346" stroke="#000000" stroke-width="1.33333" stroke-linejoin="round" stroke-miterlimit="10" fill="none" fill-rule="evenodd"/><path d="M218.764 274.294 218.764 445.706" stroke="#000000" stroke-width="1.33333" stroke-linejoin="round" stroke-miterlimit="10" fill="none" fill-rule="evenodd"/><path d="M388.843 274.294 388.843 445.706" stroke="#000000" stroke-width="1.33333" stroke-linejoin="round" stroke-miterlimit="10" fill="none" fill-rule="evenodd"/><path d="M218.097 274.961 389.509 274.961" stroke="#000000" stroke-width="1.33333" stroke-linejoin="round" stroke-miterlimit="10" fill="none" fill-rule="evenodd"/><path d="M218.097 445.039 389.509 445.039" stroke="#000000" stroke-width="1.33333" stroke-linejoin="round" stroke-miterlimit="10" fill="none" fill-rule="evenodd"/><path d="M186.764 305.183 243.457 305.183 243.457 361.876 186.764 361.876Z" fill="#A9D18E" fill-rule="evenodd"/><path d="M243.457 305.183 300.15 305.183 300.15 361.876 243.457 361.876Z" fill="#A9D18E" fill-rule="evenodd"/><path d="M300.15 305.183 356.843 305.183 356.843 361.876 300.15 361.876Z" fill="#A9D18E" fill-rule="evenodd"/><path d="M186.764 361.876 243.457 361.876 243.457 418.569 186.764 418.569Z" fill="#A9D18E" fill-rule="evenodd"/><path d="M243.457 361.876 300.15 361.876 300.15 418.569 243.457 418.569Z" fill="#A9D18E" fill-rule="evenodd"/><path d="M300.15 361.876 356.843 361.876 356.843 418.569 300.15 418.569Z" fill="#A9D18E" fill-rule="evenodd"/><path d="M186.764 418.569 243.457 418.569 243.457 475.262 186.764 475.262Z" fill="#A9D18E" fill-rule="evenodd"/><path d="M243.457 418.569 300.15 418.569 300.15 475.262 243.457 475.262Z" fill="#A9D18E" fill-rule="evenodd"/><path d="M300.15 418.569 356.843 418.569 356.843 475.262 300.15 475.262Z" fill="#A9D18E" fill-rule="evenodd"/><path d="M243.457 304.516 243.457 475.928" stroke="#000000" stroke-width="1.33333" stroke-linejoin="round" stroke-miterlimit="10" fill="none" fill-rule="evenodd"/><path d="M300.15 304.516 300.15 475.928" stroke="#000000" stroke-width="1.33333" stroke-linejoin="round" stroke-miterlimit="10" fill="none" fill-rule="evenodd"/><path d="M186.097 361.876 357.51 361.876" stroke="#000000" stroke-width="1.33333" stroke-linejoin="round" stroke-miterlimit="10" fill="none" fill-rule="evenodd"/><path d="M186.097 418.569 357.51 418.569" stroke="#000000" stroke-width="1.33333" stroke-linejoin="round" stroke-miterlimit="10" fill="none" fill-rule="evenodd"/><path d="M186.764 304.516 186.764 475.928" stroke="#000000" stroke-width="1.33333" stroke-linejoin="round" stroke-miterlimit="10" fill="none" fill-rule="evenodd"/><path d="M356.843 304.516 356.843 475.928" stroke="#000000" stroke-width="1.33333" stroke-linejoin="round" stroke-miterlimit="10" fill="none" fill-rule="evenodd"/><path d="M186.097 305.183 357.51 305.183" stroke="#000000" stroke-width="1.33333" stroke-linejoin="round" stroke-miterlimit="10" fill="none" fill-rule="evenodd"/><path d="M186.097 475.262 357.51 475.262" stroke="#000000" stroke-width="1.33333" stroke-linejoin="round" stroke-miterlimit="10" fill="none" fill-rule="evenodd"/><path d="M154.764 335.405 211.457 335.405 211.457 392.098 154.764 392.098Z" fill="#F4B183" fill-rule="evenodd"/><path d="M211.457 335.405 268.15 335.405 268.15 392.098 211.457 392.098Z" fill="#F4B183" fill-rule="evenodd"/><path d="M268.15 335.405 324.843 335.405 324.843 392.098 268.15 392.098Z" fill="#F4B183" fill-rule="evenodd"/><path d="M154.764 392.098 211.457 392.098 211.457 448.791 154.764 448.791Z" fill="#F4B183" fill-rule="evenodd"/><path d="M211.457 392.098 268.15 392.098 268.15 448.791 211.457 448.791Z" fill="#F4B183" fill-rule="evenodd"/><path d="M268.15 392.098 324.843 392.098 324.843 448.791 268.15 448.791Z" fill="#F4B183" fill-rule="evenodd"/><path d="M154.764 448.791 211.457 448.791 211.457 505.484 154.764 505.484Z" fill="#F4B183" fill-rule="evenodd"/><path d="M211.457 448.791 268.15 448.791 268.15 505.484 211.457 505.484Z" fill="#F4B183" fill-rule="evenodd"/><path d="M268.15 448.791 324.843 448.791 324.843 505.484 268.15 505.484Z" fill="#F4B183" fill-rule="evenodd"/><path d="M211.457 334.738 211.457 506.151" stroke="#000000" stroke-width="1.33333" stroke-linejoin="round" stroke-miterlimit="10" fill="none" fill-rule="evenodd"/><path d="M268.15 334.738 268.15 506.151" stroke="#000000" stroke-width="1.33333" stroke-linejoin="round" stroke-miterlimit="10" fill="none" fill-rule="evenodd"/><path d="M154.098 392.098 325.51 392.098" stroke="#000000" stroke-width="1.33333" stroke-linejoin="round" stroke-miterlimit="10" fill="none" fill-rule="evenodd"/><path d="M154.098 448.791 325.51 448.791" stroke="#000000" stroke-width="1.33333" stroke-linejoin="round" stroke-miterlimit="10" fill="none" fill-rule="evenodd"/><path d="M154.764 334.738 154.764 506.151" stroke="#000000" stroke-width="1.33333" stroke-linejoin="round" stroke-miterlimit="10" fill="none" fill-rule="evenodd"/><path d="M324.843 334.738 324.843 506.151" stroke="#000000" stroke-width="1.33333" stroke-linejoin="round" stroke-miterlimit="10" fill="none" fill-rule="evenodd"/><path d="M154.098 335.405 325.51 335.405" stroke="#000000" stroke-width="1.33333" stroke-linejoin="round" stroke-miterlimit="10" fill="none" fill-rule="evenodd"/><path d="M154.098 505.484 325.51 505.484" stroke="#000000" stroke-width="1.33333" stroke-linejoin="round" stroke-miterlimit="10" fill="none" fill-rule="evenodd"/><text font-family="KoPubWorldDotum Bold,KoPubWorldDotum Bold_MSFontService,sans-serif" font-weight="700" font-size="43" transform="translate(372.081 46)">Kerne</text><text font-family="KoPubWorldDotum Bold,KoPubWorldDotum Bold_MSFontService,sans-serif" font-weight="700" font-size="43" transform="translate(483.727 46)">l</text><path d="M556.836 29.984 605.491 29.984 605.491 79.584 556.836 79.584Z" fill="#BFBFBF" fill-rule="evenodd"/><path d="M605.491 29.984 654.147 29.984 654.147 79.584 605.491 79.584Z" fill="#BFBFBF" fill-rule="evenodd"/><path d="M556.836 79.584 605.491 79.584 605.491 129.184 556.836 129.184Z" fill="#BFBFBF" fill-rule="evenodd"/><path d="M605.491 79.584 654.147 79.584 654.147 129.184 605.491 129.184Z" fill="#BFBFBF" fill-rule="evenodd"/><path d="M605.491 29.3174 605.491 129.851" stroke="#000000" stroke-width="1.33333" stroke-linejoin="round" stroke-miterlimit="10" fill="none" fill-rule="evenodd"/><path d="M556.169 79.584 654.814 79.584" stroke="#000000" stroke-width="1.33333" stroke-linejoin="round" stroke-miterlimit="10" fill="none" fill-rule="evenodd"/><path d="M556.836 29.3174 556.836 129.851" stroke="#000000" stroke-width="1.33333" stroke-linejoin="round" stroke-miterlimit="10" fill="none" fill-rule="evenodd"/><path d="M654.147 29.3174 654.147 129.851" stroke="#000000" stroke-width="1.33333" stroke-linejoin="round" stroke-miterlimit="10" fill="none" fill-rule="evenodd"/><path d="M556.169 29.984 654.814 29.984" stroke="#000000" stroke-width="1.33333" stroke-linejoin="round" stroke-miterlimit="10" fill="none" fill-rule="evenodd"/><path d="M556.169 129.184 654.814 129.184" stroke="#000000" stroke-width="1.33333" stroke-linejoin="round" stroke-miterlimit="10" fill="none" fill-rule="evenodd"/><path d="M540.836 45.984 589.492 45.984 589.492 95.584 540.836 95.584Z" fill="#BFBFBF" fill-rule="evenodd"/><path d="M589.492 45.984 638.147 45.984 638.147 95.584 589.492 95.584Z" fill="#BFBFBF" fill-rule="evenodd"/><path d="M540.836 95.584 589.492 95.584 589.492 145.184 540.836 145.184Z" fill="#BFBFBF" fill-rule="evenodd"/><path d="M589.492 95.584 638.147 95.584 638.147 145.184 589.492 145.184Z" fill="#BFBFBF" fill-rule="evenodd"/><path d="M589.492 45.3174 589.492 145.851" stroke="#000000" stroke-width="1.33333" stroke-linejoin="round" stroke-miterlimit="10" fill="none" fill-rule="evenodd"/><path d="M540.169 95.584 638.814 95.584" stroke="#000000" stroke-width="1.33333" stroke-linejoin="round" stroke-miterlimit="10" fill="none" fill-rule="evenodd"/><path d="M540.836 45.3174 540.836 145.851" stroke="#000000" stroke-width="1.33333" stroke-linejoin="round" stroke-miterlimit="10" fill="none" fill-rule="evenodd"/><path d="M638.147 45.3174 638.147 145.851" stroke="#000000" stroke-width="1.33333" stroke-linejoin="round" stroke-miterlimit="10" fill="none" fill-rule="evenodd"/><path d="M540.169 45.984 638.814 45.984" stroke="#000000" stroke-width="1.33333" stroke-linejoin="round" stroke-miterlimit="10" fill="none" fill-rule="evenodd"/><path d="M540.169 145.184 638.814 145.184" stroke="#000000" stroke-width="1.33333" stroke-linejoin="round" stroke-miterlimit="10" fill="none" fill-rule="evenodd"/><path d="M523.058 61.984 571.714 61.984 571.714 111.584 523.058 111.584Z" fill="#BFBFBF" fill-rule="evenodd"/><path d="M571.714 61.984 620.37 61.984 620.37 111.584 571.714 111.584Z" fill="#BFBFBF" fill-rule="evenodd"/><path d="M523.058 111.584 571.714 111.584 571.714 161.184 523.058 161.184Z" fill="#BFBFBF" fill-rule="evenodd"/><path d="M571.714 111.584 620.37 111.584 620.37 161.184 571.714 161.184Z" fill="#BFBFBF" fill-rule="evenodd"/><path d="M571.714 61.3174 571.714 161.851" stroke="#000000" stroke-width="1.33333" stroke-linejoin="round" stroke-miterlimit="10" fill="none" fill-rule="evenodd"/><path d="M522.391 111.584 621.036 111.584" stroke="#000000" stroke-width="1.33333" stroke-linejoin="round" stroke-miterlimit="10" fill="none" fill-rule="evenodd"/><path d="M523.058 61.3174 523.058 161.851" stroke="#000000" stroke-width="1.33333" stroke-linejoin="round" stroke-miterlimit="10" fill="none" fill-rule="evenodd"/><path d="M620.37 61.3174 620.37 161.851" stroke="#000000" stroke-width="1.33333" stroke-linejoin="round" stroke-miterlimit="10" fill="none" fill-rule="evenodd"/><path d="M522.391 61.984 621.036 61.984" stroke="#000000" stroke-width="1.33333" stroke-linejoin="round" stroke-miterlimit="10" fill="none" fill-rule="evenodd"/><path d="M522.391 161.184 621.036 161.184" stroke="#000000" stroke-width="1.33333" stroke-linejoin="round" stroke-miterlimit="10" fill="none" fill-rule="evenodd"/><text font-family="KoPubWorldDotum Bold,KoPubWorldDotum Bold_MSFontService,sans-serif" font-weight="700" font-size="43" transform="translate(964.651 219)">Feature</text><text font-family="KoPubWorldDotum Bold,KoPubWorldDotum Bold_MSFontService,sans-serif" font-weight="700" font-size="43" transform="translate(995.311 270)">Ma</text><text font-family="KoPubWorldDotum Bold,KoPubWorldDotum Bold_MSFontService,sans-serif" font-weight="700" font-size="43" transform="translate(1054.14 270)">p</text><path d="M193.742 547.837C196.629 547.017 199.683 544.791 199.683 541.434 199.683 538.428 196.503 536.008 190.604 536.008 185.625 536.008 182.361 538.506 182.361 541.629 182.361 543.308 183.658 544.362 185.248 544.362 187.131 544.362 188.177 543.113 188.177 541.668 188.177 539.404 185.918 538.975 185.75 538.936 187.215 537.843 189.056 537.53 190.353 537.53 193.826 537.53 193.951 540.029 193.951 541.317 193.951 541.825 193.909 546.939 189.558 547.173 187.842 547.251 187.759 547.29 187.549 547.329 187.131 547.368 187.047 547.758 187.047 547.993 187.047 548.695 187.466 548.695 188.219 548.695L190.06 548.695C194.62 548.695 194.62 552.521 194.62 554.512 194.62 556.347 194.62 560.329 190.269 560.329 189.181 560.329 187.005 560.173 184.997 559.002 186.378 558.65 187.424 557.674 187.424 556.074 187.424 554.317 186.085 553.107 184.244 553.107 182.487 553.107 181.022 554.161 181.022 556.152 181.022 559.665 185.081 562.008 190.478 562.008 197.968 562.008 201.022 558.104 201.022 554.551 201.022 552.404 199.809 549.047 193.742 547.837Z" fill-rule="evenodd"/><path d="M229.774 551.988 220.64 560.725C220.311 561.04 220.023 561.355 220.023 561.788 220.023 562.457 220.599 563.008 221.298 563.008 221.792 563.008 222.039 562.772 222.491 562.339L231.543 553.72 241.007 562.772C241.13 562.85 241.295 563.008 241.788 563.008 242.364 563.008 243.023 562.536 243.023 561.788 243.023 561.591 242.94 561.355 242.858 561.197 242.652 560.961 241.418 559.781 240.677 559.072L233.312 552.027C235.411 549.981 242.488 543.29 242.693 543.054 242.899 542.779 243.023 542.543 243.023 542.228 243.023 541.48 242.364 541.008 241.788 541.008 241.295 541.008 241.089 541.205 240.677 541.598L231.543 550.296C229.404 548.289 222.409 541.519 222.162 541.323 221.874 541.126 221.627 541.008 221.298 541.008 220.599 541.008 220.023 541.559 220.023 542.228 220.023 542.661 220.228 542.857 220.64 543.251L229.774 551.988Z" fill-rule="evenodd"/><path d="M274.744 547.837C277.631 547.017 280.685 544.791 280.685 541.434 280.685 538.428 277.505 536.008 271.606 536.008 266.627 536.008 263.363 538.506 263.363 541.629 263.363 543.308 264.66 544.362 266.25 544.362 268.133 544.362 269.179 543.113 269.179 541.668 269.179 539.404 266.92 538.975 266.752 538.936 268.217 537.843 270.058 537.53 271.355 537.53 274.828 537.53 274.953 540.029 274.953 541.317 274.953 541.825 274.911 546.939 270.56 547.173 268.844 547.251 268.761 547.29 268.551 547.329 268.133 547.368 268.049 547.758 268.049 547.993 268.049 548.695 268.468 548.695 269.221 548.695L271.062 548.695C275.622 548.695 275.622 552.521 275.622 554.512 275.622 556.347 275.622 560.329 271.271 560.329 270.183 560.329 268.007 560.173 265.999 559.002 267.38 558.65 268.426 557.674 268.426 556.074 268.426 554.317 267.087 553.107 265.246 553.107 263.489 553.107 262.024 554.161 262.024 556.152 262.024 559.665 266.083 562.008 271.48 562.008 278.97 562.008 282.024 558.104 282.024 554.551 282.024 552.404 280.811 549.047 274.744 547.837Z" fill-rule="evenodd"/><path d="M310.201 551.988 300.67 560.725C300.326 561.04 300.026 561.355 300.026 561.788 300.026 562.457 300.627 563.008 301.357 563.008 301.872 563.008 302.129 562.772 302.602 562.339L312.047 553.72 321.922 562.772C322.051 562.85 322.223 563.008 322.738 563.008 323.339 563.008 324.026 562.536 324.026 561.788 324.026 561.591 323.94 561.355 323.854 561.197 323.639 560.961 322.351 559.781 321.578 559.072L313.893 552.027C316.083 549.981 323.468 543.29 323.682 543.054 323.897 542.779 324.026 542.543 324.026 542.228 324.026 541.48 323.339 541.008 322.738 541.008 322.223 541.008 322.008 541.205 321.578 541.598L312.047 550.296C309.815 548.289 302.516 541.519 302.258 541.323 301.958 541.126 301.7 541.008 301.357 541.008 300.627 541.008 300.026 541.559 300.026 542.228 300.026 542.661 300.24 542.857 300.67 543.251L310.201 551.988Z" fill-rule="evenodd"/><path d="M354.746 547.837C357.633 547.017 360.687 544.791 360.687 541.434 360.687 538.428 357.507 536.008 351.608 536.008 346.629 536.008 343.365 538.506 343.365 541.629 343.365 543.308 344.662 544.362 346.252 544.362 348.135 544.362 349.181 543.113 349.181 541.668 349.181 539.404 346.922 538.975 346.754 538.936 348.219 537.843 350.06 537.53 351.357 537.53 354.829 537.53 354.955 540.029 354.955 541.317 354.955 541.825 354.913 546.939 350.562 547.173 348.846 547.251 348.763 547.29 348.553 547.329 348.135 547.368 348.051 547.758 348.051 547.993 348.051 548.695 348.47 548.695 349.223 548.695L351.064 548.695C355.624 548.695 355.624 552.521 355.624 554.512 355.624 556.347 355.624 560.329 351.273 560.329 350.185 560.329 348.009 560.173 346.001 559.002 347.382 558.65 348.428 557.674 348.428 556.074 348.428 554.317 347.089 553.107 345.248 553.107 343.491 553.107 342.026 554.161 342.026 556.152 342.026 559.665 346.085 562.008 351.482 562.008 358.972 562.008 362.026 558.104 362.026 554.551 362.026 552.404 360.813 549.047 354.746 547.837Z" fill-rule="evenodd"/><text font-family="KoPubWorldDotum Bold,KoPubWorldDotum Bold_MSFontService,sans-serif" font-weight="700" font-size="43" transform="translate(238.777 190)">RGB</text><text font-family="KoPubWorldDotum Bold,KoPubWorldDotum Bold_MSFontService,sans-serif" font-weight="700" font-size="43" transform="translate(223.097 241)">image</text><path d="M534.018 179.923 532.997 179.923C532.932 180.381 532.736 181.847 532.432 182.007 532.192 182.145 530.562 182.145 530.214 182.145L527.018 182.145C528.04 181.251 529.171 180.267 530.149 179.511 532.627 177.587 534.018 176.511 534.018 174.335 534.018 171.702 531.758 170.007 528.692 170.007 526.062 170.007 524.018 171.427 524.018 173.488 524.018 174.839 525.062 175.183 525.584 175.183 526.279 175.183 527.149 174.679 527.149 173.534 527.149 172.343 526.236 171.977 525.91 171.885 526.54 171.335 527.366 171.084 528.149 171.084 530.018 171.084 531.018 172.641 531.018 174.358 531.018 175.939 530.192 177.496 528.671 179.122L524.301 183.816C524.018 184.091 524.018 184.137 524.018 184.595L524.018 185.007 533.345 185.007 534.018 179.923Z" fill-rule="evenodd"/><path d="M549.532 178.996 544.369 183.762C544.183 183.934 544.02 184.105 544.02 184.341 544.02 184.706 544.346 185.007 544.741 185.007 545.02 185.007 545.16 184.878 545.416 184.642L550.532 179.941 555.881 184.878C555.951 184.921 556.044 185.007 556.323 185.007 556.648 185.007 557.02 184.749 557.02 184.341 557.02 184.234 556.974 184.105 556.927 184.019 556.811 183.891 556.113 183.247 555.695 182.86L551.532 179.018C552.718 177.901 556.718 174.252 556.834 174.123 556.951 173.973 557.02 173.844 557.02 173.672 557.02 173.264 556.648 173.007 556.323 173.007 556.044 173.007 555.927 173.114 555.695 173.329L550.532 178.073C549.323 176.978 545.369 173.286 545.23 173.179 545.067 173.071 544.927 173.007 544.741 173.007 544.346 173.007 544.02 173.307 544.02 173.672 544.02 173.908 544.137 174.016 544.369 174.23L549.532 178.996Z" fill-rule="evenodd"/><path d="M577.02 179.923 575.998 179.923C575.933 180.381 575.737 181.847 575.433 182.007 575.194 182.145 573.564 182.145 573.216 182.145L570.02 182.145C571.042 181.251 572.172 180.267 573.151 179.511 575.629 177.587 577.02 176.511 577.02 174.335 577.02 171.702 574.759 170.007 571.694 170.007 569.064 170.007 567.02 171.427 567.02 173.488 567.02 174.839 568.064 175.183 568.585 175.183 569.281 175.183 570.151 174.679 570.151 173.534 570.151 172.343 569.237 171.977 568.911 171.885 569.542 171.335 570.368 171.084 571.151 171.084 573.02 171.084 574.02 172.641 574.02 174.358 574.02 175.939 573.194 177.496 571.672 179.122L567.303 183.816C567.02 184.091 567.02 184.137 567.02 184.595L567.02 185.007 576.346 185.007 577.02 179.923Z" fill-rule="evenodd"/><path d="M592.534 178.996 587.371 183.762C587.185 183.934 587.022 184.105 587.022 184.341 587.022 184.706 587.348 185.007 587.743 185.007 588.022 185.007 588.162 184.878 588.418 184.642L593.534 179.941 598.883 184.878C598.952 184.921 599.045 185.007 599.325 185.007 599.65 185.007 600.022 184.749 600.022 184.341 600.022 184.234 599.976 184.105 599.929 184.019 599.813 183.891 599.115 183.247 598.697 182.86L594.534 179.018C595.72 177.901 599.72 174.252 599.836 174.123 599.952 173.973 600.022 173.844 600.022 173.672 600.022 173.264 599.65 173.007 599.325 173.007 599.045 173.007 598.929 173.114 598.697 173.329L593.534 178.073C592.325 176.978 588.371 173.286 588.232 173.179 588.069 173.071 587.929 173.007 587.743 173.007 587.348 173.007 587.022 173.307 587.022 173.672 587.022 173.908 587.138 174.016 587.371 174.23L592.534 178.996Z" fill-rule="evenodd"/><path d="M616.381 176.831C617.824 176.358 619.352 175.075 619.352 173.138 619.352 171.403 617.762 170.007 614.812 170.007 612.322 170.007 610.69 171.449 610.69 173.25 610.69 174.219 611.339 174.827 612.134 174.827 613.075 174.827 613.598 174.106 613.598 173.273 613.598 171.967 612.469 171.719 612.385 171.696 613.117 171.066 614.038 170.885 614.686 170.885 616.423 170.885 616.485 172.327 616.485 173.07 616.485 173.363 616.464 176.313 614.289 176.449 613.431 176.494 613.389 176.516 613.284 176.539 613.075 176.561 613.033 176.786 613.033 176.922 613.033 177.327 613.243 177.327 613.619 177.327L614.54 177.327C616.82 177.327 616.82 179.534 616.82 180.683 616.82 181.741 616.82 184.039 614.644 184.039 614.1 184.039 613.013 183.949 612.008 183.273 612.699 183.07 613.222 182.507 613.222 181.584 613.222 180.57 612.552 179.872 611.632 179.872 610.753 179.872 610.021 180.48 610.021 181.629 610.021 183.656 612.05 185.007 614.749 185.007 618.494 185.007 620.021 182.755 620.021 180.705 620.021 179.467 619.414 177.53 616.381 176.831Z" fill-rule="evenodd"/><path d="M556.836 201.443 605.491 201.443 605.491 251.043 556.836 251.043Z" fill="#EA94C7" fill-rule="evenodd"/><path d="M605.491 201.443 654.147 201.443 654.147 251.043 605.491 251.043Z" fill="#EA94C7" fill-rule="evenodd"/><path d="M556.836 251.043 605.491 251.043 605.491 300.643 556.836 300.643Z" fill="#EA94C7" fill-rule="evenodd"/><path d="M605.491 251.043 654.147 251.043 654.147 300.643 605.491 300.643Z" fill="#EA94C7" fill-rule="evenodd"/><path d="M605.491 200.777 605.491 301.31" stroke="#000000" stroke-width="1.33333" stroke-linejoin="round" stroke-miterlimit="10" fill="none" fill-rule="evenodd"/><path d="M556.169 251.043 654.814 251.043" stroke="#000000" stroke-width="1.33333" stroke-linejoin="round" stroke-miterlimit="10" fill="none" fill-rule="evenodd"/><path d="M556.836 200.777 556.836 301.31" stroke="#000000" stroke-width="1.33333" stroke-linejoin="round" stroke-miterlimit="10" fill="none" fill-rule="evenodd"/><path d="M654.147 200.777 654.147 301.31" stroke="#000000" stroke-width="1.33333" stroke-linejoin="round" stroke-miterlimit="10" fill="none" fill-rule="evenodd"/><path d="M556.169 201.443 654.814 201.443" stroke="#000000" stroke-width="1.33333" stroke-linejoin="round" stroke-miterlimit="10" fill="none" fill-rule="evenodd"/><path d="M556.169 300.643 654.814 300.643" stroke="#000000" stroke-width="1.33333" stroke-linejoin="round" stroke-miterlimit="10" fill="none" fill-rule="evenodd"/><path d="M540.836 217.443 589.492 217.443 589.492 267.043 540.836 267.043Z" fill="#EA94C7" fill-rule="evenodd"/><path d="M589.492 217.443 638.147 217.443 638.147 267.043 589.492 267.043Z" fill="#EA94C7" fill-rule="evenodd"/><path d="M540.836 267.043 589.492 267.043 589.492 316.643 540.836 316.643Z" fill="#EA94C7" fill-rule="evenodd"/><path d="M589.492 267.043 638.147 267.043 638.147 316.643 589.492 316.643Z" fill="#EA94C7" fill-rule="evenodd"/><path d="M589.492 216.777 589.492 317.31" stroke="#000000" stroke-width="1.33333" stroke-linejoin="round" stroke-miterlimit="10" fill="none" fill-rule="evenodd"/><path d="M540.169 267.043 638.814 267.043" stroke="#000000" stroke-width="1.33333" stroke-linejoin="round" stroke-miterlimit="10" fill="none" fill-rule="evenodd"/><path d="M540.836 216.777 540.836 317.31" stroke="#000000" stroke-width="1.33333" stroke-linejoin="round" stroke-miterlimit="10" fill="none" fill-rule="evenodd"/><path d="M638.147 216.777 638.147 317.31" stroke="#000000" stroke-width="1.33333" stroke-linejoin="round" stroke-miterlimit="10" fill="none" fill-rule="evenodd"/><path d="M540.169 217.443 638.814 217.443" stroke="#000000" stroke-width="1.33333" stroke-linejoin="round" stroke-miterlimit="10" fill="none" fill-rule="evenodd"/><path d="M540.169 316.643 638.814 316.643" stroke="#000000" stroke-width="1.33333" stroke-linejoin="round" stroke-miterlimit="10" fill="none" fill-rule="evenodd"/><path d="M523.058 233.443 571.714 233.443 571.714 283.043 523.058 283.043Z" fill="#EA94C7" fill-rule="evenodd"/><path d="M571.714 233.443 620.37 233.443 620.37 283.043 571.714 283.043Z" fill="#EA94C7" fill-rule="evenodd"/><path d="M523.058 283.043 571.714 283.043 571.714 332.643 523.058 332.643Z" fill="#EA94C7" fill-rule="evenodd"/><path d="M571.714 283.043 620.37 283.043 620.37 332.643 571.714 332.643Z" fill="#EA94C7" fill-rule="evenodd"/><path d="M571.714 232.777 571.714 333.31" stroke="#000000" stroke-width="1.33333" stroke-linejoin="round" stroke-miterlimit="10" fill="none" fill-rule="evenodd"/><path d="M522.391 283.043 621.036 283.043" stroke="#000000" stroke-width="1.33333" stroke-linejoin="round" stroke-miterlimit="10" fill="none" fill-rule="evenodd"/><path d="M523.058 232.777 523.058 333.31" stroke="#000000" stroke-width="1.33333" stroke-linejoin="round" stroke-miterlimit="10" fill="none" fill-rule="evenodd"/><path d="M620.37 232.777 620.37 333.31" stroke="#000000" stroke-width="1.33333" stroke-linejoin="round" stroke-miterlimit="10" fill="none" fill-rule="evenodd"/><path d="M522.391 233.443 621.036 233.443" stroke="#000000" stroke-width="1.33333" stroke-linejoin="round" stroke-miterlimit="10" fill="none" fill-rule="evenodd"/><path d="M522.391 332.643 621.036 332.643" stroke="#000000" stroke-width="1.33333" stroke-linejoin="round" stroke-miterlimit="10" fill="none" fill-rule="evenodd"/><path d="M534.018 351.262 532.997 351.262C532.932 351.689 532.736 353.057 532.432 353.207 532.192 353.335 530.562 353.335 530.214 353.335L527.018 353.335C528.04 352.501 529.171 351.582 530.149 350.877 532.627 349.082 534.018 348.077 534.018 346.046 534.018 343.588 531.758 342.007 528.692 342.007 526.062 342.007 524.018 343.332 524.018 345.256 524.018 346.517 525.062 346.837 525.584 346.837 526.279 346.837 527.149 346.367 527.149 345.298 527.149 344.187 526.236 343.845 525.91 343.759 526.54 343.246 527.366 343.011 528.149 343.011 530.018 343.011 531.018 344.465 531.018 346.068 531.018 347.543 530.192 348.996 528.671 350.514L524.301 354.895C524.018 355.152 524.018 355.195 524.018 355.622L524.018 356.007 533.345 356.007 534.018 351.262Z" fill-rule="evenodd"/><path d="M549.532 350.996 544.369 355.762C544.183 355.934 544.02 356.105 544.02 356.341 544.02 356.706 544.346 357.007 544.741 357.007 545.02 357.007 545.16 356.878 545.416 356.642L550.532 351.941 555.881 356.878C555.951 356.921 556.044 357.007 556.323 357.007 556.648 357.007 557.02 356.749 557.02 356.341 557.02 356.234 556.974 356.105 556.927 356.019 556.811 355.891 556.113 355.247 555.695 354.86L551.532 351.018C552.718 349.901 556.718 346.252 556.834 346.123 556.951 345.973 557.02 345.844 557.02 345.672 557.02 345.264 556.648 345.007 556.323 345.007 556.044 345.007 555.927 345.114 555.695 345.329L550.532 350.073C549.323 348.978 545.369 345.286 545.23 345.179 545.067 345.071 544.927 345.007 544.741 345.007 544.346 345.007 544.02 345.307 544.02 345.672 544.02 345.908 544.137 346.016 544.369 346.23L549.532 350.996Z" fill-rule="evenodd"/><path d="M577.02 351.262 575.998 351.262C575.933 351.689 575.737 353.057 575.433 353.207 575.194 353.335 573.564 353.335 573.216 353.335L570.02 353.335C571.042 352.501 572.172 351.582 573.151 350.877 575.629 349.082 577.02 348.077 577.02 346.046 577.02 343.588 574.759 342.007 571.694 342.007 569.064 342.007 567.02 343.332 567.02 345.256 567.02 346.517 568.064 346.837 568.585 346.837 569.281 346.837 570.151 346.367 570.151 345.298 570.151 344.187 569.237 343.845 568.911 343.759 569.542 343.246 570.368 343.011 571.151 343.011 573.02 343.011 574.02 344.465 574.02 346.068 574.02 347.543 573.194 348.996 571.672 350.514L567.303 354.895C567.02 355.152 567.02 355.195 567.02 355.622L567.02 356.007 576.346 356.007 577.02 351.262Z" fill-rule="evenodd"/><path d="M592.534 350.996 587.371 355.762C587.185 355.934 587.022 356.105 587.022 356.341 587.022 356.706 587.348 357.007 587.743 357.007 588.022 357.007 588.162 356.878 588.418 356.642L593.534 351.941 598.883 356.878C598.952 356.921 599.045 357.007 599.325 357.007 599.65 357.007 600.022 356.749 600.022 356.341 600.022 356.234 599.976 356.105 599.929 356.019 599.813 355.891 599.115 355.247 598.697 354.86L594.534 351.018C595.72 349.901 599.72 346.252 599.836 346.123 599.952 345.973 600.022 345.844 600.022 345.672 600.022 345.264 599.65 345.007 599.325 345.007 599.045 345.007 598.929 345.114 598.697 345.329L593.534 350.073C592.325 348.978 588.371 345.286 588.232 345.179 588.069 345.071 587.929 345.007 587.743 345.007 587.348 345.007 587.022 345.307 587.022 345.672 587.022 345.908 587.138 346.016 587.371 346.23L592.534 350.996Z" fill-rule="evenodd"/><path d="M616.381 348.376C617.824 347.935 619.352 346.736 619.352 344.929 619.352 343.31 617.762 342.007 614.812 342.007 612.322 342.007 610.69 343.352 610.69 345.034 610.69 345.938 611.339 346.505 612.134 346.505 613.075 346.505 613.598 345.832 613.598 345.055 613.598 343.835 612.469 343.604 612.385 343.583 613.117 342.995 614.038 342.826 614.686 342.826 616.423 342.826 616.485 344.172 616.485 344.866 616.485 345.139 616.464 347.893 614.289 348.019 613.431 348.061 613.389 348.082 613.284 348.103 613.075 348.124 613.033 348.334 613.033 348.46 613.033 348.838 613.243 348.838 613.619 348.838L614.54 348.838C616.82 348.838 616.82 350.899 616.82 351.971 616.82 352.959 616.82 355.103 614.644 355.103 614.1 355.103 613.013 355.019 612.008 354.388 612.699 354.199 613.222 353.673 613.222 352.811 613.222 351.866 612.552 351.214 611.632 351.214 610.753 351.214 610.021 351.781 610.021 352.854 610.021 354.745 612.05 356.007 614.749 356.007 618.494 356.007 620.021 353.905 620.021 351.992 620.021 350.836 619.414 349.028 616.381 348.376Z" fill-rule="evenodd"/><path d="M560.391 376.405 609.046 376.405 609.046 426.005 560.391 426.005Z" fill="#FFC000" fill-rule="evenodd"/><path d="M609.046 376.405 657.702 376.405 657.702 426.005 609.046 426.005Z" fill="#FFC000" fill-rule="evenodd"/><path d="M560.391 426.005 609.046 426.005 609.046 475.605 560.391 475.605Z" fill="#FFC000" fill-rule="evenodd"/><path d="M609.046 426.005 657.702 426.005 657.702 475.605 609.046 475.605Z" fill="#FFC000" fill-rule="evenodd"/><path d="M609.046 375.739 609.046 476.272" stroke="#000000" stroke-width="1.33333" stroke-linejoin="round" stroke-miterlimit="10" fill="none" fill-rule="evenodd"/><path d="M559.724 426.005 658.369 426.005" stroke="#000000" stroke-width="1.33333" stroke-linejoin="round" stroke-miterlimit="10" fill="none" fill-rule="evenodd"/><path d="M560.391 375.739 560.391 476.272" stroke="#000000" stroke-width="1.33333" stroke-linejoin="round" stroke-miterlimit="10" fill="none" fill-rule="evenodd"/><path d="M657.702 375.739 657.702 476.272" stroke="#000000" stroke-width="1.33333" stroke-linejoin="round" stroke-miterlimit="10" fill="none" fill-rule="evenodd"/><path d="M559.724 376.405 658.369 376.405" stroke="#000000" stroke-width="1.33333" stroke-linejoin="round" stroke-miterlimit="10" fill="none" fill-rule="evenodd"/><path d="M559.724 475.605 658.369 475.605" stroke="#000000" stroke-width="1.33333" stroke-linejoin="round" stroke-miterlimit="10" fill="none" fill-rule="evenodd"/><path d="M544.391 392.405 593.047 392.405 593.047 442.005 544.391 442.005Z" fill="#FFC000" fill-rule="evenodd"/><path d="M593.047 392.405 641.702 392.405 641.702 442.005 593.047 442.005Z" fill="#FFC000" fill-rule="evenodd"/><path d="M544.391 442.005 593.047 442.005 593.047 491.605 544.391 491.605Z" fill="#FFC000" fill-rule="evenodd"/><path d="M593.047 442.005 641.702 442.005 641.702 491.605 593.047 491.605Z" fill="#FFC000" fill-rule="evenodd"/><path d="M593.047 391.739 593.047 492.272" stroke="#000000" stroke-width="1.33333" stroke-linejoin="round" stroke-miterlimit="10" fill="none" fill-rule="evenodd"/><path d="M543.724 442.005 642.369 442.005" stroke="#000000" stroke-width="1.33333" stroke-linejoin="round" stroke-miterlimit="10" fill="none" fill-rule="evenodd"/><path d="M544.391 391.739 544.391 492.272" stroke="#000000" stroke-width="1.33333" stroke-linejoin="round" stroke-miterlimit="10" fill="none" fill-rule="evenodd"/><path d="M641.702 391.739 641.702 492.272" stroke="#000000" stroke-width="1.33333" stroke-linejoin="round" stroke-miterlimit="10" fill="none" fill-rule="evenodd"/><path d="M543.724 392.405 642.369 392.405" stroke="#000000" stroke-width="1.33333" stroke-linejoin="round" stroke-miterlimit="10" fill="none" fill-rule="evenodd"/><path d="M543.724 491.605 642.369 491.605" stroke="#000000" stroke-width="1.33333" stroke-linejoin="round" stroke-miterlimit="10" fill="none" fill-rule="evenodd"/><path d="M526.613 408.405 575.269 408.405 575.269 458.005 526.613 458.005Z" fill="#FFC000" fill-rule="evenodd"/><path d="M575.269 408.405 623.925 408.405 623.925 458.005 575.269 458.005Z" fill="#FFC000" fill-rule="evenodd"/><path d="M526.613 458.005 575.269 458.005 575.269 507.605 526.613 507.605Z" fill="#FFC000" fill-rule="evenodd"/><path d="M575.269 458.005 623.925 458.005 623.925 507.605 575.269 507.605Z" fill="#FFC000" fill-rule="evenodd"/><path d="M575.269 407.739 575.269 508.272" stroke="#000000" stroke-width="1.33333" stroke-linejoin="round" stroke-miterlimit="10" fill="none" fill-rule="evenodd"/><path d="M525.946 458.005 624.591 458.005" stroke="#000000" stroke-width="1.33333" stroke-linejoin="round" stroke-miterlimit="10" fill="none" fill-rule="evenodd"/><path d="M526.613 407.739 526.613 508.272" stroke="#000000" stroke-width="1.33333" stroke-linejoin="round" stroke-miterlimit="10" fill="none" fill-rule="evenodd"/><path d="M623.925 407.739 623.925 508.272" stroke="#000000" stroke-width="1.33333" stroke-linejoin="round" stroke-miterlimit="10" fill="none" fill-rule="evenodd"/><path d="M525.946 408.405 624.591 408.405" stroke="#000000" stroke-width="1.33333" stroke-linejoin="round" stroke-miterlimit="10" fill="none" fill-rule="evenodd"/><path d="M525.946 507.605 624.591 507.605" stroke="#000000" stroke-width="1.33333" stroke-linejoin="round" stroke-miterlimit="10" fill="none" fill-rule="evenodd"/><path d="M538.02 526.262 536.896 526.262C536.825 526.689 536.609 528.057 536.275 528.207 536.012 528.335 534.218 528.335 533.836 528.335L530.32 528.335C531.444 527.501 532.688 526.582 533.764 525.877 536.49 524.082 538.02 523.077 538.02 521.046 538.02 518.588 535.533 517.007 532.162 517.007 529.268 517.007 527.02 518.332 527.02 520.256 527.02 521.517 528.168 521.837 528.742 521.837 529.507 521.837 530.464 521.367 530.464 520.298 530.464 519.187 529.459 518.845 529.101 518.759 529.794 518.246 530.703 518.011 531.564 518.011 533.62 518.011 534.72 519.465 534.72 521.068 534.72 522.543 533.812 523.996 532.138 525.514L527.331 529.895C527.02 530.152 527.02 530.195 527.02 530.622L527.02 531.007 537.279 531.007 538.02 526.262Z" fill-rule="evenodd"/><path d="M553.107 525.996 548.341 530.762C548.169 530.934 548.019 531.105 548.019 531.341 548.019 531.706 548.319 532.007 548.684 532.007 548.942 532.007 549.071 531.878 549.307 531.642L554.03 526.941 558.967 531.878C559.031 531.921 559.117 532.007 559.375 532.007 559.675 532.007 560.019 531.749 560.019 531.341 560.019 531.234 559.976 531.105 559.933 531.019 559.826 530.891 559.182 530.247 558.795 529.86L554.953 526.018C556.047 524.901 559.74 521.252 559.847 521.123 559.954 520.973 560.019 520.844 560.019 520.672 560.019 520.264 559.675 520.007 559.375 520.007 559.117 520.007 559.01 520.114 558.795 520.329L554.03 525.073C552.913 523.978 549.264 520.286 549.135 520.179 548.985 520.071 548.856 520.007 548.684 520.007 548.319 520.007 548.019 520.307 548.019 520.672 548.019 520.908 548.126 521.016 548.341 521.23L553.107 525.996Z" fill-rule="evenodd"/><path d="M581.022 526.262 579.898 526.262C579.826 526.689 579.611 528.057 579.276 528.207 579.013 528.335 577.22 528.335 576.837 528.335L573.322 528.335C574.446 527.501 575.689 526.582 576.766 525.877 579.492 524.082 581.022 523.077 581.022 521.046 581.022 518.588 578.535 517.007 575.163 517.007 572.27 517.007 570.022 518.332 570.022 520.256 570.022 521.517 571.17 521.837 571.744 521.837 572.509 521.837 573.466 521.367 573.466 520.298 573.466 519.187 572.461 518.845 572.102 518.759 572.796 518.246 573.705 518.011 574.566 518.011 576.622 518.011 577.722 519.465 577.722 521.068 577.722 522.543 576.813 523.996 575.139 525.514L570.333 529.895C570.022 530.152 570.022 530.195 570.022 530.622L570.022 531.007 580.281 531.007 581.022 526.262Z" fill-rule="evenodd"/><path d="M596.108 525.996 591.342 530.762C591.171 530.934 591.021 531.105 591.021 531.341 591.021 531.706 591.321 532.007 591.686 532.007 591.944 532.007 592.072 531.878 592.308 531.642L597.031 526.941 601.969 531.878C602.033 531.921 602.119 532.007 602.377 532.007 602.677 532.007 603.021 531.749 603.021 531.341 603.021 531.234 602.978 531.105 602.935 531.019 602.827 530.891 602.183 530.247 601.797 529.86L597.954 526.018C599.049 524.901 602.741 521.252 602.849 521.123 602.956 520.973 603.021 520.844 603.021 520.672 603.021 520.264 602.677 520.007 602.377 520.007 602.119 520.007 602.012 520.114 601.797 520.329L597.031 525.073C595.915 523.978 592.266 520.286 592.137 520.179 591.987 520.071 591.858 520.007 591.686 520.007 591.321 520.007 591.021 520.307 591.021 520.672 591.021 520.908 591.128 521.016 591.342 521.23L596.108 525.996Z" fill-rule="evenodd"/><path d="M620.019 523.376C621.607 522.935 623.287 521.736 623.287 519.929 623.287 518.31 621.538 517.007 618.293 517.007 615.554 517.007 613.759 518.352 613.759 520.034 613.759 520.938 614.473 521.505 615.347 521.505 616.383 521.505 616.958 520.833 616.958 520.055 616.958 518.835 615.715 518.604 615.623 518.583 616.429 517.995 617.441 517.826 618.155 517.826 620.065 517.826 620.134 519.172 620.134 519.866 620.134 520.139 620.111 522.893 617.718 523.019 616.774 523.061 616.728 523.082 616.613 523.103 616.383 523.124 616.337 523.334 616.337 523.46 616.337 523.838 616.567 523.838 616.981 523.838L617.994 523.838C620.502 523.838 620.502 525.899 620.502 526.971 620.502 527.959 620.502 530.103 618.109 530.103 617.51 530.103 616.314 530.019 615.209 529.388 615.969 529.199 616.544 528.673 616.544 527.812 616.544 526.866 615.807 526.214 614.795 526.214 613.828 526.214 613.023 526.781 613.023 527.854 613.023 529.745 615.255 531.007 618.224 531.007 622.343 531.007 624.023 528.905 624.023 526.992 624.023 525.836 623.356 524.028 620.019 523.376Z" fill-rule="evenodd"/><path d="M560.315 547.831 608.971 547.831 608.971 597.431 560.315 597.431Z" fill="#00B0F0" fill-rule="evenodd"/><path d="M608.971 547.831 657.627 547.831 657.627 597.431 608.971 597.431Z" fill="#00B0F0" fill-rule="evenodd"/><path d="M560.315 597.431 608.971 597.431 608.971 647.031 560.315 647.031Z" fill="#00B0F0" fill-rule="evenodd"/><path d="M608.971 597.431 657.627 597.431 657.627 647.031 608.971 647.031Z" fill="#00B0F0" fill-rule="evenodd"/><path d="M608.971 547.164 608.971 647.697" stroke="#000000" stroke-width="1.33333" stroke-linejoin="round" stroke-miterlimit="10" fill="none" fill-rule="evenodd"/><path d="M559.649 597.431 658.294 597.431" stroke="#000000" stroke-width="1.33333" stroke-linejoin="round" stroke-miterlimit="10" fill="none" fill-rule="evenodd"/><path d="M560.315 547.164 560.315 647.697" stroke="#000000" stroke-width="1.33333" stroke-linejoin="round" stroke-miterlimit="10" fill="none" fill-rule="evenodd"/><path d="M657.627 547.164 657.627 647.697" stroke="#000000" stroke-width="1.33333" stroke-linejoin="round" stroke-miterlimit="10" fill="none" fill-rule="evenodd"/><path d="M559.649 547.831 658.294 547.831" stroke="#000000" stroke-width="1.33333" stroke-linejoin="round" stroke-miterlimit="10" fill="none" fill-rule="evenodd"/><path d="M559.649 647.031 658.294 647.031" stroke="#000000" stroke-width="1.33333" stroke-linejoin="round" stroke-miterlimit="10" fill="none" fill-rule="evenodd"/><path d="M544.315 563.831 592.971 563.831 592.971 613.431 544.315 613.431Z" fill="#00B0F0" fill-rule="evenodd"/><path d="M592.971 563.831 641.627 563.831 641.627 613.431 592.971 613.431Z" fill="#00B0F0" fill-rule="evenodd"/><path d="M544.315 613.431 592.971 613.431 592.971 663.031 544.315 663.031Z" fill="#00B0F0" fill-rule="evenodd"/><path d="M592.971 613.431 641.627 613.431 641.627 663.031 592.971 663.031Z" fill="#00B0F0" fill-rule="evenodd"/><path d="M592.971 563.164 592.971 663.697" stroke="#000000" stroke-width="1.33333" stroke-linejoin="round" stroke-miterlimit="10" fill="none" fill-rule="evenodd"/><path d="M543.649 613.431 642.294 613.431" stroke="#000000" stroke-width="1.33333" stroke-linejoin="round" stroke-miterlimit="10" fill="none" fill-rule="evenodd"/><path d="M544.315 563.164 544.315 663.697" stroke="#000000" stroke-width="1.33333" stroke-linejoin="round" stroke-miterlimit="10" fill="none" fill-rule="evenodd"/><path d="M641.627 563.164 641.627 663.697" stroke="#000000" stroke-width="1.33333" stroke-linejoin="round" stroke-miterlimit="10" fill="none" fill-rule="evenodd"/><path d="M543.649 563.831 642.294 563.831" stroke="#000000" stroke-width="1.33333" stroke-linejoin="round" stroke-miterlimit="10" fill="none" fill-rule="evenodd"/><path d="M543.649 663.031 642.294 663.031" stroke="#000000" stroke-width="1.33333" stroke-linejoin="round" stroke-miterlimit="10" fill="none" fill-rule="evenodd"/><path d="M526.538 579.831 575.194 579.831 575.194 629.431 526.538 629.431Z" fill="#00B0F0" fill-rule="evenodd"/><path d="M575.194 579.831 623.849 579.831 623.849 629.431 575.194 629.431Z" fill="#00B0F0" fill-rule="evenodd"/><path d="M526.538 629.431 575.194 629.431 575.194 679.031 526.538 679.031Z" fill="#00B0F0" fill-rule="evenodd"/><path d="M575.194 629.431 623.849 629.431 623.849 679.031 575.194 679.031Z" fill="#00B0F0" fill-rule="evenodd"/><path d="M575.194 579.164 575.194 679.697" stroke="#000000" stroke-width="1.33333" stroke-linejoin="round" stroke-miterlimit="10" fill="none" fill-rule="evenodd"/><path d="M525.871 629.431 624.516 629.431" stroke="#000000" stroke-width="1.33333" stroke-linejoin="round" stroke-miterlimit="10" fill="none" fill-rule="evenodd"/><path d="M526.538 579.164 526.538 679.697" stroke="#000000" stroke-width="1.33333" stroke-linejoin="round" stroke-miterlimit="10" fill="none" fill-rule="evenodd"/><path d="M623.849 579.164 623.849 679.697" stroke="#000000" stroke-width="1.33333" stroke-linejoin="round" stroke-miterlimit="10" fill="none" fill-rule="evenodd"/><path d="M525.871 579.831 624.516 579.831" stroke="#000000" stroke-width="1.33333" stroke-linejoin="round" stroke-miterlimit="10" fill="none" fill-rule="evenodd"/><path d="M525.871 679.031 624.516 679.031" stroke="#000000" stroke-width="1.33333" stroke-linejoin="round" stroke-miterlimit="10" fill="none" fill-rule="evenodd"/><path d="M537.018 697.262 535.997 697.262C535.932 697.689 535.736 699.057 535.432 699.207 535.192 699.335 533.562 699.335 533.214 699.335L530.018 699.335C531.04 698.501 532.171 697.582 533.149 696.877 535.627 695.082 537.018 694.077 537.018 692.046 537.018 689.588 534.758 688.007 531.692 688.007 529.062 688.007 527.018 689.332 527.018 691.256 527.018 692.517 528.062 692.837 528.584 692.837 529.279 692.837 530.149 692.367 530.149 691.298 530.149 690.187 529.236 689.845 528.91 689.759 529.54 689.246 530.366 689.011 531.149 689.011 533.018 689.011 534.018 690.465 534.018 692.068 534.018 693.543 533.192 694.996 531.671 696.514L527.301 700.895C527.018 701.152 527.018 701.195 527.018 701.622L527.018 702.007 536.345 702.007 537.018 697.262Z" fill-rule="evenodd"/><path d="M553.107 696.996 548.341 701.762C548.169 701.934 548.019 702.105 548.019 702.341 548.019 702.706 548.319 703.007 548.684 703.007 548.942 703.007 549.071 702.878 549.307 702.642L554.03 697.941 558.967 702.878C559.031 702.921 559.117 703.007 559.375 703.007 559.675 703.007 560.019 702.749 560.019 702.341 560.019 702.234 559.976 702.105 559.933 702.019 559.826 701.891 559.182 701.247 558.795 700.86L554.953 697.018C556.047 695.901 559.74 692.252 559.847 692.123 559.954 691.973 560.019 691.844 560.019 691.672 560.019 691.264 559.675 691.007 559.375 691.007 559.117 691.007 559.01 691.114 558.795 691.329L554.03 696.073C552.913 694.978 549.264 691.286 549.135 691.179 548.985 691.071 548.856 691.007 548.684 691.007 548.319 691.007 548.019 691.307 548.019 691.672 548.019 691.908 548.126 692.016 548.341 692.23L553.107 696.996Z" fill-rule="evenodd"/><path d="M581.022 697.262 579.898 697.262C579.826 697.689 579.611 699.057 579.276 699.207 579.013 699.335 577.22 699.335 576.837 699.335L573.322 699.335C574.446 698.501 575.689 697.582 576.766 696.877 579.492 695.082 581.022 694.077 581.022 692.046 581.022 689.588 578.535 688.007 575.163 688.007 572.27 688.007 570.022 689.332 570.022 691.256 570.022 692.517 571.17 692.837 571.744 692.837 572.509 692.837 573.466 692.367 573.466 691.298 573.466 690.187 572.461 689.845 572.102 689.759 572.796 689.246 573.705 689.011 574.566 689.011 576.622 689.011 577.722 690.465 577.722 692.068 577.722 693.543 576.813 694.996 575.139 696.514L570.333 700.895C570.022 701.152 570.022 701.195 570.022 701.622L570.022 702.007 580.281 702.007 581.022 697.262Z" fill-rule="evenodd"/><path d="M596.108 696.996 591.342 701.762C591.171 701.934 591.021 702.105 591.021 702.341 591.021 702.706 591.321 703.007 591.686 703.007 591.944 703.007 592.072 702.878 592.308 702.642L597.031 697.941 601.969 702.878C602.033 702.921 602.119 703.007 602.377 703.007 602.677 703.007 603.021 702.749 603.021 702.341 603.021 702.234 602.978 702.105 602.935 702.019 602.827 701.891 602.183 701.247 601.797 700.86L597.954 697.018C599.049 695.901 602.741 692.252 602.849 692.123 602.956 691.973 603.021 691.844 603.021 691.672 603.021 691.264 602.677 691.007 602.377 691.007 602.119 691.007 602.012 691.114 601.797 691.329L597.031 696.073C595.915 694.978 592.266 691.286 592.137 691.179 591.987 691.071 591.858 691.007 591.686 691.007 591.321 691.007 591.021 691.307 591.021 691.672 591.021 691.908 591.128 692.016 591.342 692.23L596.108 696.996Z" fill-rule="evenodd"/><path d="M620.019 694.831C621.607 694.358 623.287 693.075 623.287 691.138 623.287 689.403 621.538 688.007 618.293 688.007 615.554 688.007 613.759 689.449 613.759 691.25 613.759 692.219 614.473 692.827 615.347 692.827 616.383 692.827 616.958 692.106 616.958 691.273 616.958 689.967 615.715 689.719 615.623 689.696 616.429 689.066 617.441 688.885 618.155 688.885 620.065 688.885 620.134 690.327 620.134 691.07 620.134 691.363 620.111 694.313 617.718 694.449 616.774 694.494 616.728 694.516 616.613 694.539 616.383 694.561 616.337 694.786 616.337 694.922 616.337 695.327 616.567 695.327 616.981 695.327L617.994 695.327C620.502 695.327 620.502 697.534 620.502 698.683 620.502 699.741 620.502 702.039 618.109 702.039 617.51 702.039 616.314 701.949 615.209 701.273 615.969 701.07 616.544 700.507 616.544 699.584 616.544 698.57 615.807 697.872 614.795 697.872 613.828 697.872 613.023 698.48 613.023 699.629 613.023 701.656 615.255 703.007 618.224 703.007 622.343 703.007 624.023 700.755 624.023 698.705 624.023 697.467 623.356 695.53 620.019 694.831Z" fill-rule="evenodd"/><path d="M951.863 374.764 1000.52 374.764 1000.52 424.364 951.863 424.364Z" fill="#BFBFBF" fill-rule="evenodd"/><path d="M1000.52 374.764 1049.18 374.764 1049.18 424.364 1000.52 424.364Z" fill="#BFBFBF" fill-rule="evenodd"/><path d="M951.863 424.364 1000.52 424.364 1000.52 473.964 951.863 473.964Z" fill="#BFBFBF" fill-rule="evenodd"/><path d="M1000.52 424.364 1049.18 424.364 1049.18 473.964 1000.52 473.964Z" fill="#BFBFBF" fill-rule="evenodd"/><path d="M1000.52 374.097 1000.52 474.631" stroke="#000000" stroke-width="1.33333" stroke-linejoin="round" stroke-miterlimit="10" fill="none" fill-rule="evenodd"/><path d="M951.197 424.364 1049.84 424.364" stroke="#000000" stroke-width="1.33333" stroke-linejoin="round" stroke-miterlimit="10" fill="none" fill-rule="evenodd"/><path d="M951.863 374.097 951.863 474.631" stroke="#000000" stroke-width="1.33333" stroke-linejoin="round" stroke-miterlimit="10" fill="none" fill-rule="evenodd"/><path d="M1049.18 374.097 1049.18 474.631" stroke="#000000" stroke-width="1.33333" stroke-linejoin="round" stroke-miterlimit="10" fill="none" fill-rule="evenodd"/><path d="M951.197 374.764 1049.84 374.764" stroke="#000000" stroke-width="1.33333" stroke-linejoin="round" stroke-miterlimit="10" fill="none" fill-rule="evenodd"/><path d="M951.197 473.964 1049.84 473.964" stroke="#000000" stroke-width="1.33333" stroke-linejoin="round" stroke-miterlimit="10" fill="none" fill-rule="evenodd"/><path d="M655.553 79.4314 954.763 374.17 952.658 376.307 653.447 81.5687ZM952.429 364.788 955.83 377.326 943.242 374.115C942.44 373.91 941.955 373.093 942.16 372.291 942.365 371.488 943.181 371.003 943.984 371.208L954.08 373.784 952.261 375.63 949.534 365.574C949.317 364.774 949.789 363.95 950.589 363.733 951.389 363.517 952.213 363.989 952.429 364.788Z" fill="#4472C4"/><path d="M656.972 250.076 966.108 352.602 965.164 355.45 656.028 252.924ZM959.869 345.217 968.46 354.962 955.748 357.643C954.938 357.814 954.142 357.295 953.971 356.485 953.8 355.674 954.319 354.879 955.129 354.708L965.324 352.558 964.509 355.017 957.619 347.201C957.071 346.58 957.131 345.632 957.752 345.084 958.374 344.536 959.322 344.596 959.869 345.217Z" fill="#4472C4"/><path d="M0.39138-1.44804 327.895 87.0705 327.112 89.9666-0.39138 1.44804ZM321.255 80.0489 330.379 89.2957 317.839 92.6868C317.039 92.9031 316.216 92.4301 315.999 91.6304 315.783 90.8307 316.256 90.0071 317.056 89.7908L327.114 87.0709 326.438 89.5725 319.119 82.1561C318.537 81.5664 318.544 80.6167 319.133 80.0348 319.723 79.453 320.673 79.4593 321.255 80.0489Z" fill="#4472C4" transform="matrix(1 0 0 -1 658.5 426.794)"/><path d="M0.931594-1.17564 352.95 277.769 351.087 280.12-0.931594 1.17564ZM349.621 268.692 354.35 280.792 341.49 278.953C340.67 278.836 340.1 278.076 340.218 277.256 340.335 276.436 341.095 275.866 341.915 275.983L352.229 277.458 350.62 279.489 346.827 269.785C346.525 269.013 346.906 268.143 347.678 267.841 348.449 267.54 349.319 267.921 349.621 268.692Z" fill="#4472C4" transform="matrix(1 0 0 -1 658.5 598.287)"/><path d="M965.022 508.196 963.081 508.196C962.957 508.99 962.585 511.53 962.007 511.808 961.552 512.046 958.454 512.046 957.794 512.046L951.722 512.046C953.663 510.498 955.811 508.791 957.67 507.481 962.378 504.147 965.022 502.281 965.022 498.51 965.022 493.945 960.726 491.008 954.902 491.008 949.904 491.008 946.022 493.469 946.022 497.041 946.022 499.383 948.004 499.979 948.996 499.979 950.318 499.979 951.97 499.105 951.97 497.121 951.97 495.057 950.235 494.422 949.615 494.263 950.813 493.31 952.383 492.873 953.87 492.873 957.422 492.873 959.322 495.573 959.322 498.55 959.322 501.289 957.752 503.988 954.861 506.806L946.559 514.944C946.022 515.42 946.022 515.499 946.022 516.293L946.022 517.008 963.741 517.008 965.022 508.196Z" fill-rule="evenodd"/><path d="M994.199 506.988 984.668 515.725C984.324 516.04 984.024 516.355 984.024 516.788 984.024 517.457 984.625 518.008 985.354 518.008 985.87 518.008 986.127 517.772 986.6 517.339L996.045 508.72 1005.92 517.772C1006.05 517.85 1006.22 518.008 1006.74 518.008 1007.34 518.008 1008.02 517.536 1008.02 516.788 1008.02 516.591 1007.94 516.355 1007.85 516.197 1007.64 515.961 1006.35 514.781 1005.58 514.072L997.891 507.027C1000.08 504.981 1007.47 498.29 1007.68 498.054 1007.89 497.779 1008.02 497.543 1008.02 497.228 1008.02 496.48 1007.34 496.008 1006.74 496.008 1006.22 496.008 1006.01 496.205 1005.58 496.598L996.045 505.296C993.813 503.289 986.514 496.519 986.256 496.323 985.956 496.126 985.698 496.008 985.354 496.008 984.625 496.008 984.024 496.559 984.024 497.228 984.024 497.661 984.238 497.858 984.668 498.251L994.199 506.988Z" fill-rule="evenodd"/><path d="M1046.02 508.196 1044.08 508.196C1043.96 508.99 1043.59 511.53 1043.01 511.808 1042.55 512.046 1039.46 512.046 1038.8 512.046L1032.72 512.046C1034.67 510.498 1036.81 508.791 1038.67 507.481 1043.38 504.147 1046.02 502.281 1046.02 498.51 1046.02 493.945 1041.73 491.008 1035.9 491.008 1030.91 491.008 1027.02 493.469 1027.02 497.041 1027.02 499.383 1029.01 499.979 1030 499.979 1031.32 499.979 1032.97 499.105 1032.97 497.121 1032.97 495.057 1031.24 494.422 1030.62 494.263 1031.82 493.31 1033.38 492.873 1034.87 492.873 1038.42 492.873 1040.32 495.573 1040.32 498.55 1040.32 501.289 1038.75 503.988 1035.86 506.806L1027.56 514.944C1027.02 515.42 1027.02 515.499 1027.02 516.293L1027.02 517.008 1044.74 517.008 1046.02 508.196Z" fill-rule="evenodd"/><path d="M1074.78 506.988 1065.64 515.725C1065.31 516.04 1065.02 516.355 1065.02 516.788 1065.02 517.457 1065.6 518.008 1066.3 518.008 1066.79 518.008 1067.04 517.772 1067.49 517.339L1076.55 508.72 1086.01 517.772C1086.13 517.85 1086.3 518.008 1086.79 518.008 1087.37 518.008 1088.02 517.536 1088.02 516.788 1088.02 516.591 1087.94 516.355 1087.86 516.197 1087.65 515.961 1086.42 514.781 1085.68 514.072L1078.31 507.027C1080.41 504.981 1087.49 498.29 1087.7 498.054 1087.9 497.779 1088.02 497.543 1088.02 497.228 1088.02 496.48 1087.37 496.008 1086.79 496.008 1086.3 496.008 1086.09 496.205 1085.68 496.598L1076.55 505.296C1074.41 503.289 1067.41 496.519 1067.16 496.323 1066.88 496.126 1066.63 496.008 1066.3 496.008 1065.6 496.008 1065.02 496.559 1065.02 497.228 1065.02 497.661 1065.23 497.858 1065.64 498.251L1074.78 506.988Z" fill-rule="evenodd"/><path d="M1123.03 510.825 1127.03 510.825 1127.03 508.962 1123.03 508.962 1123.03 492.276C1123.03 491.206 1122.95 491.008 1121.8 491.008 1120.93 491.008 1120.89 491.047 1120.4 491.642L1106.03 508.962 1106.03 510.825 1117.88 510.825 1117.88 515.145 1113.27 515.145 1113.27 517.008C1114.84 516.889 1118.58 516.889 1120.36 516.889 1122 516.889 1125.58 516.889 1127.03 517.008L1127.03 515.145 1123.03 515.145 1123.03 510.825ZM1118.34 508.962 1108.17 508.962 1118.34 496.675 1118.34 508.962Z" fill-rule="evenodd"/></g></svg>