<svg width="1280" height="720" xmlns="http://www.w3.org/2000/svg" xmlns:xlink="http://www.w3.org/1999/xlink" overflow="hidden"><defs><clipPath id="clip0"><rect x="0" y="0" width="1280" height="720"/></clipPath></defs><g clip-path="url(#clip0)"><rect x="0" y="0" width="1280" height="720" fill="#FFFFFF"/><path d="M4-7.23335e-07 4.0001 560.571-3.9999 560.571-4 7.23335e-07ZM12.0001 556.571 0.000104987 580.571-11.9999 556.571Z" transform="matrix(1 0 0 -1 434 650.571)"/><path d="M293 525 966.333 525 966.333 533 293 533ZM962.333 517 986.333 529 962.333 541Z"/><path d="M668 148.5C668 132.76 680.76 120 696.5 120 712.24 120 725 132.76 725 148.5 725 164.24 712.24 177 696.5 177 680.76 177 668 164.24 668 148.5ZM676.043 148.5C676.043 159.798 685.202 168.957 696.5 168.957 707.798 168.957 716.957 159.798 716.957 148.5 716.957 137.202 707.798 128.043 696.5 128.043 685.202 128.043 676.043 137.202 676.043 148.5Z" fill="#4472C4" fill-rule="evenodd"/><path d="M769 191.5C769 175.76 781.76 163 797.5 163 813.24 163 826 175.76 826 191.5 826 207.24 813.24 220 797.5 220 781.76 220 769 207.24 769 191.5ZM777.043 191.5C777.043 202.798 786.202 211.957 797.5 211.957 808.798 211.957 817.957 202.798 817.957 191.5 817.957 180.202 808.798 171.043 797.5 171.043 786.202 171.043 777.043 180.202 777.043 191.5Z" fill="#4472C4" fill-rule="evenodd"/><path d="M713 270.5C713 254.76 725.536 242 741 242 756.464 242 769 254.76 769 270.5 769 286.24 756.464 299 741 299 725.536 299 713 286.24 713 270.5ZM720.902 270.5C720.902 281.876 729.9 291.098 741 291.098 752.1 291.098 761.098 281.876 761.098 270.5 761.098 259.124 752.1 249.902 741 249.902 729.9 249.902 720.902 259.124 720.902 270.5Z" fill="#4472C4" fill-rule="evenodd"/><path d="M856 238C856 222.536 868.76 210 884.5 210 900.24 210 913 222.536 913 238 913 253.464 900.24 266 884.5 266 868.76 266 856 253.464 856 238ZM863.902 238C863.902 249.1 873.124 258.098 884.5 258.098 895.876 258.098 905.098 249.1 905.098 238 905.098 226.9 895.876 217.902 884.5 217.902 873.124 217.902 863.902 226.9 863.902 238Z" fill="#4472C4" fill-rule="evenodd"/><path d="M930 164.5C930 148.76 942.76 136 958.5 136 974.24 136 987 148.76 987 164.5 987 180.24 974.24 193 958.5 193 942.76 193 930 180.24 930 164.5ZM938.043 164.5C938.043 175.798 947.202 184.957 958.5 184.957 969.798 184.957 978.957 175.798 978.957 164.5 978.957 153.202 969.798 144.043 958.5 144.043 947.202 144.043 938.043 153.202 938.043 164.5Z" fill="#4472C4" fill-rule="evenodd"/><path d="M488 428 516.5 371 545 428Z" stroke="#FFC000" stroke-width="8" stroke-miterlimit="8" fill="none" fill-rule="evenodd"/><path d="M543 507 571 450 599 507Z" stroke="#FFC000" stroke-width="8" stroke-miterlimit="8" fill="none" fill-rule="evenodd"/><path d="M588 389 616.5 332 645 389Z" stroke="#FFC000" stroke-width="8" stroke-miterlimit="8" fill="none" fill-rule="evenodd"/><path d="M466 312 494.5 255 523 312Z" stroke="#FFC000" stroke-width="8" stroke-miterlimit="8" fill="none" fill-rule="evenodd"/><path d="M680 495 708.5 438 737 495Z" stroke="#FFC000" stroke-width="8" stroke-miterlimit="8" fill="none" fill-rule="evenodd"/><path d="M350 70 999.593 583.879" stroke="#7030A0" stroke-width="8" stroke-miterlimit="8" stroke-dasharray="32 24" fill="none" fill-rule="evenodd"/></g></svg>