<svg width="1280" height="720" xmlns="http://www.w3.org/2000/svg" xmlns:xlink="http://www.w3.org/1999/xlink" overflow="hidden"><defs><clipPath id="clip0"><rect x="0" y="0" width="1280" height="720"/></clipPath></defs><g clip-path="url(#clip0)"><rect x="0" y="0" width="1280" height="720" fill="#FFFFFF"/><path d="M2-3.88657e-07 2.0001 530.257-1.9999 530.257-2 3.88657e-07ZM6.0001 528.255 0.000104987 540.255-5.9999 528.255Z" transform="matrix(1 0 0 -1 226 615.255)"/><path d="M101 545 1112.28 545 1112.28 549 101 549ZM1110.28 541 1122.28 547 1110.28 553Z"/><path d="M65 178.004C105.595 240.224 146.19 302.445 188.572 318.128 230.954 333.811 268.23 239.713 319.293 272.102 370.355 304.491 440.992 464.901 494.949 512.462 548.905 560.022 599.287 545.874 643.031 557.465 686.775 569.057 714.349 598.719 757.411 582.013 800.474 565.307 901.409 457.23 901.409 457.23 939.536 425.182 961.663 418.704 986.173 389.725 1010.68 360.745 1034.34 315.571 1048.47 283.353 1062.6 251.134 1058.68 221.473 1070.94 196.414 1083.19 171.355 1102.6 152.178 1122 133" stroke="#2F528F" stroke-width="6" stroke-miterlimit="8" fill="none" fill-rule="evenodd"/></g></svg>