<svg width="1280" height="720" xmlns="http://www.w3.org/2000/svg" xmlns:xlink="http://www.w3.org/1999/xlink" overflow="hidden"><defs><clipPath id="clip0"><rect x="0" y="0" width="1280" height="720"/></clipPath></defs><g clip-path="url(#clip0)"><rect x="0" y="0" width="1280" height="720" fill="#FFFFFF"/><path d="M4-7.23335e-07 4.0001 560.571-3.9999 560.571-4 7.23335e-07ZM12.0001 556.571 0.000104987 580.571-11.9999 556.571Z" transform="matrix(1 0 0 -1 434 650.571)"/><path d="M293 525 966.333 525 966.333 533 293 533ZM962.333 517 986.333 529 962.333 541Z"/><path d="M961.111 568.498C961.388 567.293 962.45 563.028 965.683 563.028 965.914 563.028 967.022 563.028 967.992 563.63 966.699 563.862 965.776 565.021 965.776 566.134 965.776 566.875 966.284 567.756 967.531 567.756 968.547 567.756 970.024 566.922 970.024 565.067 970.024 562.657 967.3 562.008 965.729 562.008 963.051 562.008 961.434 564.465 960.88 565.531 959.725 562.471 957.231 562.008 955.892 562.008 951.089 562.008 948.456 567.988 948.456 569.147 948.456 569.61 948.918 569.61 949.01 569.61 949.38 569.61 949.518 569.518 949.611 569.101 951.181 564.187 954.229 563.028 955.8 563.028 956.677 563.028 958.294 563.445 958.294 566.134 958.294 567.571 957.508 570.677 955.8 577.167 955.061 580.041 953.444 581.988 951.412 581.988 951.135 581.988 950.073 581.988 949.103 581.385 950.257 581.154 951.273 580.18 951.273 578.882 951.273 577.63 950.257 577.26 949.565 577.26 948.179 577.26 947.024 578.465 947.024 579.948 947.024 582.081 949.334 583.008 951.366 583.008 954.414 583.008 956.077 579.763 956.215 579.485 956.769 581.2 958.432 583.008 961.203 583.008 965.96 583.008 968.593 577.028 968.593 575.869 968.593 575.405 968.177 575.405 968.039 575.405 967.623 575.405 967.531 575.591 967.438 575.915 965.914 580.875 962.774 581.988 961.296 581.988 959.494 581.988 958.755 580.505 958.755 578.928 958.755 577.909 959.032 576.889 959.541 574.849L961.111 568.498Z" fill-rule="evenodd"/><path d="M982.476 568.893C982.476 568.039 982.41 568.008 981.487 568.008 979.377 570 976.377 570.032 975.026 570.032L975.026 571.17C975.817 571.17 977.993 571.17 979.806 570.285L979.806 586.414C979.806 587.458 979.806 587.869 976.509 587.869L975.256 587.869 975.256 589.008C975.85 588.976 979.905 588.881 981.124 588.881 982.146 588.881 986.3 588.976 987.026 589.008L987.026 587.869 985.773 587.869C982.476 587.869 982.476 587.458 982.476 586.414L982.476 568.893Z" fill-rule="evenodd"/><path d="M377.111 76.4979C377.388 75.2926 378.45 71.0277 381.683 71.0277 381.914 71.0277 383.022 71.0277 383.992 71.6303 382.699 71.8621 381.776 73.021 381.776 74.1336 381.776 74.8754 382.284 75.7562 383.531 75.7562 384.547 75.7562 386.025 74.9218 386.025 73.0674 386.025 70.6568 383.3 70.0079 381.729 70.0079 379.051 70.0079 377.434 72.4648 376.88 73.5311 375.725 70.4714 373.231 70.0079 371.892 70.0079 367.089 70.0079 364.456 75.988 364.456 77.1469 364.456 77.6104 364.918 77.6104 365.01 77.6104 365.38 77.6104 365.518 77.5178 365.611 77.1005 367.181 72.1866 370.229 71.0277 371.8 71.0277 372.677 71.0277 374.294 71.4449 374.294 74.1336 374.294 75.5707 373.508 78.6767 371.8 85.1668 371.061 88.0409 369.444 89.988 367.412 89.988 367.135 89.988 366.073 89.988 365.103 89.3854 366.257 89.1535 367.273 88.1801 367.273 86.882 367.273 85.6304 366.257 85.2595 365.565 85.2595 364.179 85.2595 363.025 86.4648 363.025 87.9483 363.025 90.0807 365.334 91.0079 367.366 91.0079 370.414 91.0079 372.077 87.7628 372.215 87.4846 372.77 89.1999 374.432 91.0079 377.203 91.0079 381.96 91.0079 384.593 85.0277 384.593 83.8688 384.593 83.4052 384.177 83.4052 384.039 83.4052 383.623 83.4052 383.531 83.5907 383.438 83.9152 381.914 88.8754 378.774 89.988 377.296 89.988 375.494 89.988 374.755 88.5046 374.755 86.9284 374.755 85.9085 375.032 84.8886 375.541 82.8489L377.111 76.4979Z" fill-rule="evenodd"/><path d="M404.025 91.2518 402.948 91.2518C402.853 91.9476 402.536 93.8135 402.124 94.1298 401.871 94.3196 399.432 94.3196 398.988 94.3196L393.16 94.3196C396.486 91.3783 397.595 90.4927 399.495 89.0063 401.839 87.1404 404.025 85.1795 404.025 82.175 404.025 78.3481 400.667 76.0078 396.613 76.0078 392.685 76.0078 390.025 78.7593 390.025 81.6689 390.025 83.2819 391.387 83.44 391.703 83.44 392.464 83.44 393.382 82.9023 393.382 81.7638 393.382 81.1945 393.16 80.0876 391.513 80.0876 392.495 77.8421 394.649 77.1464 396.138 77.1464 399.305 77.1464 400.952 79.6132 400.952 82.175 400.952 84.9265 398.988 87.1087 397.975 88.2472L390.341 95.7744C390.025 96.059 390.025 96.1223 390.025 97.0079L403.074 97.0079 404.025 91.2518Z" fill-rule="evenodd"/><path d="M835.211 269.065C832.937 272.528 830.719 273.251 828.218 273.406 827.536 273.458 827.024 273.458 827.024 274.44 827.024 274.75 827.308 275.008 827.763 275.008 829.298 275.008 831.061 274.853 832.652 274.853 834.528 274.853 836.518 275.008 838.338 275.008 838.679 275.008 839.418 275.008 839.418 274.026 839.418 273.458 838.906 273.406 838.508 273.406 837.201 273.303 835.836 272.889 835.836 271.597 835.836 270.977 836.177 270.409 836.632 269.685L840.953 263.071 855.222 263.071C855.336 264.156 856.132 271.184 856.132 271.701 856.132 273.251 853.176 273.406 852.039 273.406 851.243 273.406 850.674 273.406 850.674 274.44 850.674 275.008 851.357 275.008 851.47 275.008 853.801 275.008 856.246 274.853 858.577 274.853 859.998 274.853 863.579 275.008 865.001 275.008 865.342 275.008 866.024 275.008 866.024 273.974 866.024 273.406 865.456 273.406 864.716 273.406 861.192 273.406 861.192 273.044 861.021 271.546L857.553 239.248C857.44 238.215 857.44 238.008 856.473 238.008 855.564 238.008 855.336 238.37 854.995 238.886L835.211 269.065ZM842.033 261.469 853.233 244.416 855.052 261.469 842.033 261.469Z" fill="#FF0000" fill-rule="evenodd"/><path d="M766.211 319.226C763.937 322.594 761.719 323.298 759.218 323.449 758.536 323.499 758.024 323.499 758.024 324.455 758.024 324.756 758.308 325.008 758.763 325.008 760.298 325.008 762.061 324.857 763.652 324.857 765.528 324.857 767.518 325.008 769.338 325.008 769.679 325.008 770.418 325.008 770.418 324.052 770.418 323.499 769.906 323.449 769.508 323.449 768.201 323.349 766.836 322.946 766.836 321.689 766.836 321.086 767.177 320.533 767.632 319.829L771.953 313.393 786.222 313.393C786.336 314.449 787.132 321.287 787.132 321.79 787.132 323.298 784.176 323.449 783.039 323.449 782.243 323.449 781.674 323.449 781.674 324.455 781.674 325.008 782.357 325.008 782.47 325.008 784.801 325.008 787.246 324.857 789.577 324.857 790.998 324.857 794.579 325.008 796.001 325.008 796.342 325.008 797.024 325.008 797.024 324.002 797.024 323.449 796.456 323.449 795.716 323.449 792.192 323.449 792.192 323.097 792.021 321.639L788.553 290.214C788.44 289.209 788.44 289.008 787.473 289.008 786.564 289.008 786.336 289.36 785.995 289.862L766.211 319.226ZM773.033 311.835 784.233 295.242 786.052 311.835 773.033 311.835Z" fill="#FF0000" fill-rule="evenodd"/><path d="M580.469 320.011C579.923 322.009 579.814 322.419 575.499 322.419 574.57 322.419 574.024 322.419 574.024 323.444 574.024 324.008 574.516 324.008 575.499 324.008L594.999 324.008C603.629 324.008 610.074 317.961 610.074 312.939 610.074 309.249 606.906 306.277 601.608 305.714 607.289 304.74 613.024 300.948 613.024 296.08 613.024 292.287 609.419 289.008 602.864 289.008L584.511 289.008C583.474 289.008 582.927 289.008 582.927 290.033 582.927 290.596 583.419 290.596 584.457 290.596 584.566 290.596 585.604 290.596 586.532 290.699 587.516 290.801 588.007 290.853 588.007 291.519 588.007 291.724 587.953 291.878 587.789 292.493L580.469 320.011ZM588.717 305.252 592.104 292.544C592.596 290.75 592.705 290.596 595.053 290.596L602.1 290.596C606.906 290.596 608.053 293.62 608.053 295.875 608.053 300.384 603.356 305.252 596.692 305.252L588.717 305.252ZM586.259 322.419C585.495 322.419 585.385 322.419 585.058 322.368 584.511 322.317 584.348 322.266 584.348 321.856 584.348 321.702 584.348 321.599 584.621 320.677L588.39 306.38 598.713 306.38C603.957 306.38 604.995 310.172 604.995 312.375 604.995 317.449 600.133 322.419 593.688 322.419L586.259 322.419Z" fill="#0000FF" fill-rule="evenodd"/><path d="M541.469 406.011C540.923 408.009 540.814 408.419 536.499 408.419 535.57 408.419 535.024 408.419 535.024 409.444 535.024 410.008 535.516 410.008 536.499 410.008L555.999 410.008C564.629 410.008 571.074 403.961 571.074 398.939 571.074 395.249 567.906 392.277 562.608 391.714 568.289 390.74 574.024 386.948 574.024 382.08 574.024 378.287 570.419 375.008 563.864 375.008L545.511 375.008C544.474 375.008 543.927 375.008 543.927 376.033 543.927 376.596 544.419 376.596 545.457 376.596 545.566 376.596 546.604 376.596 547.532 376.699 548.516 376.801 549.007 376.853 549.007 377.519 549.007 377.724 548.953 377.878 548.789 378.493L541.469 406.011ZM549.717 391.252 553.104 378.544C553.596 376.75 553.705 376.596 556.053 376.596L563.1 376.596C567.906 376.596 569.053 379.62 569.053 381.875 569.053 386.384 564.356 391.252 557.692 391.252L549.717 391.252ZM547.259 408.419C546.495 408.419 546.385 408.419 546.058 408.368 545.511 408.317 545.348 408.266 545.348 407.856 545.348 407.702 545.348 407.599 545.621 406.677L549.39 392.38 559.713 392.38C564.957 392.38 565.995 396.172 565.995 398.375 565.995 403.449 561.133 408.419 554.688 408.419L547.259 408.419Z" fill="#0000FF" fill-rule="evenodd"/><path d="M961.025 475.517C961.025 475.364 960.923 475.008 960.467 475.008 960.315 475.008 960.264 475.059 959.706 475.619L956.157 479.537C955.701 478.825 953.368 475.008 947.74 475.008 936.433 475.008 925.025 486.255 925.025 498.063 925.025 506.46 931.008 512.008 938.765 512.008 943.177 512.008 947.03 509.972 949.718 507.631 954.433 503.458 955.295 498.826 955.295 498.674 955.295 498.165 954.788 498.165 954.687 498.165 954.382 498.165 954.129 498.266 954.027 498.674 953.571 500.15 952.405 503.763 948.906 506.715 945.408 509.565 942.213 510.43 939.577 510.43 935.013 510.43 929.639 507.784 929.639 499.844 929.639 496.943 930.703 488.698 935.774 482.744 938.867 479.13 943.633 476.586 948.146 476.586 953.318 476.586 956.309 480.504 956.309 486.408 956.309 488.444 956.157 488.495 956.157 489.004 956.157 489.513 956.715 489.513 956.918 489.513 957.577 489.513 957.577 489.411 957.83 488.495L961.025 475.517Z" fill="#00FF00" fill-rule="evenodd"/><path d="M521.024 438.517C521.024 438.364 520.925 438.008 520.482 438.008 520.334 438.008 520.284 438.059 519.742 438.619L516.292 442.537C515.848 441.825 513.58 438.008 508.108 438.008 497.115 438.008 486.024 449.255 486.024 461.063 486.024 469.46 491.841 475.008 499.383 475.008 503.672 475.008 507.418 472.972 510.031 470.631 514.615 466.458 515.453 461.826 515.453 461.674 515.453 461.165 514.961 461.165 514.862 461.165 514.566 461.165 514.32 461.266 514.221 461.674 513.777 463.15 512.644 466.763 509.242 469.715 505.841 472.565 502.735 473.43 500.172 473.43 495.735 473.43 490.51 470.784 490.51 462.844 490.51 459.943 491.545 451.698 496.475 445.744 499.482 442.13 504.115 439.586 508.503 439.586 513.531 439.586 516.439 443.504 516.439 449.408 516.439 451.444 516.292 451.495 516.292 452.004 516.292 452.513 516.834 452.513 517.031 452.513 517.672 452.513 517.672 452.411 517.918 451.495L521.024 438.517Z" fill="#00FF00" fill-rule="evenodd"/></g></svg>