<svg width="1280" height="720" xmlns="http://www.w3.org/2000/svg" xmlns:xlink="http://www.w3.org/1999/xlink" overflow="hidden"><defs><clipPath id="clip0"><rect x="0" y="0" width="1280" height="720"/></clipPath></defs><g clip-path="url(#clip0)"><rect x="0" y="0" width="1280" height="720" fill="#FFFFFF"/><rect x="366" y="278" width="203" height="128" stroke="#000000" stroke-width="8" stroke-miterlimit="8" fill="none"/><path d="M255 338 345.311 338 345.311 346 255 346ZM341.312 330 365.311 342 341.311 354Z"/><path d="M569 338 663.286 338 663.286 346 569 346ZM659.286 330 683.286 342 659.286 354Z"/><path d="M3.67454e-06-4 94.2858-3.99991 94.2858 4.00009-3.67454e-06 4ZM90.2858-11.9999 114.286 0.000104987 90.2858 12.0001Z" transform="matrix(1 0 0 -1 811 342)"/><path d="M217.527 337.189 226.337 328.662 230.474 324.529C233.145 322.037 233.946 321.249 240.886 321.183 242.154 321.183 242.288 319.479 242.288 319.281 242.288 318.887 242.021 318.101 240.953 318.101 238.617 318.101 236.081 318.297 233.678 318.297 231.743 318.297 226.938 318.101 225.002 318.101 224.469 318.101 223.134 318.101 223.134 319.937 223.134 321.118 224.201 321.183 224.801 321.183 226.803 321.249 228.539 321.774 228.807 321.839L216.059 334.238 209.919 321.577C210.586 321.446 212.655 321.183 213.79 321.183 214.524 321.183 215.725 321.183 215.725 319.347 215.725 318.429 215.125 318.101 214.257 318.101 211.987 318.101 206.381 318.297 204.113 318.297 202.577 318.297 201.042 318.231 199.507 318.231 197.972 318.231 196.37 318.101 194.835 318.101 194.235 318.101 192.966 318.101 192.966 319.937 192.966 321.183 193.834 321.183 195.703 321.183 196.637 321.183 197.371 321.183 198.305 321.249 199.24 321.381 199.308 321.446 199.707 322.233L208.918 341.191 192.165 357.459C190.964 358.575 189.563 359.953 183.622 360.019 182.422 360.019 181.288 360.019 181.288 361.921 181.288 362.38 181.62 363.101 182.621 363.101 184.224 363.101 188.294 362.905 189.897 362.905 191.832 362.905 196.637 363.101 198.573 363.101 199.107 363.101 200.442 363.101 200.442 361.199 200.442 360.019 199.24 360.019 198.706 360.019 197.371 360.019 196.037 359.821 194.769 359.363L210.319 344.143 217.861 359.625C217.793 359.625 215.592 360.019 213.989 360.019 213.322 360.019 212.054 360.019 212.054 361.921 212.054 362.117 212.122 363.101 213.522 363.101 215.791 363.101 221.464 362.905 223.734 362.905 225.269 362.905 226.803 362.97 228.339 362.97 229.874 362.97 231.475 363.101 233.011 363.101 233.545 363.101 234.88 363.101 234.88 361.199 234.88 360.019 233.811 360.019 232.21 360.019 231.276 360.019 230.609 360.019 229.607 359.953 228.606 359.821 228.539 359.755 228.072 358.903L217.527 337.189Z" fill-rule="evenodd"/><path d="M491.607 438.836C493.269 435.903 494.864 433.503 499.052 433.169 499.651 433.102 500.315 433.102 500.315 431.836 500.315 431.568 500.05 431.102 499.517 431.102 497.922 431.102 496.061 431.302 494.399 431.302 492.14 431.302 489.68 431.102 487.487 431.102 487.088 431.102 486.224 431.102 486.224 432.369 486.224 433.102 486.822 433.169 487.221 433.169 488.816 433.235 491.142 433.769 491.142 435.769 491.142 436.503 490.811 437.035 490.278 437.968L472.332 469.369 469.873 436.302C469.807 434.968 469.674 433.235 474.526 433.169 475.656 433.169 476.321 433.169 476.321 431.836 476.321 431.169 475.59 431.102 475.323 431.102 472.665 431.102 469.873 431.302 467.215 431.302 465.685 431.302 461.764 431.102 460.236 431.102 459.837 431.102 458.973 431.102 458.973 432.436 458.973 433.169 459.637 433.169 460.569 433.169 463.492 433.169 463.957 433.568 464.091 434.836L464.49 439.968 447.673 469.369 445.148 435.57C445.148 434.769 445.148 433.235 450.199 433.169 450.864 433.169 451.596 433.169 451.596 431.836 451.596 431.102 450.798 431.102 450.664 431.102 448.006 431.102 445.214 431.302 442.489 431.302 440.162 431.302 437.77 431.102 435.511 431.102 435.178 431.102 434.314 431.102 434.314 432.369 434.314 433.169 434.912 433.169 435.976 433.169 439.298 433.169 439.366 433.769 439.498 435.635L442.489 476.37C442.556 477.57 442.622 478.104 443.552 478.104 444.35 478.104 444.55 477.704 445.148 476.704L464.689 442.702 467.148 476.37C467.281 477.771 467.413 478.104 468.211 478.104 469.075 478.104 469.474 477.437 469.807 476.836L491.607 438.836Z" fill-rule="evenodd"/><path d="M616.179 315.953C619.873 311.6 621.856 309.723 624.319 307.396 624.319 307.321 628.559 303.344 631.022 300.641 637.519 293.661 639.024 290.059 639.024 289.758 639.024 289.008 638.408 289.008 638.271 289.008 637.793 289.008 637.588 289.158 637.246 289.833 635.194 293.436 633.757 294.637 632.116 294.637 630.474 294.637 629.654 293.511 628.628 292.235 627.328 290.509 626.165 289.008 623.908 289.008 618.779 289.008 615.632 295.988 615.632 297.564 615.632 297.939 615.837 298.39 616.453 298.39 617.069 298.39 617.205 298.014 617.342 297.564 618.642 294.112 622.609 294.037 623.156 294.037 624.592 294.037 625.892 294.562 627.465 295.162 630.201 296.288 630.953 296.288 632.731 296.288 630.269 299.516 624.524 304.92 623.224 306.121L617.069 312.425C612.418 317.454 610.024 321.732 610.024 322.257 610.024 323.008 610.708 323.008 610.845 323.008 611.392 323.008 611.529 322.858 611.939 322.032 613.512 319.405 615.564 317.379 617.753 317.379 619.326 317.379 620.01 318.054 621.72 320.231 622.882 321.807 624.113 323.008 626.097 323.008 632.868 323.008 636.835 313.476 636.835 311.449 636.835 311.074 636.562 310.699 636.014 310.699 635.399 310.699 635.262 311.149 635.057 311.675 633.484 316.553 629.106 317.979 626.849 317.979 625.481 317.979 624.25 317.529 622.814 317.004 620.488 316.028 619.463 315.728 618.026 315.728 617.889 315.728 616.795 315.728 616.179 315.953Z" fill-rule="evenodd"/><rect x="683" y="278" width="128" height="128" stroke="#000000" stroke-width="8" stroke-miterlimit="8" fill="none"/><path d="M0 0C24 0 48 24 48 48 48 72 72 96 96 96" stroke="#70AD47" stroke-width="8" stroke-miterlimit="8" fill="none" fill-rule="evenodd" transform="matrix(-1 0 0 1 794 294)"/><path d="M942 302 1004 302 1004 305 942 305Z" fill-rule="evenodd"/><path d="M991.521 318.775C993.004 317.233 994.554 316.227 999.069 316.16 999.81 316.16 1001.02 316.16 1001.02 314.216 1001.02 313.813 1000.69 313.009 999.81 313.009 997.856 313.009 995.632 313.21 993.61 313.21 991.117 313.21 988.556 313.009 986.13 313.009 985.659 313.009 984.311 313.009 984.311 314.953 984.311 316.16 985.456 316.16 986.13 316.16 986.804 316.16 988.152 316.294 989.163 316.63L970.9 336.076 962.275 316.428C964.161 316.16 964.229 316.16 966.048 316.16 967.194 316.16 968.339 316.093 968.339 314.216 968.339 313.344 967.598 313.009 966.857 313.009 964.566 313.009 958.703 313.21 956.412 313.21 954.862 313.21 953.245 313.143 951.762 313.143 950.145 313.143 948.46 313.009 946.91 313.009 946.236 313.009 945.023 313.009 945.023 314.953 945.023 316.16 945.966 316.16 947.786 316.16 948.662 316.16 949.471 316.16 950.414 316.227 951.223 316.361 951.358 316.361 951.762 317.233L962.005 340.635 958.501 354.449C958.231 355.589 958.164 355.656 956.951 355.723 955.805 355.857 954.66 355.857 953.447 355.857 951.425 355.857 951.29 355.857 951.021 356.125 950.616 356.461 950.347 357.332 950.347 357.802 950.347 357.936 950.414 359.009 951.829 359.009 953.514 359.009 955.266 358.875 956.951 358.875 958.568 358.875 960.253 358.807 961.87 358.807 964.161 358.807 969.89 359.009 972.181 359.009 972.787 359.009 974.135 359.009 974.135 357.064 974.135 355.857 973.191 355.857 971.305 355.857 969.89 355.857 968.609 355.79 967.194 355.723L970.968 340.635 991.521 318.775Z" fill-rule="evenodd"/><path d="M1045.21 366.515C1045.21 359.179 1040.22 347.909 1028.77 342.04 1035.87 338.172 1044.36 330.37 1045.15 317.899L1045.21 317.499 1045.21 271.283C1045.21 265.815 1045.21 264.614 1045.74 262.08 1046.92 256.745 1050.08 250.143 1058.43 245.141 1058.96 244.808 1059.02 244.741 1059.02 243.541 1059.02 242.073 1058.96 242.007 1057.51 242.007 1056.33 242.007 1056.2 242.007 1054.42 243.074 1039.69 251.543 1038.83 263.947 1038.83 266.282L1038.83 313.697C1038.83 318.499 1038.83 323.901 1035.41 330.036 1032.39 335.505 1028.84 338.239 1026.01 340.173 1025.09 340.773 1025.02 340.84 1025.02 341.973 1025.02 343.174 1025.09 343.241 1025.62 343.574 1031.21 347.309 1037.19 353.244 1038.64 364.114 1038.83 365.581 1038.83 365.715 1038.83 366.515L1038.83 417.732C1038.83 423.134 1042.12 434.338 1054.81 441.14 1056.33 442.007 1056.46 442.007 1057.51 442.007 1058.96 442.007 1059.02 441.94 1059.02 440.473 1059.02 439.273 1058.96 439.206 1058.69 439.073 1055.87 437.272 1047.25 432.003 1045.48 420.4 1045.21 418.666 1045.21 418.532 1045.21 417.665L1045.21 366.515Z" fill-rule="evenodd"/><path d="M1099.02 292.142C1099.02 286.793 1098.69 281.444 1096.36 276.496 1093.3 270.078 1087.85 269.008 1085.06 269.008 1081.07 269.008 1076.21 270.746 1073.49 276.964 1071.36 281.578 1071.02 286.793 1071.02 292.142 1071.02 297.156 1071.29 303.174 1074.02 308.255 1076.88 313.671 1081.73 315.008 1084.99 315.008 1088.58 315.008 1093.64 313.604 1096.56 307.252 1098.69 302.639 1099.02 297.424 1099.02 292.142ZM1084.99 313.537C1082.4 313.537 1078.47 311.866 1077.28 305.447 1076.54 301.435 1076.54 295.284 1076.54 291.339 1076.54 287.06 1076.54 282.647 1077.08 279.037 1078.34 271.081 1083.33 270.479 1084.99 270.479 1087.19 270.479 1091.58 271.682 1092.84 278.302 1093.5 282.046 1093.5 287.127 1093.5 291.339 1093.5 296.354 1093.5 300.9 1092.77 305.179 1091.78 311.531 1087.98 313.537 1084.99 313.537Z" fill-rule="evenodd"/><path d="M1088.69 366.727C1088.69 365.141 1088.69 365.009 1087.16 365.009 1083.02 369.238 1077.16 369.238 1075.02 369.238L1075.02 371.286C1076.36 371.286 1080.29 371.286 1083.76 369.568L1083.76 403.79C1083.76 406.169 1083.56 406.961 1077.56 406.961L1075.42 406.961 1075.42 409.009C1077.76 408.811 1083.56 408.811 1086.22 408.811 1088.89 408.811 1094.69 408.811 1097.02 409.009L1097.02 406.961 1094.89 406.961C1088.89 406.961 1088.69 406.235 1088.69 403.79L1088.69 366.727Z" fill-rule="evenodd"/></g></svg>