<svg width="1280" height="720" xmlns="http://www.w3.org/2000/svg" xmlns:xlink="http://www.w3.org/1999/xlink" overflow="hidden"><defs><clipPath id="clip0"><rect x="0" y="0" width="1280" height="720"/></clipPath></defs><g clip-path="url(#clip0)"><rect x="0" y="0" width="1280" height="720" fill="#FFFFFF"/><path d="M2-4.84257e-07 2.0001 423.6-1.9999 423.6-2 4.84257e-07ZM6.0001 421.6 0.000104987 433.6-5.9999 421.6Z" transform="matrix(1 0 0 -1 226 592.6)"/><path d="M58 545 1209.6 545 1209.6 549 58 549ZM1207.6 541 1219.6 547 1207.6 553Z"/><text font-family="KoPubWorldDotum Bold,KoPubWorldDotum Bold_MSFontService,sans-serif" font-weight="700" font-size="43" transform="translate(1082.08 537)">Price<tspan font-size="32" x="-1029.28" y="-12">0 (Fail)</tspan><tspan font-size="32" x="-1029.28" y="-296">1 (Success)</tspan></text><path d="M474.647 524.171 491.457 540.981 508.267 524.171 514.735 530.639 497.925 547.449 514.735 564.259 508.267 570.727 491.457 553.917 474.647 570.727 468.179 564.259 484.989 547.449 468.179 530.639Z" fill="#FF0000" fill-rule="evenodd"/><path d="M636.428 524.171 653.238 540.981 670.048 524.171 676.516 530.639 659.706 547.449 676.516 564.259 670.048 570.727 653.238 553.917 636.428 570.727 629.96 564.259 646.77 547.449 629.96 530.639Z" fill="#FF0000" fill-rule="evenodd"/><path d="M473.167 605.241C476.526 604.103 478.902 601.153 478.902 597.823 478.902 594.366 475.297 592.006 471.364 592.006 467.227 592.006 464.114 594.535 464.114 597.738 464.114 599.129 465.015 599.93 466.203 599.93 467.473 599.93 468.292 599.003 468.292 597.781 468.292 595.673 466.367 595.673 465.752 595.673 467.022 593.607 469.726 593.06 471.201 593.06 472.88 593.06 475.133 593.987 475.133 597.781 475.133 598.286 475.051 600.731 473.986 602.586 472.757 604.609 471.364 604.735 470.34 604.778 470.013 604.82 469.029 604.904 468.743 604.904 468.415 604.946 468.128 604.988 468.128 605.41 468.128 605.874 468.415 605.874 469.111 605.874L470.914 605.874C474.273 605.874 475.789 608.74 475.789 612.871 475.789 618.603 472.962 619.826 471.16 619.826 469.398 619.826 466.326 619.109 464.892 616.622 466.326 616.833 467.596 615.906 467.596 614.304 467.596 612.786 466.49 611.943 465.302 611.943 464.319 611.943 463.008 612.533 463.008 614.388 463.008 618.224 466.817 621.006 471.283 621.006 476.28 621.006 480.008 617.17 480.008 612.871 480.008 609.414 477.427 606.127 473.167 605.241Z" fill-rule="evenodd"/><path d="M502.009 606.59C502.009 603.218 501.795 599.846 500.298 596.727 498.332 592.68 494.826 592.006 493.03 592.006 490.465 592.006 487.344 593.102 485.591 597.022 484.222 599.93 484.009 603.218 484.009 606.59 484.009 609.751 484.18 613.545 485.933 616.749 487.771 620.163 490.892 621.006 492.987 621.006 495.296 621.006 498.546 620.121 500.427 616.116 501.795 613.208 502.009 609.92 502.009 606.59ZM492.987 620.078C491.32 620.078 488.797 619.025 488.028 614.978 487.557 612.449 487.557 608.571 487.557 606.084 487.557 603.387 487.557 600.605 487.899 598.329 488.712 593.312 491.918 592.933 492.987 592.933 494.398 592.933 497.22 593.692 498.033 597.865 498.46 600.225 498.46 603.429 498.46 606.084 498.46 609.246 498.46 612.112 497.99 614.81 497.348 618.814 494.911 620.078 492.987 620.078Z" fill-rule="evenodd"/><path d="M523.009 606.59C523.009 603.218 522.795 599.846 521.299 596.727 519.332 592.68 515.826 592.006 514.031 592.006 511.465 592.006 508.344 593.102 506.591 597.022 505.223 599.93 505.009 603.218 505.009 606.59 505.009 609.751 505.18 613.545 506.933 616.749 508.772 620.163 511.893 621.006 513.988 621.006 516.297 621.006 519.546 620.121 521.427 616.116 522.795 613.208 523.009 609.92 523.009 606.59ZM513.988 620.078C512.32 620.078 509.798 619.025 509.028 614.978 508.558 612.449 508.558 608.571 508.558 606.084 508.558 603.387 508.558 600.605 508.9 598.329 509.712 593.312 512.919 592.933 513.988 592.933 515.399 592.933 518.221 593.692 519.033 597.865 519.461 600.225 519.461 603.429 519.461 606.084 519.461 609.246 519.461 612.112 518.99 614.81 518.349 618.814 515.912 620.078 513.988 620.078Z" fill-rule="evenodd"/><path d="M634.417 613.938 634.417 617.665C634.417 619.207 634.331 619.678 631.157 619.678L630.256 619.678 630.256 621.006C632.015 620.877 634.245 620.877 636.047 620.877 637.848 620.877 640.121 620.877 641.88 621.006L641.88 619.678 640.979 619.678C637.805 619.678 637.719 619.207 637.719 617.665L637.719 613.938 642.008 613.938 642.008 612.61 637.719 612.61 637.719 593.12C637.719 592.263 637.719 592.006 637.033 592.006 636.647 592.006 636.518 592.006 636.175 592.52L623.008 612.61 623.008 613.938 634.417 613.938ZM634.674 612.61 624.209 612.61 634.674 596.632 634.674 612.61Z" fill-rule="evenodd"/><path d="M662.009 607.093C662.009 603.605 661.795 600.116 660.298 596.89 658.332 592.704 654.826 592.006 653.03 592.006 650.465 592.006 647.344 593.14 645.591 597.195 644.222 600.204 644.009 603.605 644.009 607.093 644.009 610.364 644.18 614.288 645.933 617.602 647.771 621.134 650.892 622.006 652.987 622.006 655.296 622.006 658.545 621.09 660.427 616.948 661.795 613.939 662.009 610.538 662.009 607.093ZM652.987 621.047C651.32 621.047 648.797 619.957 648.028 615.771 647.557 613.154 647.557 609.143 647.557 606.57 647.557 603.779 647.557 600.901 647.899 598.547 648.712 593.358 651.918 592.965 652.987 592.965 654.398 592.965 657.22 593.75 658.032 598.067 658.46 600.509 658.46 603.823 658.46 606.57 658.46 609.84 658.46 612.805 657.99 615.596 657.348 619.739 654.911 621.047 652.987 621.047Z" fill-rule="evenodd"/><path d="M684.009 607.093C684.009 603.605 683.795 600.116 682.299 596.89 680.332 592.704 676.826 592.006 675.031 592.006 672.465 592.006 669.344 593.14 667.591 597.195 666.223 600.204 666.009 603.605 666.009 607.093 666.009 610.364 666.18 614.288 667.933 617.602 669.772 621.134 672.893 622.006 674.988 622.006 677.297 622.006 680.546 621.09 682.427 616.948 683.795 613.939 684.009 610.538 684.009 607.093ZM674.988 621.047C673.32 621.047 670.798 619.957 670.028 615.771 669.558 613.154 669.558 609.143 669.558 606.57 669.558 603.779 669.558 600.901 669.9 598.547 670.712 593.358 673.919 592.965 674.988 592.965 676.399 592.965 679.221 593.75 680.033 598.067 680.461 600.509 680.461 603.823 680.461 606.57 680.461 609.84 680.461 612.805 679.99 615.596 679.349 619.739 676.912 621.047 674.988 621.047Z" fill-rule="evenodd"/><path d="M796.008 611.606C796.008 606.59 792.514 602.375 787.913 602.375 785.868 602.375 784.036 603.049 782.502 604.525L782.502 596.305C783.354 596.558 784.76 596.853 786.123 596.853 791.364 596.853 794.346 593.017 794.346 592.469 794.346 592.217 794.219 592.006 793.92 592.006 793.878 592.006 793.793 592.006 793.58 592.132 792.727 592.512 790.64 593.355 787.785 593.355 786.081 593.355 784.121 593.06 782.118 592.174 781.778 592.048 781.692 592.048 781.607 592.048 781.181 592.048 781.181 592.385 781.181 593.06L781.181 605.536C781.181 606.295 781.181 606.632 781.778 606.632 782.076 606.632 782.161 606.506 782.331 606.253 782.8 605.578 784.377 603.302 787.828 603.302 790.043 603.302 791.108 605.241 791.449 606 792.131 607.56 792.216 609.203 792.216 611.311 792.216 612.786 792.216 615.315 791.194 617.086 790.171 618.73 788.595 619.826 786.635 619.826 783.524 619.826 781.096 617.592 780.372 615.105 780.499 615.147 780.627 615.189 781.096 615.189 782.502 615.189 783.226 614.135 783.226 613.124 783.226 612.112 782.502 611.058 781.096 611.058 780.499 611.058 779.008 611.353 779.008 613.292 779.008 616.917 781.948 621.006 786.72 621.006 791.662 621.006 796.008 616.959 796.008 611.606Z" fill-rule="evenodd"/><path d="M817.008 606.59C817.008 603.218 816.806 599.846 815.393 596.727 813.535 592.68 810.224 592.006 808.528 592.006 806.106 592.006 803.158 593.102 801.502 597.022 800.21 599.93 800.008 603.218 800.008 606.59 800.008 609.751 800.17 613.545 801.825 616.749 803.562 620.163 806.509 621.006 808.488 621.006 810.668 621.006 813.737 620.121 815.514 616.116 816.806 613.208 817.008 609.92 817.008 606.59ZM808.488 620.078C806.913 620.078 804.531 619.025 803.804 614.978 803.36 612.449 803.36 608.571 803.36 606.084 803.36 603.387 803.36 600.605 803.683 598.329 804.45 593.312 807.478 592.933 808.488 592.933 809.82 592.933 812.486 593.692 813.253 597.865 813.657 600.225 813.657 603.429 813.657 606.084 813.657 609.246 813.657 612.112 813.212 614.81 812.607 618.814 810.305 620.078 808.488 620.078Z" fill-rule="evenodd"/><path d="M839.009 606.59C839.009 603.218 838.795 599.846 837.299 596.727 835.332 592.68 831.826 592.006 830.031 592.006 827.465 592.006 824.344 593.102 822.591 597.022 821.223 599.93 821.009 603.218 821.009 606.59 821.009 609.751 821.18 613.545 822.933 616.749 824.772 620.163 827.893 621.006 829.988 621.006 832.297 621.006 835.546 620.121 837.427 616.116 838.795 613.208 839.009 609.92 839.009 606.59ZM829.988 620.078C828.32 620.078 825.798 619.025 825.028 614.978 824.558 612.449 824.558 608.571 824.558 606.084 824.558 603.387 824.558 600.605 824.9 598.329 825.712 593.312 828.919 592.933 829.988 592.933 831.399 592.933 834.221 593.692 835.033 597.865 835.461 600.225 835.461 603.429 835.461 606.084 835.461 609.246 835.461 612.112 834.99 614.81 834.349 618.814 831.912 620.078 829.988 620.078Z" fill-rule="evenodd"/><path d="M938.695 605.253 938.695 604.241C938.695 593.577 943.774 592.06 945.863 592.06 946.846 592.06 948.567 592.312 949.468 593.746 948.854 593.746 947.215 593.746 947.215 595.642 947.215 596.949 948.198 597.581 949.099 597.581 949.755 597.581 950.984 597.202 950.984 595.558 950.984 593.029 949.181 591.006 945.781 591.006 940.538 591.006 935.008 596.443 935.008 605.759 935.008 617.013 939.76 620.006 943.569 620.006 948.116 620.006 952.008 616.044 952.008 610.48 952.008 605.127 948.362 601.08 943.815 601.08 941.029 601.08 939.514 603.23 938.695 605.253ZM943.569 618.826C940.988 618.826 939.76 616.297 939.514 615.664 938.776 613.683 938.776 610.311 938.776 609.552 938.776 606.265 940.087 602.049 943.774 602.049 944.429 602.049 946.314 602.049 947.584 604.663 948.321 606.222 948.321 608.372 948.321 610.438 948.321 612.461 948.321 614.568 947.625 616.086 946.396 618.615 944.511 618.826 943.569 618.826Z" fill-rule="evenodd"/><path d="M974.009 605.59C974.009 602.218 973.795 598.846 972.298 595.727 970.332 591.68 966.826 591.006 965.03 591.006 962.465 591.006 959.344 592.102 957.591 596.022 956.222 598.93 956.009 602.218 956.009 605.59 956.009 608.751 956.18 612.545 957.933 615.749 959.771 619.163 962.892 620.006 964.987 620.006 967.296 620.006 970.545 619.121 972.427 615.116 973.795 612.208 974.009 608.92 974.009 605.59ZM964.987 619.078C963.32 619.078 960.797 618.025 960.028 613.978 959.557 611.449 959.557 607.571 959.557 605.084 959.557 602.387 959.557 599.605 959.899 597.329 960.712 592.312 963.918 591.933 964.987 591.933 966.398 591.933 969.22 592.692 970.032 596.865 970.46 599.225 970.46 602.429 970.46 605.084 970.46 608.246 970.46 611.112 969.99 613.81 969.348 617.814 966.911 619.078 964.987 619.078Z" fill-rule="evenodd"/><path d="M995.009 605.59C995.009 602.218 994.795 598.846 993.299 595.727 991.332 591.68 987.826 591.006 986.031 591.006 983.465 591.006 980.344 592.102 978.591 596.022 977.223 598.93 977.009 602.218 977.009 605.59 977.009 608.751 977.18 612.545 978.933 615.749 980.772 619.163 983.893 620.006 985.988 620.006 988.297 620.006 991.546 619.121 993.427 615.116 994.795 612.208 995.009 608.92 995.009 605.59ZM985.988 619.078C984.32 619.078 981.798 618.025 981.028 613.978 980.558 611.449 980.558 607.571 980.558 605.084 980.558 602.387 980.558 599.605 980.9 597.329 981.712 592.312 984.919 591.933 985.988 591.933 987.399 591.933 990.221 592.692 991.033 596.865 991.461 599.225 991.461 602.429 991.461 605.084 991.461 608.246 991.461 611.112 990.99 613.81 990.349 617.814 987.912 619.078 985.988 619.078Z" fill-rule="evenodd"/><path d="M781 238.5C781 222.76 793.76 210 809.5 210 825.24 210 838 222.76 838 238.5 838 254.24 825.24 267 809.5 267 793.76 267 781 254.24 781 238.5ZM789.043 238.5C789.043 249.798 798.202 258.957 809.5 258.957 820.798 258.957 829.957 249.798 829.957 238.5 829.957 227.202 820.798 218.043 809.5 218.043 798.202 218.043 789.043 227.202 789.043 238.5Z" fill="#4472C4" fill-rule="evenodd"/><path d="M937 238.5C937 222.76 949.536 210 965 210 980.464 210 993 222.76 993 238.5 993 254.24 980.464 267 965 267 949.536 267 937 254.24 937 238.5ZM944.902 238.5C944.902 249.876 953.9 259.098 965 259.098 976.1 259.098 985.098 249.876 985.098 238.5 985.098 227.124 976.1 217.902 965 217.902 953.9 217.902 944.902 227.124 944.902 238.5Z" fill="#4472C4" fill-rule="evenodd"/><path d="M303.933 525.432 320.743 542.242 337.553 525.432 344.021 531.9 327.211 548.71 344.021 565.52 337.553 571.988 320.743 555.178 303.933 571.988 297.465 565.52 314.275 548.71 297.465 531.9Z" fill="#FF0000" fill-rule="evenodd"/><path d="M295.289 618.653 299.805 614.168C306.452 608.159 309.008 605.808 309.008 601.453 309.008 596.49 305.174 593.006 299.975 593.006 295.161 593.006 292.008 597.012 292.008 600.887 292.008 603.326 294.138 603.326 294.266 603.326 294.991 603.326 296.482 602.803 296.482 601.018 296.482 599.886 295.715 598.754 294.224 598.754 293.883 598.754 293.798 598.754 293.67 598.797 294.65 595.967 296.95 594.356 299.422 594.356 303.299 594.356 305.131 597.883 305.131 601.453 305.131 604.937 303.001 608.377 300.657 611.077L292.477 620.395C292.008 620.874 292.008 620.961 292.008 622.006L307.815 622.006 309.008 614.43 307.943 614.43C307.73 615.736 307.432 617.652 307.006 618.305 306.707 618.653 303.895 618.653 302.958 618.653L295.289 618.653Z" fill-rule="evenodd"/><path d="M331.009 608.093C331.009 604.605 330.795 601.116 329.298 597.89 327.332 593.704 323.826 593.006 322.03 593.006 319.465 593.006 316.344 594.14 314.591 598.195 313.222 601.204 313.009 604.605 313.009 608.093 313.009 611.364 313.18 615.288 314.933 618.602 316.771 622.134 319.892 623.006 321.987 623.006 324.296 623.006 327.546 622.09 329.427 617.948 330.795 614.939 331.009 611.538 331.009 608.093ZM321.987 622.047C320.32 622.047 317.797 620.957 317.028 616.771 316.557 614.154 316.557 610.143 316.557 607.57 316.557 604.779 316.557 601.901 316.899 599.547 317.712 594.358 320.918 593.965 321.987 593.965 323.398 593.965 326.22 594.75 327.032 599.067 327.46 601.509 327.46 604.823 327.46 607.57 327.46 610.84 327.46 613.805 326.99 616.596 326.348 620.739 323.911 622.047 321.987 622.047Z" fill-rule="evenodd"/><path d="M352.009 608.093C352.009 604.605 351.795 601.116 350.299 597.89 348.332 593.704 344.826 593.006 343.031 593.006 340.465 593.006 337.344 594.14 335.591 598.195 334.223 601.204 334.009 604.605 334.009 608.093 334.009 611.364 334.18 615.288 335.933 618.602 337.772 622.134 340.893 623.006 342.988 623.006 345.297 623.006 348.546 622.09 350.427 617.948 351.795 614.939 352.009 611.538 352.009 608.093ZM342.988 622.047C341.32 622.047 338.798 620.957 338.028 616.771 337.558 614.154 337.558 610.143 337.558 607.57 337.558 604.779 337.558 601.901 337.9 599.547 338.712 594.358 341.919 593.965 342.988 593.965 344.399 593.965 347.221 594.75 348.033 599.067 348.46 601.509 348.46 604.823 348.46 607.57 348.46 610.84 348.46 613.805 347.99 616.596 347.349 620.739 344.912 622.047 342.988 622.047Z" fill-rule="evenodd"/><path d="M1107.61 593.886C1108.01 593.37 1108.01 593.284 1108.01 592.381L1097.25 592.381C1091.84 592.381 1091.75 591.823 1091.58 591.006L1090.47 591.006 1089.01 599.86 1090.12 599.86C1090.25 599.172 1090.65 596.464 1091.22 595.949 1091.53 595.691 1094.99 595.691 1095.56 595.691L1104.73 595.691C1104.24 596.378 1100.75 601.063 1099.77 602.482 1095.78 608.284 1094.32 614.258 1094.32 618.642 1094.32 619.072 1094.32 621.006 1096.36 621.006 1098.4 621.006 1098.4 619.072 1098.4 618.642L1098.4 616.45C1098.4 614.086 1098.53 611.722 1098.88 609.401 1099.06 608.413 1099.68 604.717 1101.63 602.052L1107.61 593.886Z" fill-rule="evenodd"/><path d="M1128.01 606.093C1128.01 602.605 1127.79 599.116 1126.3 595.89 1124.33 591.704 1120.83 591.006 1119.03 591.006 1116.46 591.006 1113.34 592.14 1111.59 596.195 1110.22 599.204 1110.01 602.605 1110.01 606.093 1110.01 609.364 1110.18 613.288 1111.93 616.602 1113.77 620.134 1116.89 621.006 1118.99 621.006 1121.3 621.006 1124.55 620.09 1126.43 615.948 1127.79 612.939 1128.01 609.538 1128.01 606.093ZM1118.99 620.047C1117.32 620.047 1114.8 618.957 1114.03 614.771 1113.56 612.154 1113.56 608.143 1113.56 605.57 1113.56 602.779 1113.56 599.901 1113.9 597.547 1114.71 592.358 1117.92 591.965 1118.99 591.965 1120.4 591.965 1123.22 592.75 1124.03 597.067 1124.46 599.509 1124.46 602.823 1124.46 605.57 1124.46 608.84 1124.46 611.805 1123.99 614.596 1123.35 618.739 1120.91 620.047 1118.99 620.047Z" fill-rule="evenodd"/><path d="M1149.01 606.093C1149.01 602.605 1148.8 599.116 1147.3 595.89 1145.33 591.704 1141.83 591.006 1140.03 591.006 1137.47 591.006 1134.34 592.14 1132.59 596.195 1131.22 599.204 1131.01 602.605 1131.01 606.093 1131.01 609.364 1131.18 613.288 1132.93 616.602 1134.77 620.134 1137.89 621.006 1139.99 621.006 1142.3 621.006 1145.55 620.09 1147.43 615.948 1148.8 612.939 1149.01 609.538 1149.01 606.093ZM1139.99 620.047C1138.32 620.047 1135.8 618.957 1135.03 614.771 1134.56 612.154 1134.56 608.143 1134.56 605.57 1134.56 602.779 1134.56 599.901 1134.9 597.547 1135.71 592.358 1138.92 591.965 1139.99 591.965 1141.4 591.965 1144.22 592.75 1145.03 597.067 1145.46 599.509 1145.46 602.823 1145.46 605.57 1145.46 608.84 1145.46 611.805 1144.99 614.596 1144.35 618.739 1141.91 620.047 1139.99 620.047Z" fill-rule="evenodd"/><path d="M1092 238.5C1092 222.76 1104.76 210 1120.5 210 1136.24 210 1149 222.76 1149 238.5 1149 254.24 1136.24 267 1120.5 267 1104.76 267 1092 254.24 1092 238.5ZM1100.04 238.5C1100.04 249.798 1109.2 258.957 1120.5 258.957 1131.8 258.957 1140.96 249.798 1140.96 238.5 1140.96 227.202 1131.8 218.043 1120.5 218.043 1109.2 218.043 1100.04 227.202 1100.04 238.5Z" fill="#4472C4" fill-rule="evenodd"/></g></svg>