<svg width="1280" height="720" xmlns="http://www.w3.org/2000/svg" xmlns:xlink="http://www.w3.org/1999/xlink" overflow="hidden"><defs><clipPath id="clip0"><rect x="0" y="0" width="1280" height="720"/></clipPath></defs><g clip-path="url(#clip0)"><rect x="0" y="0" width="1280" height="720" fill="#FFFFFF"/><rect x="303" y="216" width="118" height="290" fill="#FFFFFF"/><path d="M322.468 366.007 327.027 366.007 327.027 247.007 305.026 247.007 305.026 251.571 322.468 251.571 322.468 366.007Z" fill-rule="evenodd"/><path d="M56 344 91.0001 344 91.0001 346 56 346Z" fill-rule="evenodd"/><path d="M87.7619 357.063C88.0222 356.133 88.0222 356 88.0222 355.534 88.0222 354.338 87.1111 353.74 86.135 353.74 85.4842 353.74 84.4429 354.139 83.8573 355.136 83.7271 355.468 83.2066 357.528 82.9462 358.724 82.4907 360.452 82.0351 362.247 81.6447 364.041L78.7163 376.004C78.456 377.001 75.6577 381.653 71.3627 381.653 68.0438 381.653 67.3279 378.729 67.3279 376.27 67.3279 373.213 68.4343 369.092 70.6469 363.244 71.6881 360.519 71.9484 359.788 71.9484 358.459 71.9484 355.468 69.866 353.009 66.6121 353.009 60.4299 353.009 58.0221 362.646 58.0221 363.244 58.0221 363.908 58.6729 363.908 58.803 363.908 59.4538 363.908 59.5188 363.775 59.8443 362.712 61.6013 356.465 64.2043 354.471 66.4169 354.471 66.9375 354.471 68.0438 354.471 68.0438 356.598 68.0438 358.259 67.393 359.987 66.9375 361.25 64.3344 368.295 63.1631 372.083 63.1631 375.207 63.1631 381.122 67.2629 383.116 71.1024 383.116 73.6403 383.116 75.8529 381.986 77.6751 380.125 76.8291 383.581 76.0482 386.837 73.4451 390.36 71.7532 392.619 69.2803 394.547 66.2868 394.547 65.3757 394.547 62.4473 394.347 61.341 391.755 62.3822 391.755 63.2282 391.755 64.1392 390.958 64.79 390.36 65.4408 389.496 65.4408 388.233 65.4408 386.173 63.6838 385.907 63.033 385.907 61.5362 385.907 59.3887 386.97 59.3887 390.227 59.3887 393.55 62.2521 396.009 66.2868 396.009 72.9896 396.009 79.6924 389.961 81.5146 382.451L87.7619 357.063Z" fill-rule="evenodd"/><path d="M153.824 360.744C154.794 360.744 156.023 360.744 156.023 359.377 156.023 358.009 154.794 358.009 153.889 358.009L115.157 358.009C114.251 358.009 113.023 358.009 113.023 359.377 113.023 360.744 114.251 360.744 115.221 360.744L153.824 360.744ZM153.889 374.009C154.794 374.009 156.023 374.009 156.023 372.642 156.023 371.274 154.794 371.274 153.824 371.274L115.221 371.274C114.251 371.274 113.023 371.274 113.023 372.642 113.023 374.009 114.251 374.009 115.157 374.009L153.889 374.009Z" fill-rule="evenodd"/><path d="M199.024 366.007 203.583 366.007 203.583 251.571 221.025 251.571 221.025 247.007 199.024 247.007 199.024 366.007Z" fill-rule="evenodd"/><path d="M199.024 486.009 221.025 486.009 221.025 481.406 203.583 481.406 203.583 366.009 199.024 366.009 199.024 486.009Z" fill-rule="evenodd"/><path d="M230.042 296.921 236.95 290.116C247.115 280.999 251.025 277.431 251.025 270.824 251.025 263.293 245.16 258.008 237.21 258.008 229.847 258.008 225.025 264.086 225.025 269.966 225.025 273.665 228.283 273.665 228.478 273.665 229.586 273.665 231.867 272.872 231.867 270.164 231.867 268.446 230.694 266.728 228.413 266.728 227.892 266.728 227.762 266.728 227.566 266.794 229.065 262.5 232.584 260.056 236.363 260.056 242.293 260.056 245.095 265.407 245.095 270.824 245.095 276.11 241.837 281.329 238.253 285.425L225.742 299.563C225.025 300.29 225.025 300.422 225.025 302.008L249.2 302.008 251.025 290.512 249.396 290.512C249.07 292.494 248.614 295.401 247.962 296.392 247.506 296.921 243.205 296.921 241.772 296.921L230.042 296.921Z" fill-rule="evenodd"/><path d="M267.026 298.508C267.026 296.592 265.441 295.008 263.526 295.008 261.611 295.008 260.026 296.592 260.026 298.508 260.026 300.423 261.611 302.008 263.526 302.008 265.441 302.008 267.026 300.423 267.026 298.508Z" fill-rule="evenodd"/><path d="M302.025 281.141C302.025 275.793 301.705 270.444 299.46 265.496 296.51 259.077 291.251 258.008 288.557 258.008 284.709 258.008 280.028 259.746 277.398 265.964 275.346 270.577 275.025 275.793 275.025 281.141 275.025 286.156 275.282 292.173 277.911 297.255 280.669 302.67 285.351 304.008 288.493 304.008 291.956 304.008 296.83 302.604 299.652 296.252 301.705 291.639 302.025 286.423 302.025 281.141ZM288.493 302.537C285.992 302.537 282.208 300.865 281.054 294.447 280.348 290.435 280.348 284.284 280.348 280.339 280.348 276.06 280.348 271.647 280.861 268.037 282.08 260.08 286.89 259.479 288.493 259.479 290.61 259.479 294.842 260.682 296.061 267.301 296.702 271.046 296.702 276.127 296.702 280.339 296.702 285.354 296.702 289.9 295.997 294.179 295.035 300.531 291.379 302.537 288.493 302.537Z" fill-rule="evenodd"/><path d="M240.692 339.726C240.692 338.141 240.692 338.009 239.159 338.009 235.025 342.237 229.159 342.237 227.025 342.237L227.025 344.285C228.359 344.285 232.292 344.285 235.759 342.567L235.759 376.79C235.759 379.168 235.559 379.961 229.559 379.961L227.425 379.961 227.425 382.009C229.759 381.811 235.559 381.811 238.225 381.811 240.892 381.811 246.692 381.811 249.025 382.009L249.025 379.961 246.892 379.961C240.892 379.961 240.692 379.234 240.692 376.79L240.692 339.726Z" fill-rule="evenodd"/><path d="M267.026 378.509C267.026 376.594 265.441 375.009 263.526 375.009 261.611 375.009 260.026 376.594 260.026 378.509 260.026 380.424 261.611 382.009 263.526 382.009 265.441 382.009 267.026 380.424 267.026 378.509Z" fill-rule="evenodd"/><path d="M302.025 361.143C302.025 355.794 301.705 350.445 299.46 345.497 296.51 339.079 291.251 338.009 288.557 338.009 284.709 338.009 280.028 339.747 277.398 345.965 275.346 350.579 275.025 355.794 275.025 361.143 275.025 366.157 275.282 372.175 277.911 377.256 280.669 382.672 285.351 384.009 288.493 384.009 291.956 384.009 296.83 382.605 299.652 376.253 301.705 371.64 302.025 366.425 302.025 361.143ZM288.493 382.538C285.992 382.538 282.208 380.866 281.054 374.448 280.348 370.436 280.348 364.285 280.348 360.34 280.348 356.061 280.348 351.648 280.861 348.038 282.08 340.082 286.89 339.48 288.493 339.48 290.61 339.48 294.842 340.683 296.061 347.302 296.702 351.047 296.702 356.128 296.702 360.34 296.702 365.355 296.702 369.901 295.997 374.181 295.035 380.532 291.379 382.538 288.493 382.538Z" fill-rule="evenodd"/><path d="M251.024 440.641C251.024 435.408 250.704 430.176 248.459 425.335 245.509 419.056 240.25 418.01 237.556 418.01 233.708 418.01 229.027 419.71 226.397 425.793 224.345 430.306 224.024 435.408 224.024 440.641 224.024 445.546 224.281 451.433 226.91 456.404 229.668 461.702 234.35 463.01 237.492 463.01 240.956 463.01 245.83 461.637 248.652 455.423 250.704 450.91 251.024 445.808 251.024 440.641ZM237.492 461.571C234.991 461.571 231.207 459.936 230.053 453.657 229.347 449.732 229.347 443.715 229.347 439.856 229.347 435.67 229.347 431.353 229.86 427.821 231.079 420.038 235.889 419.449 237.492 419.449 239.609 419.449 243.841 420.626 245.06 427.102 245.701 430.764 245.701 435.735 245.701 439.856 245.701 444.761 245.701 449.209 244.996 453.395 244.034 459.609 240.378 461.571 237.492 461.571Z" fill-rule="evenodd"/><path d="M267.026 458.51C267.026 456.595 265.441 455.01 263.526 455.01 261.611 455.01 260.026 456.595 260.026 458.51 260.026 460.425 261.611 462.01 263.526 462.01 265.441 462.01 267.026 460.425 267.026 458.51Z" fill-rule="evenodd"/><path d="M291.693 419.728C291.693 418.142 291.693 418.01 290.16 418.01 286.026 422.238 280.16 422.238 278.026 422.238L278.026 424.286C279.36 424.286 283.293 424.286 286.76 422.569L286.76 456.791C286.76 459.169 286.56 459.962 280.559 459.962L278.426 459.962 278.426 462.01C280.76 461.812 286.56 461.812 289.226 461.812 291.893 461.812 297.693 461.812 300.026 462.01L300.026 459.962 297.893 459.962C291.893 459.962 291.693 459.235 291.693 456.791L291.693 419.728Z" fill-rule="evenodd"/><path d="M322.468 481.406 305.026 481.406 305.026 486.009 327.027 486.009 327.027 366.009 322.468 366.009 322.468 481.406Z" fill-rule="evenodd"/><path d="M338 281 983.902 281 983.902 289 338 289ZM979.901 273 1003.9 285 979.901 297Z" fill="#4472C4"/><path d="M338 358 983.902 358 983.902 366 338 366ZM979.901 350 1003.9 362 979.901 374Z" fill="#4472C4"/><path d="M338 432 983.902 432 983.902 440 338 440ZM979.901 424 1003.9 436 979.901 448Z" fill="#4472C4"/><rect x="382" y="202" width="546" height="316" stroke="#2E75B6" stroke-width="8" stroke-miterlimit="8" fill="#FFFFFF"/><path d="M473.021 327.668C473.021 327.47 472.886 327.008 472.279 327.008 471.942 327.008 471.874 327.074 471.065 327.999L467.827 331.762C466.073 328.659 462.566 327.008 458.181 327.008 449.615 327.008 441.52 334.601 441.52 342.59 441.52 347.938 445.095 350.975 448.535 351.965L455.753 353.814C458.249 354.408 461.959 355.399 461.959 360.813 461.959 366.755 456.427 372.961 449.817 372.961 445.5 372.961 438.013 371.509 438.013 363.322 438.013 361.737 438.35 360.153 438.417 359.756 438.485 359.492 438.552 359.426 438.552 359.294 438.552 358.634 438.08 358.568 437.743 358.568 437.406 358.568 437.271 358.634 437.068 358.832 436.799 359.096 433.021 374.15 433.021 374.348 433.021 374.744 433.358 375.008 433.763 375.008 434.1 375.008 434.168 374.942 434.977 374.018L438.283 370.254C441.183 374.084 445.77 375.008 449.682 375.008 458.856 375.008 466.815 366.227 466.815 358.04 466.815 353.484 464.522 351.239 463.51 350.315 461.959 348.796 460.947 348.532 454.943 347.014 453.46 346.618 451.031 345.957 450.424 345.825 448.603 345.231 446.309 343.316 446.309 339.817 446.309 334.469 451.706 328.857 458.114 328.857 463.712 328.857 467.827 331.696 467.827 339.091 467.827 341.203 467.557 342.392 467.557 342.788 467.557 342.854 467.557 343.448 468.367 343.448 469.041 343.448 469.109 343.25 469.379 342.128L473.021 327.668Z" fill-rule="evenodd"/><path d="M497.022 389.348C497.022 389.15 497.022 389.018 495.85 387.896 487.229 379.58 485.022 367.106 485.022 357.008 485.022 345.524 487.643 334.04 496.126 325.79 497.022 324.998 497.022 324.866 497.022 324.668 497.022 324.206 496.746 324.008 496.333 324.008 495.643 324.008 489.436 328.496 485.367 336.878 481.85 344.138 481.022 351.464 481.022 357.008 481.022 362.156 481.781 370.142 485.574 377.6 489.712 385.718 495.643 390.008 496.333 390.008 496.746 390.008 497.022 389.81 497.022 389.348Z" fill-rule="evenodd"/><path d="M533.753 348.062C534.022 347.132 534.022 346.999 534.022 346.534 534.022 345.337 533.081 344.739 532.072 344.739 531.4 344.739 530.324 345.138 529.719 346.135 529.584 346.467 529.046 348.528 528.777 349.724 528.306 351.452 527.836 353.246 527.432 355.041L524.406 367.004C524.137 368.001 521.246 372.653 516.807 372.653 513.378 372.653 512.638 369.729 512.638 367.27 512.638 364.212 513.781 360.092 516.068 354.243 517.144 351.518 517.413 350.787 517.413 349.458 517.413 346.467 515.261 344.008 511.898 344.008 505.51 344.008 503.022 353.645 503.022 354.243 503.022 354.908 503.695 354.908 503.829 354.908 504.501 354.908 504.569 354.775 504.905 353.711 506.721 347.464 509.41 345.47 511.697 345.47 512.235 345.47 513.378 345.47 513.378 347.597 513.378 349.259 512.705 350.987 512.235 352.249 509.545 359.294 508.335 363.082 508.335 366.206 508.335 372.121 512.571 374.115 516.538 374.115 519.161 374.115 521.447 372.985 523.33 371.124 522.456 374.58 521.649 377.837 518.959 381.359 517.211 383.619 514.656 385.546 511.562 385.546 510.621 385.546 507.595 385.347 506.452 382.755 507.528 382.755 508.402 382.755 509.343 381.957 510.016 381.359 510.688 380.495 510.688 379.232 510.688 377.172 508.872 376.906 508.2 376.906 506.653 376.906 504.434 377.97 504.434 381.226 504.434 384.549 507.393 387.008 511.562 387.008 518.488 387.008 525.415 380.96 527.298 373.45L533.753 348.062Z" fill-rule="evenodd"/><path d="M548.821 354.759C548.821 354.022 548.266 353.008 546.973 353.008 545.725 353.008 544.385 354.206 544.385 355.542 544.385 356.325 544.986 357.292 546.233 357.292 547.573 357.292 548.821 356.002 548.821 354.759ZM539.395 378.158C539.21 378.757 538.979 379.31 538.979 380.093 538.979 382.258 540.828 384.008 543.369 384.008 547.989 384.008 550.022 377.652 550.022 376.961 550.022 376.362 549.422 376.362 549.283 376.362 548.636 376.362 548.59 376.638 548.405 377.145 547.342 380.83 545.309 382.719 543.507 382.719 542.583 382.719 542.352 382.12 542.352 381.106 542.352 380.047 542.676 379.172 543.092 378.158 543.554 376.915 544.062 375.671 544.57 374.473 544.986 373.368 546.649 369.176 546.834 368.623 546.973 368.163 547.111 367.61 547.111 367.149 547.111 364.984 545.263 363.234 542.722 363.234 538.148 363.234 536.022 369.499 536.022 370.282 536.022 370.88 536.669 370.88 536.808 370.88 537.455 370.88 537.501 370.65 537.639 370.143 538.841 366.182 540.874 364.524 542.583 364.524 543.323 364.524 543.738 364.892 543.738 366.136 543.738 367.195 543.461 367.886 542.306 370.742L539.395 378.158Z" fill-rule="evenodd"/><path d="M576.024 357.008C576.024 351.86 575.265 343.874 571.472 336.416 567.334 328.298 561.403 324.008 560.713 324.008 560.299 324.008 560.024 324.272 560.024 324.668 560.024 324.866 560.024 324.998 561.334 326.186 568.093 332.72 572.024 343.214 572.024 357.008 572.024 368.294 569.472 379.91 560.92 388.226 560.024 389.018 560.024 389.15 560.024 389.348 560.024 389.744 560.299 390.008 560.713 390.008 561.403 390.008 567.61 385.52 571.679 377.138 575.196 369.878 576.024 362.552 576.024 357.008Z" fill-rule="evenodd"/><path d="M646.774 351.743C647.766 351.743 649.023 351.743 649.023 350.376 649.023 349.008 647.766 349.008 646.84 349.008L607.207 349.008C606.28 349.008 605.023 349.008 605.023 350.376 605.023 351.743 606.28 351.743 607.273 351.743L646.774 351.743ZM646.84 365.009C647.766 365.009 649.023 365.009 649.023 363.641 649.023 362.273 647.766 362.273 646.774 362.273L607.273 362.273C606.28 362.273 605.023 362.273 605.023 363.641 605.023 365.009 606.28 365.009 607.207 365.009L646.84 365.009Z" fill-rule="evenodd"/><path d="M749.573 313.981C751.536 313.981 756.547 313.848 759.932 312.458 764.672 310.471 765.01 306.564 765.01 305.637 765.01 302.723 762.438 300.007 757.766 300.007 750.25 300.007 740.026 306.431 740.026 318.021 740.026 324.776 744.021 330.008 750.656 330.008 760.339 330.008 766.026 322.988 766.026 322.193 766.026 321.796 765.62 321.332 765.214 321.332 764.875 321.332 764.74 321.464 764.333 321.994 758.984 328.551 751.604 328.551 750.792 328.551 745.51 328.551 744.901 322.988 744.901 320.868 744.901 320.074 744.969 318.021 745.984 313.981L749.573 313.981ZM746.391 312.524C749.031 302.458 756.005 301.464 757.766 301.464 760.948 301.464 762.776 303.385 762.776 305.637 762.776 312.524 751.943 312.524 749.167 312.524L746.391 312.524Z" fill-rule="evenodd"/><path d="M794.832 287.884C795.027 287.255 795.027 287.165 795.027 286.895 795.027 285.996 794.247 285.456 793.419 285.456 792.883 285.456 791.957 285.681 791.421 286.536 791.275 286.805 790.885 288.244 790.641 289.143L789.618 292.875C789.325 293.954 787.815 299.619 787.669 300.114 787.62 300.114 785.476 304.025 781.674 304.025 778.361 304.025 778.361 301.103 778.361 300.294 778.361 297.866 779.481 295.033 780.943 291.571 781.528 290.132 781.772 289.593 781.772 288.829 781.772 286.67 779.774 285.007 777.142 285.007 772.22 285.007 770.027 291.122 770.027 291.886 770.027 292.47 770.709 292.47 770.856 292.47 771.538 292.47 771.587 292.246 771.733 291.751 772.951 288.019 775.047 286.266 776.996 286.266 777.825 286.266 778.214 286.76 778.214 287.839 778.214 288.874 777.776 289.863 777.532 290.447 775.193 295.932 774.706 297.596 774.706 299.574 774.706 300.339 774.706 302.452 776.606 303.891 778.117 305.06 780.164 305.284 781.479 305.284 783.429 305.284 785.183 304.61 786.791 303.261 786.158 305.734 785.622 307.622 783.575 309.87 782.259 311.264 780.31 312.748 777.727 312.748 777.386 312.748 775.095 312.748 774.072 311.264 776.704 310.994 776.704 308.836 776.704 308.791 776.704 307.353 775.29 307.083 774.803 307.083 773.585 307.083 771.977 307.982 771.977 310.05 771.977 312.343 774.316 314.007 777.776 314.007 782.698 314.007 788.692 310.5 790.203 304.88L794.832 287.884Z" fill-rule="evenodd"/><path d="M808.556 291.402C808.556 290.624 807.994 290.007 807.181 290.007 806.306 290.007 805.275 290.883 805.275 291.954 805.275 292.862 805.962 293.349 806.619 293.349 807.65 293.349 808.556 292.376 808.556 291.402ZM810.025 306.978C810.025 306.523 809.494 306.523 809.369 306.523 808.837 306.523 808.806 306.653 808.619 307.27 808.087 309.054 806.681 310.904 805.119 310.904 804.4 310.904 804.181 310.385 804.181 309.671 804.181 308.989 804.337 308.632 804.587 308.016 804.837 307.367 805.087 306.718 805.244 306.264 805.369 305.972 806.587 302.954 807.025 301.786 807.275 301.137 807.462 300.715 807.462 300.163 807.462 298.606 806.025 297.308 804.056 297.308 800.775 297.308 799.025 301.461 799.025 302.337 799.025 302.792 799.525 302.792 799.681 302.792 800.212 302.792 800.244 302.629 800.4 302.143 801.087 299.839 802.587 298.411 803.931 298.411 804.525 298.411 804.869 298.768 804.869 299.644 804.869 299.774 804.869 300.196 804.681 300.812 804.462 301.396 803.056 304.868 802.619 305.972 802.4 306.523 802.4 306.588 801.931 307.691 801.775 308.146 801.587 308.6 801.587 309.152 801.587 310.839 803.119 312.007 804.994 312.007 808.275 312.007 810.025 307.789 810.025 306.978Z" fill-rule="evenodd"/><path d="M680 356 877 356 877 358 680 358Z" fill-rule="evenodd"/><path d="M708.41 404.252 684.693 433.226C684.158 433.886 684.092 434.018 684.092 434.282 684.092 435.008 684.693 435.008 685.895 435.008L741.279 435.008 747.025 418.574 745.355 418.574C743.684 423.524 739.208 427.55 733.53 429.464 732.461 429.794 727.851 431.378 718.03 431.378L689.637 431.378 712.819 403.064C713.287 402.47 713.42 402.272 713.42 402.008 713.42 401.744 713.353 401.678 712.953 401.084L691.24 371.648 717.696 371.648C725.312 371.648 740.678 372.11 745.355 384.452L747.025 384.452 741.279 369.008 685.895 369.008C684.092 369.008 684.025 369.074 684.025 371.12L708.41 404.252Z" fill-rule="evenodd"/><path d="M771.025 409.762C771.025 408.978 770.433 408.009 769.203 408.009 767.882 408.009 766.652 409.301 766.652 410.547 766.652 411.285 767.198 412.3 768.474 412.3 769.704 412.3 771.025 411.1 771.025 409.762ZM761.367 440.858C760.592 444.041 758.178 446.717 755.49 446.717 754.898 446.717 754.351 446.625 753.85 446.441 755.034 445.887 755.399 444.78 755.399 444.088 755.399 442.98 754.533 442.381 753.622 442.381 752.21 442.381 751.025 443.626 751.025 445.103 751.025 446.856 752.802 448.009 755.535 448.009 758.269 448.009 763.599 446.348 765.012 440.72L769.112 424.203C769.248 423.695 769.34 423.28 769.34 422.588 769.34 420.051 767.198 418.251 764.465 418.251 759.408 418.251 756.492 424.664 756.492 425.31 756.492 425.91 757.13 425.91 757.267 425.91 757.813 425.91 757.859 425.772 758.178 425.08 759.317 422.404 761.686 419.543 764.328 419.543 765.467 419.543 765.877 420.328 765.877 421.804 765.877 422.311 765.786 422.957 765.74 423.188L761.367 440.858Z" fill-rule="evenodd"/><path d="M802.574 402.982C804.537 402.982 809.548 402.85 812.933 401.459 817.673 399.473 818.011 395.565 818.011 394.638 818.011 391.724 815.438 389.009 810.766 389.009 803.251 389.009 793.027 395.433 793.027 407.022 793.027 413.777 797.022 419.009 803.657 419.009 813.339 419.009 819.027 411.989 819.027 411.194 819.027 410.797 818.621 410.333 818.214 410.333 817.876 410.333 817.74 410.466 817.334 410.996 811.985 417.552 804.605 417.552 803.792 417.552 798.511 417.552 797.902 411.989 797.902 409.87 797.902 409.075 797.97 407.022 798.985 402.982L802.574 402.982ZM799.391 401.525C802.032 391.459 809.006 390.466 810.766 390.466 813.949 390.466 815.777 392.386 815.777 394.638 815.777 401.525 804.943 401.525 802.167 401.525L799.391 401.525Z" fill-rule="evenodd"/><path d="M847.84 380.985C848.027 380.334 848.027 380.241 848.027 379.962 848.027 379.032 847.278 378.474 846.483 378.474 845.969 378.474 845.08 378.706 844.565 379.59 844.425 379.869 844.05 381.357 843.816 382.288L842.834 386.148C842.553 387.264 841.103 393.125 840.963 393.637 840.916 393.637 838.857 397.683 835.208 397.683 832.027 397.683 832.027 394.66 832.027 393.823 832.027 391.311 833.103 388.381 834.506 384.799 835.068 383.311 835.302 382.753 835.302 381.962 835.302 379.729 833.384 378.009 830.857 378.009 826.132 378.009 824.027 384.334 824.027 385.125 824.027 385.729 824.682 385.729 824.822 385.729 825.477 385.729 825.524 385.497 825.664 384.985 826.834 381.125 828.846 379.311 830.717 379.311 831.512 379.311 831.887 379.823 831.887 380.939 831.887 382.009 831.466 383.032 831.232 383.637 828.986 389.311 828.518 391.032 828.518 393.078 828.518 393.869 828.518 396.055 830.343 397.544 831.793 398.753 833.758 398.985 835.021 398.985 836.892 398.985 838.577 398.288 840.121 396.892 839.512 399.45 838.998 401.404 837.033 403.729 835.77 405.171 833.898 406.706 831.419 406.706 831.091 406.706 828.892 406.706 827.91 405.171 830.436 404.892 830.436 402.66 830.436 402.613 830.436 401.125 829.08 400.846 828.612 400.846 827.442 400.846 825.898 401.776 825.898 403.916 825.898 406.288 828.144 408.009 831.466 408.009 836.191 408.009 841.945 404.381 843.395 398.567L847.84 380.985Z" fill-rule="evenodd"/><path d="M866.028 384.439C866.028 383.674 865.453 383.009 864.539 383.009 863.491 383.009 862.442 384.006 862.442 385.004 862.442 385.802 863.085 386.434 863.93 386.434 865.081 386.434 866.028 385.37 866.028 384.439ZM858.654 406.688C858.011 409.215 855.88 410.878 853.816 410.878 853.241 410.878 852.869 410.778 852.599 410.712 853.41 410.246 853.647 409.381 853.647 408.949 853.647 408.384 853.241 407.586 852.125 407.586 850.975 407.586 850.028 408.617 850.028 409.714 850.028 411.144 851.55 412.009 853.85 412.009 856.15 412.009 860.548 410.845 861.596 406.721L864.641 394.815C864.708 394.482 864.81 394.183 864.81 393.717 864.81 391.822 863.017 390.492 860.649 390.492 856.556 390.492 854.053 394.981 854.053 395.646 854.053 396.112 854.594 396.112 854.763 396.112 855.271 396.112 855.339 395.979 855.508 395.646 857.064 392.387 859.364 391.622 860.514 391.622 861.867 391.622 861.935 392.819 861.935 393.385 861.935 393.85 861.901 393.984 861.833 394.25L858.654 406.688Z" fill-rule="evenodd"/><path d="M1059.02 276.141C1059.02 270.793 1058.69 265.444 1056.36 260.496 1053.3 254.077 1047.85 253.008 1045.06 253.008 1041.07 253.008 1036.21 254.746 1033.49 260.964 1031.36 265.577 1031.02 270.793 1031.02 276.141 1031.02 281.156 1031.29 287.173 1034.02 292.255 1036.88 297.67 1041.73 299.008 1044.99 299.008 1048.58 299.008 1053.64 297.604 1056.56 291.252 1058.69 286.639 1059.02 281.423 1059.02 276.141ZM1044.99 297.537C1042.4 297.537 1038.47 295.865 1037.28 289.447 1036.54 285.435 1036.54 279.284 1036.54 275.339 1036.54 271.06 1036.54 266.647 1037.08 263.037 1038.34 255.08 1043.33 254.479 1044.99 254.479 1047.19 254.479 1051.58 255.682 1052.84 262.301 1053.5 266.046 1053.5 271.127 1053.5 275.339 1053.5 280.354 1053.5 284.9 1052.77 289.179 1051.77 295.531 1047.98 297.537 1044.99 297.537Z" fill-rule="evenodd"/><path d="M1074.02 294.508C1074.02 292.592 1072.44 291.008 1070.52 291.008 1068.61 291.008 1067.02 292.592 1067.02 294.508 1067.02 296.423 1068.61 298.008 1070.52 298.008 1072.44 298.008 1074.02 296.423 1074.02 294.508Z" fill-rule="evenodd"/><path d="M1110.44 257.423C1111.02 256.632 1111.02 256.5 1111.02 255.116L1095.16 255.116C1087.2 255.116 1087.07 254.26 1086.81 253.008L1085.18 253.008 1083.02 266.583 1084.66 266.583C1084.85 265.529 1085.44 261.377 1086.29 260.586 1086.74 260.191 1091.84 260.191 1092.68 260.191L1106.19 260.191C1105.48 261.245 1100.32 268.429 1098.88 270.604 1093.01 279.5 1090.86 288.661 1090.86 295.383 1090.86 296.042 1090.86 299.008 1093.86 299.008 1096.86 299.008 1096.86 296.042 1096.86 295.383L1096.86 292.022C1096.86 288.397 1097.06 284.773 1097.58 281.214 1097.84 279.698 1098.75 274.03 1101.63 269.944L1110.44 257.423Z" fill-rule="evenodd"/><path d="M1059.02 356.143C1059.02 350.794 1058.69 345.445 1056.36 340.497 1053.3 334.079 1047.85 333.009 1045.06 333.009 1041.07 333.009 1036.21 334.747 1033.49 340.965 1031.36 345.579 1031.02 350.794 1031.02 356.143 1031.02 361.157 1031.29 367.175 1034.02 372.256 1036.88 377.672 1041.73 379.009 1044.99 379.009 1048.58 379.009 1053.64 377.605 1056.56 371.253 1058.69 366.64 1059.02 361.425 1059.02 356.143ZM1044.99 377.538C1042.4 377.538 1038.47 375.866 1037.28 369.448 1036.54 365.436 1036.54 359.285 1036.54 355.34 1036.54 351.061 1036.54 346.648 1037.08 343.038 1038.34 335.082 1043.33 334.48 1044.99 334.48 1047.19 334.48 1051.58 335.683 1052.84 342.302 1053.5 346.047 1053.5 351.128 1053.5 355.34 1053.5 360.355 1053.5 364.901 1052.77 369.181 1051.77 375.532 1047.98 377.538 1044.99 377.538Z" fill-rule="evenodd"/><path d="M1074.02 373.509C1074.02 371.594 1072.44 370.009 1070.52 370.009 1068.61 370.009 1067.02 371.594 1067.02 373.509 1067.02 375.424 1068.61 377.009 1070.52 377.009 1072.44 377.009 1074.02 375.424 1074.02 373.509Z" fill-rule="evenodd"/><path d="M1088.04 371.922 1094.95 365.117C1105.11 356 1109.02 352.432 1109.02 345.826 1109.02 338.294 1103.16 333.009 1095.21 333.009 1087.85 333.009 1083.02 339.087 1083.02 344.967 1083.02 348.667 1086.28 348.667 1086.48 348.667 1087.59 348.667 1089.87 347.874 1089.87 345.165 1089.87 343.447 1088.69 341.73 1086.41 341.73 1085.89 341.73 1085.76 341.73 1085.57 341.796 1087.06 337.501 1090.58 335.057 1094.36 335.057 1100.29 335.057 1103.09 340.408 1103.09 345.826 1103.09 351.111 1099.84 356.33 1096.25 360.426L1083.74 374.564C1083.02 375.291 1083.02 375.423 1083.02 377.009L1107.2 377.009 1109.02 365.513 1107.4 365.513C1107.07 367.495 1106.61 370.402 1105.96 371.393 1105.51 371.922 1101.21 371.922 1099.77 371.922L1088.04 371.922Z" fill-rule="evenodd"/><path d="M1059.02 436.144C1059.02 430.795 1058.69 425.446 1056.36 420.499 1053.3 414.08 1047.85 413.01 1045.06 413.01 1041.07 413.01 1036.21 414.748 1033.49 420.967 1031.36 425.58 1031.02 430.795 1031.02 436.144 1031.02 441.158 1031.29 447.176 1034.02 452.257 1036.88 457.673 1041.73 459.01 1044.99 459.01 1048.58 459.01 1053.64 457.606 1056.56 451.254 1058.69 446.641 1059.02 441.426 1059.02 436.144ZM1044.99 457.539C1042.4 457.539 1038.47 455.868 1037.28 449.449 1036.54 445.438 1036.54 439.286 1036.54 435.342 1036.54 431.063 1036.54 426.65 1037.08 423.039 1038.34 415.083 1043.33 414.481 1044.99 414.481 1047.19 414.481 1051.58 415.685 1052.84 422.304 1053.5 426.048 1053.5 431.129 1053.5 435.342 1053.5 440.356 1053.5 444.903 1052.77 449.182 1051.77 455.533 1047.98 457.539 1044.99 457.539Z" fill-rule="evenodd"/><path d="M1074.02 453.51C1074.02 451.595 1072.44 450.01 1070.52 450.01 1068.61 450.01 1067.02 451.595 1067.02 453.51 1067.02 455.425 1068.61 457.01 1070.52 457.01 1072.44 457.01 1074.02 455.425 1074.02 453.51Z" fill-rule="evenodd"/><path d="M1098.69 414.728C1098.69 413.142 1098.69 413.01 1097.16 413.01 1093.03 417.238 1087.16 417.238 1085.03 417.238L1085.03 419.286C1086.36 419.286 1090.29 419.286 1093.76 417.569L1093.76 451.791C1093.76 454.169 1093.56 454.962 1087.56 454.962L1085.43 454.962 1085.43 457.01C1087.76 456.812 1093.56 456.812 1096.23 456.812 1098.89 456.812 1104.69 456.812 1107.03 457.01L1107.03 454.962 1104.89 454.962C1098.89 454.962 1098.69 454.235 1098.69 451.791L1098.69 414.728Z" fill-rule="evenodd"/><path d="M0.0045671-3 557.053-2.15196 557.044 3.84803-0.0045671 3ZM554.061-8.15653 572.047 0.870866 554.034 9.84345Z" fill="#FF0000" transform="matrix(1 0 0 -1 323 589.871)"/><path d="M155.22 580.14 148.575 578.562C145.355 577.799 143.331 575.051 143.331 572.099 143.331 568.536 146.134 565.432 150.184 565.432 158.854 565.432 159.997 573.778 160.308 576.068 160.36 576.374 160.36 576.679 160.931 576.679 161.606 576.679 161.606 576.425 161.606 575.458L161.606 565.228C161.606 564.363 161.606 564.007 161.035 564.007 160.672 564.007 160.62 564.057 160.256 564.668L158.439 567.569C156.881 566.093 154.753 564.007 150.132 564.007 144.369 564.007 140.008 568.485 140.008 573.88 140.008 578.104 142.76 581.819 146.809 583.194 147.38 583.397 150.028 584.008 153.663 584.873 155.064 585.229 156.622 585.586 158.076 587.469 159.166 588.792 159.685 590.472 159.685 592.151 159.685 595.765 157.089 599.429 152.728 599.429 151.222 599.429 147.277 599.174 144.525 596.681 141.514 593.932 141.358 590.675 141.306 588.843 141.254 588.334 140.839 588.334 140.683 588.334 140.008 588.334 140.008 588.69 140.008 589.606L140.008 599.785C140.008 600.65 140.008 601.007 140.579 601.007 140.942 601.007 140.994 600.905 141.358 600.345 141.358 600.294 141.514 600.141 143.227 597.444 144.836 599.174 148.159 601.007 152.78 601.007 158.854 601.007 163.008 596.019 163.008 590.421 163.008 585.331 159.581 581.158 155.22 580.14Z" fill="#FF0000" fill-rule="evenodd"/><path d="M172.366 589.033C172.366 580.51 176.67 578.314 179.452 578.314 179.925 578.314 183.232 578.366 185.069 580.249 182.917 580.405 182.602 581.974 182.602 582.654 182.602 584.013 183.547 585.059 185.016 585.059 186.381 585.059 187.431 584.17 187.431 582.602 187.431 579.046 183.442 577.007 179.4 577.007 172.838 577.007 168.008 582.654 168.008 589.137 168.008 595.83 173.205 601.007 179.295 601.007 186.329 601.007 188.009 594.732 188.009 594.209 188.009 593.686 187.484 593.686 187.326 593.686 186.854 593.686 186.749 593.896 186.644 594.209 185.122 599.072 181.709 599.7 179.767 599.7 176.985 599.7 172.366 597.451 172.366 589.033Z" fill="#FF0000" fill-rule="evenodd"/><path d="M215.009 589.242C215.009 582.549 209.592 577.007 203.036 577.007 196.264 577.007 191.009 582.706 191.009 589.242 191.009 595.987 196.644 601.007 202.982 601.007 209.538 601.007 215.009 595.883 215.009 589.242ZM203.036 599.7C200.707 599.7 198.323 598.602 196.86 596.196 195.506 593.896 195.506 590.706 195.506 588.824 195.506 586.785 195.506 583.961 196.806 581.66 198.269 579.255 200.815 578.157 202.982 578.157 205.366 578.157 207.696 579.307 209.104 581.556 210.513 583.804 210.513 586.837 210.513 588.824 210.513 590.706 210.513 593.53 209.321 595.83 208.129 598.183 205.745 599.7 203.036 599.7Z" fill="#FF0000" fill-rule="evenodd"/><path d="M225.456 582.731 225.456 577.007 218.01 577.579 218.01 579.192C221.76 579.192 222.188 579.556 222.188 582.106L222.188 596.052C222.188 598.394 221.599 598.394 218.01 598.394L218.01 600.007C220.099 599.955 222.617 599.851 224.117 599.851 226.26 599.851 228.778 599.851 230.92 600.007L230.92 598.394 229.795 598.394C225.831 598.394 225.724 597.821 225.724 595.948L225.724 587.934C225.724 582.783 227.974 578.151 232.045 578.151 232.42 578.151 232.528 578.151 232.635 578.203 232.474 578.255 231.403 578.88 231.403 580.233 231.403 581.69 232.528 582.471 233.706 582.471 234.67 582.471 236.01 581.846 236.01 580.181 236.01 578.516 234.349 577.007 232.045 577.007 228.135 577.007 226.206 580.493 225.456 582.731Z" fill="#FF0000" fill-rule="evenodd"/><path d="M243.351 587.255C243.661 579.464 248.002 578.157 249.759 578.157 255.082 578.157 255.599 585.216 255.599 587.255L243.351 587.255ZM243.299 588.353 257.718 588.353C258.855 588.353 259.01 588.353 259.01 587.255 259.01 582.079 256.219 577.007 249.759 577.007 243.764 577.007 239.01 582.392 239.01 588.928 239.01 595.935 244.436 601.007 250.379 601.007 256.684 601.007 259.01 595.203 259.01 594.209 259.01 593.686 258.596 593.582 258.338 593.582 257.873 593.582 257.77 593.896 257.666 594.314 255.857 599.7 251.206 599.7 250.689 599.7 248.105 599.7 246.038 598.131 244.85 596.196 243.299 593.686 243.299 590.236 243.299 588.353Z" fill="#FF0000" fill-rule="evenodd"/><path d="M272.108 590.288C273.252 590.497 277.515 591.334 277.515 595.098 277.515 597.765 275.695 599.857 271.64 599.857 267.273 599.857 265.402 596.876 264.414 592.432 264.258 591.752 264.206 591.543 263.686 591.543 263.01 591.543 263.01 591.909 263.01 592.85L263.01 599.752C263.01 600.641 263.01 601.007 263.582 601.007 263.842 601.007 263.894 600.954 264.882 599.961 264.986 599.857 264.986 599.752 265.922 598.758 268.209 600.954 270.549 601.007 271.64 601.007 277.619 601.007 280.01 597.503 280.01 593.739 280.01 590.968 278.451 589.399 277.827 588.771 276.111 587.098 274.084 586.68 271.9 586.262 268.989 585.686 265.506 585.007 265.506 581.974 265.506 580.144 266.857 578 271.328 578 277.047 578 277.307 582.706 277.411 584.327 277.463 584.798 277.931 584.798 278.035 584.798 278.711 584.798 278.711 584.536 278.711 583.543L278.711 578.262C278.711 577.373 278.711 577.007 278.139 577.007 277.879 577.007 277.775 577.007 277.099 577.634 276.943 577.843 276.423 578.314 276.215 578.471 274.24 577.007 272.108 577.007 271.328 577.007 264.986 577.007 263.01 580.51 263.01 583.438 263.01 585.268 263.842 586.732 265.246 587.883 266.909 589.242 268.365 589.556 272.108 590.288Z" fill="#FF0000" fill-rule="evenodd"/><path d="M948.113 584.813 957.008 584.813C963.324 584.813 969.008 580.662 969.008 575.538 969.008 570.516 963.798 566.007 956.587 566.007L938.008 566.007 938.008 567.595 939.271 567.595C943.324 567.595 943.429 568.159 943.429 570.004L943.429 597.01C943.429 598.854 943.324 599.418 939.271 599.418L938.008 599.418 938.008 601.007C939.85 600.853 943.745 600.853 945.745 600.853 947.745 600.853 951.692 600.853 953.534 601.007L953.534 599.418 952.271 599.418C948.219 599.418 948.113 598.854 948.113 597.01L948.113 584.813ZM947.955 583.481 947.955 569.645C947.955 567.954 948.061 567.595 950.534 567.595L955.219 567.595C963.587 567.595 963.587 573.027 963.587 575.538 963.587 577.947 963.587 583.481 955.219 583.481L947.955 583.481Z" fill="#FF0000" fill-rule="evenodd"/><path d="M981.455 583.731 981.455 578.007 974.009 578.579 974.009 580.192C977.759 580.192 978.187 580.556 978.187 583.106L978.187 597.052C978.187 599.394 977.598 599.394 974.009 599.394L974.009 601.007C976.098 600.955 978.616 600.851 980.116 600.851 982.259 600.851 984.777 600.851 986.92 601.007L986.92 599.394 985.795 599.394C981.83 599.394 981.723 598.821 981.723 596.948L981.723 588.934C981.723 583.783 983.973 579.151 988.045 579.151 988.42 579.151 988.527 579.151 988.634 579.203 988.473 579.255 987.402 579.88 987.402 581.233 987.402 582.69 988.527 583.471 989.705 583.471 990.67 583.471 992.009 582.846 992.009 581.181 992.009 579.516 990.348 578.007 988.045 578.007 984.134 578.007 982.205 581.493 981.455 583.731Z" fill="#FF0000" fill-rule="evenodd"/><path d="M1018.01 589.732C1018.01 583.318 1012.82 578.006 1006.53 578.006 1000.05 578.006 995.009 583.468 995.009 589.732 995.009 596.196 1000.41 601.006 1006.48 601.006 1012.77 601.006 1018.01 596.096 1018.01 589.732ZM1006.53 599.754C1004.3 599.754 1002.02 598.701 1000.62 596.396 999.318 594.192 999.318 591.135 999.318 589.331 999.318 587.377 999.318 584.671 1000.56 582.466 1001.97 580.161 1004.41 579.109 1006.48 579.109 1008.77 579.109 1011 580.211 1012.35 582.366 1013.7 584.521 1013.7 587.427 1013.7 589.331 1013.7 591.135 1013.7 593.841 1012.56 596.046 1011.42 598.301 1009.13 599.754 1006.53 599.754Z" fill="#FF0000" fill-rule="evenodd"/><path d="M1028.6 581.194 1028.6 565.007 1021.01 565.568 1021.01 567.151C1024.7 567.151 1025.12 567.509 1025.12 570.011L1025.12 600.445 1026.44 600.445C1026.49 600.394 1026.92 599.679 1028.34 597.279 1029.13 598.453 1031.35 601.007 1035.25 601.007 1041.52 601.007 1047.01 596.002 1047.01 589.415 1047.01 582.93 1041.84 577.875 1035.83 577.875 1031.72 577.875 1029.45 580.275 1028.6 581.194ZM1028.76 594.624 1028.76 584.104C1028.76 583.134 1028.76 583.083 1029.34 582.266 1031.4 579.407 1034.3 578.998 1035.57 578.998 1037.94 578.998 1039.84 580.326 1041.1 582.266 1042.47 584.36 1042.63 587.27 1042.63 589.364 1042.63 591.253 1042.53 594.317 1041 596.615 1039.89 598.198 1037.89 599.883 1035.04 599.883 1032.66 599.883 1030.77 598.658 1029.5 596.768 1028.76 595.696 1028.76 595.543 1028.76 594.624Z" fill="#FF0000" fill-rule="evenodd"/><path d="M1066.5 596.647C1066.71 598.651 1068.15 600.756 1070.65 600.756 1071.76 600.756 1075.01 600.054 1075.01 595.996L1075.01 593.189 1073.68 593.189 1073.68 595.996C1073.68 598.902 1072.35 599.203 1071.76 599.203 1070.01 599.203 1069.8 596.948 1069.8 596.697L1069.8 586.675C1069.8 584.571 1069.8 582.616 1067.88 580.762 1065.8 578.808 1063.14 578.006 1060.59 578.006 1056.23 578.006 1052.55 580.362 1052.55 583.669 1052.55 585.172 1053.62 586.024 1055 586.024 1056.49 586.024 1057.45 585.022 1057.45 583.719 1057.45 583.118 1057.18 581.464 1054.74 581.414 1056.17 579.66 1058.78 579.109 1060.48 579.109 1063.09 579.109 1066.12 581.063 1066.12 585.523L1066.12 587.377C1063.41 587.527 1059.68 587.677 1056.33 589.181 1052.34 590.885 1051.01 593.49 1051.01 595.695 1051.01 599.754 1056.17 601.006 1059.52 601.006 1063.04 601.006 1065.48 599.002 1066.5 596.647ZM1066.12 588.429 1066.12 593.44C1066.12 598.2 1062.29 599.904 1059.9 599.904 1057.29 599.904 1055.11 598.15 1055.11 595.645 1055.11 592.889 1057.34 588.73 1066.12 588.429Z" fill="#FF0000" fill-rule="evenodd"/><path d="M1084.61 581.194 1084.61 565.007 1077.01 565.568 1077.01 567.151C1080.7 567.151 1081.12 567.509 1081.12 570.011L1081.12 600.445 1082.44 600.445C1082.5 600.394 1082.92 599.679 1084.34 597.279 1085.13 598.453 1087.35 601.007 1091.25 601.007 1097.53 601.007 1103.01 596.002 1103.01 589.415 1103.01 582.93 1097.84 577.875 1091.83 577.875 1087.72 577.875 1085.45 580.275 1084.61 581.194ZM1084.76 594.624 1084.76 584.104C1084.76 583.134 1084.76 583.083 1085.34 582.266 1087.4 579.407 1090.3 578.998 1091.57 578.998 1093.94 578.998 1095.84 580.326 1097.1 582.266 1098.48 584.36 1098.63 587.27 1098.63 589.364 1098.63 591.253 1098.53 594.317 1097 596.615 1095.89 598.198 1093.89 599.883 1091.04 599.883 1088.67 599.883 1086.77 598.658 1085.5 596.768 1084.76 595.696 1084.76 595.543 1084.76 594.624Z" fill="#FF0000" fill-rule="evenodd"/><path d="M1114.41 577.883 1107.22 578.458 1107.22 580.08C1110.56 580.08 1111.02 580.394 1111.02 582.957L1111.02 597.031C1111.02 599.385 1110.45 599.385 1107.01 599.385L1107.01 601.007C1108.66 600.954 1111.43 600.85 1112.67 600.85 1114.46 600.85 1116.26 600.954 1118.01 601.007L1118.01 599.385C1114.62 599.385 1114.41 599.123 1114.41 597.083L1114.41 577.883ZM1114.62 568.779C1114.62 567.105 1113.33 566.007 1111.89 566.007 1110.3 566.007 1109.17 567.419 1109.17 568.779 1109.17 570.192 1110.3 571.552 1111.89 571.552 1113.33 571.552 1114.62 570.454 1114.62 568.779Z" fill="#FF0000" fill-rule="evenodd"/><path d="M1128.8 565.007 1121.01 565.577 1121.01 567.185C1124.8 567.185 1125.23 567.548 1125.23 570.09L1125.23 597.064C1125.23 599.399 1124.63 599.399 1121.01 599.399L1121.01 601.007C1122.8 600.955 1125.66 600.851 1127.01 600.851 1128.36 600.851 1131.01 600.955 1133.01 601.007L1133.01 599.399C1129.39 599.399 1128.8 599.399 1128.8 597.064L1128.8 565.007Z" fill="#FF0000" fill-rule="evenodd"/><path d="M1143.41 577.883 1136.22 578.458 1136.22 580.08C1139.56 580.08 1140.02 580.394 1140.02 582.957L1140.02 597.031C1140.02 599.385 1139.46 599.385 1136.01 599.385L1136.01 601.007C1137.66 600.954 1140.43 600.85 1141.67 600.85 1143.46 600.85 1145.26 600.954 1147.01 601.007L1147.01 599.385C1143.62 599.385 1143.41 599.123 1143.41 597.083L1143.41 577.883ZM1143.62 568.779C1143.62 567.105 1142.33 566.007 1140.89 566.007 1139.3 566.007 1138.17 567.419 1138.17 568.779 1138.17 570.192 1139.3 571.552 1140.89 571.552 1142.33 571.552 1143.62 570.454 1143.62 568.779Z" fill="#FF0000" fill-rule="evenodd"/><path d="M1158.38 579.997 1166.14 579.997 1166.14 578.412 1158.38 578.412 1158.38 569.007 1157.02 569.007C1156.96 573.198 1155.34 578.668 1150.01 578.872L1150.01 579.997 1154.63 579.997 1154.63 594.106C1154.63 600.393 1159.68 601.007 1161.64 601.007 1165.49 601.007 1167.01 597.377 1167.01 594.106L1167.01 591.192 1165.65 591.192 1165.65 594.003C1165.65 597.786 1164.03 599.729 1162.02 599.729 1158.38 599.729 1158.38 595.077 1158.38 594.208L1158.38 579.997Z" fill="#FF0000" fill-rule="evenodd"/><path d="M1179.09 577.883 1171.24 578.458 1171.24 580.08C1174.88 580.08 1175.39 580.394 1175.39 582.957L1175.39 597.031C1175.39 599.385 1174.77 599.385 1171.01 599.385L1171.01 601.007C1172.81 600.954 1175.84 600.85 1177.18 600.85 1179.14 600.85 1181.11 600.954 1183.01 601.007L1183.01 599.385C1179.31 599.385 1179.09 599.123 1179.09 597.083L1179.09 577.883ZM1179.31 568.779C1179.31 567.105 1177.91 566.007 1176.34 566.007 1174.6 566.007 1173.37 567.419 1173.37 568.779 1173.37 570.192 1174.6 571.552 1176.34 571.552 1177.91 571.552 1179.31 570.454 1179.31 568.779Z" fill="#FF0000" fill-rule="evenodd"/><path d="M1190.35 587.828C1190.66 580.362 1195 579.109 1196.76 579.109 1202.09 579.109 1202.6 585.874 1202.6 587.828L1190.35 587.828ZM1190.3 588.88 1204.72 588.88C1205.86 588.88 1206.01 588.88 1206.01 587.828 1206.01 582.867 1203.22 578.006 1196.76 578.006 1190.77 578.006 1186.01 583.168 1186.01 589.431 1186.01 596.146 1191.44 601.006 1197.38 601.006 1203.69 601.006 1206.01 595.444 1206.01 594.492 1206.01 593.991 1205.6 593.891 1205.34 593.891 1204.88 593.891 1204.77 594.192 1204.67 594.593 1202.86 599.754 1198.21 599.754 1197.69 599.754 1195.11 599.754 1193.04 598.251 1191.85 596.396 1190.3 593.991 1190.3 590.684 1190.3 588.88Z" fill="#FF0000" fill-rule="evenodd"/><path d="M1218.65 590.734C1219.86 590.935 1224.37 591.736 1224.37 595.344 1224.37 597.9 1222.45 599.904 1218.15 599.904 1213.53 599.904 1211.55 597.048 1210.5 592.789 1210.34 592.137 1210.28 591.937 1209.73 591.937 1209.01 591.937 1209.01 592.288 1209.01 593.189L1209.01 599.804C1209.01 600.656 1209.01 601.006 1209.62 601.006 1209.89 601.006 1209.95 600.956 1211 600.004 1211.11 599.904 1211.11 599.804 1212.1 598.852 1214.52 600.956 1217 601.006 1218.15 601.006 1224.48 601.006 1227.01 597.649 1227.01 594.041 1227.01 591.386 1225.36 589.882 1224.7 589.281 1222.89 587.677 1220.74 587.277 1218.43 586.876 1215.34 586.325 1211.66 585.673 1211.66 582.767 1211.66 581.013 1213.09 578.958 1217.82 578.958 1223.88 578.958 1224.15 583.468 1224.26 585.022 1224.32 585.473 1224.81 585.473 1224.92 585.473 1225.64 585.473 1225.64 585.222 1225.64 584.27L1225.64 579.209C1225.64 578.357 1225.64 578.006 1225.03 578.006 1224.76 578.006 1224.65 578.006 1223.93 578.608 1223.77 578.808 1223.22 579.259 1223 579.41 1220.9 578.006 1218.65 578.006 1217.82 578.006 1211.11 578.006 1209.01 581.364 1209.01 584.17 1209.01 585.924 1209.89 587.327 1211.38 588.429 1213.14 589.732 1214.68 590.033 1218.65 590.734Z" fill="#FF0000" fill-rule="evenodd"/></g></svg>