<svg width="1280" height="720" xmlns="http://www.w3.org/2000/svg" xmlns:xlink="http://www.w3.org/1999/xlink" overflow="hidden"><defs><clipPath id="clip0"><rect x="0" y="0" width="1280" height="720"/></clipPath></defs><g clip-path="url(#clip0)"><rect x="0" y="0" width="1280" height="720" fill="#FFFFFF"/><path d="M0 0 530.085 176.528" stroke="#00B050" stroke-width="8" stroke-miterlimit="8" stroke-opacity="0.239216" fill="none" fill-rule="evenodd" transform="matrix(1 0 0 -1 40 573.528)"/><path d="M0 0 1153.07 152.864" stroke="#00B050" stroke-width="8" stroke-miterlimit="8" fill="none" fill-rule="evenodd" transform="matrix(1 0 0 -1 40 557.864)"/><path d="M58 545 1209.6 545 1209.6 549 58 549ZM1207.6 541 1219.6 547 1207.6 553Z"/><path d="M242.851 534.807 252.34 544.295 261.829 534.807 265.48 538.457 255.991 547.946 265.48 557.435 261.829 561.086 252.34 551.597 242.851 561.086 239.2 557.435 248.689 547.946 239.2 538.457Z" fill="#FF0000" fill-rule="evenodd"/><path d="M305.924 534.807 315.412 544.295 324.901 534.807 328.552 538.457 319.063 547.946 328.552 557.435 324.901 561.086 315.412 551.597 305.924 561.086 302.273 557.435 311.762 547.946 302.273 538.457Z" fill="#FF0000" fill-rule="evenodd"/><path d="M426 394C426 385.163 433.163 378 442 378 450.837 378 458 385.163 458 394 458 402.837 450.837 410 442 410 433.163 410 426 402.837 426 394ZM430.516 394C430.516 400.343 435.657 405.484 442 405.484 448.343 405.484 453.484 400.343 453.484 394 453.484 387.657 448.343 382.516 442 382.516 435.657 382.516 430.516 387.657 430.516 394Z" fill="#4472C4" fill-rule="evenodd"/><path d="M488 394C488 385.163 495.163 378 504 378 512.837 378 520 385.163 520 394 520 402.837 512.837 410 504 410 495.163 410 488 402.837 488 394ZM492.516 394C492.516 400.343 497.657 405.484 504 405.484 510.343 405.484 515.484 400.343 515.484 394 515.484 387.657 510.343 382.516 504 382.516 497.657 382.516 492.516 387.657 492.516 394Z" fill="#4472C4" fill-rule="evenodd"/><path d="M179.779 534.807 189.267 544.295 198.756 534.807 202.407 538.457 192.918 547.946 202.407 557.435 198.756 561.086 189.267 551.597 179.779 561.086 176.128 557.435 185.616 547.946 176.128 538.457Z" fill="#FF0000" fill-rule="evenodd"/><path d="M1111 394C1111 385.163 1118.16 378 1127 378 1135.84 378 1143 385.163 1143 394 1143 402.837 1135.84 410 1127 410 1118.16 410 1111 402.837 1111 394ZM1115.52 394C1115.52 400.343 1120.66 405.484 1127 405.484 1133.34 405.484 1138.48 400.343 1138.48 394 1138.48 387.657 1133.34 382.516 1127 382.516 1120.66 382.516 1115.52 387.657 1115.52 394Z" fill="#4472C4" fill-rule="evenodd"/><path d="M123 464 731.646 464" stroke="#00B0F0" stroke-width="4" stroke-miterlimit="8" stroke-dasharray="12 4" fill="none" fill-rule="evenodd"/><text font-family="KoPubWorldDotum Bold,KoPubWorldDotum Bold_MSFontService,sans-serif" font-weight="700" font-size="19" transform="translate(78.653 468)">0.5</text><path d="M0 0 2.36829 449.445" stroke="#7030A0" stroke-width="6" stroke-miterlimit="8" fill="none" fill-rule="evenodd" transform="matrix(-1 0 0 1 733.368 173)"/><path d="M3.53795e-06-2 49.349-1.99991 49.349 2.00009-3.53795e-06 2ZM47.349-5.99992 59.349 0.000104987 47.349 6.00008Z" fill="#FF0000" transform="matrix(-1 0 0 1 732.349 173)"/><path d="M731 171 780.339 171 780.339 175 731 175ZM778.339 167 790.339 173 778.339 179Z" fill="#0070C0"/><path d="M239.582 588.221C241.755 587.515 243.293 585.683 243.293 583.616 243.293 581.471 240.96 580.006 238.415 580.006 235.738 580.006 233.724 581.576 233.724 583.564 233.724 584.427 234.307 584.924 235.076 584.924 235.897 584.924 236.427 584.349 236.427 583.59 236.427 582.282 235.182 582.282 234.784 582.282 235.606 581 237.355 580.66 238.309 580.66 239.396 580.66 240.854 581.235 240.854 583.59 240.854 583.904 240.801 585.422 240.112 586.573 239.317 587.828 238.415 587.907 237.753 587.933 237.541 587.959 236.904 588.012 236.719 588.012 236.507 588.038 236.321 588.064 236.321 588.326 236.321 588.613 236.507 588.613 236.957 588.613L238.124 588.613C240.297 588.613 241.278 590.392 241.278 592.956 241.278 596.515 239.449 597.273 238.283 597.273 237.143 597.273 235.155 596.828 234.227 595.285 235.155 595.416 235.977 594.84 235.977 593.846 235.977 592.904 235.261 592.381 234.492 592.381 233.856 592.381 233.008 592.747 233.008 593.898 233.008 596.279 235.473 598.006 238.362 598.006 241.596 598.006 244.008 595.625 244.008 592.956 244.008 590.811 242.338 588.77 239.582 588.221Z" fill-rule="evenodd"/><path d="M258.009 589.058C258.009 586.965 257.878 584.872 256.963 582.936 255.762 580.424 253.619 580.006 252.522 580.006 250.954 580.006 249.047 580.686 247.975 583.119 247.139 584.924 247.009 586.965 247.009 589.058 247.009 591.02 247.113 593.375 248.184 595.363 249.308 597.483 251.215 598.006 252.495 598.006 253.906 598.006 255.892 597.456 257.042 594.971 257.878 593.166 258.009 591.125 258.009 589.058ZM252.495 597.43C251.476 597.43 249.935 596.776 249.465 594.265 249.177 592.695 249.177 590.288 249.177 588.744 249.177 587.07 249.177 585.343 249.386 583.93 249.883 580.817 251.842 580.581 252.495 580.581 253.358 580.581 255.082 581.052 255.579 583.642 255.84 585.108 255.84 587.096 255.84 588.744 255.84 590.706 255.84 592.485 255.552 594.16 255.16 596.645 253.671 597.43 252.495 597.43Z" fill-rule="evenodd"/><path d="M271.009 589.058C271.009 586.965 270.878 584.872 269.964 582.936 268.762 580.424 266.62 580.006 265.522 580.006 263.954 580.006 262.047 580.686 260.976 583.119 260.14 584.924 260.009 586.965 260.009 589.058 260.009 591.02 260.113 593.375 261.185 595.363 262.308 597.483 264.216 598.006 265.496 598.006 266.907 598.006 268.893 597.456 270.042 594.971 270.878 593.166 271.009 591.125 271.009 589.058ZM265.496 597.43C264.477 597.43 262.935 596.776 262.465 594.265 262.178 592.695 262.178 590.288 262.178 588.744 262.178 587.07 262.178 585.343 262.387 583.93 262.883 580.817 264.843 580.581 265.496 580.581 266.358 580.581 268.083 581.052 268.579 583.642 268.84 585.108 268.84 587.096 268.84 588.744 268.84 590.706 268.84 592.485 268.553 594.16 268.161 596.645 266.672 597.43 265.496 597.43Z" fill-rule="evenodd"/><path d="M304.214 593.619 304.214 595.932C304.214 596.889 304.159 597.182 302.155 597.182L301.586 597.182 301.586 598.006C302.697 597.926 304.105 597.926 305.243 597.926 306.381 597.926 307.816 597.926 308.927 598.006L308.927 597.182 308.358 597.182C306.354 597.182 306.299 596.889 306.299 595.932L306.299 593.619 309.008 593.619 309.008 592.795 306.299 592.795 306.299 580.697C306.299 580.165 306.299 580.006 305.866 580.006 305.622 580.006 305.541 580.006 305.324 580.325L297.008 592.795 297.008 593.619 304.214 593.619ZM304.376 592.795 297.767 592.795 304.376 582.877 304.376 592.795Z" fill-rule="evenodd"/><path d="M322.009 589.058C322.009 586.965 321.878 584.872 320.963 582.936 319.762 580.424 317.619 580.006 316.522 580.006 314.954 580.006 313.047 580.686 311.975 583.119 311.139 584.924 311.009 586.965 311.009 589.058 311.009 591.02 311.113 593.375 312.184 595.363 313.308 597.483 315.215 598.006 316.495 598.006 317.906 598.006 319.892 597.456 321.042 594.971 321.878 593.166 322.009 591.125 322.009 589.058ZM316.495 597.43C315.476 597.43 313.935 596.776 313.465 594.265 313.177 592.695 313.177 590.288 313.177 588.744 313.177 587.07 313.177 585.343 313.386 583.93 313.883 580.817 315.842 580.581 316.495 580.581 317.358 580.581 319.082 581.052 319.579 583.642 319.84 585.108 319.84 587.096 319.84 588.744 319.84 590.706 319.84 592.485 319.552 594.16 319.16 596.645 317.671 597.43 316.495 597.43Z" fill-rule="evenodd"/><path d="M335.009 589.058C335.009 586.965 334.878 584.872 333.964 582.936 332.762 580.424 330.62 580.006 329.522 580.006 327.954 580.006 326.047 580.686 324.976 583.119 324.14 584.924 324.009 586.965 324.009 589.058 324.009 591.02 324.113 593.375 325.185 595.363 326.308 597.483 328.216 598.006 329.496 598.006 330.907 598.006 332.893 597.456 334.042 594.971 334.878 593.166 335.009 591.125 335.009 589.058ZM329.496 597.43C328.477 597.43 326.935 596.776 326.465 594.265 326.178 592.695 326.178 590.288 326.178 588.744 326.178 587.07 326.178 585.343 326.387 583.93 326.883 580.817 328.843 580.581 329.496 580.581 330.358 580.581 332.083 581.052 332.579 583.642 332.84 585.108 332.84 587.096 332.84 588.744 332.84 590.706 332.84 592.485 332.553 594.16 332.161 596.645 330.672 597.43 329.496 597.43Z" fill-rule="evenodd"/><path d="M371.008 592.172C371.008 589.058 368.748 586.442 365.77 586.442 364.447 586.442 363.262 586.86 362.269 587.776L362.269 582.674C362.82 582.831 363.73 583.015 364.612 583.015 368.003 583.015 369.933 580.634 369.933 580.294 369.933 580.137 369.851 580.006 369.658 580.006 369.63 580.006 369.575 580.006 369.437 580.084 368.886 580.32 367.535 580.843 365.688 580.843 364.585 580.843 363.317 580.66 362.021 580.11 361.8 580.032 361.745 580.032 361.69 580.032 361.414 580.032 361.414 580.241 361.414 580.66L361.414 588.404C361.414 588.875 361.414 589.084 361.8 589.084 361.993 589.084 362.048 589.006 362.159 588.849 362.462 588.43 363.482 587.017 365.715 587.017 367.149 587.017 367.838 588.221 368.059 588.692 368.5 589.66 368.555 590.68 368.555 591.988 368.555 592.904 368.555 594.474 367.893 595.573 367.231 596.593 366.211 597.273 364.943 597.273 362.931 597.273 361.359 595.887 360.891 594.343 360.973 594.369 361.056 594.395 361.359 594.395 362.269 594.395 362.738 593.741 362.738 593.113 362.738 592.485 362.269 591.831 361.359 591.831 360.973 591.831 360.008 592.015 360.008 593.218 360.008 595.468 361.911 598.006 364.998 598.006 368.196 598.006 371.008 595.494 371.008 592.172Z" fill-rule="evenodd"/><path d="M384.009 589.058C384.009 586.965 383.878 584.872 382.963 582.936 381.761 580.424 379.619 580.006 378.522 580.006 376.954 580.006 375.047 580.686 373.975 583.119 373.139 584.924 373.009 586.965 373.009 589.058 373.009 591.02 373.113 593.375 374.184 595.363 375.308 597.483 377.215 598.006 378.495 598.006 379.906 598.006 381.892 597.456 383.042 594.971 383.878 593.166 384.009 591.125 384.009 589.058ZM378.495 597.43C377.476 597.43 375.935 596.776 375.465 594.265 375.177 592.695 375.177 590.288 375.177 588.744 375.177 587.07 375.177 585.343 375.386 583.93 375.883 580.817 377.842 580.581 378.495 580.581 379.358 580.581 381.082 581.052 381.579 583.642 381.84 585.108 381.84 587.096 381.84 588.744 381.84 590.706 381.84 592.485 381.552 594.16 381.16 596.645 379.671 597.43 378.495 597.43Z" fill-rule="evenodd"/><path d="M397.009 589.058C397.009 586.965 396.878 584.872 395.964 582.936 394.762 580.424 392.62 580.006 391.522 580.006 389.954 580.006 388.047 580.686 386.976 583.119 386.14 584.924 386.009 586.965 386.009 589.058 386.009 591.02 386.113 593.375 387.185 595.363 388.308 597.483 390.216 598.006 391.496 598.006 392.907 598.006 394.893 597.456 396.042 594.971 396.878 593.166 397.009 591.125 397.009 589.058ZM391.496 597.43C390.477 597.43 388.935 596.776 388.465 594.265 388.178 592.695 388.178 590.288 388.178 588.744 388.178 587.07 388.178 585.343 388.387 583.93 388.883 580.817 390.843 580.581 391.496 580.581 392.358 580.581 394.083 581.052 394.579 583.642 394.84 585.108 394.84 587.096 394.84 588.744 394.84 590.706 394.84 592.485 394.553 594.16 394.161 596.645 392.672 597.43 391.496 597.43Z" fill-rule="evenodd"/><path d="M425.394 589.849 425.394 589.221C425.394 582.602 428.68 581.66 430.032 581.66 430.668 581.66 431.782 581.817 432.365 582.706 431.967 582.706 430.907 582.706 430.907 583.884 430.907 584.695 431.543 585.087 432.126 585.087 432.55 585.087 433.346 584.852 433.346 583.831 433.346 582.262 432.179 581.006 429.979 581.006 426.586 581.006 423.008 584.381 423.008 590.163 423.008 597.148 426.083 599.006 428.548 599.006 431.49 599.006 434.008 596.547 434.008 593.093 434.008 589.77 431.649 587.259 428.707 587.259 426.904 587.259 425.924 588.593 425.394 589.849ZM428.548 598.273C426.878 598.273 426.083 596.703 425.924 596.311 425.447 595.081 425.447 592.988 425.447 592.517 425.447 590.477 426.295 587.86 428.68 587.86 429.105 587.86 430.324 587.86 431.145 589.483 431.623 590.451 431.623 591.785 431.623 593.067 431.623 594.323 431.623 595.631 431.172 596.573 430.377 598.142 429.158 598.273 428.548 598.273Z" fill-rule="evenodd"/><path d="M447.009 590.058C447.009 587.965 446.878 585.872 445.963 583.936 444.762 581.424 442.619 581.006 441.522 581.006 439.954 581.006 438.047 581.686 436.975 584.119 436.139 585.924 436.009 587.965 436.009 590.058 436.009 592.02 436.113 594.375 437.184 596.363 438.308 598.483 440.215 599.006 441.495 599.006 442.906 599.006 444.892 598.456 446.042 595.971 446.878 594.166 447.009 592.125 447.009 590.058ZM441.495 598.43C440.476 598.43 438.935 597.776 438.465 595.265 438.177 593.695 438.177 591.288 438.177 589.744 438.177 588.07 438.177 586.343 438.386 584.93 438.883 581.817 440.842 581.581 441.495 581.581 442.358 581.581 444.082 582.052 444.579 584.642 444.84 586.108 444.84 588.096 444.84 589.744 444.84 591.706 444.84 593.485 444.552 595.16 444.16 597.645 442.671 598.43 441.495 598.43Z" fill-rule="evenodd"/><path d="M460.009 590.058C460.009 587.965 459.878 585.872 458.964 583.936 457.762 581.424 455.62 581.006 454.522 581.006 452.954 581.006 451.047 581.686 449.976 584.119 449.14 585.924 449.009 587.965 449.009 590.058 449.009 592.02 449.113 594.375 450.185 596.363 451.308 598.483 453.216 599.006 454.496 599.006 455.907 599.006 457.893 598.456 459.042 595.971 459.878 594.166 460.009 592.125 460.009 590.058ZM454.496 598.43C453.477 598.43 451.935 597.776 451.465 595.265 451.178 593.695 451.178 591.288 451.178 589.744 451.178 588.07 451.178 586.343 451.387 584.93 451.883 581.817 453.843 581.581 454.496 581.581 455.358 581.581 457.083 582.052 457.579 584.642 457.84 586.108 457.84 588.096 457.84 589.744 457.84 591.706 457.84 593.485 457.553 595.16 457.161 597.645 455.672 598.43 454.496 598.43Z" fill-rule="evenodd"/><path d="M172.937 595.925 175.594 593.141C179.504 589.411 181.008 587.952 181.008 585.249 181.008 582.168 178.752 580.006 175.694 580.006 172.862 580.006 171.008 582.492 171.008 584.898 171.008 586.411 172.261 586.411 172.336 586.411 172.762 586.411 173.639 586.087 173.639 584.979 173.639 584.276 173.188 583.574 172.311 583.574 172.11 583.574 172.06 583.574 171.985 583.601 172.561 581.844 173.915 580.844 175.369 580.844 177.649 580.844 178.727 583.033 178.727 585.249 178.727 587.411 177.474 589.547 176.095 591.222L171.283 597.006C171.008 597.303 171.008 597.357 171.008 598.006L180.306 598.006 181.008 593.303 180.381 593.303C180.256 594.114 180.08 595.303 179.83 595.709 179.654 595.925 178 595.925 177.449 595.925L172.937 595.925Z" fill-rule="evenodd"/><path d="M195.009 589.058C195.009 586.965 194.878 584.872 193.963 582.936 192.761 580.424 190.619 580.006 189.522 580.006 187.954 580.006 186.047 580.686 184.975 583.119 184.139 584.924 184.009 586.965 184.009 589.058 184.009 591.02 184.113 593.375 185.184 595.363 186.308 597.483 188.215 598.006 189.495 598.006 190.906 598.006 192.892 597.456 194.042 594.971 194.878 593.166 195.009 591.125 195.009 589.058ZM189.495 597.43C188.476 597.43 186.935 596.776 186.465 594.265 186.177 592.695 186.177 590.288 186.177 588.744 186.177 587.07 186.177 585.343 186.386 583.93 186.883 580.817 188.842 580.581 189.495 580.581 190.358 580.581 192.082 581.052 192.579 583.642 192.84 585.108 192.84 587.096 192.84 588.744 192.84 590.706 192.84 592.485 192.552 594.16 192.16 596.645 190.671 597.43 189.495 597.43Z" fill-rule="evenodd"/><path d="M208.009 589.058C208.009 586.965 207.878 584.872 206.964 582.936 205.762 580.424 203.619 580.006 202.522 580.006 200.954 580.006 199.047 580.686 197.976 583.119 197.14 584.924 197.009 586.965 197.009 589.058 197.009 591.02 197.113 593.375 198.185 595.363 199.308 597.483 201.216 598.006 202.496 598.006 203.907 598.006 205.893 597.456 207.042 594.971 207.878 593.166 208.009 591.125 208.009 589.058ZM202.496 597.43C201.477 597.43 199.935 596.776 199.465 594.265 199.178 592.695 199.178 590.288 199.178 588.744 199.178 587.07 199.178 585.343 199.387 583.93 199.883 580.817 201.843 580.581 202.496 580.581 203.358 580.581 205.083 581.052 205.579 583.642 205.84 585.108 205.84 587.096 205.84 588.744 205.84 590.706 205.84 592.485 205.553 594.16 205.161 596.645 203.672 597.43 202.496 597.43Z" fill-rule="evenodd"/><path d="M496.757 582.83C497.009 582.503 497.009 582.449 497.009 581.877L490.211 581.877C486.799 581.877 486.743 581.523 486.631 581.006L485.932 581.006 485.009 586.614 485.708 586.614C485.792 586.178 486.044 584.463 486.407 584.136 486.603 583.973 488.785 583.973 489.148 583.973L494.939 583.973C494.631 584.409 492.421 587.376 491.806 588.274 489.288 591.949 488.365 595.732 488.365 598.509 488.365 598.781 488.365 600.006 489.652 600.006 490.939 600.006 490.939 598.781 490.939 598.509L490.939 597.121C490.939 595.624 491.023 594.126 491.246 592.656 491.358 592.03 491.75 589.689 492.981 588.002L496.757 582.83Z" fill-rule="evenodd"/><path d="M509.009 591.058C509.009 588.965 508.878 586.872 507.963 584.936 506.762 582.424 504.619 582.006 503.522 582.006 501.954 582.006 500.047 582.686 498.975 585.119 498.139 586.924 498.009 588.965 498.009 591.058 498.009 593.02 498.113 595.375 499.184 597.363 500.308 599.483 502.215 600.006 503.495 600.006 504.906 600.006 506.892 599.456 508.042 596.971 508.878 595.166 509.009 593.125 509.009 591.058ZM503.495 599.43C502.476 599.43 500.935 598.776 500.465 596.265 500.177 594.695 500.177 592.288 500.177 590.744 500.177 589.07 500.177 587.343 500.386 585.93 500.883 582.817 502.842 582.581 503.495 582.581 504.358 582.581 506.082 583.052 506.579 585.642 506.84 587.108 506.84 589.096 506.84 590.744 506.84 592.706 506.84 594.485 506.552 596.16 506.16 598.645 504.671 599.43 503.495 599.43Z" fill-rule="evenodd"/><path d="M523.01 591.058C523.01 588.965 522.867 586.872 521.87 584.936 520.559 582.424 518.221 582.006 517.024 582.006 515.314 582.006 513.233 582.686 512.064 585.119 511.152 586.924 511.01 588.965 511.01 591.058 511.01 593.02 511.124 595.375 512.293 597.363 513.518 599.483 515.599 600.006 516.996 600.006 518.535 600.006 520.701 599.456 521.955 596.971 522.867 595.166 523.01 593.125 523.01 591.058ZM516.996 599.43C515.884 599.43 514.202 598.776 513.689 596.265 513.376 594.695 513.376 592.288 513.376 590.744 513.376 589.07 513.376 587.343 513.604 585.93 514.145 582.817 516.283 582.581 516.996 582.581 517.936 582.581 519.817 583.052 520.359 585.642 520.644 587.108 520.644 589.096 520.644 590.744 520.644 592.706 520.644 594.485 520.33 596.16 519.903 598.645 518.278 599.43 516.996 599.43Z" fill-rule="evenodd"/><text font-family="KoPubWorldDotum Bold,KoPubWorldDotum Bold_MSFontService,sans-serif" font-weight="700" font-size="19" transform="translate(40.5542 539)">0 (Fail)<tspan font-size="19" x="-30.9542" y="-141">1 (Success)</tspan><tspan font-size="43" x="1041.53" y="-2">Price</tspan></text><path d="M2-8.63999e-07 2.0001 233.025-1.9999 233.025-2 8.63999e-07ZM6.0001 231.025 0.000104987 243.025-5.9999 231.025Z" transform="matrix(1 0 0 -1 123 594.026)"/><path d="M362 395C362 386.163 369.163 379 378 379 386.837 379 394 386.163 394 395 394 403.837 386.837 411 378 411 369.163 411 362 403.837 362 395ZM366.516 395C366.516 401.343 371.657 406.484 378 406.484 384.343 406.484 389.484 401.343 389.484 395 389.484 388.657 384.343 383.516 378 383.516 371.657 383.516 366.516 388.657 366.516 395Z" fill="#4472C4" fill-rule="evenodd"/><path d="M1112.01 592.172C1112.01 589.058 1109.75 586.442 1106.77 586.442 1105.45 586.442 1104.26 586.86 1103.27 587.776L1103.27 582.674C1103.82 582.831 1104.73 583.015 1105.61 583.015 1109 583.015 1110.93 580.634 1110.93 580.294 1110.93 580.137 1110.85 580.006 1110.66 580.006 1110.63 580.006 1110.57 580.006 1110.44 580.084 1109.89 580.32 1108.53 580.843 1106.69 580.843 1105.58 580.843 1104.32 580.66 1103.02 580.11 1102.8 580.032 1102.75 580.032 1102.69 580.032 1102.41 580.032 1102.41 580.241 1102.41 580.66L1102.41 588.404C1102.41 588.875 1102.41 589.084 1102.8 589.084 1102.99 589.084 1103.05 589.006 1103.16 588.849 1103.46 588.43 1104.48 587.017 1106.72 587.017 1108.15 587.017 1108.84 588.221 1109.06 588.692 1109.5 589.66 1109.55 590.68 1109.55 591.988 1109.55 592.904 1109.55 594.474 1108.89 595.573 1108.23 596.593 1107.21 597.273 1105.94 597.273 1103.93 597.273 1102.36 595.887 1101.89 594.343 1101.97 594.369 1102.06 594.395 1102.36 594.395 1103.27 594.395 1103.74 593.741 1103.74 593.113 1103.74 592.485 1103.27 591.831 1102.36 591.831 1101.97 591.831 1101.01 592.015 1101.01 593.218 1101.01 595.468 1102.91 598.006 1106 598.006 1109.2 598.006 1112.01 595.494 1112.01 592.172Z" fill-rule="evenodd"/><path d="M1125.01 589.058C1125.01 586.965 1124.88 584.872 1123.96 582.936 1122.76 580.424 1120.62 580.006 1119.52 580.006 1117.95 580.006 1116.05 580.686 1114.98 583.119 1114.14 584.924 1114.01 586.965 1114.01 589.058 1114.01 591.02 1114.11 593.375 1115.18 595.363 1116.31 597.483 1118.22 598.006 1119.5 598.006 1120.91 598.006 1122.89 597.456 1124.04 594.971 1124.88 593.166 1125.01 591.125 1125.01 589.058ZM1119.5 597.43C1118.48 597.43 1116.93 596.776 1116.46 594.265 1116.18 592.695 1116.18 590.288 1116.18 588.744 1116.18 587.07 1116.18 585.343 1116.39 583.93 1116.88 580.817 1118.84 580.581 1119.5 580.581 1120.36 580.581 1122.08 581.052 1122.58 583.642 1122.84 585.108 1122.84 587.096 1122.84 588.744 1122.84 590.706 1122.84 592.485 1122.55 594.16 1122.16 596.645 1120.67 597.43 1119.5 597.43Z" fill-rule="evenodd"/><path d="M1139.01 589.058C1139.01 586.965 1138.88 584.872 1137.96 582.936 1136.76 580.424 1134.62 580.006 1133.52 580.006 1131.95 580.006 1130.05 580.686 1128.98 583.119 1128.14 584.924 1128.01 586.965 1128.01 589.058 1128.01 591.02 1128.11 593.375 1129.18 595.363 1130.31 597.483 1132.22 598.006 1133.5 598.006 1134.91 598.006 1136.89 597.456 1138.04 594.971 1138.88 593.166 1139.01 591.125 1139.01 589.058ZM1133.5 597.43C1132.48 597.43 1130.94 596.776 1130.46 594.265 1130.18 592.695 1130.18 590.288 1130.18 588.744 1130.18 587.07 1130.18 585.343 1130.39 583.93 1130.88 580.817 1132.84 580.581 1133.5 580.581 1134.36 580.581 1136.08 581.052 1136.58 583.642 1136.84 585.108 1136.84 587.096 1136.84 588.744 1136.84 590.706 1136.84 592.485 1136.55 594.16 1136.16 596.645 1134.67 597.43 1133.5 597.43Z" fill-rule="evenodd"/><path d="M1152.01 589.058C1152.01 586.965 1151.88 584.872 1150.96 582.936 1149.76 580.424 1147.62 580.006 1146.52 580.006 1144.95 580.006 1143.05 580.686 1141.98 583.119 1141.14 584.924 1141.01 586.965 1141.01 589.058 1141.01 591.02 1141.11 593.375 1142.19 595.363 1143.31 597.483 1145.22 598.006 1146.5 598.006 1147.91 598.006 1149.89 597.456 1151.04 594.971 1151.88 593.166 1152.01 591.125 1152.01 589.058ZM1146.5 597.43C1145.48 597.43 1143.94 596.776 1143.47 594.265 1143.18 592.695 1143.18 590.288 1143.18 588.744 1143.18 587.07 1143.18 585.343 1143.39 583.93 1143.88 580.817 1145.84 580.581 1146.5 580.581 1147.36 580.581 1149.08 581.052 1149.58 583.642 1149.84 585.108 1149.84 587.096 1149.84 588.744 1149.84 590.706 1149.84 592.485 1149.55 594.16 1149.16 596.645 1147.67 597.43 1146.5 597.43Z" fill-rule="evenodd"/><path d="M3.53795e-06-2 49.349-1.99991 49.349 2.00009-3.53795e-06 2ZM47.349-5.99992 59.349 0.000104987 47.349 6.00008Z" fill="#FF0000" transform="matrix(-1 0 0 1 732.349 173)"/><path d="M731 171 780.339 171 780.339 175 731 175ZM778.339 167 790.339 173 778.339 179Z" fill="#0070C0"/><text font-family="KoPubWorldDotum Bold,KoPubWorldDotum Bold_MSFontService,sans-serif" font-weight="700" font-size="32" transform="translate(643.216 161)">Fail<tspan font-size="32" x="127.438" y="-2">Success</tspan></text></g></svg>