<svg width="1280" height="720" xmlns="http://www.w3.org/2000/svg" xmlns:xlink="http://www.w3.org/1999/xlink" overflow="hidden"><defs><clipPath id="clip0"><rect x="0" y="0" width="1280" height="720"/></clipPath></defs><g clip-path="url(#clip0)"><rect x="0" y="0" width="1280" height="720" fill="#FFFFFF"/><path d="M2-6.84697e-07 2.0001 296.667-1.9999 296.667-2 6.84697e-07ZM6.0001 294.667 0.000104987 306.667-5.9999 294.667Z" transform="matrix(1 0 0 -1 112 377.667)"/><path d="M40 312 384.287 312 384.287 316 40 316ZM382.286 308 394.286 314 382.286 320Z"/><path d="M381.362 334.404C381.507 333.772 382.061 331.538 383.748 331.538 383.868 331.538 384.447 331.538 384.953 331.854 384.278 331.975 383.796 332.582 383.796 333.165 383.796 333.554 384.061 334.015 384.712 334.015 385.242 334.015 386.013 333.578 386.013 332.607 386.013 331.344 384.591 331.004 383.772 331.004 382.374 331.004 381.531 332.291 381.242 332.85 380.639 331.247 379.338 331.004 378.639 331.004 376.133 331.004 374.76 334.137 374.76 334.744 374.76 334.986 375.001 334.986 375.049 334.986 375.242 334.986 375.314 334.938 375.362 334.719 376.181 332.145 377.772 331.538 378.591 331.538 379.049 331.538 379.892 331.757 379.892 333.165 379.892 333.918 379.483 335.545 378.591 338.944 378.206 340.45 377.362 341.47 376.302 341.47 376.157 341.47 375.603 341.47 375.097 341.154 375.699 341.033 376.23 340.523 376.23 339.843 376.23 339.187 375.699 338.993 375.338 338.993 374.615 338.993 374.013 339.624 374.013 340.401 374.013 341.518 375.218 342.004 376.278 342.004 377.868 342.004 378.736 340.304 378.808 340.159 379.097 341.057 379.965 342.004 381.41 342.004 383.892 342.004 385.266 338.872 385.266 338.265 385.266 338.022 385.049 338.022 384.977 338.022 384.76 338.022 384.712 338.119 384.663 338.289 383.868 340.887 382.23 341.47 381.459 341.47 380.519 341.47 380.133 340.693 380.133 339.867 380.133 339.333 380.278 338.799 380.543 337.73L381.362 334.404Z" fill-rule="evenodd"/><path d="M392.115 334.51C392.115 334.022 392.088 334.004 391.703 334.004 390.824 335.143 389.574 335.161 389.011 335.161L389.011 335.812C389.34 335.812 390.247 335.812 391.002 335.306L391.002 344.523C391.002 345.119 391.002 345.354 389.629 345.354L389.107 345.354 389.107 346.004C389.354 345.986 391.044 345.932 391.552 345.932 391.978 345.932 393.708 345.986 394.011 346.004L394.011 345.354 393.489 345.354C392.115 345.354 392.115 345.119 392.115 344.523L392.115 334.51Z" fill-rule="evenodd"/><path d="M82.7487 74.4036C82.8812 73.7723 83.3892 71.5383 84.9354 71.5383 85.0459 71.5383 85.576 71.5383 86.0399 71.854 85.4214 71.9754 84.9796 72.5825 84.9796 73.1652 84.9796 73.5538 85.2226 74.0152 85.819 74.0152 86.3049 74.0152 87.0117 73.5781 87.0117 72.6067 87.0117 71.344 85.7085 71.0041 84.9575 71.0041 83.6764 71.0041 82.9033 72.2911 82.6382 72.8496 82.086 71.2469 80.8932 71.0041 80.2527 71.0041 77.9555 71.0041 76.6964 74.1366 76.6964 74.7436 76.6964 74.9864 76.9173 74.9864 76.9615 74.9864 77.1382 74.9864 77.2045 74.9379 77.2487 74.7193 77.9997 72.1454 79.4575 71.5383 80.2085 71.5383 80.6282 71.5383 81.4013 71.7569 81.4013 73.1652 81.4013 73.918 81.0258 75.545 80.2085 78.9445 79.8551 80.45 79.082 81.4699 78.1101 81.4699 77.9776 81.4699 77.4695 81.4699 77.0057 81.1542 77.5579 81.0328 78.0438 80.5229 78.0438 79.8429 78.0438 79.1874 77.5579 78.9931 77.2266 78.9931 76.5639 78.9931 76.0117 79.6244 76.0117 80.4015 76.0117 81.5184 77.1161 82.0041 78.088 82.0041 79.5459 82.0041 80.341 80.3043 80.4073 80.1586 80.6724 81.0571 81.4675 82.0041 82.7929 82.0041 85.068 82.0041 86.327 78.8717 86.327 78.2646 86.327 78.0218 86.1282 78.0218 86.0619 78.0218 85.8631 78.0218 85.819 78.1189 85.7748 78.2889 85.0459 80.8871 83.5439 81.4699 82.837 81.4699 81.9756 81.4699 81.6222 80.6929 81.6222 79.8672 81.6222 79.333 81.7547 78.7988 81.9977 77.7304L82.7487 74.4036Z" fill-rule="evenodd"/><path d="M97.0141 82.7153 96.3986 82.7153C96.3444 83.1129 96.1633 84.1792 95.9281 84.3599 95.7832 84.4683 94.3896 84.4683 94.1362 84.4683L90.8059 84.4683C92.7064 82.7876 93.3398 82.2815 94.4258 81.4322 95.7652 80.3659 97.0141 79.2455 97.0141 77.5286 97.0141 75.3418 95.0955 74.0044 92.7788 74.0044 90.5344 74.0044 89.014 75.5767 89.014 77.2394 89.014 78.1611 89.7923 78.2514 89.9733 78.2514 90.4077 78.2514 90.9326 77.9442 90.9326 77.2936 90.9326 76.9683 90.8059 76.3358 89.8647 76.3358 90.4258 75.0526 91.6566 74.6551 92.5072 74.6551 94.3172 74.6551 95.2584 76.0647 95.2584 77.5286 95.2584 79.1009 94.1362 80.3478 93.557 80.9984L89.195 85.2996C89.014 85.4623 89.014 85.4984 89.014 86.0045L96.471 86.0045 97.0141 82.7153Z" fill-rule="evenodd"/><path d="M317.211 175.952C316.044 177.73 314.907 178.102 313.625 178.181 313.275 178.208 313.012 178.208 313.012 178.712 313.012 178.871 313.158 179.004 313.391 179.004 314.179 179.004 315.082 178.924 315.899 178.924 316.861 178.924 317.881 179.004 318.814 179.004 318.989 179.004 319.368 179.004 319.368 178.5 319.368 178.208 319.106 178.181 318.902 178.181 318.231 178.128 317.531 177.916 317.531 177.253 317.531 176.934 317.706 176.642 317.94 176.271L320.155 172.874 327.473 172.874C327.531 173.431 327.939 177.04 327.939 177.306 327.939 178.102 326.423 178.181 325.84 178.181 325.432 178.181 325.141 178.181 325.141 178.712 325.141 179.004 325.491 179.004 325.549 179.004 326.744 179.004 327.998 178.924 329.193 178.924 329.922 178.924 331.759 179.004 332.488 179.004 332.663 179.004 333.012 179.004 333.012 178.473 333.012 178.181 332.721 178.181 332.342 178.181 330.534 178.181 330.534 177.996 330.447 177.226L328.668 160.641C328.61 160.11 328.61 160.004 328.114 160.004 327.648 160.004 327.531 160.19 327.356 160.455L317.211 175.952ZM320.709 172.052 326.453 163.295 327.386 172.052 320.709 172.052Z" fill="#FF0000" fill-rule="evenodd"/><path d="M281.211 202.952C280.044 204.73 278.907 205.102 277.625 205.181 277.275 205.208 277.012 205.208 277.012 205.712 277.012 205.871 277.158 206.004 277.391 206.004 278.179 206.004 279.082 205.924 279.899 205.924 280.861 205.924 281.881 206.004 282.814 206.004 282.989 206.004 283.368 206.004 283.368 205.5 283.368 205.208 283.106 205.181 282.902 205.181 282.231 205.128 281.531 204.916 281.531 204.253 281.531 203.934 281.706 203.642 281.94 203.271L284.155 199.874 291.473 199.874C291.531 200.431 291.939 204.04 291.939 204.306 291.939 205.102 290.423 205.181 289.84 205.181 289.432 205.181 289.141 205.181 289.141 205.712 289.141 206.004 289.491 206.004 289.549 206.004 290.744 206.004 291.998 205.924 293.193 205.924 293.922 205.924 295.759 206.004 296.488 206.004 296.663 206.004 297.012 206.004 297.012 205.473 297.012 205.181 296.721 205.181 296.342 205.181 294.534 205.181 294.534 204.996 294.447 204.226L292.668 187.641C292.61 187.11 292.61 187.004 292.114 187.004 291.648 187.004 291.531 187.19 291.356 187.455L281.211 202.952ZM284.709 199.052 290.453 190.295 291.386 199.052 284.709 199.052Z" fill="#FF0000" fill-rule="evenodd"/><path d="M187.318 203.834C187.038 204.919 186.982 205.142 184.769 205.142 184.292 205.142 184.012 205.142 184.012 205.698 184.012 206.004 184.264 206.004 184.769 206.004L194.769 206.004C199.194 206.004 202.5 202.722 202.5 199.995 202.5 197.993 200.875 196.379 198.158 196.073 201.071 195.545 204.012 193.486 204.012 190.843 204.012 188.785 202.164 187.004 198.802 187.004L189.39 187.004C188.858 187.004 188.578 187.004 188.578 187.561 188.578 187.867 188.83 187.867 189.362 187.867 189.419 187.867 189.951 187.867 190.427 187.922 190.931 187.978 191.183 188.006 191.183 188.367 191.183 188.479 191.155 188.562 191.071 188.896L187.318 203.834ZM191.547 195.823 193.284 188.924C193.536 187.95 193.592 187.867 194.797 187.867L198.41 187.867C200.875 187.867 201.463 189.508 201.463 190.732 201.463 193.18 199.054 195.823 195.637 195.823L191.547 195.823ZM190.287 205.142C189.895 205.142 189.839 205.142 189.671 205.114 189.39 205.086 189.306 205.058 189.306 204.836 189.306 204.752 189.306 204.697 189.447 204.196L191.379 196.435 196.673 196.435C199.363 196.435 199.895 198.493 199.895 199.689 199.895 202.444 197.402 205.142 194.096 205.142L190.287 205.142Z" fill="#0000FF" fill-rule="evenodd"/><path d="M167.318 248.834C167.038 249.919 166.982 250.142 164.769 250.142 164.292 250.142 164.012 250.142 164.012 250.698 164.012 251.004 164.264 251.004 164.769 251.004L174.769 251.004C179.194 251.004 182.5 247.722 182.5 244.995 182.5 242.993 180.875 241.379 178.158 241.073 181.071 240.545 184.012 238.486 184.012 235.843 184.012 233.785 182.164 232.004 178.802 232.004L169.39 232.004C168.858 232.004 168.578 232.004 168.578 232.561 168.578 232.867 168.83 232.867 169.362 232.867 169.419 232.867 169.951 232.867 170.427 232.922 170.931 232.978 171.183 233.006 171.183 233.367 171.183 233.479 171.155 233.562 171.071 233.896L167.318 248.834ZM171.547 240.823 173.284 233.924C173.536 232.95 173.592 232.867 174.797 232.867L178.41 232.867C180.875 232.867 181.463 234.508 181.463 235.732 181.463 238.18 179.054 240.823 175.637 240.823L171.547 240.823ZM170.287 250.142C169.895 250.142 169.839 250.142 169.671 250.114 169.39 250.086 169.306 250.058 169.306 249.836 169.306 249.752 169.306 249.697 169.447 249.196L171.379 241.435 176.673 241.435C179.363 241.435 179.895 243.493 179.895 244.689 179.895 247.444 177.402 250.142 174.096 250.142L170.287 250.142Z" fill="#0000FF" fill-rule="evenodd"/><path d="M381.012 285.279C381.012 285.197 380.962 285.004 380.733 285.004 380.657 285.004 380.632 285.032 380.353 285.334L378.578 287.453C378.35 287.068 377.184 285.004 374.37 285.004 368.717 285.004 363.012 291.084 363.012 297.466 363.012 302.006 366.004 305.004 369.883 305.004 372.088 305.004 374.015 303.904 375.359 302.638 377.717 300.383 378.148 297.879 378.148 297.797 378.148 297.521 377.894 297.521 377.843 297.521 377.691 297.521 377.564 297.576 377.514 297.797 377.286 298.594 376.702 300.548 374.953 302.143 373.204 303.684 371.607 304.151 370.288 304.151 368.007 304.151 365.319 302.721 365.319 298.429 365.319 296.861 365.852 292.405 368.387 289.186 369.933 287.233 372.316 285.857 374.573 285.857 377.159 285.857 378.655 287.975 378.655 291.167 378.655 292.267 378.578 292.294 378.578 292.57 378.578 292.845 378.857 292.845 378.959 292.845 379.288 292.845 379.288 292.79 379.415 292.294L381.012 285.279Z" fill="#00FF00" fill-rule="evenodd"/><path d="M157.012 266.265C157.012 266.187 156.962 266.004 156.733 266.004 156.657 266.004 156.632 266.03 156.353 266.318L154.578 268.33C154.35 267.964 153.184 266.004 150.37 266.004 144.717 266.004 139.012 271.78 139.012 277.843 139.012 282.155 142.004 285.004 145.883 285.004 148.088 285.004 150.015 283.959 151.359 282.756 153.717 280.613 154.148 278.235 154.148 278.157 154.148 277.895 153.894 277.895 153.843 277.895 153.691 277.895 153.564 277.948 153.514 278.157 153.286 278.915 152.702 280.77 150.953 282.286 149.204 283.75 147.607 284.194 146.288 284.194 144.007 284.194 141.319 282.835 141.319 278.758 141.319 277.268 141.852 273.034 144.387 269.977 145.933 268.121 148.316 266.814 150.573 266.814 153.159 266.814 154.655 268.827 154.655 271.858 154.655 272.904 154.578 272.93 154.578 273.191 154.578 273.452 154.857 273.452 154.959 273.452 155.288 273.452 155.288 273.4 155.415 272.93L157.012 266.265Z" fill="#00FF00" fill-rule="evenodd"/><path d="M2-6.84697e-07 2.0001 296.667-1.9999 296.667-2 6.84697e-07ZM6.0001 294.667 0.000104987 306.667-5.9999 294.667Z" transform="matrix(1 0 0 -1 535 377.667)"/><path d="M463 312 807.286 312 807.286 316 463 316ZM805.286 308 817.286 314 805.286 320Z"/><path d="M803.749 334.404C803.881 333.772 804.389 331.538 805.935 331.538 806.046 331.538 806.576 331.538 807.04 331.854 806.421 331.975 805.98 332.582 805.98 333.165 805.98 333.554 806.223 334.015 806.819 334.015 807.305 334.015 808.012 333.578 808.012 332.607 808.012 331.344 806.708 331.004 805.958 331.004 804.676 331.004 803.903 332.291 803.638 332.85 803.086 331.247 801.893 331.004 801.253 331.004 798.955 331.004 797.696 334.137 797.696 334.744 797.696 334.986 797.917 334.986 797.961 334.986 798.138 334.986 798.204 334.938 798.249 334.719 799 332.145 800.457 331.538 801.208 331.538 801.628 331.538 802.401 331.757 802.401 333.165 802.401 333.918 802.026 335.545 801.208 338.944 800.855 340.45 800.082 341.47 799.11 341.47 798.978 341.47 798.47 341.47 798.006 341.154 798.558 341.033 799.044 340.523 799.044 339.843 799.044 339.187 798.558 338.993 798.227 338.993 797.564 338.993 797.012 339.624 797.012 340.401 797.012 341.518 798.116 342.004 799.088 342.004 800.546 342.004 801.341 340.304 801.407 340.159 801.672 341.057 802.468 342.004 803.793 342.004 806.068 342.004 807.327 338.872 807.327 338.265 807.327 338.022 807.128 338.022 807.062 338.022 806.863 338.022 806.819 338.119 806.775 338.289 806.046 340.887 804.544 341.47 803.837 341.47 802.976 341.47 802.622 340.693 802.622 339.867 802.622 339.333 802.755 338.799 802.998 337.73L803.749 334.404Z" fill-rule="evenodd"/><path d="M814.738 334.51C814.738 334.022 814.705 334.004 814.244 334.004 813.189 335.143 811.689 335.161 811.013 335.161L811.013 335.812C811.408 335.812 812.496 335.812 813.403 335.306L813.403 344.523C813.403 345.119 813.403 345.354 811.755 345.354L811.128 345.354 811.128 346.004C811.425 345.986 813.452 345.932 814.062 345.932 814.573 345.932 816.65 345.986 817.013 346.004L817.013 345.354 816.386 345.354C814.738 345.354 814.738 345.119 814.738 344.523L814.738 334.51Z" fill-rule="evenodd"/><path d="M505.362 74.4036C505.507 73.7723 506.061 71.5383 507.748 71.5383 507.868 71.5383 508.447 71.5383 508.953 71.854 508.278 71.9754 507.796 72.5825 507.796 73.1652 507.796 73.5538 508.061 74.0152 508.712 74.0152 509.242 74.0152 510.013 73.5781 510.013 72.6067 510.013 71.344 508.591 71.0041 507.772 71.0041 506.374 71.0041 505.531 72.2911 505.242 72.8496 504.639 71.2469 503.338 71.0041 502.639 71.0041 500.133 71.0041 498.76 74.1366 498.76 74.7436 498.76 74.9864 499.001 74.9864 499.049 74.9864 499.242 74.9864 499.314 74.9379 499.362 74.7193 500.181 72.1454 501.772 71.5383 502.591 71.5383 503.049 71.5383 503.892 71.7569 503.892 73.1652 503.892 73.918 503.483 75.545 502.591 78.9445 502.206 80.45 501.362 81.4699 500.302 81.4699 500.157 81.4699 499.603 81.4699 499.097 81.1542 499.699 81.0328 500.23 80.5229 500.23 79.8429 500.23 79.1874 499.699 78.9931 499.338 78.9931 498.615 78.9931 498.013 79.6244 498.013 80.4015 498.013 81.5184 499.218 82.0041 500.278 82.0041 501.868 82.0041 502.736 80.3043 502.808 80.1586 503.097 81.0571 503.965 82.0041 505.41 82.0041 507.892 82.0041 509.266 78.8717 509.266 78.2646 509.266 78.0218 509.049 78.0218 508.977 78.0218 508.76 78.0218 508.712 78.1189 508.663 78.2889 507.868 80.8871 506.23 81.4699 505.459 81.4699 504.519 81.4699 504.133 80.6929 504.133 79.8672 504.133 79.333 504.278 78.7988 504.543 77.7304L505.362 74.4036Z" fill-rule="evenodd"/><path d="M519.012 82.7153 518.474 82.7153C518.426 83.1129 518.268 84.1792 518.062 84.3599 517.935 84.4683 516.716 84.4683 516.494 84.4683L513.58 84.4683C515.243 82.7876 515.797 82.2815 516.748 81.4322 517.919 80.3659 519.012 79.2455 519.012 77.5286 519.012 75.3418 517.334 74.0044 515.306 74.0044 513.343 74.0044 512.012 75.5767 512.012 77.2394 512.012 78.1611 512.693 78.2514 512.852 78.2514 513.232 78.2514 513.691 77.9442 513.691 77.2936 513.691 76.9683 513.58 76.3358 512.757 76.3358 513.248 75.0526 514.325 74.6551 515.069 74.6551 516.653 74.6551 517.476 76.0647 517.476 77.5286 517.476 79.1009 516.494 80.3478 515.987 80.9984L512.171 85.2996C512.012 85.4623 512.012 85.4984 512.012 86.0045L518.537 86.0045 519.012 82.7153Z" fill-rule="evenodd"/><path d="M739.211 175.952C738.044 177.73 736.907 178.102 735.625 178.181 735.275 178.208 735.012 178.208 735.012 178.712 735.012 178.871 735.158 179.004 735.391 179.004 736.179 179.004 737.082 178.924 737.899 178.924 738.861 178.924 739.881 179.004 740.814 179.004 740.989 179.004 741.368 179.004 741.368 178.5 741.368 178.208 741.106 178.181 740.902 178.181 740.231 178.128 739.531 177.916 739.531 177.253 739.531 176.934 739.706 176.642 739.94 176.271L742.155 172.874 749.473 172.874C749.531 173.431 749.939 177.04 749.939 177.306 749.939 178.102 748.423 178.181 747.84 178.181 747.432 178.181 747.141 178.181 747.141 178.712 747.141 179.004 747.49 179.004 747.549 179.004 748.744 179.004 749.998 178.924 751.193 178.924 751.922 178.924 753.759 179.004 754.488 179.004 754.663 179.004 755.012 179.004 755.012 178.473 755.012 178.181 754.721 178.181 754.342 178.181 752.534 178.181 752.534 177.996 752.447 177.226L750.668 160.641C750.61 160.11 750.61 160.004 750.114 160.004 749.648 160.004 749.531 160.19 749.356 160.455L739.211 175.952ZM742.709 172.052 748.453 163.295 749.385 172.052 742.709 172.052Z" fill="#FF0000" fill-rule="evenodd"/><path d="M704.211 202.952C703.044 204.73 701.907 205.102 700.625 205.181 700.275 205.208 700.012 205.208 700.012 205.712 700.012 205.871 700.158 206.004 700.391 206.004 701.179 206.004 702.082 205.924 702.899 205.924 703.861 205.924 704.881 206.004 705.814 206.004 705.989 206.004 706.368 206.004 706.368 205.5 706.368 205.208 706.106 205.181 705.902 205.181 705.231 205.128 704.531 204.916 704.531 204.253 704.531 203.934 704.706 203.642 704.94 203.271L707.155 199.874 714.473 199.874C714.531 200.431 714.939 204.04 714.939 204.306 714.939 205.102 713.423 205.181 712.84 205.181 712.432 205.181 712.141 205.181 712.141 205.712 712.141 206.004 712.49 206.004 712.549 206.004 713.744 206.004 714.998 205.924 716.193 205.924 716.922 205.924 718.759 206.004 719.488 206.004 719.663 206.004 720.012 206.004 720.012 205.473 720.012 205.181 719.721 205.181 719.342 205.181 717.534 205.181 717.534 204.996 717.447 204.226L715.668 187.641C715.61 187.11 715.61 187.004 715.114 187.004 714.648 187.004 714.531 187.19 714.356 187.455L704.211 202.952ZM707.709 199.052 713.453 190.295 714.385 199.052 707.709 199.052Z" fill="#FF0000" fill-rule="evenodd"/><path d="M609.318 203.834C609.038 204.919 608.982 205.142 606.769 205.142 606.292 205.142 606.012 205.142 606.012 205.698 606.012 206.004 606.264 206.004 606.769 206.004L616.769 206.004C621.194 206.004 624.5 202.722 624.5 199.995 624.5 197.993 622.875 196.379 620.158 196.073 623.071 195.545 626.012 193.486 626.012 190.843 626.012 188.785 624.164 187.004 620.802 187.004L611.391 187.004C610.858 187.004 610.578 187.004 610.578 187.561 610.578 187.867 610.83 187.867 611.362 187.867 611.419 187.867 611.951 187.867 612.427 187.922 612.931 187.978 613.183 188.006 613.183 188.367 613.183 188.479 613.155 188.562 613.071 188.896L609.318 203.834ZM613.547 195.823 615.284 188.924C615.536 187.95 615.592 187.867 616.797 187.867L620.41 187.867C622.875 187.867 623.463 189.508 623.463 190.732 623.463 193.18 621.054 195.823 617.637 195.823L613.547 195.823ZM612.287 205.142C611.895 205.142 611.839 205.142 611.671 205.114 611.391 205.086 611.306 205.058 611.306 204.836 611.306 204.752 611.306 204.697 611.447 204.196L613.379 196.435 618.673 196.435C621.362 196.435 621.895 198.493 621.895 199.689 621.895 202.444 619.402 205.142 616.096 205.142L612.287 205.142Z" fill="#0000FF" fill-rule="evenodd"/><path d="M589.318 248.834C589.038 249.919 588.982 250.142 586.769 250.142 586.292 250.142 586.012 250.142 586.012 250.698 586.012 251.004 586.264 251.004 586.769 251.004L596.769 251.004C601.194 251.004 604.5 247.722 604.5 244.995 604.5 242.993 602.875 241.379 600.158 241.073 603.071 240.545 606.012 238.486 606.012 235.843 606.012 233.785 604.164 232.004 600.802 232.004L591.391 232.004C590.858 232.004 590.578 232.004 590.578 232.561 590.578 232.867 590.83 232.867 591.362 232.867 591.419 232.867 591.951 232.867 592.427 232.922 592.931 232.978 593.183 233.006 593.183 233.367 593.183 233.479 593.155 233.562 593.071 233.896L589.318 248.834ZM593.547 240.823 595.284 233.924C595.536 232.95 595.592 232.867 596.797 232.867L600.41 232.867C602.875 232.867 603.463 234.508 603.463 235.732 603.463 238.18 601.054 240.823 597.637 240.823L593.547 240.823ZM592.287 250.142C591.895 250.142 591.839 250.142 591.671 250.114 591.391 250.086 591.306 250.058 591.306 249.836 591.306 249.752 591.306 249.697 591.447 249.196L593.379 241.435 598.673 241.435C601.362 241.435 601.895 243.493 601.895 244.689 601.895 247.444 599.402 250.142 596.096 250.142L592.287 250.142Z" fill="#0000FF" fill-rule="evenodd"/><path d="M804.012 285.279C804.012 285.197 803.962 285.004 803.733 285.004 803.657 285.004 803.632 285.032 803.353 285.334L801.578 287.453C801.35 287.068 800.184 285.004 797.37 285.004 791.717 285.004 786.012 291.084 786.012 297.466 786.012 302.006 789.004 305.004 792.883 305.004 795.088 305.004 797.015 303.904 798.359 302.638 800.717 300.383 801.148 297.879 801.148 297.797 801.148 297.521 800.894 297.521 800.843 297.521 800.691 297.521 800.564 297.576 800.514 297.797 800.286 298.594 799.702 300.548 797.953 302.143 796.204 303.684 794.607 304.151 793.288 304.151 791.007 304.151 788.319 302.721 788.319 298.429 788.319 296.861 788.852 292.405 791.387 289.186 792.933 287.233 795.316 285.857 797.573 285.857 800.159 285.857 801.655 287.975 801.655 291.167 801.655 292.267 801.578 292.294 801.578 292.57 801.578 292.845 801.857 292.845 801.959 292.845 802.288 292.845 802.288 292.79 802.415 292.294L804.012 285.279Z" fill="#00FF00" fill-rule="evenodd"/><path d="M579.012 266.265C579.012 266.187 578.962 266.004 578.733 266.004 578.657 266.004 578.632 266.03 578.353 266.318L576.578 268.33C576.35 267.964 575.184 266.004 572.37 266.004 566.717 266.004 561.012 271.78 561.012 277.843 561.012 282.155 564.004 285.004 567.883 285.004 570.088 285.004 572.015 283.959 573.359 282.756 575.717 280.613 576.148 278.235 576.148 278.157 576.148 277.895 575.894 277.895 575.843 277.895 575.691 277.895 575.564 277.948 575.514 278.157 575.286 278.915 574.702 280.77 572.953 282.286 571.204 283.75 569.607 284.194 568.288 284.194 566.007 284.194 563.319 282.835 563.319 278.758 563.319 277.268 563.852 273.034 566.387 269.977 567.933 268.121 570.316 266.814 572.573 266.814 575.159 266.814 576.655 268.827 576.655 271.858 576.655 272.904 576.578 272.93 576.578 273.191 576.578 273.452 576.857 273.452 576.959 273.452 577.288 273.452 577.288 273.4 577.415 272.93L579.012 266.265Z" fill="#00FF00" fill-rule="evenodd"/><path d="M2-6.84697e-07 2.0001 296.667-1.9999 296.667-2 6.84697e-07ZM6.0001 294.667 0.000104987 306.667-5.9999 294.667Z" transform="matrix(1 0 0 -1 957 377.667)"/><path d="M886 312 1230.29 312 1230.29 316 886 316ZM1228.29 308 1240.29 314 1228.29 320Z"/><path d="M1226.75 334.404C1226.88 333.772 1227.39 331.538 1228.94 331.538 1229.05 331.538 1229.58 331.538 1230.04 331.854 1229.42 331.975 1228.98 332.582 1228.98 333.165 1228.98 333.554 1229.22 334.015 1229.82 334.015 1230.3 334.015 1231.01 333.578 1231.01 332.607 1231.01 331.344 1229.71 331.004 1228.96 331.004 1227.68 331.004 1226.9 332.291 1226.64 332.85 1226.09 331.247 1224.89 331.004 1224.25 331.004 1221.96 331.004 1220.7 334.137 1220.7 334.744 1220.7 334.986 1220.92 334.986 1220.96 334.986 1221.14 334.986 1221.2 334.938 1221.25 334.719 1222 332.145 1223.46 331.538 1224.21 331.538 1224.63 331.538 1225.4 331.757 1225.4 333.165 1225.4 333.918 1225.03 335.545 1224.21 338.944 1223.86 340.45 1223.08 341.47 1222.11 341.47 1221.98 341.47 1221.47 341.47 1221.01 341.154 1221.56 341.033 1222.04 340.523 1222.04 339.843 1222.04 339.187 1221.56 338.993 1221.23 338.993 1220.56 338.993 1220.01 339.624 1220.01 340.401 1220.01 341.518 1221.12 342.004 1222.09 342.004 1223.55 342.004 1224.34 340.304 1224.41 340.159 1224.67 341.057 1225.47 342.004 1226.79 342.004 1229.07 342.004 1230.33 338.872 1230.33 338.265 1230.33 338.022 1230.13 338.022 1230.06 338.022 1229.86 338.022 1229.82 338.119 1229.77 338.289 1229.05 340.887 1227.54 341.47 1226.84 341.47 1225.98 341.47 1225.62 340.693 1225.62 339.867 1225.62 339.333 1225.75 338.799 1226 337.73L1226.75 334.404Z" fill-rule="evenodd"/><path d="M1237.74 334.51C1237.74 334.022 1237.71 334.004 1237.24 334.004 1236.19 335.143 1234.69 335.161 1234.01 335.161L1234.01 335.812C1234.41 335.812 1235.5 335.812 1236.4 335.306L1236.4 344.523C1236.4 345.119 1236.4 345.354 1234.75 345.354L1234.13 345.354 1234.13 346.004C1234.42 345.986 1236.45 345.932 1237.06 345.932 1237.57 345.932 1239.65 345.986 1240.01 346.004L1240.01 345.354 1239.39 345.354C1237.74 345.354 1237.74 345.119 1237.74 344.523L1237.74 334.51Z" fill-rule="evenodd"/><path d="M928.362 74.4036C928.507 73.7723 929.061 71.5383 930.748 71.5383 930.868 71.5383 931.447 71.5383 931.953 71.854 931.278 71.9754 930.796 72.5825 930.796 73.1652 930.796 73.5538 931.061 74.0152 931.712 74.0152 932.242 74.0152 933.013 73.5781 933.013 72.6067 933.013 71.344 931.591 71.0041 930.772 71.0041 929.374 71.0041 928.531 72.2911 928.242 72.8496 927.639 71.2469 926.338 71.0041 925.639 71.0041 923.133 71.0041 921.76 74.1366 921.76 74.7436 921.76 74.9864 922.001 74.9864 922.049 74.9864 922.242 74.9864 922.314 74.9379 922.362 74.7193 923.181 72.1454 924.772 71.5383 925.591 71.5383 926.049 71.5383 926.892 71.7569 926.892 73.1652 926.892 73.918 926.483 75.545 925.591 78.9445 925.206 80.45 924.362 81.4699 923.302 81.4699 923.157 81.4699 922.603 81.4699 922.097 81.1542 922.699 81.0328 923.23 80.5229 923.23 79.8429 923.23 79.1874 922.699 78.9931 922.338 78.9931 921.615 78.9931 921.013 79.6244 921.013 80.4015 921.013 81.5184 922.218 82.0041 923.278 82.0041 924.868 82.0041 925.736 80.3043 925.808 80.1586 926.097 81.0571 926.965 82.0041 928.41 82.0041 930.892 82.0041 932.266 78.8717 932.266 78.2646 932.266 78.0218 932.049 78.0218 931.977 78.0218 931.76 78.0218 931.712 78.1189 931.663 78.2889 930.868 80.8871 929.23 81.4699 928.459 81.4699 927.519 81.4699 927.133 80.6929 927.133 79.8672 927.133 79.333 927.278 78.7988 927.543 77.7304L928.362 74.4036Z" fill-rule="evenodd"/><path d="M942.012 82.7153 941.474 82.7153C941.426 83.1129 941.268 84.1792 941.062 84.3599 940.935 84.4683 939.716 84.4683 939.494 84.4683L936.58 84.4683C938.243 82.7876 938.797 82.2815 939.748 81.4322 940.919 80.3659 942.012 79.2455 942.012 77.5286 942.012 75.3418 940.334 74.0044 938.306 74.0044 936.343 74.0044 935.012 75.5767 935.012 77.2394 935.012 78.1611 935.693 78.2514 935.852 78.2514 936.232 78.2514 936.691 77.9442 936.691 77.2936 936.691 76.9683 936.58 76.3358 935.757 76.3358 936.248 75.0526 937.325 74.6551 938.069 74.6551 939.653 74.6551 940.476 76.0647 940.476 77.5286 940.476 79.1009 939.494 80.3478 938.987 80.9984L935.171 85.2996C935.012 85.4623 935.012 85.4984 935.012 86.0045L941.537 86.0045 942.012 82.7153Z" fill-rule="evenodd"/><path d="M1162.21 175.952C1161.04 177.73 1159.91 178.102 1158.62 178.181 1158.27 178.208 1158.01 178.208 1158.01 178.712 1158.01 178.871 1158.16 179.004 1158.39 179.004 1159.18 179.004 1160.08 178.924 1160.9 178.924 1161.86 178.924 1162.88 179.004 1163.81 179.004 1163.99 179.004 1164.37 179.004 1164.37 178.5 1164.37 178.208 1164.11 178.181 1163.9 178.181 1163.23 178.128 1162.53 177.916 1162.53 177.253 1162.53 176.934 1162.71 176.642 1162.94 176.271L1165.16 172.874 1172.47 172.874C1172.53 173.431 1172.94 177.04 1172.94 177.306 1172.94 178.102 1171.42 178.181 1170.84 178.181 1170.43 178.181 1170.14 178.181 1170.14 178.712 1170.14 179.004 1170.49 179.004 1170.55 179.004 1171.74 179.004 1173 178.924 1174.19 178.924 1174.92 178.924 1176.76 179.004 1177.49 179.004 1177.66 179.004 1178.01 179.004 1178.01 178.473 1178.01 178.181 1177.72 178.181 1177.34 178.181 1175.53 178.181 1175.53 177.996 1175.45 177.226L1173.67 160.641C1173.61 160.11 1173.61 160.004 1173.11 160.004 1172.65 160.004 1172.53 160.19 1172.36 160.455L1162.21 175.952ZM1165.71 172.052 1171.45 163.295 1172.39 172.052 1165.71 172.052Z" fill="#FF0000" fill-rule="evenodd"/><path d="M1127.21 202.952C1126.04 204.73 1124.91 205.102 1123.62 205.181 1123.27 205.208 1123.01 205.208 1123.01 205.712 1123.01 205.871 1123.16 206.004 1123.39 206.004 1124.18 206.004 1125.08 205.924 1125.9 205.924 1126.86 205.924 1127.88 206.004 1128.81 206.004 1128.99 206.004 1129.37 206.004 1129.37 205.5 1129.37 205.208 1129.11 205.181 1128.9 205.181 1128.23 205.128 1127.53 204.916 1127.53 204.253 1127.53 203.934 1127.71 203.642 1127.94 203.271L1130.16 199.874 1137.47 199.874C1137.53 200.431 1137.94 204.04 1137.94 204.306 1137.94 205.102 1136.42 205.181 1135.84 205.181 1135.43 205.181 1135.14 205.181 1135.14 205.712 1135.14 206.004 1135.49 206.004 1135.55 206.004 1136.74 206.004 1138 205.924 1139.19 205.924 1139.92 205.924 1141.76 206.004 1142.49 206.004 1142.66 206.004 1143.01 206.004 1143.01 205.473 1143.01 205.181 1142.72 205.181 1142.34 205.181 1140.53 205.181 1140.53 204.996 1140.45 204.226L1138.67 187.641C1138.61 187.11 1138.61 187.004 1138.11 187.004 1137.65 187.004 1137.53 187.19 1137.36 187.455L1127.21 202.952ZM1130.71 199.052 1136.45 190.295 1137.39 199.052 1130.71 199.052Z" fill="#FF0000" fill-rule="evenodd"/><path d="M1032.32 203.834C1032.04 204.919 1031.98 205.142 1029.77 205.142 1029.29 205.142 1029.01 205.142 1029.01 205.698 1029.01 206.004 1029.26 206.004 1029.77 206.004L1039.77 206.004C1044.19 206.004 1047.5 202.722 1047.5 199.995 1047.5 197.993 1045.88 196.379 1043.16 196.073 1046.07 195.545 1049.01 193.486 1049.01 190.843 1049.01 188.785 1047.16 187.004 1043.8 187.004L1034.39 187.004C1033.86 187.004 1033.58 187.004 1033.58 187.561 1033.58 187.867 1033.83 187.867 1034.36 187.867 1034.42 187.867 1034.95 187.867 1035.43 187.922 1035.93 187.978 1036.18 188.006 1036.18 188.367 1036.18 188.479 1036.16 188.562 1036.07 188.896L1032.32 203.834ZM1036.55 195.823 1038.28 188.924C1038.54 187.95 1038.59 187.867 1039.8 187.867L1043.41 187.867C1045.88 187.867 1046.46 189.508 1046.46 190.732 1046.46 193.18 1044.05 195.823 1040.64 195.823L1036.55 195.823ZM1035.29 205.142C1034.89 205.142 1034.84 205.142 1034.67 205.114 1034.39 205.086 1034.31 205.058 1034.31 204.836 1034.31 204.752 1034.31 204.697 1034.45 204.196L1036.38 196.435 1041.67 196.435C1044.36 196.435 1044.89 198.493 1044.89 199.689 1044.89 202.444 1042.4 205.142 1039.1 205.142L1035.29 205.142Z" fill="#0000FF" fill-rule="evenodd"/><path d="M1012.32 248.834C1012.04 249.919 1011.98 250.142 1009.77 250.142 1009.29 250.142 1009.01 250.142 1009.01 250.698 1009.01 251.004 1009.26 251.004 1009.77 251.004L1019.77 251.004C1024.19 251.004 1027.5 247.722 1027.5 244.995 1027.5 242.993 1025.88 241.379 1023.16 241.073 1026.07 240.545 1029.01 238.486 1029.01 235.843 1029.01 233.785 1027.16 232.004 1023.8 232.004L1014.39 232.004C1013.86 232.004 1013.58 232.004 1013.58 232.561 1013.58 232.867 1013.83 232.867 1014.36 232.867 1014.42 232.867 1014.95 232.867 1015.43 232.922 1015.93 232.978 1016.18 233.006 1016.18 233.367 1016.18 233.479 1016.16 233.562 1016.07 233.896L1012.32 248.834ZM1016.55 240.823 1018.28 233.924C1018.54 232.95 1018.59 232.867 1019.8 232.867L1023.41 232.867C1025.88 232.867 1026.46 234.508 1026.46 235.732 1026.46 238.18 1024.05 240.823 1020.64 240.823L1016.55 240.823ZM1015.29 250.142C1014.89 250.142 1014.84 250.142 1014.67 250.114 1014.39 250.086 1014.31 250.058 1014.31 249.836 1014.31 249.752 1014.31 249.697 1014.45 249.196L1016.38 241.435 1021.67 241.435C1024.36 241.435 1024.89 243.493 1024.89 244.689 1024.89 247.444 1022.4 250.142 1019.1 250.142L1015.29 250.142Z" fill="#0000FF" fill-rule="evenodd"/><path d="M1227.01 285.279C1227.01 285.197 1226.96 285.004 1226.73 285.004 1226.66 285.004 1226.63 285.032 1226.35 285.334L1224.58 287.453C1224.35 287.068 1223.18 285.004 1220.37 285.004 1214.72 285.004 1209.01 291.084 1209.01 297.466 1209.01 302.006 1212 305.004 1215.88 305.004 1218.09 305.004 1220.02 303.904 1221.36 302.638 1223.72 300.383 1224.15 297.879 1224.15 297.797 1224.15 297.521 1223.89 297.521 1223.84 297.521 1223.69 297.521 1223.56 297.576 1223.51 297.797 1223.29 298.594 1222.7 300.548 1220.95 302.143 1219.2 303.684 1217.61 304.151 1216.29 304.151 1214.01 304.151 1211.32 302.721 1211.32 298.429 1211.32 296.861 1211.85 292.405 1214.39 289.186 1215.93 287.233 1218.32 285.857 1220.57 285.857 1223.16 285.857 1224.65 287.975 1224.65 291.167 1224.65 292.267 1224.58 292.294 1224.58 292.57 1224.58 292.845 1224.86 292.845 1224.96 292.845 1225.29 292.845 1225.29 292.79 1225.42 292.294L1227.01 285.279Z" fill="#00FF00" fill-rule="evenodd"/><path d="M1002.01 266.265C1002.01 266.187 1001.96 266.004 1001.73 266.004 1001.66 266.004 1001.63 266.03 1001.35 266.318L999.578 268.33C999.35 267.964 998.184 266.004 995.37 266.004 989.717 266.004 984.012 271.78 984.012 277.843 984.012 282.155 987.004 285.004 990.883 285.004 993.088 285.004 995.015 283.959 996.359 282.756 998.717 280.613 999.148 278.235 999.148 278.157 999.148 277.895 998.894 277.895 998.843 277.895 998.691 277.895 998.564 277.948 998.514 278.157 998.286 278.915 997.702 280.77 995.953 282.286 994.204 283.75 992.607 284.194 991.288 284.194 989.007 284.194 986.319 282.835 986.319 278.758 986.319 277.268 986.852 273.034 989.387 269.977 990.933 268.121 993.316 266.814 995.573 266.814 998.159 266.814 999.655 268.827 999.655 271.858 999.655 272.904 999.578 272.93 999.578 273.191 999.578 273.452 999.857 273.452 999.959 273.452 1000.29 273.452 1000.29 273.4 1000.42 272.93L1002.01 266.265Z" fill="#00FF00" fill-rule="evenodd"/><path d="M912 250 1236.53 271.138" stroke="#7030A0" stroke-width="4" stroke-miterlimit="8" stroke-dasharray="16 12" fill="none" fill-rule="evenodd"/><path d="M224 116C235.18 184.715 246.361 253.43 277.361 263.301 308.361 273.172 410 175.224 410 175.224" stroke="#7030A0" stroke-width="4" stroke-miterlimit="8" stroke-dasharray="16 12" fill="none" fill-rule="evenodd"/><path d="M600.187 72C632.105 162.189 664.023 252.378 647.492 274.735 630.961 297.092 522.363 225.195 501 206.141" stroke="#7030A0" stroke-width="4" stroke-miterlimit="8" stroke-dasharray="16 12" fill="none" fill-rule="evenodd"/><rect x="111" y="506" width="79" height="55" stroke="#000000" stroke-width="4" stroke-miterlimit="8" fill="none"/><path d="M69 532 101.544 532 101.544 536 69 536ZM99.5437 528 111.544 534 99.5437 540Z"/><path d="M190 532 224.077 532 224.077 536 190 536ZM222.077 528 234.077 534 222.077 540Z"/><path d="M4.76384e-06-2 34.0765-1.99992 34.0765 2.00008-4.76384e-06 2ZM32.0765-5.99992 44.0765 0.000104987 32.0765 6.00008Z" transform="matrix(1 0 0 -1 283 534)"/><path d="M54.3713 531.529 57.8377 527.739 59.4653 525.902C60.5159 524.794 60.8311 524.444 63.5617 524.415 64.0608 524.415 64.1132 523.657 64.1132 523.569 64.1132 523.394 64.0084 523.045 63.5879 523.045 62.6688 523.045 61.6712 523.132 60.7259 523.132 59.9644 523.132 58.0739 523.045 57.3124 523.045 57.1024 523.045 56.5771 523.045 56.5771 523.861 56.5771 524.386 56.9972 524.415 57.2334 524.415 58.021 524.444 58.7039 524.677 58.8091 524.706L53.7937 530.217 51.3779 524.59C51.6403 524.532 52.4546 524.415 52.9008 524.415 53.1899 524.415 53.6623 524.415 53.6623 523.599 53.6623 523.191 53.4261 523.045 53.0846 523.045 52.1917 523.045 49.9859 523.132 49.0935 523.132 48.4892 523.132 47.8854 523.103 47.2815 523.103 46.6777 523.103 46.0472 523.045 45.4434 523.045 45.2072 523.045 44.7081 523.045 44.7081 523.861 44.7081 524.415 45.0495 524.415 45.7848 524.415 46.1524 524.415 46.441 524.415 46.8086 524.444 47.1763 524.503 47.203 524.532 47.3601 524.881L50.9841 533.307 44.3928 540.537C43.9204 541.033 43.369 541.646 41.0317 541.675 40.5594 541.675 40.1132 541.675 40.1132 542.52 40.1132 542.725 40.2441 543.045 40.6379 543.045 41.2684 543.045 42.8699 542.958 43.5004 542.958 44.2619 542.958 46.1524 543.045 46.9139 543.045 47.1239 543.045 47.6492 543.045 47.6492 542.199 47.6492 541.675 47.1763 541.675 46.9663 541.675 46.441 541.675 45.9162 541.587 45.4172 541.383L51.5355 534.619 54.5028 541.5C54.4761 541.5 53.6099 541.675 52.9794 541.675 52.717 541.675 52.2179 541.675 52.2179 542.52 52.2179 542.607 52.2446 543.045 52.7956 543.045 53.6884 543.045 55.9204 542.958 56.8133 542.958 57.4172 542.958 58.021 542.987 58.6253 542.987 59.2292 542.987 59.8592 543.045 60.4635 543.045 60.6735 543.045 61.1988 543.045 61.1988 542.199 61.1988 541.675 60.7783 541.675 60.1482 541.675 59.7806 541.675 59.5182 541.675 59.1239 541.646 58.7301 541.587 58.7039 541.558 58.5201 541.179L54.3713 531.529Z" fill-rule="evenodd"/><path d="M159.821 575.334C160.451 574.086 161.055 573.065 162.641 572.923 162.868 572.895 163.119 572.895 163.119 572.356 163.119 572.242 163.019 572.044 162.817 572.044 162.213 572.044 161.508 572.128 160.878 572.128 160.023 572.128 159.091 572.044 158.26 572.044 158.109 572.044 157.782 572.044 157.782 572.582 157.782 572.895 158.008 572.923 158.16 572.923 158.764 572.951 159.645 573.178 159.645 574.029 159.645 574.341 159.519 574.568 159.318 574.965L152.52 588.327 151.588 574.256C151.563 573.689 151.513 572.951 153.351 572.923 153.779 572.923 154.031 572.923 154.031 572.356 154.031 572.072 153.754 572.044 153.653 572.044 152.646 572.044 151.588 572.128 150.582 572.128 150.002 572.128 148.517 572.044 147.938 572.044 147.787 572.044 147.459 572.044 147.459 572.611 147.459 572.923 147.711 572.923 148.064 572.923 149.171 572.923 149.347 573.093 149.398 573.632L149.549 575.816 143.179 588.327 142.223 573.944C142.223 573.604 142.223 572.951 144.136 572.923 144.388 572.923 144.665 572.923 144.665 572.356 144.665 572.044 144.363 572.044 144.312 572.044 143.305 572.044 142.248 572.128 141.215 572.128 140.334 572.128 139.428 572.044 138.572 572.044 138.446 572.044 138.119 572.044 138.119 572.582 138.119 572.923 138.346 572.923 138.748 572.923 140.007 572.923 140.032 573.178 140.083 573.972L141.215 591.307C141.241 591.817 141.266 592.044 141.618 592.044 141.921 592.044 141.996 591.874 142.223 591.448L149.625 576.979 150.556 591.307C150.607 591.902 150.657 592.044 150.959 592.044 151.286 592.044 151.437 591.76 151.563 591.505L159.821 575.334Z" fill-rule="evenodd"/><path d="M208.344 522.891C209.745 520.97 210.497 520.143 211.431 519.116 211.431 519.083 213.04 517.328 213.974 516.136 216.438 513.056 217.009 511.467 217.009 511.335 217.009 511.003 216.776 511.003 216.724 511.003 216.542 511.003 216.464 511.07 216.335 511.368 215.556 512.957 215.011 513.487 214.389 513.487 213.766 513.487 213.455 512.99 213.066 512.427 212.573 511.666 212.132 511.003 211.276 511.003 209.33 511.003 208.136 514.083 208.136 514.778 208.136 514.944 208.214 515.143 208.448 515.143 208.681 515.143 208.733 514.977 208.785 514.778 209.278 513.255 210.783 513.222 210.99 513.222 211.535 513.222 212.028 513.454 212.625 513.719 213.662 514.215 213.948 514.215 214.622 514.215 213.688 515.639 211.509 518.023 211.016 518.553L208.681 521.335C206.917 523.553 206.009 525.441 206.009 525.672 206.009 526.004 206.268 526.004 206.32 526.004 206.528 526.004 206.58 525.937 206.735 525.573 207.332 524.414 208.11 523.52 208.941 523.52 209.537 523.52 209.797 523.818 210.445 524.778 210.886 525.474 211.353 526.004 212.106 526.004 214.674 526.004 216.179 521.798 216.179 520.904 216.179 520.739 216.075 520.573 215.868 520.573 215.634 520.573 215.582 520.772 215.504 521.003 214.908 523.156 213.247 523.785 212.391 523.785 211.872 523.785 211.405 523.586 210.86 523.354 209.978 522.924 209.589 522.792 209.044 522.792 208.993 522.792 208.577 522.792 208.344 522.891Z" fill-rule="evenodd"/><rect x="234" y="506" width="49" height="55" stroke="#000000" stroke-width="4" stroke-miterlimit="8" fill="none"/><path d="M0 0C9.25606 0 18.5121 10.3432 18.5121 20.6864 18.5121 31.0295 27.7682 41.3727 37.0243 41.3727" stroke="#70AD47" stroke-width="8" stroke-miterlimit="8" fill="none" fill-rule="evenodd" transform="matrix(-1 0 0 1 277.024 513)"/><path d="M334 517 358 517 358 518 334 518Z" fill-rule="evenodd"/><path d="M352.445 523.511C353.001 522.841 353.583 522.403 355.276 522.374 355.554 522.374 356.009 522.374 356.009 521.529 356.009 521.354 355.882 521.004 355.554 521.004 354.821 521.004 353.987 521.091 353.229 521.091 352.294 521.091 351.334 521.004 350.424 521.004 350.247 521.004 349.741 521.004 349.741 521.849 349.741 522.374 350.171 522.374 350.424 522.374 350.677 522.374 351.182 522.432 351.561 522.578L344.713 531.033 341.478 522.491C342.186 522.374 342.211 522.374 342.893 522.374 343.323 522.374 343.752 522.345 343.752 521.529 343.752 521.149 343.474 521.004 343.196 521.004 342.337 521.004 340.139 521.091 339.279 521.091 338.698 521.091 338.092 521.062 337.536 521.062 336.929 521.062 336.297 521.004 335.716 521.004 335.464 521.004 335.009 521.004 335.009 521.849 335.009 522.374 335.362 522.374 336.045 522.374 336.373 522.374 336.676 522.374 337.03 522.403 337.334 522.461 337.384 522.461 337.536 522.841L341.377 533.015 340.063 539.021C339.962 539.517 339.936 539.546 339.482 539.575 339.052 539.633 338.622 539.633 338.168 539.633 337.409 539.633 337.359 539.633 337.258 539.75 337.106 539.896 337.005 540.275 337.005 540.479 337.005 540.537 337.03 541.004 337.561 541.004 338.193 541.004 338.85 540.945 339.482 540.945 340.088 540.945 340.72 540.916 341.326 540.916 342.186 540.916 344.334 541.004 345.193 541.004 345.42 541.004 345.926 541.004 345.926 540.158 345.926 539.633 345.572 539.633 344.864 539.633 344.334 539.633 343.853 539.604 343.323 539.575L344.738 533.015 352.445 523.511Z" fill-rule="evenodd"/><path d="M373.729 544.541C373.729 541.387 371.818 536.541 367.442 534.017 370.158 532.354 373.402 528.999 373.703 523.636L373.729 523.464 373.729 503.592C373.729 501.24 373.729 500.724 373.93 499.634 374.382 497.34 375.589 494.501 378.783 492.351 378.984 492.207 379.009 492.179 379.009 491.662 379.009 491.032 378.984 491.003 378.431 491.003 377.978 491.003 377.928 491.003 377.249 491.462 371.616 495.104 371.289 500.437 371.289 501.441L371.289 521.83C371.289 523.895 371.289 526.217 369.982 528.856 368.825 531.207 367.467 532.383 366.386 533.214 366.034 533.472 366.009 533.501 366.009 533.989 366.009 534.505 366.034 534.533 366.235 534.677 368.373 536.283 370.661 538.835 371.214 543.509 371.289 544.14 371.289 544.197 371.289 544.541L371.289 566.565C371.289 568.888 372.547 573.705 377.4 576.63 377.978 577.003 378.028 577.003 378.431 577.003 378.984 577.003 379.009 576.974 379.009 576.343 379.009 575.827 378.984 575.799 378.883 575.741 377.802 574.967 374.508 572.701 373.829 567.712 373.729 566.966 373.729 566.909 373.729 566.536L373.729 544.541Z" fill-rule="evenodd"/><path d="M394.009 512.062C394.009 509.736 393.89 507.41 393.059 505.259 391.966 502.469 390.018 502.003 389.021 502.003 387.596 502.003 385.862 502.759 384.888 505.463 384.128 507.469 384.009 509.736 384.009 512.062 384.009 514.242 384.104 516.858 385.078 519.067 386.099 521.422 387.833 522.003 388.997 522.003 390.28 522.003 392.085 521.393 393.13 518.631 393.89 516.626 394.009 514.358 394.009 512.062ZM388.997 521.364C388.071 521.364 386.669 520.637 386.242 517.846 385.98 516.102 385.98 513.428 385.98 511.713 385.98 509.852 385.98 507.934 386.17 506.364 386.622 502.905 388.403 502.643 388.997 502.643 389.781 502.643 391.349 503.166 391.8 506.044 392.037 507.672 392.037 509.881 392.037 511.713 392.037 513.893 392.037 515.87 391.776 517.73 391.42 520.492 390.066 521.364 388.997 521.364Z" fill-rule="evenodd"/><path d="M389.979 543.785C389.979 543.064 389.979 543.004 389.421 543.004 387.918 544.926 385.785 544.926 385.009 544.926L385.009 545.857C385.494 545.857 386.924 545.857 388.185 545.076L388.185 560.632C388.185 561.713 388.112 562.073 385.93 562.073L385.154 562.073 385.154 563.004C386.003 562.914 388.112 562.914 389.082 562.914 390.051 562.914 392.161 562.914 393.009 563.004L393.009 562.073 392.233 562.073C390.051 562.073 389.979 561.743 389.979 560.632L389.979 543.785Z" fill-rule="evenodd"/><rect x="534" y="506" width="78" height="55" stroke="#000000" stroke-width="4" stroke-miterlimit="8" fill="none"/><path d="M491 531 523.544 531 523.544 535 491 535ZM521.544 527 533.544 533 521.544 539Z"/><path d="M612 531 646.077 531 646.077 535 612 535ZM644.077 527 656.077 533 644.077 539Z"/><path d="M4.76384e-06-2 34.0765-1.99992 34.0765 2.00008-4.76384e-06 2ZM32.0765-5.99992 44.0765 0.000104987 32.0765 6.00008Z" transform="matrix(1 0 0 -1 706 533)"/><path d="M476.773 531.102 480.094 527.502 481.654 525.757C482.661 524.704 482.963 524.372 485.58 524.344 486.058 524.344 486.108 523.624 486.108 523.541 486.108 523.375 486.008 523.043 485.605 523.043 484.724 523.043 483.768 523.125 482.862 523.125 482.133 523.125 480.321 523.043 479.591 523.043 479.39 523.043 478.886 523.043 478.886 523.818 478.886 524.317 479.289 524.344 479.515 524.344 480.27 524.372 480.925 524.594 481.025 524.621L476.219 529.856 473.904 524.51C474.155 524.455 474.936 524.344 475.363 524.344 475.64 524.344 476.093 524.344 476.093 523.569 476.093 523.181 475.867 523.043 475.539 523.043 474.684 523.043 472.57 523.125 471.715 523.125 471.135 523.125 470.557 523.098 469.978 523.098 469.399 523.098 468.795 523.043 468.217 523.043 467.99 523.043 467.512 523.043 467.512 523.818 467.512 524.344 467.839 524.344 468.544 524.344 468.896 524.344 469.173 524.344 469.525 524.372 469.877 524.427 469.903 524.455 470.053 524.787L473.526 532.792 467.21 539.661C466.757 540.132 466.229 540.713 463.989 540.741 463.536 540.741 463.108 540.741 463.108 541.544 463.108 541.738 463.234 542.043 463.611 542.043 464.216 542.043 465.75 541.96 466.355 541.96 467.084 541.96 468.896 542.043 469.626 542.043 469.827 542.043 470.33 542.043 470.33 541.24 470.33 540.741 469.877 540.741 469.676 540.741 469.173 540.741 468.67 540.658 468.191 540.464L474.055 534.038 476.898 540.575C476.873 540.575 476.043 540.741 475.439 540.741 475.187 540.741 474.709 540.741 474.709 541.544 474.709 541.627 474.734 542.043 475.262 542.043 476.118 542.043 478.257 541.96 479.113 541.96 479.691 541.96 480.27 541.987 480.849 541.987 481.428 541.987 482.032 542.043 482.611 542.043 482.812 542.043 483.315 542.043 483.315 541.24 483.315 540.741 482.913 540.741 482.309 540.741 481.956 540.741 481.705 540.741 481.327 540.713 480.95 540.658 480.925 540.63 480.748 540.27L476.773 531.102Z" fill-rule="evenodd"/><path d="M582.694 574.501C583.349 573.191 583.977 572.118 585.627 571.969 585.862 571.939 586.124 571.939 586.124 571.374 586.124 571.254 586.02 571.046 585.81 571.046 585.182 571.046 584.448 571.135 583.794 571.135 582.904 571.135 581.935 571.046 581.071 571.046 580.913 571.046 580.573 571.046 580.573 571.612 580.573 571.939 580.809 571.969 580.966 571.969 581.594 571.999 582.511 572.237 582.511 573.131 582.511 573.459 582.38 573.697 582.17 574.114L575.101 588.144 574.132 573.369C574.106 572.773 574.053 571.999 575.965 571.969 576.41 571.969 576.672 571.969 576.672 571.374 576.672 571.076 576.384 571.046 576.279 571.046 575.232 571.046 574.132 571.135 573.085 571.135 572.482 571.135 570.937 571.046 570.335 571.046 570.178 571.046 569.838 571.046 569.838 571.641 569.838 571.969 570.099 571.969 570.466 571.969 571.618 571.969 571.801 572.148 571.854 572.714L572.011 575.007 565.386 588.144 564.392 573.042C564.392 572.684 564.392 571.999 566.381 571.969 566.643 571.969 566.932 571.969 566.932 571.374 566.932 571.046 566.617 571.046 566.565 571.046 565.518 571.046 564.418 571.135 563.344 571.135 562.428 571.135 561.485 571.046 560.595 571.046 560.464 571.046 560.124 571.046 560.124 571.612 560.124 571.969 560.359 571.969 560.778 571.969 562.087 571.969 562.114 572.237 562.166 573.071L563.344 591.272C563.371 591.808 563.397 592.046 563.763 592.046 564.077 592.046 564.156 591.868 564.392 591.421L572.09 576.228 573.058 591.272C573.111 591.897 573.163 592.046 573.477 592.046 573.818 592.046 573.975 591.749 574.106 591.48L582.694 574.501Z" fill-rule="evenodd"/><path d="M630.344 521.891C631.745 519.97 632.497 519.143 633.431 518.116 633.431 518.083 635.04 516.328 635.974 515.136 638.438 512.056 639.009 510.467 639.009 510.335 639.009 510.003 638.776 510.003 638.724 510.003 638.542 510.003 638.464 510.07 638.335 510.368 637.556 511.957 637.011 512.487 636.389 512.487 635.766 512.487 635.455 511.99 635.066 511.427 634.573 510.666 634.132 510.003 633.276 510.003 631.33 510.003 630.136 513.083 630.136 513.778 630.136 513.944 630.214 514.143 630.448 514.143 630.681 514.143 630.733 513.977 630.785 513.778 631.278 512.255 632.783 512.222 632.99 512.222 633.535 512.222 634.028 512.454 634.625 512.719 635.662 513.215 635.948 513.215 636.622 513.215 635.688 514.639 633.509 517.023 633.016 517.553L630.681 520.335C628.917 522.553 628.009 524.441 628.009 524.672 628.009 525.004 628.268 525.004 628.32 525.004 628.528 525.004 628.58 524.937 628.735 524.573 629.332 523.414 630.11 522.52 630.941 522.52 631.537 522.52 631.797 522.818 632.445 523.778 632.886 524.474 633.353 525.004 634.106 525.004 636.674 525.004 638.179 520.798 638.179 519.904 638.179 519.739 638.075 519.573 637.868 519.573 637.634 519.573 637.582 519.772 637.504 520.003 636.908 522.156 635.247 522.785 634.391 522.785 633.872 522.785 633.405 522.586 632.86 522.354 631.978 521.924 631.589 521.792 631.044 521.792 630.993 521.792 630.577 521.792 630.344 521.891Z" fill-rule="evenodd"/><rect x="656" y="506" width="50" height="55" stroke="#000000" stroke-width="4" stroke-miterlimit="8" fill="none"/><path d="M0 0C9.25606 0 18.5121 10.3432 18.5121 20.6864 18.5121 31.0295 27.7682 41.3727 37.0243 41.3727" stroke="#70AD47" stroke-width="8" stroke-miterlimit="8" fill="none" fill-rule="evenodd" transform="matrix(-1 0 0 1 699.024 512)"/><path d="M756 516 780 516 780 517 756 517Z" fill-rule="evenodd"/><path d="M775.445 523.385C776.001 522.748 776.583 522.333 778.276 522.305 778.554 522.305 779.009 522.305 779.009 521.502 779.009 521.336 778.882 521.004 778.554 521.004 777.821 521.004 776.987 521.087 776.229 521.087 775.294 521.087 774.334 521.004 773.424 521.004 773.247 521.004 772.742 521.004 772.742 521.807 772.742 522.305 773.171 522.305 773.424 522.305 773.677 522.305 774.182 522.361 774.561 522.499L767.713 530.531 764.478 522.416C765.186 522.305 765.211 522.305 765.893 522.305 766.323 522.305 766.752 522.278 766.752 521.502 766.752 521.142 766.474 521.004 766.196 521.004 765.337 521.004 763.139 521.087 762.279 521.087 761.698 521.087 761.092 521.059 760.536 521.059 759.929 521.059 759.297 521.004 758.716 521.004 758.464 521.004 758.009 521.004 758.009 521.807 758.009 522.305 758.362 522.305 759.045 522.305 759.373 522.305 759.676 522.305 760.03 522.333 760.334 522.388 760.384 522.388 760.536 522.748L764.377 532.415 763.063 538.12C762.962 538.591 762.936 538.619 762.482 538.646 762.052 538.702 761.622 538.702 761.167 538.702 760.409 538.702 760.359 538.702 760.258 538.813 760.106 538.951 760.005 539.311 760.005 539.505 760.005 539.56 760.03 540.004 760.561 540.004 761.193 540.004 761.85 539.948 762.482 539.948 763.088 539.948 763.72 539.92 764.326 539.92 765.186 539.92 767.334 540.004 768.193 540.004 768.42 540.004 768.926 540.004 768.926 539.2 768.926 538.702 768.572 538.702 767.864 538.702 767.334 538.702 766.853 538.674 766.323 538.646L767.738 532.415 775.445 523.385Z" fill-rule="evenodd"/><path d="M795.729 543.541C795.729 540.387 793.818 535.541 789.442 533.017 792.158 531.354 795.402 527.999 795.703 522.636L795.729 522.464 795.729 502.592C795.729 500.24 795.729 499.724 795.93 498.634 796.382 496.34 797.589 493.501 800.783 491.351 800.984 491.207 801.009 491.179 801.009 490.662 801.009 490.032 800.984 490.003 800.431 490.003 799.978 490.003 799.928 490.003 799.249 490.462 793.616 494.104 793.289 499.437 793.289 500.441L793.289 520.83C793.289 522.895 793.289 525.217 791.982 527.856 790.825 530.207 789.467 531.383 788.386 532.214 788.034 532.472 788.009 532.501 788.009 532.989 788.009 533.505 788.034 533.533 788.235 533.677 790.373 535.283 792.661 537.835 793.214 542.509 793.289 543.14 793.289 543.197 793.289 543.541L793.289 565.565C793.289 567.888 794.547 572.705 799.4 575.63 799.978 576.003 800.028 576.003 800.431 576.003 800.984 576.003 801.009 575.974 801.009 575.343 801.009 574.827 800.984 574.799 800.883 574.741 799.802 573.967 796.508 571.701 795.829 566.712 795.729 565.966 795.729 565.909 795.729 565.536L795.729 543.541Z" fill-rule="evenodd"/><path d="M817.01 511.559C817.01 509.349 816.879 507.14 815.965 505.096 814.763 502.445 812.62 502.003 811.523 502.003 809.955 502.003 808.048 502.721 806.976 505.29 806.14 507.195 806.01 509.349 806.01 511.559 806.01 513.63 806.114 516.115 807.185 518.214 808.309 520.451 810.216 521.003 811.497 521.003 812.908 521.003 814.893 520.423 816.043 517.8 816.879 515.894 817.01 513.74 817.01 511.559ZM811.497 520.396C810.478 520.396 808.936 519.705 808.466 517.054 808.178 515.397 808.178 512.856 808.178 511.227 808.178 509.46 808.178 507.637 808.387 506.146 808.884 502.859 810.843 502.611 811.497 502.611 812.359 502.611 814.083 503.108 814.58 505.842 814.841 507.388 814.841 509.487 814.841 511.227 814.841 513.298 814.841 515.176 814.554 516.944 814.162 519.567 812.672 520.396 811.497 520.396Z" fill-rule="evenodd"/><path d="M812.601 543.746C812.601 543.061 812.601 543.004 811.974 543.004 810.283 544.83 807.883 544.83 807.01 544.83L807.01 545.714C807.556 545.714 809.165 545.714 810.583 544.972L810.583 559.75C810.583 560.777 810.501 561.12 808.047 561.12L807.174 561.12 807.174 562.004C808.128 561.918 810.501 561.918 811.592 561.918 812.683 561.918 815.056 561.918 816.01 562.004L816.01 561.12 815.137 561.12C812.683 561.12 812.601 560.806 812.601 559.75L812.601 543.746Z" fill-rule="evenodd"/><rect x="954" y="505" width="78" height="55" stroke="#000000" stroke-width="4" stroke-miterlimit="8" fill="none"/><path d="M911 531 943.544 531 943.544 535 911 535ZM941.544 527 953.544 533 941.544 539Z"/><path d="M1032 531 1066.08 531 1066.08 535 1032 535ZM1064.08 527 1076.08 533 1064.08 539Z"/><path d="M4.76384e-06-2 34.0765-1.99992 34.0765 2.00008-4.76384e-06 2ZM32.0765-5.99992 44.0765 0.000104987 32.0765 6.00008Z" transform="matrix(1 0 0 -1 1126 533)"/><path d="M896.773 530.529 900.094 526.739 901.654 524.902C902.661 523.794 902.963 523.444 905.58 523.415 906.058 523.415 906.108 522.657 906.108 522.569 906.108 522.394 906.008 522.045 905.605 522.045 904.724 522.045 903.768 522.132 902.862 522.132 902.133 522.132 900.321 522.045 899.591 522.045 899.39 522.045 898.886 522.045 898.886 522.861 898.886 523.386 899.289 523.415 899.515 523.415 900.27 523.444 900.925 523.677 901.025 523.706L896.219 529.217 893.904 523.59C894.155 523.532 894.936 523.415 895.363 523.415 895.64 523.415 896.093 523.415 896.093 522.599 896.093 522.191 895.867 522.045 895.539 522.045 894.684 522.045 892.57 522.132 891.715 522.132 891.135 522.132 890.557 522.103 889.978 522.103 889.399 522.103 888.795 522.045 888.217 522.045 887.99 522.045 887.512 522.045 887.512 522.861 887.512 523.415 887.839 523.415 888.544 523.415 888.896 523.415 889.173 523.415 889.525 523.444 889.877 523.503 889.903 523.532 890.053 523.881L893.526 532.307 887.21 539.537C886.757 540.033 886.229 540.646 883.989 540.675 883.536 540.675 883.108 540.675 883.108 541.52 883.108 541.725 883.234 542.045 883.611 542.045 884.216 542.045 885.75 541.958 886.355 541.958 887.084 541.958 888.896 542.045 889.626 542.045 889.827 542.045 890.33 542.045 890.33 541.199 890.33 540.675 889.877 540.675 889.676 540.675 889.173 540.675 888.67 540.587 888.191 540.383L894.055 533.619 896.898 540.5C896.873 540.5 896.043 540.675 895.439 540.675 895.187 540.675 894.709 540.675 894.709 541.52 894.709 541.607 894.734 542.045 895.262 542.045 896.118 542.045 898.257 541.958 899.113 541.958 899.691 541.958 900.27 541.987 900.849 541.987 901.428 541.987 902.032 542.045 902.611 542.045 902.812 542.045 903.315 542.045 903.315 541.199 903.315 540.675 902.912 540.675 902.309 540.675 901.956 540.675 901.705 540.675 901.327 540.646 900.95 540.587 900.925 540.558 900.748 540.179L896.773 530.529Z" fill-rule="evenodd"/><path d="M1002.69 574.334C1003.35 573.086 1003.98 572.065 1005.63 571.923 1005.86 571.895 1006.12 571.895 1006.12 571.356 1006.12 571.242 1006.02 571.044 1005.81 571.044 1005.18 571.044 1004.45 571.128 1003.79 571.128 1002.9 571.128 1001.93 571.044 1001.07 571.044 1000.91 571.044 1000.57 571.044 1000.57 571.582 1000.57 571.895 1000.81 571.923 1000.97 571.923 1001.59 571.951 1002.51 572.178 1002.51 573.029 1002.51 573.341 1002.38 573.568 1002.17 573.965L995.101 587.327 994.132 573.256C994.106 572.689 994.053 571.951 995.965 571.923 996.41 571.923 996.672 571.923 996.672 571.356 996.672 571.072 996.384 571.044 996.279 571.044 995.232 571.044 994.132 571.128 993.085 571.128 992.482 571.128 990.937 571.044 990.335 571.044 990.178 571.044 989.838 571.044 989.838 571.611 989.838 571.923 990.099 571.923 990.466 571.923 991.618 571.923 991.801 572.093 991.854 572.632L992.011 574.816 985.386 587.327 984.392 572.944C984.392 572.604 984.392 571.951 986.381 571.923 986.643 571.923 986.932 571.923 986.932 571.356 986.932 571.044 986.617 571.044 986.565 571.044 985.518 571.044 984.418 571.128 983.344 571.128 982.428 571.128 981.485 571.044 980.595 571.044 980.464 571.044 980.124 571.044 980.124 571.582 980.124 571.923 980.359 571.923 980.778 571.923 982.087 571.923 982.114 572.178 982.166 572.972L983.344 590.307C983.371 590.817 983.397 591.044 983.763 591.044 984.077 591.044 984.156 590.874 984.392 590.448L992.09 575.979 993.058 590.307C993.111 590.902 993.163 591.044 993.477 591.044 993.818 591.044 993.975 590.76 994.106 590.505L1002.69 574.334Z" fill-rule="evenodd"/><path d="M1050.34 521.098C1051.74 519.306 1052.5 518.533 1053.43 517.575 1053.43 517.544 1055.04 515.906 1055.97 514.794 1058.44 511.919 1059.01 510.436 1059.01 510.312 1059.01 510.003 1058.78 510.003 1058.72 510.003 1058.54 510.003 1058.46 510.065 1058.33 510.343 1057.56 511.827 1057.01 512.321 1056.39 512.321 1055.77 512.321 1055.45 511.858 1055.07 511.332 1054.57 510.621 1054.13 510.003 1053.28 510.003 1051.33 510.003 1050.14 512.877 1050.14 513.526 1050.14 513.681 1050.21 513.866 1050.45 513.866 1050.68 513.866 1050.73 513.712 1050.79 513.526 1051.28 512.105 1052.78 512.074 1052.99 512.074 1053.54 512.074 1054.03 512.29 1054.62 512.537 1055.66 513.001 1055.95 513.001 1056.62 513.001 1055.69 514.33 1053.51 516.555 1053.02 517.05L1050.68 519.646C1048.92 521.716 1048.01 523.478 1048.01 523.694 1048.01 524.003 1048.27 524.003 1048.32 524.003 1048.53 524.003 1048.58 523.941 1048.74 523.602 1049.33 522.52 1050.11 521.685 1050.94 521.685 1051.54 521.685 1051.8 521.964 1052.45 522.86 1052.89 523.509 1053.35 524.003 1054.11 524.003 1056.67 524.003 1058.18 520.078 1058.18 519.244 1058.18 519.089 1058.08 518.935 1057.87 518.935 1057.63 518.935 1057.58 519.12 1057.5 519.337 1056.91 521.345 1055.25 521.933 1054.39 521.933 1053.87 521.933 1053.41 521.747 1052.86 521.531 1051.98 521.129 1051.59 521.005 1051.04 521.005 1050.99 521.005 1050.58 521.005 1050.34 521.098Z" fill-rule="evenodd"/><rect x="1076" y="505" width="50" height="55" stroke="#000000" stroke-width="4" stroke-miterlimit="8" fill="none"/><path d="M0 0C9.25606 0 18.5121 10.3432 18.5121 20.6864 18.5121 31.0295 27.7682 41.3727 37.0243 41.3727" stroke="#70AD47" stroke-width="8" stroke-miterlimit="8" fill="none" fill-rule="evenodd" transform="matrix(-1 0 0 1 1119.02 512)"/><path d="M1176 515 1200 515 1200 517 1176 517Z" fill-rule="evenodd"/><path d="M1195.28 522.511C1195.86 521.841 1196.47 521.403 1198.24 521.374 1198.53 521.374 1199.01 521.374 1199.01 520.529 1199.01 520.354 1198.88 520.004 1198.53 520.004 1197.76 520.004 1196.89 520.091 1196.1 520.091 1195.12 520.091 1194.11 520.004 1193.16 520.004 1192.97 520.004 1192.44 520.004 1192.44 520.849 1192.44 521.374 1192.89 521.374 1193.16 521.374 1193.42 521.374 1193.95 521.432 1194.35 521.578L1187.18 530.033 1183.79 521.491C1184.53 521.374 1184.55 521.374 1185.27 521.374 1185.72 521.374 1186.17 521.345 1186.17 520.529 1186.17 520.149 1185.88 520.004 1185.59 520.004 1184.69 520.004 1182.38 520.091 1181.48 520.091 1180.87 520.091 1180.24 520.062 1179.66 520.062 1179.02 520.062 1178.36 520.004 1177.75 520.004 1177.49 520.004 1177.01 520.004 1177.01 520.849 1177.01 521.374 1177.38 521.374 1178.09 521.374 1178.44 521.374 1178.76 521.374 1179.13 521.403 1179.44 521.461 1179.5 521.461 1179.66 521.841L1183.68 532.015 1182.3 538.021C1182.2 538.517 1182.17 538.546 1181.69 538.575 1181.24 538.633 1180.79 538.633 1180.32 538.633 1179.52 538.633 1179.47 538.633 1179.37 538.75 1179.21 538.896 1179.1 539.275 1179.1 539.479 1179.1 539.537 1179.13 540.004 1179.68 540.004 1180.34 540.004 1181.03 539.945 1181.69 539.945 1182.33 539.945 1182.99 539.916 1183.63 539.916 1184.53 539.916 1186.78 540.004 1187.68 540.004 1187.92 540.004 1188.45 540.004 1188.45 539.158 1188.45 538.633 1188.08 538.633 1187.33 538.633 1186.78 538.633 1186.28 538.604 1185.72 538.575L1187.2 532.015 1195.28 522.511Z" fill-rule="evenodd"/><path d="M1215.73 542.919C1215.73 539.801 1213.82 535.011 1209.44 532.517 1212.16 530.873 1215.4 527.557 1215.7 522.257L1215.73 522.087 1215.73 502.445C1215.73 500.121 1215.73 499.611 1215.93 498.534 1216.38 496.267 1217.59 493.461 1220.78 491.335 1220.98 491.193 1221.01 491.165 1221.01 490.655 1221.01 490.031 1220.98 490.003 1220.43 490.003 1219.98 490.003 1219.93 490.003 1219.25 490.456 1213.62 494.056 1213.29 499.328 1213.29 500.32L1213.29 520.471C1213.29 522.512 1213.29 524.808 1211.98 527.415 1210.83 529.739 1209.47 530.901 1208.39 531.723 1208.03 531.979 1208.01 532.007 1208.01 532.489 1208.01 532.999 1208.03 533.027 1208.24 533.169 1210.37 534.756 1212.66 537.279 1213.21 541.898 1213.29 542.522 1213.29 542.579 1213.29 542.919L1213.29 564.686C1213.29 566.982 1214.55 571.743 1219.4 574.634 1219.98 575.003 1220.03 575.003 1220.43 575.003 1220.98 575.003 1221.01 574.975 1221.01 574.351 1221.01 573.841 1220.98 573.812 1220.88 573.756 1219.8 572.991 1216.51 570.751 1215.83 565.82 1215.73 565.083 1215.73 565.026 1215.73 564.658L1215.73 542.919Z" fill-rule="evenodd"/><path d="M1237.01 511.062C1237.01 508.736 1236.88 506.41 1235.96 504.259 1234.76 501.469 1232.62 501.003 1231.52 501.003 1229.96 501.003 1228.05 501.759 1226.98 504.463 1226.14 506.469 1226.01 508.736 1226.01 511.062 1226.01 513.242 1226.11 515.858 1227.19 518.067 1228.31 520.422 1230.22 521.003 1231.5 521.003 1232.91 521.003 1234.89 520.393 1236.04 517.631 1236.88 515.626 1237.01 513.358 1237.01 511.062ZM1231.5 520.364C1230.48 520.364 1228.94 519.637 1228.47 516.846 1228.18 515.102 1228.18 512.428 1228.18 510.713 1228.18 508.852 1228.18 506.934 1228.39 505.364 1228.88 501.905 1230.84 501.643 1231.5 501.643 1232.36 501.643 1234.08 502.166 1234.58 505.044 1234.84 506.672 1234.84 508.881 1234.84 510.713 1234.84 512.893 1234.84 514.87 1234.55 516.73 1234.16 519.492 1232.67 520.364 1231.5 520.364Z" fill-rule="evenodd"/><path d="M1232.6 542.746C1232.6 542.061 1232.6 542.004 1231.97 542.004 1230.28 543.83 1227.88 543.83 1227.01 543.83L1227.01 544.714C1227.56 544.714 1229.16 544.714 1230.58 543.972L1230.58 558.75C1230.58 559.777 1230.5 560.12 1228.05 560.12L1227.17 560.12 1227.17 561.004C1228.13 560.918 1230.5 560.918 1231.59 560.918 1232.68 560.918 1235.06 560.918 1236.01 561.004L1236.01 560.12 1235.14 560.12C1232.68 560.12 1232.6 559.806 1232.6 558.75L1232.6 542.746Z" fill-rule="evenodd"/><path d="M235.5 401.5 235.5 429.5 246.5 429.5 224.5 451.5 202.5 429.5 213.5 429.5 213.5 401.5Z" stroke="#0070C0" stroke-width="1.33333" stroke-miterlimit="8" fill="#0070C0" fill-rule="evenodd"/><path d="M663.5 401.5 663.5 429.5 674.5 429.5 652.5 451.5 630.5 429.5 641.5 429.5 641.5 401.5Z" stroke="#0070C0" stroke-width="1.33333" stroke-miterlimit="8" fill="#0070C0" fill-rule="evenodd"/><path d="M1086.5 401.5 1086.5 429.5 1097.5 429.5 1075.5 451.5 1053.5 429.5 1064.5 429.5 1064.5 401.5Z" stroke="#0070C0" stroke-width="1.33333" stroke-miterlimit="8" fill="#0070C0" fill-rule="evenodd"/></g></svg>