<svg width="1280" height="720" xmlns="http://www.w3.org/2000/svg" xmlns:xlink="http://www.w3.org/1999/xlink" overflow="hidden"><defs><clipPath id="clip0"><rect x="0" y="0" width="1280" height="720"/></clipPath></defs><g clip-path="url(#clip0)"><rect x="0" y="0" width="1280" height="720" fill="#FFFFFF"/><path d="M195.024 299.141C195.024 293.793 194.692 288.444 192.364 283.496 189.305 277.077 183.851 276.008 181.058 276.008 177.067 276.008 172.212 277.746 169.485 283.964 167.357 288.577 167.024 293.793 167.024 299.141 167.024 304.156 167.29 310.173 170.017 315.255 172.877 320.67 177.732 322.008 180.991 322.008 184.583 322.008 189.637 320.604 192.564 314.252 194.692 309.639 195.024 304.423 195.024 299.141ZM180.991 320.537C178.397 320.537 174.473 318.865 173.276 312.447 172.545 308.435 172.545 302.284 172.545 298.339 172.545 294.06 172.545 289.647 173.077 286.037 174.34 278.08 179.328 277.479 180.991 277.479 183.186 277.479 187.575 278.682 188.839 285.301 189.504 289.046 189.504 294.127 189.504 298.339 189.504 303.354 189.504 307.9 188.773 312.179 187.775 318.531 183.984 320.537 180.991 320.537Z" fill-rule="evenodd"/><path d="M210.025 317.508C210.025 315.592 208.44 314.008 206.525 314.008 204.61 314.008 203.025 315.592 203.025 317.508 203.025 319.423 204.61 321.008 206.525 321.008 208.44 321.008 210.025 319.423 210.025 317.508Z" fill-rule="evenodd"/><path d="M246.437 280.423C247.025 279.632 247.025 279.5 247.025 278.116L231.165 278.116C223.202 278.116 223.071 277.26 222.81 276.008L221.179 276.008 219.025 289.583 220.656 289.583C220.852 288.529 221.44 284.377 222.288 283.586 222.745 283.191 227.836 283.191 228.684 283.191L242.195 283.191C241.477 284.245 236.321 291.429 234.885 293.604 229.011 302.5 226.857 311.661 226.857 318.383 226.857 319.042 226.857 322.008 229.859 322.008 232.862 322.008 232.862 319.042 232.862 318.383L232.862 315.022C232.862 311.397 233.057 307.773 233.579 304.214 233.841 302.698 234.754 297.03 237.626 292.944L246.437 280.423Z" fill-rule="evenodd"/><path d="M195.024 379.143C195.024 373.794 194.692 368.445 192.364 363.497 189.305 357.079 183.851 356.009 181.058 356.009 177.067 356.009 172.212 357.747 169.485 363.965 167.357 368.579 167.024 373.794 167.024 379.143 167.024 384.157 167.29 390.175 170.017 395.256 172.877 400.672 177.732 402.009 180.991 402.009 184.583 402.009 189.637 400.605 192.564 394.253 194.692 389.64 195.024 384.425 195.024 379.143ZM180.991 400.538C178.397 400.538 174.473 398.866 173.276 392.448 172.545 388.436 172.545 382.285 172.545 378.34 172.545 374.061 172.545 369.648 173.077 366.038 174.34 358.082 179.328 357.48 180.991 357.48 183.186 357.48 187.575 358.683 188.839 365.302 189.504 369.047 189.504 374.128 189.504 378.34 189.504 383.355 189.504 387.901 188.773 392.181 187.775 398.532 183.984 400.538 180.991 400.538Z" fill-rule="evenodd"/><path d="M210.025 396.509C210.025 394.594 208.44 393.009 206.525 393.009 204.61 393.009 203.025 394.594 203.025 396.509 203.025 398.424 204.61 400.009 206.525 400.009 208.44 400.009 210.025 398.424 210.025 396.509Z" fill-rule="evenodd"/><path d="M224.042 394.922 230.95 388.117C241.115 379 245.025 375.432 245.025 368.826 245.025 361.294 239.16 356.009 231.21 356.009 223.847 356.009 219.025 362.087 219.025 367.967 219.025 371.667 222.283 371.667 222.478 371.667 223.586 371.667 225.867 370.874 225.867 368.165 225.867 366.447 224.694 364.73 222.413 364.73 221.892 364.73 221.761 364.73 221.566 364.796 223.065 360.501 226.584 358.057 230.363 358.057 236.293 358.057 239.095 363.408 239.095 368.826 239.095 374.111 235.837 379.33 232.253 383.426L219.741 397.564C219.025 398.291 219.025 398.423 219.025 400.009L243.2 400.009 245.025 388.513 243.396 388.513C243.07 390.495 242.614 393.402 241.962 394.393 241.506 394.922 237.205 394.922 235.772 394.922L224.042 394.922Z" fill-rule="evenodd"/><path d="M195.024 459.144C195.024 453.795 194.692 448.446 192.364 443.499 189.305 437.08 183.851 436.01 181.058 436.01 177.067 436.01 172.212 437.748 169.485 443.967 167.357 448.58 167.024 453.795 167.024 459.144 167.024 464.158 167.29 470.176 170.017 475.257 172.877 480.673 177.732 482.01 180.991 482.01 184.583 482.01 189.637 480.606 192.564 474.254 194.692 469.641 195.024 464.426 195.024 459.144ZM180.991 480.539C178.397 480.539 174.473 478.868 173.276 472.449 172.545 468.438 172.545 462.286 172.545 458.342 172.545 454.063 172.545 449.65 173.077 446.039 174.34 438.083 179.328 437.481 180.991 437.481 183.186 437.481 187.575 438.685 188.839 445.304 189.504 449.048 189.504 454.129 189.504 458.342 189.504 463.356 189.504 467.903 188.773 472.182 187.775 478.533 183.984 480.539 180.991 480.539Z" fill-rule="evenodd"/><path d="M210.025 476.51C210.025 474.595 208.44 473.01 206.525 473.01 204.61 473.01 203.025 474.595 203.025 476.51 203.025 478.425 204.61 480.01 206.525 480.01 208.44 480.01 210.025 478.425 210.025 476.51Z" fill-rule="evenodd"/><path d="M234.692 437.728C234.692 436.142 234.692 436.01 233.159 436.01 229.025 440.238 223.159 440.238 221.025 440.238L221.025 442.286C222.359 442.286 226.292 442.286 229.759 440.569L229.759 474.791C229.759 477.169 229.559 477.962 223.559 477.962L221.425 477.962 221.425 480.01C223.759 479.812 229.559 479.812 232.225 479.812 234.892 479.812 240.692 479.812 243.025 480.01L243.025 477.962 240.892 477.962C234.892 477.962 234.692 477.235 234.692 474.791L234.692 437.728Z" fill-rule="evenodd"/><path d="M94 159 136 159 136 162 94 162Z" fill-rule="evenodd"/><path d="M125.398 174.184 126.129 173.425C127.697 171.8 129.422 169.958 132.977 169.687 133.552 169.633 134.022 169.633 134.022 168.658 134.022 168.225 133.761 168.008 133.343 168.008 131.984 168.008 130.468 168.17 129.057 168.17 127.332 168.17 125.502 168.008 123.83 168.008 123.516 168.008 122.836 168.008 122.836 169.037 122.836 169.633 123.359 169.687 123.62 169.687 123.986 169.687 125.502 169.796 125.502 170.933 125.502 171.854 124.3 173.263 124.091 173.533L111.964 187.998 106.215 171.908C105.901 171.15 105.901 171.042 105.901 170.987 105.901 169.687 108.462 169.687 108.985 169.687 109.717 169.687 110.239 169.687 110.239 168.604 110.239 168.008 109.612 168.008 109.455 168.008 107.992 168.008 104.333 168.17 102.869 168.17 101.563 168.17 98.322 168.008 97.0152 168.008 96.7016 168.008 96.0221 168.008 96.0221 169.091 96.0221 169.687 96.5448 169.687 97.2243 169.687 100.361 169.687 100.57 170.175 101.04 171.529L107.469 189.352C107.521 189.514 107.678 190.11 107.678 190.273 107.678 190.435 105.587 199.157 105.326 200.132 104.647 203.112 104.594 203.274 100.413 203.329 99.4197 203.329 99.0015 203.329 99.0015 204.412 99.0015 205.008 99.6287 205.008 99.7333 205.008 101.197 205.008 104.856 204.845 106.319 204.845 107.783 204.845 111.546 205.008 113.01 205.008 113.376 205.008 114.003 205.008 114.003 203.924 114.003 203.329 113.532 203.329 112.539 203.329 112.435 203.329 111.442 203.329 110.553 203.22 109.455 203.112 109.142 203.003 109.142 202.353 109.142 201.974 109.612 200.078 109.874 198.941L111.703 191.302C111.964 190.273 112.017 190.11 112.435 189.623L125.398 174.184Z" fill-rule="evenodd"/><path d="M187.234 187.23C188.023 187.23 189.023 187.23 189.023 186.119 189.023 185.008 188.023 185.008 187.287 185.008L155.76 185.008C155.023 185.008 154.023 185.008 154.023 186.119 154.023 187.23 155.023 187.23 155.813 187.23L187.234 187.23ZM187.287 198.008C188.023 198.008 189.023 198.008 189.023 196.897 189.023 195.786 188.023 195.786 187.234 195.786L155.813 195.786C155.023 195.786 154.023 195.786 154.023 196.897 154.023 198.008 155.023 198.008 155.76 198.008L187.287 198.008Z" fill-rule="evenodd"/><path d="M240.024 167.544C240.024 167.383 239.92 167.008 239.449 167.008 239.188 167.008 239.136 167.061 238.508 167.812L235.999 170.87C234.64 168.349 231.922 167.008 228.524 167.008 221.884 167.008 215.611 173.177 215.611 179.668 215.611 184.013 218.382 186.481 221.048 187.286L226.642 188.788C228.576 189.271 231.451 190.075 231.451 194.474 231.451 199.302 227.164 204.345 222.041 204.345 218.696 204.345 212.893 203.165 212.893 196.513 212.893 195.225 213.154 193.938 213.206 193.616 213.259 193.401 213.311 193.347 213.311 193.24 213.311 192.704 212.945 192.65 212.684 192.65 212.422 192.65 212.318 192.704 212.161 192.865 211.952 193.079 209.024 205.31 209.024 205.471 209.024 205.793 209.286 206.008 209.599 206.008 209.861 206.008 209.913 205.954 210.54 205.203L213.102 202.145C215.35 205.257 218.905 206.008 221.937 206.008 229.046 206.008 235.215 198.873 235.215 192.221 235.215 188.519 233.438 186.696 232.653 185.944 231.451 184.711 230.667 184.496 226.014 183.262 224.864 182.94 222.982 182.404 222.512 182.297 221.1 181.814 219.323 180.258 219.323 177.415 219.323 173.07 223.505 168.51 228.471 168.51 232.81 168.51 235.999 170.817 235.999 176.825 235.999 178.541 235.79 179.507 235.79 179.829 235.79 179.883 235.79 180.365 236.417 180.365 236.94 180.365 236.992 180.204 237.201 179.292L240.024 167.544Z" fill-rule="evenodd"/><path d="M259.025 218.458C259.025 218.293 259.025 218.183 258.146 217.248 251.68 210.318 250.025 199.923 250.025 191.508 250.025 181.938 251.99 172.368 258.352 165.493 259.025 164.833 259.025 164.723 259.025 164.558 259.025 164.173 258.818 164.008 258.508 164.008 257.99 164.008 253.335 167.748 250.283 174.733 247.645 180.783 247.025 186.888 247.025 191.508 247.025 195.798 247.594 202.453 250.439 208.668 253.542 215.433 257.99 219.008 258.508 219.008 258.818 219.008 259.025 218.843 259.025 218.458Z" fill-rule="evenodd"/><path d="M293.401 174.184 294.133 173.425C295.701 171.8 297.426 169.958 300.98 169.687 301.555 169.633 302.025 169.633 302.025 168.658 302.025 168.225 301.764 168.008 301.346 168.008 299.987 168.008 298.471 168.17 297.06 168.17 295.335 168.17 293.506 168.008 291.833 168.008 291.519 168.008 290.84 168.008 290.84 169.037 290.84 169.633 291.362 169.687 291.624 169.687 291.99 169.687 293.506 169.796 293.506 170.933 293.506 171.854 292.303 173.263 292.094 173.533L279.968 187.998 274.218 171.908C273.904 171.15 273.904 171.042 273.904 170.987 273.904 169.687 276.466 169.687 276.988 169.687 277.72 169.687 278.243 169.687 278.243 168.604 278.243 168.008 277.616 168.008 277.459 168.008 275.995 168.008 272.336 168.17 270.873 168.17 269.566 168.17 266.325 168.008 265.019 168.008 264.705 168.008 264.025 168.008 264.025 169.091 264.025 169.687 264.548 169.687 265.228 169.687 268.364 169.687 268.573 170.175 269.043 171.529L275.473 189.352C275.525 189.514 275.682 190.11 275.682 190.273 275.682 190.435 273.591 199.157 273.329 200.132 272.65 203.112 272.598 203.274 268.416 203.329 267.423 203.329 267.005 203.329 267.005 204.412 267.005 205.008 267.632 205.008 267.737 205.008 269.2 205.008 272.859 204.845 274.323 204.845 275.786 204.845 279.55 205.008 281.013 205.008 281.379 205.008 282.006 205.008 282.006 203.924 282.006 203.329 281.536 203.329 280.543 203.329 280.438 203.329 279.445 203.329 278.556 203.22 277.459 203.112 277.145 203.003 277.145 202.353 277.145 201.974 277.616 200.078 277.877 198.941L279.706 191.302C279.968 190.273 280.02 190.11 280.438 189.623L293.401 174.184Z" fill-rule="evenodd"/><path d="M319.026 191.508C319.026 187.218 318.457 180.563 315.612 174.348 312.509 167.583 308.061 164.008 307.543 164.008 307.233 164.008 307.026 164.228 307.026 164.558 307.026 164.723 307.026 164.833 308.009 165.823 313.078 171.268 316.026 180.013 316.026 191.508 316.026 200.913 314.112 210.593 307.698 217.523 307.026 218.183 307.026 218.293 307.026 218.458 307.026 218.788 307.233 219.008 307.543 219.008 308.061 219.008 312.716 215.268 315.767 208.283 318.405 202.233 319.026 196.128 319.026 191.508Z" fill-rule="evenodd"/><rect x="119" y="231" width="175" height="293" stroke="#2F528F" stroke-width="6" stroke-miterlimit="8" fill="none"/><path d="M1082.69 281.725C1082.69 280.14 1082.69 280.008 1081.16 280.008 1077.02 284.236 1071.16 284.236 1069.02 284.236L1069.02 286.284C1070.36 286.284 1074.29 286.284 1077.76 284.566L1077.76 318.788C1077.76 321.167 1077.56 321.96 1071.56 321.96L1069.42 321.96 1069.42 324.008C1071.76 323.809 1077.56 323.809 1080.22 323.809 1082.89 323.809 1088.69 323.809 1091.02 324.008L1091.02 321.96 1088.89 321.96C1082.89 321.96 1082.69 321.233 1082.69 318.788L1082.69 281.725Z" fill-rule="evenodd"/><path d="M1109.02 320.508C1109.02 318.592 1107.44 317.008 1105.52 317.008 1103.61 317.008 1102.02 318.592 1102.02 320.508 1102.02 322.423 1103.61 324.008 1105.52 324.008 1107.44 324.008 1109.02 322.423 1109.02 320.508Z" fill-rule="evenodd"/><path d="M1144.02 302.638C1144.02 297.406 1143.7 292.173 1141.46 287.333 1138.51 281.054 1133.25 280.007 1130.56 280.007 1126.71 280.007 1122.03 281.708 1119.4 287.791 1117.34 292.304 1117.02 297.406 1117.02 302.638 1117.02 307.544 1117.28 313.431 1119.91 318.401 1122.67 323.699 1127.35 325.008 1130.49 325.008 1133.96 325.008 1138.83 323.634 1141.65 317.42 1143.7 312.907 1144.02 307.805 1144.02 302.638ZM1130.49 323.569C1127.99 323.569 1124.21 321.933 1123.05 315.654 1122.35 311.73 1122.35 305.712 1122.35 301.853 1122.35 297.667 1122.35 293.35 1122.86 289.818 1124.08 282.035 1128.89 281.446 1130.49 281.446 1132.61 281.446 1136.84 282.624 1138.06 289.099 1138.7 292.762 1138.7 297.733 1138.7 301.853 1138.7 306.759 1138.7 311.207 1138 315.393 1137.03 321.606 1133.38 323.569 1130.49 323.569Z" fill-rule="evenodd"/><path d="M1094.02 382.143C1094.02 376.794 1093.69 371.445 1091.36 366.497 1088.3 360.079 1082.85 359.009 1080.06 359.009 1076.07 359.009 1071.21 360.747 1068.49 366.965 1066.36 371.579 1066.02 376.794 1066.02 382.143 1066.02 387.157 1066.29 393.175 1069.02 398.256 1071.88 403.672 1076.73 405.009 1079.99 405.009 1083.58 405.009 1088.64 403.605 1091.56 397.253 1093.69 392.64 1094.02 387.425 1094.02 382.143ZM1079.99 403.538C1077.4 403.538 1073.47 401.866 1072.28 395.448 1071.54 391.436 1071.54 385.285 1071.54 381.34 1071.54 377.061 1071.54 372.648 1072.08 369.038 1073.34 361.082 1078.33 360.48 1079.99 360.48 1082.19 360.48 1086.58 361.683 1087.84 368.302 1088.5 372.047 1088.5 377.128 1088.5 381.34 1088.5 386.355 1088.5 390.901 1087.77 395.181 1086.77 401.532 1082.98 403.538 1079.99 403.538Z" fill-rule="evenodd"/><path d="M1109.02 400.509C1109.02 398.594 1107.44 397.009 1105.52 397.009 1103.61 397.009 1102.02 398.594 1102.02 400.509 1102.02 402.424 1103.61 404.009 1105.52 404.009 1107.44 404.009 1109.02 402.424 1109.02 400.509Z" fill-rule="evenodd"/><path d="M1144.02 382.143C1144.02 376.794 1143.7 371.445 1141.46 366.497 1138.51 360.079 1133.25 359.009 1130.56 359.009 1126.71 359.009 1122.03 360.747 1119.4 366.965 1117.34 371.579 1117.02 376.794 1117.02 382.143 1117.02 387.157 1117.28 393.175 1119.91 398.256 1122.67 403.672 1127.35 405.009 1130.49 405.009 1133.96 405.009 1138.83 403.605 1141.65 397.253 1143.7 392.64 1144.02 387.425 1144.02 382.143ZM1130.49 403.538C1127.99 403.538 1124.21 401.866 1123.05 395.448 1122.35 391.436 1122.35 385.285 1122.35 381.34 1122.35 377.061 1122.35 372.648 1122.86 369.038 1124.08 361.082 1128.89 360.48 1130.49 360.48 1132.61 360.48 1136.84 361.683 1138.06 368.302 1138.7 372.047 1138.7 377.128 1138.7 381.34 1138.7 386.355 1138.7 390.901 1138 395.181 1137.03 401.532 1133.38 403.538 1130.49 403.538Z" fill-rule="evenodd"/><path d="M1094.02 462.144C1094.02 456.795 1093.69 451.446 1091.36 446.499 1088.3 440.08 1082.85 439.01 1080.06 439.01 1076.07 439.01 1071.21 440.748 1068.49 446.967 1066.36 451.58 1066.02 456.795 1066.02 462.144 1066.02 467.158 1066.29 473.176 1069.02 478.257 1071.88 483.673 1076.73 485.01 1079.99 485.01 1083.58 485.01 1088.64 483.606 1091.56 477.254 1093.69 472.641 1094.02 467.426 1094.02 462.144ZM1079.99 483.539C1077.4 483.539 1073.47 481.868 1072.28 475.449 1071.54 471.438 1071.54 465.286 1071.54 461.342 1071.54 457.063 1071.54 452.65 1072.08 449.039 1073.34 441.083 1078.33 440.481 1079.99 440.481 1082.19 440.481 1086.58 441.685 1087.84 448.304 1088.5 452.048 1088.5 457.129 1088.5 461.342 1088.5 466.356 1088.5 470.903 1087.77 475.182 1086.77 481.533 1082.98 483.539 1079.99 483.539Z" fill-rule="evenodd"/><path d="M1109.02 479.51C1109.02 477.595 1107.44 476.01 1105.52 476.01 1103.61 476.01 1102.02 477.595 1102.02 479.51 1102.02 481.425 1103.61 483.01 1105.52 483.01 1107.44 483.01 1109.02 481.425 1109.02 479.51Z" fill-rule="evenodd"/><path d="M1144.02 462.144C1144.02 456.795 1143.7 451.446 1141.46 446.499 1138.51 440.08 1133.25 439.01 1130.56 439.01 1126.71 439.01 1122.03 440.748 1119.4 446.967 1117.34 451.58 1117.02 456.795 1117.02 462.144 1117.02 467.158 1117.28 473.176 1119.91 478.257 1122.67 483.673 1127.35 485.01 1130.49 485.01 1133.96 485.01 1138.83 483.606 1141.65 477.254 1143.7 472.641 1144.02 467.426 1144.02 462.144ZM1130.49 483.539C1127.99 483.539 1124.21 481.868 1123.05 475.449 1122.35 471.438 1122.35 465.286 1122.35 461.342 1122.35 457.063 1122.35 452.65 1122.86 449.039 1124.08 441.083 1128.89 440.481 1130.49 440.481 1132.61 440.481 1136.84 441.685 1138.06 448.304 1138.7 452.048 1138.7 457.129 1138.7 461.342 1138.7 466.356 1138.7 470.903 1138 475.182 1137.03 481.533 1133.38 483.539 1130.49 483.539Z" fill-rule="evenodd"/><path d="M1050.77 180.005C1051.25 178.16 1051.41 177.596 1056.39 177.596 1057.98 177.596 1058.4 177.596 1058.4 176.623 1058.4 176.008 1057.82 176.008 1057.55 176.008 1055.8 176.008 1051.46 176.162 1049.71 176.162 1048.12 176.162 1044.26 176.008 1042.67 176.008 1042.29 176.008 1041.66 176.008 1041.66 177.033 1041.66 177.596 1042.14 177.596 1043.14 177.596 1043.25 177.596 1044.26 177.596 1045.16 177.699 1046.11 177.801 1046.59 177.853 1046.59 178.519 1046.59 178.724 1046.53 178.878 1046.37 179.493L1039.27 207.011C1038.75 209.009 1038.64 209.419 1034.45 209.419 1033.55 209.419 1033.02 209.419 1033.02 210.444 1033.02 211.008 1033.5 211.008 1034.45 211.008L1058.98 211.008C1060.26 211.008 1060.31 211.008 1060.63 210.137L1064.81 199.068C1065.02 198.504 1065.02 198.402 1065.02 198.351 1065.02 198.145 1064.86 197.787 1064.39 197.787 1063.91 197.787 1063.86 198.043 1063.49 198.863 1061.69 203.577 1059.35 209.419 1050.19 209.419L1045.21 209.419C1044.47 209.419 1044.36 209.419 1044.04 209.368 1043.51 209.317 1043.35 209.266 1043.35 208.856 1043.35 208.702 1043.35 208.599 1043.62 207.677L1050.77 180.005Z" fill-rule="evenodd"/><path d="M1118.23 194.059C1119.02 194.059 1120.02 194.059 1120.02 193.033 1120.02 192.008 1119.02 192.008 1118.29 192.008L1086.76 192.008C1086.02 192.008 1085.02 192.008 1085.02 193.033 1085.02 194.059 1086.02 194.059 1086.81 194.059L1118.23 194.059ZM1118.29 204.008C1119.02 204.008 1120.02 204.008 1120.02 202.982 1120.02 201.957 1119.02 201.957 1118.23 201.957L1086.81 201.957C1086.02 201.957 1085.02 201.957 1085.02 202.982 1085.02 204.008 1086.02 204.008 1086.76 204.008L1118.29 204.008Z" fill-rule="evenodd"/><path d="M1168.4 181.85 1169.13 181.132C1170.7 179.595 1172.43 177.853 1175.98 177.596 1176.55 177.545 1177.03 177.545 1177.03 176.623 1177.03 176.213 1176.76 176.008 1176.35 176.008 1174.99 176.008 1173.47 176.162 1172.06 176.162 1170.33 176.162 1168.51 176.008 1166.83 176.008 1166.52 176.008 1165.84 176.008 1165.84 176.981 1165.84 177.545 1166.36 177.596 1166.62 177.596 1166.99 177.596 1168.51 177.699 1168.51 178.775 1168.51 179.646 1167.3 180.979 1167.09 181.235L1154.97 194.917 1149.22 179.697C1148.9 178.98 1148.9 178.878 1148.9 178.826 1148.9 177.596 1151.47 177.596 1151.99 177.596 1152.72 177.596 1153.24 177.596 1153.24 176.572 1153.24 176.008 1152.61 176.008 1152.46 176.008 1150.99 176.008 1147.34 176.162 1145.87 176.162 1144.57 176.162 1141.32 176.008 1140.02 176.008 1139.7 176.008 1139.03 176.008 1139.03 177.033 1139.03 177.596 1139.55 177.596 1140.23 177.596 1143.36 177.596 1143.57 178.058 1144.04 179.339L1150.47 196.198C1150.52 196.352 1150.68 196.916 1150.68 197.069 1150.68 197.223 1148.59 205.473 1148.33 206.396 1147.65 209.214 1147.6 209.368 1143.42 209.419 1142.42 209.419 1142 209.419 1142 210.444 1142 211.008 1142.63 211.008 1142.74 211.008 1144.2 211.008 1147.86 210.854 1149.32 210.854 1150.79 210.854 1154.55 211.008 1156.01 211.008 1156.38 211.008 1157.01 211.008 1157.01 209.983 1157.01 209.419 1156.54 209.419 1155.54 209.419 1155.44 209.419 1154.44 209.419 1153.56 209.317 1152.46 209.214 1152.14 209.112 1152.14 208.497 1152.14 208.138 1152.61 206.345 1152.88 205.268L1154.71 198.043C1154.97 197.069 1155.02 196.916 1155.44 196.454L1168.4 181.85Z" fill-rule="evenodd"/><rect x="1015" y="237" width="174" height="292" stroke="#2F528F" stroke-width="6" stroke-miterlimit="8" fill="none"/><path d="M356.405 385.782C355.868 387.895 355.761 388.329 351.521 388.329 350.609 388.329 350.019 388.329 350.019 389.358 350.019 390.008 350.502 390.008 351.521 390.008L369.284 390.008C380.447 390.008 391.019 378.577 391.019 366.714 391.019 359.075 386.457 353.008 378.408 353.008L360.376 353.008C359.356 353.008 358.766 353.008 358.766 354.037 358.766 354.687 359.249 354.687 360.322 354.687 361.02 354.687 361.986 354.741 362.63 354.796 363.489 354.904 363.811 355.066 363.811 355.662 363.811 355.879 363.757 356.042 363.596 356.692L356.405 385.782ZM367.996 356.746C368.479 354.85 368.587 354.687 370.894 354.687L376.637 354.687C381.896 354.687 386.35 357.558 386.35 364.709 386.35 367.364 385.277 376.248 380.715 382.207 379.159 384.211 374.919 388.329 368.318 388.329L362.254 388.329C361.503 388.329 361.396 388.329 361.074 388.274 360.537 388.22 360.376 388.166 360.376 387.733 360.376 387.57 360.376 387.462 360.644 386.487L367.996 356.746Z" fill-rule="evenodd"/><path d="M411.019 403.458C411.019 403.293 411.019 403.183 410.14 402.248 403.674 395.318 402.019 384.923 402.019 376.508 402.019 366.938 403.984 357.368 410.347 350.493 411.019 349.833 411.019 349.723 411.019 349.558 411.019 349.173 410.812 349.008 410.502 349.008 409.985 349.008 405.329 352.748 402.278 359.733 399.64 365.783 399.019 371.888 399.019 376.508 399.019 380.798 399.588 387.453 402.433 393.668 405.536 400.433 409.985 404.008 410.502 404.008 410.812 404.008 411.019 403.843 411.019 403.458Z" fill-rule="evenodd"/><path d="M449.02 352.544C449.02 352.383 448.912 352.008 448.427 352.008 448.157 352.008 448.103 352.061 447.455 352.812L444.865 355.87C443.462 353.349 440.656 352.008 437.148 352.008 430.295 352.008 423.82 358.177 423.82 364.668 423.82 369.013 426.68 371.481 429.432 372.286L435.206 373.788C437.202 374.271 440.17 375.075 440.17 379.474 440.17 384.302 435.745 389.345 430.457 389.345 427.003 389.345 421.013 388.165 421.013 381.513 421.013 380.225 421.283 378.938 421.337 378.616 421.391 378.401 421.445 378.347 421.445 378.24 421.445 377.704 421.067 377.65 420.798 377.65 420.528 377.65 420.42 377.704 420.258 377.865 420.042 378.079 417.02 390.31 417.02 390.471 417.02 390.793 417.29 391.008 417.614 391.008 417.884 391.008 417.938 390.954 418.585 390.203L421.229 387.145C423.55 390.257 427.219 391.008 430.349 391.008 437.688 391.008 444.056 383.873 444.056 377.221 444.056 373.519 442.221 371.696 441.411 370.944 440.17 369.711 439.361 369.496 434.558 368.262 433.371 367.94 431.428 367.404 430.943 367.297 429.486 366.814 427.651 365.258 427.651 362.415 427.651 358.07 431.968 353.51 437.094 353.51 441.573 353.51 444.865 355.817 444.865 361.825 444.865 363.542 444.649 364.507 444.649 364.829 444.649 364.883 444.649 365.365 445.297 365.365 445.836 365.365 445.89 365.204 446.106 364.292L449.02 352.544Z" fill-rule="evenodd"/><path d="M458.02 389.978C458.02 386.226 456.738 384.008 454.738 384.008 453.045 384.008 452.02 385.43 452.02 387.022 452.02 388.557 453.045 390.035 454.738 390.035 455.353 390.035 456.02 389.808 456.533 389.296 456.686 389.182 456.738 389.125 456.789 389.125 456.84 389.125 456.892 389.182 456.892 389.978 456.892 394.186 455.097 397.597 453.404 399.473 452.84 400.099 452.84 400.212 452.84 400.383 452.84 400.781 453.097 401.008 453.353 401.008 453.917 401.008 458.02 396.63 458.02 389.978Z" fill-rule="evenodd"/><path d="M490.769 357.233C491.246 355.283 491.405 354.687 496.385 354.687 497.975 354.687 498.398 354.687 498.398 353.658 498.398 353.008 497.816 353.008 497.551 353.008 495.802 353.008 491.458 353.17 489.71 353.17 488.12 353.17 484.253 353.008 482.663 353.008 482.292 353.008 481.657 353.008 481.657 354.091 481.657 354.687 482.133 354.687 483.14 354.687 483.246 354.687 484.253 354.687 485.153 354.796 486.107 354.904 486.584 354.958 486.584 355.662 486.584 355.879 486.531 356.042 486.372 356.692L479.273 385.782C478.743 387.895 478.637 388.329 474.451 388.329 473.551 388.329 473.021 388.329 473.021 389.412 473.021 390.008 473.498 390.008 474.451 390.008L498.981 390.008C500.253 390.008 500.306 390.008 500.624 389.087L504.809 377.386C505.021 376.79 505.021 376.681 505.021 376.627 505.021 376.411 504.862 376.031 504.385 376.031 503.908 376.031 503.855 376.302 503.484 377.169 501.683 382.153 499.352 388.329 490.187 388.329L485.206 388.329C484.465 388.329 484.359 388.329 484.041 388.274 483.511 388.22 483.352 388.166 483.352 387.733 483.352 387.57 483.352 387.462 483.617 386.487L490.769 357.233Z" fill-rule="evenodd"/><path d="M522.021 376.508C522.021 372.218 521.452 365.563 518.607 359.348 515.504 352.583 511.056 349.008 510.538 349.008 510.228 349.008 510.021 349.228 510.021 349.558 510.021 349.723 510.021 349.833 511.004 350.823 516.073 356.268 519.021 365.013 519.021 376.508 519.021 385.913 517.107 395.593 510.694 402.523 510.021 403.183 510.021 403.293 510.021 403.458 510.021 403.788 510.228 404.008 510.538 404.008 511.056 404.008 515.711 400.268 518.763 393.283 521.401 387.233 522.021 381.128 522.021 376.508Z" fill-rule="evenodd"/><path d="M578.233 372.23C579.022 372.23 580.022 372.23 580.022 371.119 580.022 370.008 579.022 370.008 578.285 370.008L546.759 370.008C546.022 370.008 545.022 370.008 545.022 371.119 545.022 372.23 546.022 372.23 546.812 372.23L578.233 372.23ZM578.285 383.008C579.022 383.008 580.022 383.008 580.022 381.897 580.022 380.786 579.022 380.786 578.233 380.786L546.812 380.786C546.022 380.786 545.022 380.786 545.022 381.897 545.022 383.008 546.022 383.008 546.759 383.008L578.285 383.008Z" fill-rule="evenodd"/><path d="M633.19 378.007C634.08 378.007 635.023 378.007 635.023 377.007 635.023 376.007 634.08 376.007 633.19 376.007L604.856 376.007C603.966 376.007 603.023 376.007 603.023 377.007 603.023 378.007 603.966 378.007 604.856 378.007L633.19 378.007Z" fill-rule="evenodd"/><path d="M715.57 415.007 722.025 397.635 720.691 397.635C718.611 403.281 712.956 406.973 706.822 408.601 705.702 408.873 700.474 410.284 690.232 410.284L658.066 410.284 685.218 377.875C685.591 377.441 685.698 377.278 685.698 377.007 685.698 376.898 685.698 376.735 685.324 376.193L660.466 341.613 689.699 341.613C696.847 341.613 701.701 342.373 702.181 342.481 705.061 342.915 709.702 343.838 713.916 346.553 715.25 347.421 718.877 349.864 720.691 354.261L722.025 354.261 715.57 339.007 652.518 339.007C651.291 339.007 651.238 339.061 651.078 339.387 651.025 339.55 651.025 340.581 651.025 341.178L679.243 380.481 651.611 413.433C651.078 414.084 651.078 414.355 651.078 414.41 651.078 415.007 651.558 415.007 652.518 415.007L715.57 415.007Z" fill-rule="evenodd"/><path d="M691.081 430.477C691.081 429.859 690.645 429.009 689.628 429.009 688.648 429.009 687.595 430.014 687.595 431.134 687.595 431.791 688.067 432.602 689.048 432.602 690.1 432.602 691.081 431.52 691.081 430.477ZM683.675 450.103C683.529 450.605 683.348 451.069 683.348 451.725 683.348 453.541 684.8 455.009 686.797 455.009 690.427 455.009 692.024 449.678 692.024 449.098 692.024 448.596 691.552 448.596 691.444 448.596 690.935 448.596 690.899 448.828 690.754 449.253 689.919 452.344 688.321 453.928 686.906 453.928 686.18 453.928 685.998 453.425 685.998 452.575 685.998 451.687 686.252 450.953 686.579 450.103 686.942 449.06 687.341 448.017 687.741 447.012 688.067 446.085 689.374 442.569 689.52 442.106 689.628 441.72 689.737 441.256 689.737 440.87 689.737 439.054 688.285 437.586 686.289 437.586 682.694 437.586 681.024 442.84 681.024 443.497 681.024 443.999 681.533 443.999 681.642 443.999 682.15 443.999 682.186 443.806 682.295 443.381 683.239 440.058 684.836 438.667 686.18 438.667 686.76 438.667 687.087 438.977 687.087 440.02 687.087 440.908 686.869 441.488 685.962 443.883L683.675 450.103Z" fill-rule="evenodd"/><path d="M753.774 357.233C754.251 355.283 754.41 354.687 759.39 354.687 760.98 354.687 761.404 354.687 761.404 353.658 761.404 353.008 760.821 353.008 760.556 353.008 758.808 353.008 754.463 353.17 752.715 353.17 751.125 353.17 747.258 353.008 745.668 353.008 745.298 353.008 744.662 353.008 744.662 354.091 744.662 354.687 745.139 354.687 746.145 354.687 746.251 354.687 747.258 354.687 748.159 354.796 749.112 354.904 749.589 354.958 749.589 355.662 749.589 355.879 749.536 356.042 749.377 356.692L742.278 385.782C741.748 387.895 741.642 388.329 737.457 388.329 736.556 388.329 736.026 388.329 736.026 389.412 736.026 390.008 736.503 390.008 737.457 390.008L761.986 390.008C763.258 390.008 763.311 390.008 763.629 389.087L767.814 377.386C768.026 376.79 768.026 376.681 768.026 376.627 768.026 376.411 767.867 376.031 767.39 376.031 766.914 376.031 766.861 376.302 766.49 377.169 764.688 382.153 762.357 388.329 753.192 388.329L748.211 388.329C747.47 388.329 747.364 388.329 747.046 388.274 746.516 388.22 746.357 388.166 746.357 387.733 746.357 387.57 746.357 387.462 746.622 386.487L753.774 357.233Z" fill-rule="evenodd"/><path d="M782.082 374.476C782.082 373.858 781.647 373.008 780.63 373.008 779.65 373.008 778.597 374.013 778.597 375.133 778.597 375.79 779.069 376.601 780.049 376.601 781.102 376.601 782.082 375.519 782.082 374.476ZM774.676 394.102C774.531 394.604 774.35 395.068 774.35 395.724 774.35 397.54 775.802 399.008 777.799 399.008 781.429 399.008 783.026 393.677 783.026 393.097 783.026 392.595 782.554 392.595 782.445 392.595 781.937 392.595 781.901 392.827 781.756 393.252 780.921 396.342 779.323 397.926 777.907 397.926 777.181 397.926 777 397.424 777 396.574 777 395.686 777.254 394.952 777.581 394.102 777.944 393.059 778.343 392.016 778.742 391.011 779.069 390.084 780.376 386.568 780.521 386.105 780.63 385.718 780.739 385.255 780.739 384.868 780.739 383.053 779.287 381.585 777.29 381.585 773.696 381.585 772.026 386.839 772.026 387.495 772.026 387.998 772.534 387.998 772.643 387.998 773.152 387.998 773.188 387.805 773.297 387.38 774.241 384.057 775.838 382.666 777.181 382.666 777.762 382.666 778.089 382.975 778.089 384.019 778.089 384.907 777.871 385.487 776.964 387.882L774.676 394.102Z" fill-rule="evenodd"/><path d="M805.812 353.008 798.028 353.594 798.028 355.247C801.812 355.247 802.244 355.62 802.244 358.232L802.244 385.956C802.244 388.355 801.65 388.355 798.028 388.355L798.028 390.008C799.812 389.954 802.676 389.848 804.028 389.848 805.379 389.848 808.028 389.954 810.028 390.008L810.028 388.355C806.406 388.355 805.812 388.355 805.812 385.956L805.812 353.008Z" fill-rule="evenodd"/><path d="M837.028 378.753C837.028 371.781 831.611 366.008 825.055 366.008 818.283 366.008 813.028 371.945 813.028 378.753 813.028 385.779 818.663 391.008 825.001 391.008 831.556 391.008 837.028 385.67 837.028 378.753ZM825.055 389.646C822.726 389.646 820.342 388.502 818.879 385.997 817.525 383.6 817.525 380.278 817.525 378.317 817.525 376.193 817.525 373.252 818.825 370.855 820.288 368.35 822.834 367.206 825.001 367.206 827.385 367.206 829.714 368.404 831.123 370.746 832.532 373.088 832.532 376.247 832.532 378.317 832.532 380.278 832.532 383.219 831.34 385.616 830.148 388.067 827.764 389.646 825.055 389.646Z" fill-rule="evenodd"/><path d="M850.216 380.932C845.647 380.932 845.647 375.621 845.647 374.399 845.647 372.965 845.7 371.266 846.487 369.938 846.908 369.301 848.115 367.813 850.216 367.813 854.785 367.813 854.785 373.125 854.785 374.346 854.785 375.78 854.732 377.48 853.945 378.807 853.525 379.445 852.317 380.932 850.216 380.932ZM844.124 383.003C844.124 382.791 844.124 381.569 845.017 380.507 847.065 381.994 849.218 382.153 850.216 382.153 855.1 382.153 858.724 378.489 858.724 374.399 858.724 372.434 857.883 370.469 856.571 369.247 858.461 367.442 860.352 367.176 861.297 367.176 861.402 367.176 861.665 367.176 861.822 367.229 861.245 367.442 860.982 368.026 860.982 368.663 860.982 369.566 861.665 370.203 862.505 370.203 863.03 370.203 864.028 369.832 864.028 368.61 864.028 367.707 863.398 366.008 861.35 366.008 860.299 366.008 857.988 366.326 855.783 368.504 853.577 366.751 851.371 366.592 850.216 366.592 845.332 366.592 841.708 370.257 841.708 374.346 841.708 376.683 842.864 378.701 844.177 379.816 843.494 380.613 842.549 382.366 842.549 384.225 842.549 385.871 843.231 387.889 844.859 388.952 841.708 389.854 840.028 392.138 840.028 394.263 840.028 398.087 845.227 401.008 851.634 401.008 857.831 401.008 863.293 398.299 863.293 394.156 863.293 392.298 862.557 389.589 859.879 388.102 857.096 386.615 854.05 386.615 850.846 386.615 849.533 386.615 847.275 386.615 846.908 386.562 845.227 386.349 844.124 384.703 844.124 383.003ZM851.687 399.786C846.382 399.786 842.759 397.077 842.759 394.263 842.759 391.819 844.754 389.854 847.065 389.695L850.164 389.695C854.68 389.695 860.562 389.695 860.562 394.263 860.562 397.131 856.833 399.786 851.687 399.786Z" fill-rule="evenodd"/><path d="M883.028 403.458C883.028 403.293 883.028 403.183 882.149 402.248 875.683 395.318 874.028 384.923 874.028 376.508 874.028 366.938 875.993 357.368 882.356 350.493 883.028 349.833 883.028 349.723 883.028 349.558 883.028 349.173 882.821 349.008 882.511 349.008 881.994 349.008 877.338 352.748 874.287 359.733 871.649 365.783 871.028 371.888 871.028 376.508 871.028 380.798 871.597 387.453 874.442 393.668 877.545 400.433 881.994 404.008 882.511 404.008 882.821 404.008 883.028 403.843 883.028 403.458Z" fill-rule="evenodd"/><path d="M920.029 352.544C920.029 352.383 919.924 352.008 919.454 352.008 919.192 352.008 919.14 352.061 918.513 352.812L916.003 355.87C914.644 353.349 911.926 352.008 908.528 352.008 901.889 352.008 895.615 358.177 895.615 364.668 895.615 369.013 898.386 371.481 901.052 372.286L906.646 373.788C908.58 374.271 911.455 375.075 911.455 379.474 911.455 384.302 907.169 389.345 902.046 389.345 898.7 389.345 892.897 388.165 892.897 381.513 892.897 380.225 893.158 378.938 893.211 378.616 893.263 378.401 893.315 378.347 893.315 378.24 893.315 377.704 892.949 377.65 892.688 377.65 892.427 377.65 892.322 377.704 892.165 377.865 891.956 378.079 889.029 390.31 889.029 390.471 889.029 390.793 889.29 391.008 889.604 391.008 889.865 391.008 889.917 390.954 890.545 390.203L893.106 387.145C895.354 390.257 898.909 391.008 901.941 391.008 909.051 391.008 915.219 383.873 915.219 377.221 915.219 373.519 913.442 371.696 912.658 370.944 911.455 369.711 910.671 369.496 906.019 368.262 904.868 367.94 902.987 367.404 902.516 367.297 901.105 366.814 899.327 365.258 899.327 362.415 899.327 358.07 903.509 353.51 908.476 353.51 912.815 353.51 916.003 355.817 916.003 361.825 916.003 363.542 915.794 364.507 915.794 364.829 915.794 364.883 915.794 365.365 916.422 365.365 916.944 365.365 916.997 365.204 917.206 364.292L920.029 352.544Z" fill-rule="evenodd"/><path d="M931.002 374.476C931.002 373.858 930.527 373.008 929.418 373.008 928.349 373.008 927.2 374.013 927.2 375.133 927.2 375.79 927.715 376.601 928.784 376.601 929.933 376.601 931.002 375.519 931.002 374.476ZM922.923 394.102C922.764 394.604 922.566 395.068 922.566 395.724 922.566 397.54 924.151 399.008 926.329 399.008 930.289 399.008 932.032 393.677 932.032 393.097 932.032 392.595 931.517 392.595 931.398 392.595 930.844 392.595 930.804 392.827 930.646 393.252 929.735 396.342 927.992 397.926 926.448 397.926 925.655 397.926 925.457 397.424 925.457 396.574 925.457 395.686 925.735 394.952 926.091 394.102 926.487 393.059 926.923 392.016 927.358 391.011 927.715 390.084 929.141 386.568 929.299 386.105 929.418 385.718 929.537 385.255 929.537 384.868 929.537 383.053 927.953 381.585 925.774 381.585 921.853 381.585 920.032 386.839 920.032 387.495 920.032 387.998 920.586 387.998 920.705 387.998 921.259 387.998 921.299 387.805 921.418 387.38 922.448 384.057 924.19 382.666 925.655 382.666 926.289 382.666 926.646 382.975 926.646 384.019 926.646 384.907 926.408 385.487 925.418 387.882L922.923 394.102Z" fill-rule="evenodd"/><path d="M952.032 376.508C952.032 372.218 951.415 365.563 948.334 359.348 944.971 352.583 940.152 349.008 939.592 349.008 939.256 349.008 939.032 349.228 939.032 349.558 939.032 349.723 939.032 349.833 940.096 350.823 945.588 356.268 948.782 365.013 948.782 376.508 948.782 385.913 946.709 395.593 939.76 402.523 939.032 403.183 939.032 403.293 939.032 403.458 939.032 403.788 939.256 404.008 939.592 404.008 940.152 404.008 945.196 400.268 948.502 393.283 951.359 387.233 952.032 381.128 952.032 376.508Z" fill-rule="evenodd"/></g></svg>