<svg width="1280" height="720" xmlns="http://www.w3.org/2000/svg" xmlns:xlink="http://www.w3.org/1999/xlink" overflow="hidden"><defs><clipPath id="clip0"><rect x="0" y="0" width="1280" height="720"/></clipPath></defs><g clip-path="url(#clip0)"><rect x="0" y="0" width="1280" height="720" fill="#FFFFFF"/><path d="M192 482 1080.39 482 1080.39 484 192 484ZM1079.06 479 1087.06 483 1079.06 487Z"/><path d="M1120.86 478.108C1121.21 476.616 1122.55 471.335 1126.63 471.335 1126.92 471.335 1128.32 471.335 1129.54 472.082 1127.91 472.369 1126.74 473.803 1126.74 475.181 1126.74 476.099 1127.38 477.19 1128.96 477.19 1130.24 477.19 1132.1 476.157 1132.1 473.861 1132.1 470.876 1128.67 470.073 1126.69 470.073 1123.31 470.073 1121.27 473.115 1120.57 474.435 1119.12 470.647 1115.97 470.073 1114.28 470.073 1108.23 470.073 1104.91 477.477 1104.91 478.912 1104.91 479.486 1105.49 479.486 1105.61 479.486 1106.07 479.486 1106.25 479.371 1106.36 478.854 1108.34 472.77 1112.19 471.335 1114.17 471.335 1115.27 471.335 1117.31 471.851 1117.31 475.181 1117.31 476.96 1116.32 480.806 1114.17 488.841 1113.23 492.4 1111.2 494.811 1108.63 494.811 1108.28 494.811 1106.94 494.811 1105.72 494.064 1107.18 493.777 1108.46 492.573 1108.46 490.965 1108.46 489.415 1107.18 488.956 1106.3 488.956 1104.56 488.956 1103.1 490.448 1103.1 492.286 1103.1 494.925 1106.01 496.073 1108.57 496.073 1112.42 496.073 1114.52 492.055 1114.69 491.711 1115.39 493.835 1117.49 496.073 1120.98 496.073 1126.98 496.073 1130.3 488.669 1130.3 487.234 1130.3 486.66 1129.77 486.66 1129.6 486.66 1129.07 486.66 1128.96 486.89 1128.84 487.292 1126.92 493.434 1122.96 494.811 1121.09 494.811 1118.82 494.811 1117.89 492.974 1117.89 491.022 1117.89 489.76 1118.24 488.497 1118.88 485.971L1120.86 478.108Z" fill-rule="evenodd"/><path d="M364 134 364 585.592" stroke="#000000" stroke-width="4" stroke-miterlimit="8" fill="none" fill-rule="evenodd"/><path d="M640 134 640 585.592" stroke="#A5A5A5" stroke-width="4" stroke-miterlimit="8" fill="none" fill-rule="evenodd"/><path d="M908 134 908 585.592" stroke="#A5A5A5" stroke-width="4" stroke-miterlimit="8" fill="none" fill-rule="evenodd"/><path d="M340.054 314.468C340.439 312.887 340.525 312.448 343.645 312.448 344.757 312.448 345.1 312.448 345.1 311.57 345.1 311.087 344.629 311.087 344.501 311.087 343.304 311.087 340.225 311.218 339.028 311.218 337.788 311.218 334.753 311.087 333.513 311.087 333.17 311.087 332.7 311.087 332.7 311.965 332.7 312.448 333.085 312.448 333.897 312.448 333.983 312.448 334.795 312.448 335.522 312.536 336.292 312.624 336.676 312.668 336.676 313.238 336.676 313.414 336.633 313.503 336.505 314.073L333.941 324.791 320.9 324.791 323.422 314.468C323.807 312.887 323.935 312.448 327.014 312.448 328.126 312.448 328.467 312.448 328.467 311.57 328.467 311.087 327.997 311.087 327.869 311.087 326.672 311.087 323.594 311.218 322.397 311.218 321.157 311.218 318.12 311.087 316.88 311.087 316.539 311.087 316.069 311.087 316.069 311.965 316.069 312.448 316.453 312.448 317.266 312.448 317.351 312.448 318.163 312.448 318.891 312.536 319.66 312.624 320.045 312.668 320.045 313.238 320.045 313.414 320.002 313.547 319.873 314.073L314.144 337.66C313.717 339.373 313.632 339.725 310.254 339.725 309.483 339.725 309.1 339.725 309.1 340.603 309.1 341.087 309.613 341.087 309.698 341.087 310.895 341.087 313.93 340.955 315.128 340.955 316.026 340.955 316.966 340.999 317.864 340.999 318.804 340.999 319.745 341.087 320.644 341.087 320.985 341.087 321.498 341.087 321.498 340.208 321.498 339.725 321.113 339.725 320.301 339.725 318.719 339.725 317.522 339.725 317.522 338.934 317.522 338.671 317.607 338.451 317.65 338.188L320.557 326.153 333.598 326.153C331.802 333.444 330.819 337.616 330.648 338.276 330.22 339.681 329.408 339.725 326.757 339.725 326.116 339.725 325.731 339.725 325.731 340.603 325.731 341.087 326.244 341.087 326.329 341.087 327.527 341.087 330.563 340.955 331.76 340.955 332.657 340.955 333.598 340.999 334.497 340.999 335.436 340.999 336.377 341.087 337.275 341.087 337.617 341.087 338.13 341.087 338.13 340.208 338.13 339.725 337.745 339.725 336.933 339.725 335.351 339.725 334.154 339.725 334.154 338.934 334.154 338.671 334.239 338.451 334.282 338.188L340.054 314.468Z" fill-rule="evenodd"/><path d="M347.101 511.693C347.101 507.762 347.061 498.072 337.101 498.072 327.142 498.072 327.101 507.721 327.101 511.693 327.101 515.708 327.142 525.072 337.101 525.072 347.02 525.072 347.101 515.748 347.101 511.693ZM337.101 523.613C335.614 523.613 333.3 522.721 332.763 519.762 332.39 517.653 332.39 513.437 332.39 511.208 332.39 508.289 332.39 505.653 332.721 503.546 333.217 499.937 336.11 499.531 337.101 499.531 338.631 499.531 340.325 500.302 341.11 502.085 341.812 503.586 341.812 507.884 341.812 511.208 341.812 513.477 341.812 517.167 341.523 519.275 340.945 523.045 338.341 523.613 337.101 523.613Z" fill-rule="evenodd"/><path d="M570.1 529.738C570.1 529.633 570.1 529.563 569.513 528.967 565.203 524.558 564.099 517.942 564.099 512.588 564.099 506.497 565.41 500.407 569.652 496.031 570.1 495.612 570.1 495.542 570.1 495.437 570.1 495.192 569.961 495.087 569.755 495.087 569.409 495.087 566.306 497.467 564.272 501.912 562.513 505.762 562.1 509.646 562.1 512.588 562.1 515.318 562.479 519.552 564.375 523.507 566.445 527.813 569.409 530.088 569.755 530.088 569.961 530.088 570.1 529.982 570.1 529.738Z" fill-rule="evenodd"/><path d="M581.935 498.984C581.935 498.155 581.935 498.086 581.169 498.086 579.102 500.295 576.168 500.295 575.101 500.295L575.101 501.366C575.767 501.366 577.734 501.366 579.468 500.468L579.468 518.358C579.468 519.601 579.368 520.015 576.367 520.015L575.3 520.015 575.3 521.086C576.467 520.982 579.368 520.982 580.702 520.982 582.035 520.982 584.935 520.982 586.101 521.086L586.101 520.015 585.035 520.015C582.035 520.015 581.935 519.635 581.935 518.358L581.935 498.984Z" fill-rule="evenodd"/><path d="M596.11 520.954C596.11 518.526 595.255 517.091 593.922 517.091 592.794 517.091 592.11 518.01 592.11 519.041 592.11 520.034 592.794 520.99 593.922 520.99 594.332 520.99 594.776 520.844 595.119 520.512 595.222 520.44 595.255 520.402 595.29 520.402 595.323 520.402 595.358 520.44 595.358 520.954 595.358 523.676 594.161 525.884 593.032 527.098 592.657 527.503 592.657 527.577 592.657 527.687 592.657 527.945 592.828 528.093 592.999 528.093 593.375 528.093 596.11 525.259 596.11 520.954Z" fill-rule="evenodd"/><path d="M620.114 510.157C620.114 507.366 619.946 504.574 618.783 501.994 617.253 498.645 614.526 498.087 613.129 498.087 611.135 498.087 608.707 498.994 607.343 502.237 606.279 504.645 606.112 507.366 606.112 510.157 606.112 512.772 606.246 515.912 607.609 518.563 609.039 521.388 611.467 522.087 613.096 522.087 614.892 522.087 617.42 521.354 618.882 518.039 619.946 515.633 620.114 512.912 620.114 510.157ZM613.096 521.318C611.799 521.318 609.837 520.447 609.239 517.098 608.873 515.005 608.873 511.796 608.873 509.738 608.873 507.504 608.873 505.202 609.139 503.318 609.771 499.168 612.265 498.853 613.096 498.853 614.193 498.853 616.388 499.481 617.02 502.935 617.353 504.889 617.353 507.54 617.353 509.738 617.353 512.354 617.353 514.726 616.987 516.958 616.488 520.273 614.593 521.318 613.096 521.318Z" fill-rule="evenodd"/><path d="M631.123 512.588C631.123 509.857 630.744 505.621 628.847 501.667 626.778 497.362 623.812 495.087 623.468 495.087 623.26 495.087 623.123 495.226 623.123 495.437 623.123 495.542 623.123 495.612 623.778 496.241 627.157 499.706 629.123 505.271 629.123 512.588 629.123 518.572 627.848 524.733 623.571 529.142 623.123 529.563 623.123 529.633 623.123 529.738 623.123 529.948 623.26 530.088 623.468 530.088 623.812 530.088 626.916 527.707 628.951 523.263 630.71 519.413 631.123 515.527 631.123 512.588Z" fill-rule="evenodd"/><path d="M836.087 529.738C836.087 529.633 836.087 529.563 835.574 528.967 831.802 524.558 830.837 517.942 830.837 512.588 830.837 506.497 831.984 500.407 835.695 496.031 836.087 495.612 836.087 495.542 836.087 495.437 836.087 495.192 835.966 495.087 835.786 495.087 835.483 495.087 832.768 497.467 830.988 501.912 829.449 505.762 829.087 509.646 829.087 512.588 829.087 515.318 829.419 519.552 831.078 523.507 832.889 527.813 835.483 530.088 835.786 530.088 835.966 530.088 836.087 529.982 836.087 529.738Z" fill-rule="evenodd"/><path d="M842.808 518.427 846.528 514.869C852.002 510.103 854.107 508.239 854.107 504.785 854.107 500.848 850.949 498.086 846.669 498.086 842.703 498.086 840.107 501.263 840.107 504.336 840.107 506.271 841.861 506.271 841.966 506.271 842.562 506.271 843.79 505.856 843.79 504.439 843.79 503.542 843.159 502.644 841.931 502.644 841.65 502.644 841.58 502.644 841.475 502.679 842.281 500.434 844.176 499.156 846.213 499.156 849.404 499.156 850.914 501.954 850.914 504.785 850.914 507.548 849.159 510.276 847.23 512.418L840.492 519.808C840.107 520.188 840.107 520.257 840.107 521.086L853.125 521.086 854.107 515.078 853.23 515.078C853.055 516.113 852.809 517.633 852.458 518.151 852.213 518.427 849.896 518.427 849.124 518.427L842.808 518.427Z" fill-rule="evenodd"/><path d="M863.11 520.954C863.11 518.526 862.255 517.091 860.922 517.091 859.794 517.091 859.11 518.01 859.11 519.041 859.11 520.034 859.794 520.99 860.922 520.99 861.332 520.99 861.776 520.844 862.119 520.512 862.222 520.44 862.255 520.402 862.29 520.402 862.323 520.402 862.358 520.44 862.358 520.954 862.358 523.676 861.161 525.884 860.032 527.098 859.657 527.503 859.657 527.577 859.657 527.687 859.657 527.945 859.828 528.093 859.999 528.093 860.375 528.093 863.11 525.259 863.11 520.954Z" fill-rule="evenodd"/><path d="M887.122 510.157C887.122 507.366 886.942 504.574 885.697 501.994 884.057 498.645 881.135 498.087 879.638 498.087 877.501 498.087 874.9 498.994 873.439 502.237 872.298 504.645 872.12 507.366 872.12 510.157 872.12 512.772 872.264 515.912 873.724 518.563 875.256 521.388 877.857 522.087 879.602 522.087 881.527 522.087 884.235 521.354 885.802 518.039 886.942 515.633 887.122 512.912 887.122 510.157ZM879.602 521.318C878.213 521.318 876.111 520.447 875.47 517.098 875.078 515.005 875.078 511.796 875.078 509.738 875.078 507.504 875.078 505.202 875.363 503.318 876.04 499.168 878.712 498.853 879.602 498.853 880.779 498.853 883.13 499.481 883.807 502.935 884.164 504.889 884.164 507.54 884.164 509.738 884.164 512.354 884.164 514.726 883.772 516.958 883.237 520.273 881.207 521.318 879.602 521.318Z" fill-rule="evenodd"/><path d="M898.123 512.588C898.123 509.857 897.744 505.621 895.847 501.667 893.778 497.362 890.812 495.087 890.468 495.087 890.26 495.087 890.123 495.226 890.123 495.437 890.123 495.542 890.123 495.612 890.778 496.241 894.157 499.706 896.123 505.271 896.123 512.588 896.123 518.572 894.848 524.733 890.571 529.142 890.123 529.563 890.123 529.633 890.123 529.738 890.123 529.948 890.26 530.088 890.468 530.088 890.812 530.088 893.916 527.707 895.951 523.263 897.71 519.413 898.123 515.527 898.123 512.588Z" fill-rule="evenodd"/><path d="M494.101 339.745C494.101 339.644 494.101 339.575 493.514 338.997 489.204 334.713 488.1 328.286 488.1 323.085 488.1 317.169 489.411 311.252 493.653 307.002 494.101 306.595 494.101 306.526 494.101 306.425 494.101 306.186 493.963 306.084 493.756 306.084 493.411 306.084 490.308 308.396 488.273 312.715 486.515 316.455 486.101 320.228 486.101 323.085 486.101 325.737 486.479 329.851 488.376 333.692 490.445 337.876 493.411 340.086 493.756 340.086 493.963 340.086 494.101 339.983 494.101 339.745Z" fill-rule="evenodd"/><path d="M505.936 309.984C505.936 309.155 505.936 309.086 505.169 309.086 503.102 311.295 500.168 311.295 499.103 311.295L499.103 312.366C499.768 312.366 501.735 312.366 503.469 311.468L503.469 329.358C503.469 330.601 503.369 331.015 500.368 331.015L499.302 331.015 499.302 332.086C500.468 331.982 503.369 331.982 504.702 331.982 506.036 331.982 508.936 331.982 510.103 332.086L510.103 331.015 509.036 331.015C506.036 331.015 505.936 330.635 505.936 329.358L505.936 309.984Z" fill-rule="evenodd"/><path d="M520.112 331.595C520.112 329.388 519.257 328.083 517.923 328.083 516.795 328.083 516.112 328.918 516.112 329.855 516.112 330.758 516.795 331.628 517.923 331.628 518.333 331.628 518.778 331.495 519.12 331.193 519.222 331.127 519.257 331.093 519.291 331.093 519.325 331.093 519.36 331.127 519.36 331.595 519.36 334.069 518.163 336.076 517.035 337.18 516.658 337.548 516.658 337.615 516.658 337.715 516.658 337.95 516.83 338.084 517 338.084 517.376 338.084 520.112 335.508 520.112 331.595Z" fill-rule="evenodd"/><path d="M544.123 320.65C544.123 317.975 543.945 315.301 542.697 312.827 541.059 309.618 538.136 309.083 536.64 309.083 534.502 309.083 531.901 309.952 530.44 313.06 529.3 315.368 529.122 317.975 529.122 320.65 529.122 323.156 529.264 326.166 530.725 328.706 532.258 331.414 534.858 332.083 536.605 332.083 538.529 332.083 541.237 331.381 542.804 328.204 543.945 325.898 544.123 323.291 544.123 320.65ZM536.605 331.347C535.215 331.347 533.113 330.512 532.472 327.302 532.079 325.297 532.079 322.221 532.079 320.248 532.079 318.108 532.079 315.902 532.365 314.097 533.041 310.119 535.713 309.818 536.605 309.818 537.781 309.818 540.132 310.42 540.81 313.729 541.166 315.602 541.166 318.143 541.166 320.248 541.166 322.756 541.166 325.029 540.773 327.168 540.239 330.345 538.208 331.347 536.605 331.347Z" fill-rule="evenodd"/><path d="M555.124 323.085C555.124 320.433 554.745 316.318 552.849 312.476 550.78 308.295 547.814 306.084 547.469 306.084 547.262 306.084 547.124 306.22 547.124 306.425 547.124 306.526 547.124 306.595 547.779 307.206 551.158 310.572 553.125 315.978 553.125 323.085 553.125 328.898 551.848 334.883 547.572 339.167 547.124 339.575 547.124 339.644 547.124 339.745 547.124 339.949 547.262 340.086 547.469 340.086 547.814 340.086 550.918 337.772 552.952 333.455 554.711 329.715 555.124 325.941 555.124 323.085Z" fill-rule="evenodd"/><path d="M580.342 323.742 589.991 323.742C590.476 323.742 591.133 323.742 591.133 323.083 591.133 322.422 590.476 322.422 589.991 322.422L580.342 322.422 580.342 313.171C580.342 312.709 580.342 312.082 579.65 312.082 578.959 312.082 578.959 312.709 578.959 313.171L578.959 322.422 569.274 322.422C568.789 322.422 568.133 322.422 568.133 323.083 568.133 323.742 568.789 323.742 569.274 323.742L578.959 323.742 578.959 332.993C578.959 333.455 578.959 334.082 579.65 334.082 580.342 334.082 580.342 333.455 580.342 332.993L580.342 323.742Z" fill-rule="evenodd"/><path d="M627.082 310.792C627.392 309.527 627.461 309.177 629.975 309.177 630.871 309.177 631.146 309.177 631.146 308.473 631.146 308.087 630.767 308.087 630.664 308.087 629.7 308.087 627.219 308.192 626.255 308.192 625.256 308.192 622.811 308.087 621.812 308.087 621.537 308.087 621.158 308.087 621.158 308.789 621.158 309.177 621.468 309.177 622.123 309.177 622.191 309.177 622.846 309.177 623.431 309.246 624.05 309.316 624.36 309.352 624.36 309.809 624.36 309.949 624.326 310.02 624.223 310.477L622.157 319.051 611.651 319.051 613.684 310.792C613.994 309.527 614.097 309.177 616.576 309.177 617.472 309.177 617.748 309.177 617.748 308.473 617.748 308.087 617.369 308.087 617.266 308.087 616.302 308.087 613.821 308.192 612.857 308.192 611.858 308.192 609.412 308.087 608.413 308.087 608.139 308.087 607.759 308.087 607.759 308.789 607.759 309.177 608.069 309.177 608.723 309.177 608.793 309.177 609.446 309.177 610.032 309.246 610.652 309.316 610.962 309.352 610.962 309.809 610.962 309.949 610.928 310.054 610.825 310.477L606.21 329.346C605.865 330.717 605.797 330.998 603.075 330.998 602.455 330.998 602.145 330.998 602.145 331.701 602.145 332.087 602.558 332.087 602.628 332.087 603.592 332.087 606.037 331.982 607.002 331.982 607.725 331.982 608.483 332.017 609.206 332.017 609.964 332.017 610.722 332.087 611.445 332.087 611.721 332.087 612.134 332.087 612.134 331.384 612.134 330.998 611.824 330.998 611.169 330.998 609.895 330.998 608.93 330.998 608.93 330.365 608.93 330.155 608.999 329.979 609.033 329.768L611.375 320.139 621.881 320.139C620.434 325.973 619.642 329.312 619.505 329.838 619.161 330.963 618.505 330.998 616.37 330.998 615.853 330.998 615.543 330.998 615.543 331.701 615.543 332.087 615.957 332.087 616.026 332.087 616.99 332.087 619.435 331.982 620.4 331.982 621.124 331.982 621.881 332.017 622.604 332.017 623.363 332.017 624.12 332.087 624.843 332.087 625.119 332.087 625.532 332.087 625.532 331.384 625.532 330.998 625.222 330.998 624.567 330.998 623.293 330.998 622.329 330.998 622.329 330.365 622.329 330.155 622.397 329.979 622.433 329.768L627.082 310.792Z" fill-rule="evenodd"/><path d="M762.101 339.745C762.101 339.644 762.101 339.575 761.514 338.997 757.204 334.713 756.1 328.286 756.1 323.085 756.1 317.169 757.411 311.252 761.653 307.002 762.101 306.595 762.101 306.526 762.101 306.425 762.101 306.186 761.963 306.084 761.756 306.084 761.411 306.084 758.308 308.396 756.273 312.715 754.515 316.455 754.101 320.228 754.101 323.085 754.101 325.737 754.479 329.851 756.376 333.692 758.445 337.876 761.411 340.086 761.756 340.086 761.963 340.086 762.101 339.983 762.101 339.745Z" fill-rule="evenodd"/><path d="M768.609 329.427 772.062 325.869C777.146 321.103 779.1 319.239 779.1 315.785 779.1 311.848 776.168 309.086 772.193 309.086 768.511 309.086 766.1 312.263 766.1 315.336 766.1 317.271 767.728 317.271 767.826 317.271 768.38 317.271 769.521 316.856 769.521 315.439 769.521 314.542 768.935 313.644 767.794 313.644 767.533 313.644 767.469 313.644 767.371 313.679 768.119 311.434 769.88 310.156 771.769 310.156 774.734 310.156 776.135 312.954 776.135 315.785 776.135 318.548 774.507 321.276 772.714 323.418L766.458 330.808C766.1 331.188 766.1 331.257 766.1 332.086L778.188 332.086 779.1 326.078 778.286 326.078C778.123 327.113 777.895 328.633 777.569 329.151 777.341 329.427 775.191 329.427 774.473 329.427L768.609 329.427Z" fill-rule="evenodd"/><path d="M788.112 331.595C788.112 329.388 787.257 328.083 785.923 328.083 784.795 328.083 784.112 328.918 784.112 329.855 784.112 330.758 784.795 331.628 785.923 331.628 786.333 331.628 786.778 331.495 787.12 331.193 787.222 331.127 787.257 331.093 787.291 331.093 787.325 331.093 787.36 331.127 787.36 331.595 787.36 334.069 786.163 336.076 785.035 337.18 784.658 337.548 784.658 337.615 784.658 337.715 784.658 337.95 784.83 338.084 785 338.084 785.376 338.084 788.112 335.508 788.112 331.595Z" fill-rule="evenodd"/><path d="M812.123 320.65C812.123 317.975 811.945 315.301 810.697 312.827 809.059 309.618 806.136 309.083 804.64 309.083 802.502 309.083 799.901 309.952 798.44 313.06 797.3 315.368 797.122 317.975 797.122 320.65 797.122 323.156 797.264 326.166 798.725 328.706 800.258 331.414 802.858 332.083 804.605 332.083 806.529 332.083 809.237 331.381 810.804 328.204 811.945 325.898 812.123 323.291 812.123 320.65ZM804.605 331.347C803.215 331.347 801.113 330.512 800.472 327.302 800.079 325.297 800.079 322.221 800.079 320.248 800.079 318.108 800.079 315.902 800.365 314.097 801.041 310.119 803.713 309.818 804.605 309.818 805.781 309.818 808.132 310.42 808.81 313.729 809.166 315.602 809.166 318.143 809.166 320.248 809.166 322.756 809.166 325.029 808.773 327.168 808.239 330.345 806.208 331.347 804.605 331.347Z" fill-rule="evenodd"/><path d="M823.124 323.085C823.124 320.433 822.745 316.318 820.849 312.476 818.78 308.295 815.814 306.084 815.469 306.084 815.262 306.084 815.124 306.22 815.124 306.425 815.124 306.526 815.124 306.595 815.779 307.206 819.158 310.572 821.125 315.978 821.125 323.085 821.125 328.898 819.848 334.883 815.572 339.167 815.124 339.575 815.124 339.644 815.124 339.745 815.124 339.949 815.262 340.086 815.469 340.086 815.814 340.086 818.918 337.772 820.952 333.455 822.711 329.715 823.124 325.941 823.124 323.085Z" fill-rule="evenodd"/><path d="M848.342 323.742 857.991 323.742C858.476 323.742 859.133 323.742 859.133 323.083 859.133 322.422 858.476 322.422 857.991 322.422L848.342 322.422 848.342 313.171C848.342 312.709 848.342 312.082 847.65 312.082 846.959 312.082 846.959 312.709 846.959 313.171L846.959 322.422 837.274 322.422C836.789 322.422 836.133 322.422 836.133 323.083 836.133 323.742 836.789 323.742 837.274 323.742L846.959 323.742 846.959 332.993C846.959 333.455 846.959 334.082 847.65 334.082 848.342 334.082 848.342 333.455 848.342 332.993L848.342 323.742Z" fill-rule="evenodd"/><path d="M895.082 310.792C895.392 309.527 895.461 309.177 897.975 309.177 898.871 309.177 899.146 309.177 899.146 308.473 899.146 308.087 898.767 308.087 898.664 308.087 897.7 308.087 895.219 308.192 894.255 308.192 893.256 308.192 890.811 308.087 889.812 308.087 889.537 308.087 889.158 308.087 889.158 308.789 889.158 309.177 889.468 309.177 890.123 309.177 890.191 309.177 890.846 309.177 891.431 309.246 892.05 309.316 892.36 309.352 892.36 309.809 892.36 309.949 892.326 310.02 892.223 310.477L890.157 319.051 879.651 319.051 881.684 310.792C881.994 309.527 882.097 309.177 884.576 309.177 885.472 309.177 885.748 309.177 885.748 308.473 885.748 308.087 885.369 308.087 885.266 308.087 884.302 308.087 881.821 308.192 880.857 308.192 879.858 308.192 877.412 308.087 876.413 308.087 876.139 308.087 875.759 308.087 875.759 308.789 875.759 309.177 876.069 309.177 876.723 309.177 876.793 309.177 877.446 309.177 878.032 309.246 878.652 309.316 878.962 309.352 878.962 309.809 878.962 309.949 878.928 310.054 878.825 310.477L874.21 329.346C873.865 330.717 873.797 330.998 871.075 330.998 870.455 330.998 870.145 330.998 870.145 331.701 870.145 332.087 870.558 332.087 870.628 332.087 871.592 332.087 874.037 331.982 875.002 331.982 875.725 331.982 876.483 332.017 877.206 332.017 877.964 332.017 878.722 332.087 879.445 332.087 879.721 332.087 880.134 332.087 880.134 331.384 880.134 330.998 879.824 330.998 879.169 330.998 877.895 330.998 876.93 330.998 876.93 330.365 876.93 330.155 876.999 329.979 877.033 329.768L879.375 320.139 889.881 320.139C888.434 325.973 887.642 329.312 887.505 329.838 887.161 330.963 886.505 330.998 884.37 330.998 883.853 330.998 883.543 330.998 883.543 331.701 883.543 332.087 883.957 332.087 884.026 332.087 884.99 332.087 887.435 331.982 888.4 331.982 889.124 331.982 889.881 332.017 890.604 332.017 891.363 332.017 892.12 332.087 892.843 332.087 893.119 332.087 893.532 332.087 893.532 331.384 893.532 330.998 893.222 330.998 892.567 330.998 891.293 330.998 890.329 330.998 890.329 330.365 890.329 330.155 890.397 329.979 890.433 329.768L895.082 310.792Z" fill-rule="evenodd"/></g></svg>