<svg width="1280" height="720" xmlns="http://www.w3.org/2000/svg" xmlns:xlink="http://www.w3.org/1999/xlink" overflow="hidden"><defs><clipPath id="clip0"><rect x="0" y="0" width="1280" height="720"/></clipPath></defs><g clip-path="url(#clip0)"><rect x="0" y="0" width="1280" height="720" fill="#FFFFFF"/><path d="M881.834 120.819C965.057 197.274 923.936 366.337 789.986 498.433 656.037 630.529 479.983 675.635 396.76 599.18 393.911 596.563 391.193 593.818 388.608 590.949" stroke="#FFC000" stroke-width="3" stroke-miterlimit="8" fill="none" fill-rule="evenodd"/><path d="M301.097 401.629C282.094 290.227 418.107 181.718 604.889 159.269 791.672 136.819 958.494 208.929 977.497 320.331 978.147 324.144 978.616 327.979 978.903 331.83" stroke="#FFC000" stroke-width="3" stroke-miterlimit="8" fill="none" fill-rule="evenodd"/><path d="M846.943 632.082C760.484 704.857 598.058 642.477 484.155 492.751 370.252 343.025 348.005 162.652 434.464 89.8766 437.423 87.3854 440.493 85.04 443.669 82.8433" stroke="#FFC000" stroke-width="3" stroke-miterlimit="8" fill="none" fill-rule="evenodd"/><path d="M300 360C300 172.223 452.223 20 640 20 827.777 20 980 172.223 980 360 980 547.777 827.777 700 640 700 452.223 700 300 547.777 300 360Z" stroke="#000000" stroke-width="6" stroke-miterlimit="8" fill="none" fill-rule="evenodd"/><path d="M379.5 242.5C379.5 240.843 380.843 239.5 382.5 239.5 384.157 239.5 385.5 240.843 385.5 242.5 385.5 244.157 384.157 245.5 382.5 245.5 380.843 245.5 379.5 244.157 379.5 242.5Z" stroke="#000000" stroke-width="1.33333" stroke-miterlimit="8" fill-rule="evenodd"/><path d="M921.5 233C921.5 231.619 922.843 230.5 924.5 230.5 926.157 230.5 927.5 231.619 927.5 233 927.5 234.381 926.157 235.5 924.5 235.5 922.843 235.5 921.5 234.381 921.5 233Z" stroke="#000000" stroke-width="1.33333" stroke-miterlimit="8" fill-rule="evenodd"/><path d="M611.5 614C611.5 612.619 612.619 611.5 614 611.5 615.381 611.5 616.5 612.619 616.5 614 616.5 615.381 615.381 616.5 614 616.5 612.619 616.5 611.5 615.381 611.5 614Z" stroke="#000000" stroke-width="1.33333" stroke-miterlimit="8" fill-rule="evenodd"/><path d="M2.76949 42.467 5.50482 36.3271 8.81576 30.393 12.6448 24.8917 16.9185 19.8423 21.649 15.2926 26.8291 11.2535 32.3168 7.73633 38.0556 4.73289 44.1304 2.29479 50.3869 0.436655 56.8477-0.786643 63.4175-1.43048 70.0769-1.37493 76.7061-0.743114 83.4326 0.656879 90.0661 2.69133 95.4519 4.92788 100.628 7.60587 105.5 10.7393 110.098 14.2455 118.298 22.2394 121.873 26.8314 123.422 29.1891 120.913 30.8323 119.502 28.6686 116.202 24.3856 108.277 16.6295 103.875 13.2607 99.247 10.2691 94.2981 7.69711 89.1839 5.55867 82.8174 3.59312 76.4189 2.24311 70.0481 1.62493 63.7074 1.55548 57.4023 2.16164 51.2381 3.31335 45.2446 5.08021 39.4444 7.39211 33.9332 10.2637 28.6709 13.6215 23.726 17.4574 19.2065 21.7827 15.1052 26.6083 11.4342 31.857 8.24518 37.5479 5.50985 43.6878ZM123.128 19.5279 123.798 32.5013 112.175 26.6984C111.434 26.3284 111.133 25.4275 111.503 24.6864 111.873 23.9452 112.774 23.6443 113.515 24.0144L122.838 28.6686 120.669 30.088 120.132 19.6825C120.09 18.8552 120.726 18.1499 121.553 18.1072 122.38 18.0645 123.086 18.7005 123.128 19.5279Z" transform="matrix(-1 0 0 1 683.5 537.5)"/><path d="M-0.0879081 52.2748 1.61085 45.7472 3.96992 39.4124 6.90267 33.4032 10.3465 27.778 14.3785 22.5791 18.7711 17.7969 23.6331 13.4998 28.8642 9.66445 34.4179 6.33746 40.3024 3.5786 46.4367 1.39856 52.8237-0.205214 59.3443-1.17154 65.9905-1.49827 72.7723-1.1226 79.5968-0.108506 85.1802 1.29577 90.6242 3.21051 95.853 5.50153 98.22 6.77361 96.7949 9.41355 94.647 8.24847 89.6258 6.03949 84.4448 4.20422 79.1532 2.85851 72.6027 1.8726 66.1345 1.49827 59.7807 1.79654 53.5513 2.70521 47.4383 4.22644 41.5726 6.2964 35.9571 8.91254 30.6358 12.0855 25.6169 15.7502 20.9789 19.8281 16.7465 24.4209 12.9035 29.347 9.59733 34.7218 6.78008 40.4626 4.51415 46.5028 2.81539 53.0304ZM93.362-1.58257 100.127 9.50767 87.1435 9.93753C86.3155 9.96495 85.6221 9.31596 85.5947 8.48799 85.5672 7.66002 86.2162 6.96659 87.0442 6.93918L97.4578 6.5944 96.2269 8.87472 90.8009-0.0202811C90.3695-0.727511 90.5931-1.65056 91.3003-2.08198 92.0076-2.51339 92.9306-2.2898 93.362-1.58257Z" transform="matrix(-6.12323e-17 -1 -1 6.12323e-17 445.5 308.5)"/><path d="M912.112 302.694 905.459 301.67 898.896 300.083 892.608 297.783 886.614 294.984 881.032 291.594 875.792 287.704 870.993 283.361 866.584 278.578 862.732 273.393 859.348 267.912 856.465 262.034 854.158 255.902 852.486 249.503 851.455 242.918 851.003 236.161 851.314 229.243 852.707 220.573 855.187 212.138 858.821 204.069 861.813 199.12 864.377 200.677 861.554 205.306 858.064 212.988 855.668 221.052 854.311 229.382 853.997 235.964 854.42 242.457 855.389 248.748 856.967 254.848 859.16 260.716 861.902 266.338 865.143 271.607 868.791 276.547 873.008 281.139 877.583 285.297 882.593 289.032 887.886 292.267 893.642 294.967 899.604 297.167 905.916 298.705 912.568 299.729ZM853.221 203.549 864.64 197.354 864.412 210.342C864.398 211.171 863.714 211.83 862.886 211.816 862.058 211.801 861.398 211.118 861.413 210.29L861.595 199.872 863.81 201.217 854.652 206.186C853.924 206.581 853.013 206.311 852.618 205.582 852.223 204.854 852.493 203.944 853.221 203.549Z"/><path d="M598.69 651.515 605.595 651.515C611.362 651.515 617.008 647.403 617.008 642.976 617.008 639.932 614.328 637.007 609.007 637.007L595.847 637.007C595.075 637.007 594.629 637.007 594.629 637.758 594.629 638.232 594.994 638.232 595.807 638.232 596.334 638.232 597.066 638.272 597.553 638.311 598.203 638.39 598.447 638.509 598.447 638.944 598.447 639.102 598.406 639.22 598.284 639.695L592.841 660.923C592.435 662.465 592.354 662.781 589.145 662.781 588.455 662.781 588.008 662.781 588.008 663.532 588.008 664.007 588.496 664.007 588.617 664.007 589.755 664.007 592.638 663.888 593.776 663.888 594.629 663.888 595.522 663.928 596.375 663.928 597.269 663.928 598.162 664.007 599.015 664.007 599.299 664.007 599.827 664.007 599.827 663.216 599.827 662.781 599.462 662.781 598.69 662.781 597.187 662.781 596.05 662.781 596.05 662.07 596.05 661.832 596.131 661.635 596.172 661.398L598.69 651.515ZM601.615 639.734C601.98 638.351 602.061 638.232 603.808 638.232L607.707 638.232C611.078 638.232 613.231 639.299 613.231 642.027 613.231 643.569 612.419 646.969 610.834 648.392 608.804 650.171 606.367 650.487 604.58 650.487L598.853 650.487 601.615 639.734Z" fill-rule="evenodd"/><path d="M360.771 239.998C367.052 237.635 373.008 230.507 373.008 222.779 373.008 216.331 368.713 212.007 362.675 212.007 353.923 212.007 345.008 221.097 345.008 230.427 345.008 237.075 349.547 241.119 355.382 241.119 356.395 241.119 357.772 240.959 359.353 240.518 359.191 243.001 359.191 243.081 359.191 243.602 359.191 244.883 359.191 248.007 362.554 248.007 367.376 248.007 369.321 240.679 369.321 240.238 369.321 239.958 369.037 239.838 368.875 239.838 368.551 239.838 368.47 240.038 368.389 240.278 367.416 243.121 365.066 244.122 363.648 244.122 361.784 244.122 361.176 243.041 360.771 239.998ZM353.112 239.677C349.952 238.436 348.574 235.313 348.574 231.709 348.574 228.945 349.628 223.259 352.707 218.934 355.665 214.85 359.474 213.008 362.432 213.008 366.484 213.008 369.442 216.131 369.442 221.497 369.442 225.502 367.376 234.872 360.568 238.636 360.366 237.235 359.96 234.311 357.002 234.311 354.855 234.311 352.869 236.314 352.869 238.396 352.869 239.197 353.112 239.637 353.112 239.677ZM355.625 240.118C355.057 240.118 353.761 240.118 353.761 238.396 353.761 236.794 355.301 235.192 357.002 235.192 358.704 235.192 359.474 236.154 359.474 238.596 359.474 239.197 359.434 239.237 359.029 239.397 357.975 239.838 356.759 240.118 355.625 240.118Z" fill-rule="evenodd"/><path d="M886.574 158.747C886.818 157.794 886.94 157.397 887.711 157.278 888.077 157.238 889.376 157.238 890.189 157.238 893.073 157.238 897.581 157.238 897.581 161.17 897.581 162.52 896.931 165.26 895.347 166.809 894.291 167.842 892.138 169.113 888.483 169.113L883.934 169.113 886.574 158.747ZM892.423 169.629C896.525 168.756 901.358 165.975 901.358 161.964 901.358 158.548 897.703 156.007 892.382 156.007L880.807 156.007C879.994 156.007 879.629 156.007 879.629 156.801 879.629 157.238 879.994 157.238 880.766 157.238 880.847 157.238 881.619 157.238 882.309 157.317 883.04 157.397 883.406 157.436 883.406 157.953 883.406 158.112 883.365 158.231 883.243 158.707L877.801 180.035C877.395 181.584 877.313 181.902 874.105 181.902 873.374 181.902 873.008 181.902 873.008 182.696 873.008 183.133 873.496 183.133 873.577 183.133 874.714 183.133 877.557 183.014 878.694 183.014 879.832 183.014 882.715 183.133 883.853 183.133 884.178 183.133 884.665 183.133 884.665 182.339 884.665 181.902 884.299 181.902 883.528 181.902 882.025 181.902 880.888 181.902 880.888 181.187 880.888 180.948 880.969 180.75 881.01 180.512L883.69 169.987 888.524 169.987C892.22 169.987 892.951 172.211 892.951 173.601 892.951 174.197 892.626 175.428 892.382 176.341 892.098 177.453 891.732 178.923 891.732 179.717 891.732 184.007 896.606 184.007 897.134 184.007 900.587 184.007 902.008 179.995 902.008 179.439 902.008 178.963 901.561 178.963 901.521 178.963 901.155 178.963 901.074 179.241 900.993 179.519 899.977 182.458 898.231 183.133 897.297 183.133 895.956 183.133 895.672 182.259 895.672 180.71 895.672 179.479 895.916 177.453 896.078 176.182 896.159 175.627 896.241 174.872 896.241 174.316 896.241 171.258 893.519 170.026 892.423 169.629Z" fill-rule="evenodd"/><path d="M605.106 510.192C605.106 503.953 601.459 502.007 598.557 502.007 593.184 502.007 588.008 507.689 588.008 513.291 588.008 516.987 590.361 520.007 594.361 520.007 596.831 520.007 599.655 519.093 602.635 516.669 603.145 518.775 604.439 520.007 606.204 520.007 608.283 520.007 609.498 517.821 609.498 517.185 609.498 516.907 609.263 516.788 609.028 516.788 608.753 516.788 608.635 516.907 608.518 517.185 607.812 519.132 606.4 519.132 606.322 519.132 605.106 519.132 605.106 516.033 605.106 515.079 605.106 514.245 605.106 514.166 605.498 513.689 609.184 509 610.008 504.391 610.008 504.351 610.008 504.271 609.969 503.953 609.537 503.953 609.145 503.953 609.145 504.073 608.949 504.788 608.243 507.291 606.949 510.311 605.106 512.656L605.106 510.192ZM602.479 515.636C599.027 518.695 596.008 519.132 594.439 519.132 592.086 519.132 590.91 517.344 590.91 514.801 590.91 512.854 591.929 508.563 593.184 506.536 595.028 503.636 597.145 502.881 598.518 502.881 602.4 502.881 602.4 508.086 602.4 511.185 602.4 512.656 602.4 514.96 602.479 515.636Z" fill-rule="evenodd"/><path d="M629.803 490.527C630.009 490.007 630.009 489.847 630.009 489.807 630.009 489.367 629.639 489.007 629.186 489.007 628.898 489.007 628.611 489.127 628.487 489.367L614.215 527.487C614.009 528.007 614.009 528.167 614.009 528.207 614.009 528.647 614.379 529.007 614.832 529.007 615.366 529.007 615.49 528.727 615.736 528.047L629.803 490.527Z" fill-rule="evenodd"/><path d="M637.097 516 641.348 511.979C647.603 506.592 650.009 504.484 650.009 500.58 650.009 496.13 646.4 493.006 641.508 493.006 636.977 493.006 634.009 496.598 634.009 500.073 634.009 502.259 636.014 502.259 636.135 502.259 636.816 502.259 638.22 501.79 638.22 500.19 638.22 499.175 637.498 498.16 636.094 498.16 635.774 498.16 635.693 498.16 635.573 498.199 636.495 495.661 638.661 494.217 640.987 494.217 644.636 494.217 646.36 497.379 646.36 500.58 646.36 503.703 644.355 506.787 642.15 509.208L634.45 517.562C634.009 517.991 634.009 518.069 634.009 519.006L648.886 519.006 650.009 512.214 649.007 512.214C648.806 513.385 648.526 515.103 648.125 515.688 647.844 516 645.197 516 644.315 516L637.097 516Z" fill-rule="evenodd"/><path d="M472.106 264.192C472.106 257.953 468.459 256.007 465.557 256.007 460.184 256.007 455.008 261.689 455.008 267.291 455.008 270.987 457.361 274.007 461.361 274.007 463.831 274.007 466.655 273.093 469.635 270.669 470.145 272.775 471.439 274.007 473.204 274.007 475.283 274.007 476.498 271.821 476.498 271.185 476.498 270.907 476.263 270.788 476.028 270.788 475.753 270.788 475.635 270.907 475.518 271.185 474.812 273.132 473.4 273.132 473.322 273.132 472.106 273.132 472.106 270.033 472.106 269.079 472.106 268.245 472.106 268.165 472.498 267.689 476.184 263 477.008 258.391 477.008 258.351 477.008 258.271 476.969 257.953 476.537 257.953 476.145 257.953 476.145 258.073 475.949 258.788 475.243 261.291 473.949 264.311 472.106 266.656L472.106 264.192ZM469.479 269.636C466.027 272.695 463.008 273.132 461.439 273.132 459.086 273.132 457.91 271.344 457.91 268.801 457.91 266.854 458.929 262.563 460.184 260.536 462.028 257.636 464.145 256.881 465.518 256.881 469.4 256.881 469.4 262.086 469.4 265.185 469.4 266.656 469.4 268.96 469.479 269.636Z" fill-rule="evenodd"/><path d="M496.803 245.527C497.009 245.007 497.009 244.847 497.009 244.807 497.009 244.367 496.639 244.007 496.186 244.007 495.898 244.007 495.611 244.127 495.487 244.367L481.215 282.487C481.009 283.007 481.009 283.167 481.009 283.207 481.009 283.647 481.379 284.007 481.832 284.007 482.366 284.007 482.49 283.727 482.736 283.047L496.803 245.527Z" fill-rule="evenodd"/><path d="M504.097 270.885 508.348 266.709C514.603 261.115 517.009 258.926 517.009 254.872 517.009 250.25 513.4 247.007 508.508 247.007 503.977 247.007 501.009 250.736 501.009 254.345 501.009 256.615 503.014 256.615 503.135 256.615 503.816 256.615 505.22 256.128 505.22 254.466 505.22 253.412 504.498 252.358 503.094 252.358 502.774 252.358 502.693 252.358 502.573 252.399 503.495 249.763 505.661 248.263 507.987 248.263 511.636 248.263 513.36 251.547 513.36 254.872 513.36 258.115 511.355 261.318 509.15 263.831L501.45 272.507C501.009 272.953 501.009 273.034 501.009 274.007L515.886 274.007 517.009 266.953 516.007 266.953C515.806 268.169 515.526 269.953 515.125 270.561 514.844 270.885 512.197 270.885 511.315 270.885L504.097 270.885Z" fill-rule="evenodd"/><path d="M795.008 234.023C795.008 231.442 794.31 226.006 790.359 226.006 784.974 226.006 779.008 237.034 779.008 245.99 779.008 249.666 780.131 254.006 783.657 254.006 789.119 254.006 795.008 242.783 795.008 234.023ZM783.114 239.381C783.773 236.878 784.548 233.749 786.097 230.973 787.143 229.057 788.577 226.867 790.32 226.867 792.218 226.867 792.451 229.37 792.451 231.599 792.451 233.515 792.141 235.509 791.211 239.381L783.114 239.381ZM790.862 240.632C790.436 242.431 789.623 245.755 788.151 248.571 786.795 251.23 785.323 253.146 783.657 253.146 782.378 253.146 781.565 252.012 781.565 248.375 781.565 246.733 781.797 244.465 782.804 240.632L790.862 240.632Z" fill-rule="evenodd"/><path d="M814.803 225.527C815.009 225.007 815.009 224.847 815.009 224.807 815.009 224.367 814.639 224.007 814.186 224.007 813.898 224.007 813.61 224.127 813.487 224.367L799.214 262.487C799.009 263.007 799.009 263.167 799.009 263.207 799.009 263.647 799.379 264.007 799.831 264.007 800.366 264.007 800.49 263.727 800.736 263.047L814.803 225.527Z" fill-rule="evenodd"/><path d="M822.097 250.885 826.347 246.709C832.603 241.115 835.009 238.926 835.009 234.872 835.009 230.25 831.4 227.007 826.508 227.007 821.977 227.007 819.009 230.736 819.009 234.345 819.009 236.615 821.014 236.615 821.134 236.615 821.816 236.615 823.22 236.128 823.22 234.466 823.22 233.412 822.498 232.358 821.094 232.358 820.773 232.358 820.693 232.358 820.573 232.399 821.495 229.763 823.661 228.263 825.987 228.263 829.636 228.263 831.36 231.547 831.36 234.872 831.36 238.115 829.355 241.317 827.149 243.831L819.45 252.507C819.009 252.953 819.009 253.034 819.009 254.007L833.886 254.007 835.009 246.953 834.007 246.953C833.806 248.169 833.525 249.953 833.124 250.561 832.844 250.885 830.197 250.885 829.315 250.885L822.097 250.885Z" fill-rule="evenodd"/></g></svg>