<svg width="1280" height="720" xmlns="http://www.w3.org/2000/svg" xmlns:xlink="http://www.w3.org/1999/xlink" overflow="hidden"><defs><clipPath id="clip0"><rect x="0" y="0" width="1280" height="720"/></clipPath></defs><g clip-path="url(#clip0)"><rect x="0" y="0" width="1280" height="720" fill="#FFFFFF"/><path d="M791.253 151.699 806.433 164.721 794.062 179.142 778.882 166.12Z" stroke="#000000" stroke-width="2" stroke-miterlimit="8" fill="none" fill-rule="evenodd"/><path d="M375 360C375 213.645 493.645 95 640 95 786.355 95 905 213.645 905 360 905 506.355 786.355 625 640 625 493.645 625 375 506.355 375 360Z" stroke="#000000" stroke-width="6" stroke-miterlimit="8" fill="none" fill-rule="evenodd"/><path d="M707.282 103.465 879.606 247.34 877.042 250.41 704.718 106.535ZM880.634 242.987 886 255.284 872.943 252.199Z" fill="#FFC000"/><path d="M0.783336-1.84021 237.582 98.9594 236.015 102.64-0.783336 1.84021ZM237.309 94.4958 246 104.716 232.609 105.537Z" fill="#FFC000" transform="matrix(1 0 0 -1 640 359.716)"/><path d="M1.9362-0.501135 65.4306 244.818 61.5582 245.82-1.9362 0.501135ZM68.8019 241.879 66.0001 255 57.1847 244.886Z" fill="#FFC000" transform="matrix(1 0 0 -1 640 360)"/><path d="M279.5 360.5 994.5 360.5" stroke="#000000" stroke-width="3" stroke-miterlimit="8" fill="none" fill-rule="evenodd"/><path d="M640.5 48.5001 640.5 682.5" stroke="#000000" stroke-width="3" stroke-miterlimit="8" fill="none" fill-rule="evenodd"/><path d="M0 0 516.784 616.5" stroke="#4472C4" stroke-width="6" stroke-miterlimit="8" fill="none" fill-rule="evenodd" transform="matrix(-1 0 0 1 899.784 50)"/><path d="M841.099 299.782C841.099 296.921 839.677 296.073 838.693 296.073 837.326 296.073 836.014 297.451 836.014 298.616 836.014 299.305 836.288 299.623 836.889 300.206 838.037 301.266 838.748 302.643 838.748 304.551 838.748 306.776 835.412 318.908 829.016 318.908 826.228 318.908 824.972 317.054 824.972 314.299 824.972 311.332 826.447 307.464 828.142 303.066 828.525 302.166 828.797 301.424 828.797 300.418 828.797 298.033 827.049 296.073 824.315 296.073 819.176 296.073 817.099 303.755 817.099 304.232 817.099 304.762 817.646 304.762 817.755 304.762 818.301 304.762 818.355 304.656 818.629 303.808 820.215 298.457 822.566 297.239 824.151 297.239 824.589 297.239 825.518 297.239 825.518 298.934 825.518 300.258 824.972 301.689 824.589 302.643 822.182 308.789 821.473 311.226 821.473 313.504 821.473 319.226 826.283 320.074 828.797 320.074 837.983 320.074 841.099 302.537 841.099 299.782Z" fill="#FF8000" fill-rule="evenodd"/><path d="M672.643 158.53C672.915 157.364 673.459 155.404 673.459 155.087 673.459 154.133 672.698 153.656 671.882 153.656 671.229 153.656 670.251 154.079 669.87 155.139 669.707 155.51 667.151 165.63 666.77 167.007 666.39 168.597 666.281 169.551 666.281 170.504 666.281 171.086 666.281 171.193 666.335 171.457 665.084 174.265 663.453 175.908 661.332 175.908 656.982 175.908 656.982 171.988 656.982 171.086 656.982 169.392 657.254 167.325 659.81 160.808 660.408 159.218 660.734 158.477 660.734 157.418 660.734 155.033 658.94 153.073 656.275 153.073 651.109 153.073 649.097 160.755 649.097 161.232 649.097 161.762 649.641 161.762 649.748 161.762 650.292 161.762 650.346 161.656 650.618 160.808 652.088 155.881 654.208 154.239 656.112 154.239 656.601 154.239 657.471 154.291 657.471 155.987 657.471 157.312 656.873 158.795 656.492 159.695 654.1 165.947 653.447 168.384 653.447 170.398 653.447 175.219 657.091 177.074 661.169 177.074 662.094 177.074 664.649 177.074 666.825 173.365 668.239 176.756 671.991 177.074 673.622 177.074 677.701 177.074 680.093 173.736 681.507 170.557 683.357 166.424 685.097 159.325 685.097 156.782 685.097 153.868 683.629 153.073 682.705 153.073 681.344 153.073 679.986 154.45 679.986 155.616 679.986 156.305 680.311 156.623 680.8 157.047 681.4 157.629 682.759 159.007 682.759 161.551 682.759 163.351 681.182 168.544 679.767 171.246 678.353 174.054 676.45 175.908 673.785 175.908 671.229 175.908 669.761 174.319 669.761 171.299 669.761 169.815 670.142 168.173 670.359 167.432L672.643 158.53Z" fill="#FF8000" fill-rule="evenodd"/><path d="M876.59 197.524C877.19 199.696 879.096 201.074 881.439 201.074 883.346 201.074 884.598 199.855 885.47 198.16 886.396 196.253 887.105 193.021 887.105 192.915 887.105 192.384 886.614 192.384 886.451 192.384 885.906 192.384 885.851 192.597 885.688 193.338 884.925 196.305 883.891 199.908 881.602 199.908 880.458 199.908 879.913 199.219 879.913 197.471 879.913 196.305 880.567 193.815 881.003 191.961L882.529 186.239C882.692 185.445 883.237 183.431 883.455 182.636 883.726 181.418 884.271 179.404 884.271 179.087 884.271 178.133 883.508 177.656 882.692 177.656 882.42 177.656 881.003 177.708 880.567 179.51 879.532 183.378 877.135 192.649 876.481 195.457 876.427 195.67 874.247 199.908 870.271 199.908 867.438 199.908 866.894 197.524 866.894 195.563 866.894 192.597 868.419 188.411 869.835 184.755 870.489 183.166 870.761 182.424 870.761 181.418 870.761 179.033 869.019 177.073 866.294 177.073 861.119 177.073 859.104 184.755 859.104 185.232 859.104 185.762 859.649 185.762 859.758 185.762 860.301 185.762 860.356 185.656 860.628 184.808 861.991 180.199 864.06 178.239 866.131 178.239 866.621 178.239 867.493 178.291 867.493 179.987 867.493 181.258 866.894 182.795 866.567 183.589 864.552 188.835 863.407 192.12 863.407 194.716 863.407 199.75 867.166 201.074 870.107 201.074 873.704 201.074 875.664 198.69 876.59 197.524Z" fill="#FF8000" fill-rule="evenodd"/><path d="M945.795 73.1434C946.276 71.2452 946.383 70.7187 950.284 70.7187 951.674 70.7187 952.102 70.7187 952.102 69.6642 952.102 69.0851 951.513 69.0851 951.353 69.0851 949.856 69.0851 946.009 69.243 944.512 69.243 942.962 69.243 939.168 69.0851 937.617 69.0851 937.191 69.0851 936.602 69.0851 936.602 70.1395 936.602 70.7187 937.084 70.7187 938.099 70.7187 938.206 70.7187 939.221 70.7187 940.129 70.824 941.092 70.9293 941.573 70.9819 941.573 71.6678 941.573 71.8784 941.519 71.9837 941.359 72.6695L938.152 85.5304 921.851 85.5304 925.005 73.1434C925.487 71.2452 925.646 70.7187 929.494 70.7187 930.884 70.7187 931.312 70.7187 931.312 69.6642 931.312 69.0851 930.723 69.0851 930.563 69.0851 929.066 69.0851 925.219 69.243 923.723 69.243 922.172 69.243 918.378 69.0851 916.829 69.0851 916.401 69.0851 915.812 69.0851 915.812 70.1395 915.812 70.7187 916.294 70.7187 917.309 70.7187 917.416 70.7187 918.431 70.7187 919.341 70.824 920.302 70.9293 920.783 70.9819 920.783 71.6678 920.783 71.8784 920.729 72.0363 920.57 72.6695L913.407 100.974C912.873 103.03 912.766 103.451 908.544 103.451 907.582 103.451 907.102 103.451 907.102 104.506 907.102 105.086 907.743 105.086 907.85 105.086 909.346 105.086 913.141 104.927 914.638 104.927 915.76 104.927 916.936 104.98 918.058 104.98 919.234 104.98 920.409 105.086 921.532 105.086 921.958 105.086 922.6 105.086 922.6 104.032 922.6 103.451 922.119 103.451 921.104 103.451 919.127 103.451 917.63 103.451 917.63 102.502 917.63 102.186 917.737 101.923 917.79 101.607L921.425 87.164 937.724 87.164C935.48 95.9139 934.251 100.921 934.037 101.713 933.503 103.399 932.488 103.451 929.173 103.451 928.372 103.451 927.892 103.451 927.892 104.506 927.892 105.086 928.532 105.086 928.639 105.086 930.136 105.086 933.931 104.927 935.426 104.927 936.549 104.927 937.724 104.98 938.848 104.98 940.022 104.98 941.198 105.086 942.32 105.086 942.748 105.086 943.39 105.086 943.39 104.032 943.39 103.451 942.909 103.451 941.894 103.451 939.915 103.451 938.42 103.451 938.42 102.502 938.42 102.186 938.527 101.923 938.58 101.607L945.795 73.1434Z" fill="#0000FF" fill-rule="evenodd"/><path d="M693.099 397.145C693.099 388.729 687.423 383.084 679.445 383.084 667.878 383.084 656.099 394.949 656.099 407.128 656.099 415.805 662.096 421.084 669.807 421.084 681.158 421.084 693.099 409.637 693.099 397.145ZM670.128 419.725C664.827 419.725 661.078 415.492 661.078 408.592 661.078 406.292 661.827 398.66 665.951 392.545 669.645 387.109 674.893 384.391 679.124 384.391 683.514 384.391 688.333 387.318 688.333 395.106 688.333 398.869 686.888 407.024 681.586 413.453 679.016 416.642 674.625 419.725 670.128 419.725Z" fill-rule="evenodd"/></g></svg>