<svg width="1280" height="720" xmlns="http://www.w3.org/2000/svg" xmlns:xlink="http://www.w3.org/1999/xlink" overflow="hidden"><defs><clipPath id="clip0"><rect x="0" y="0" width="1280" height="720"/></clipPath></defs><g clip-path="url(#clip0)"><rect x="0" y="0" width="1280" height="720" fill="#FFFFFF"/><path d="M128 360C128 200.39 357.23 71 640 71 922.77 71 1152 200.39 1152 360 1152 519.61 922.77 649 640 649 357.23 649 128 519.61 128 360Z" stroke="#000000" stroke-width="4" stroke-miterlimit="8" fill="none" fill-rule="evenodd"/><path d="M0.0212566 176.369C2.60825 78.0665 233.702-0.893891 516.184 0.00637555 796.838 0.900818 1023 80.3285 1023 177.999" stroke="#000000" stroke-width="3" stroke-miterlimit="8" fill="none" fill-rule="evenodd" transform="matrix(1 0 0 -1 129.5 538.5)"/><path d="M128.521 358.869C131.108 260.567 362.202 181.606 644.684 182.506 925.338 183.401 1151.5 262.829 1151.5 360.5" stroke="#000000" stroke-linejoin="round" stroke-miterlimit="10" stroke-dasharray="4 3" fill="none" fill-rule="evenodd"/><path d="M10.5978 107.274C-24.5145 64.9579 30.0287 18.8904 132.424 4.37962 234.819-10.1311 346.29 12.4098 381.402 54.7261 394.176 70.1199 395.433 86.7468 385.01 102.44" stroke="#000000" stroke-width="3" stroke-miterlimit="8" fill="none" fill-rule="evenodd" transform="matrix(1 0 0 -1 445.5 407.5)"/><path d="M482.671 373.87C507.208 353.146 597.313 341.106 683.927 346.977 740.342 350.8 783.825 361.579 797.802 375.204" stroke="#000000" stroke-width="3" stroke-miterlimit="8" fill="none" fill-rule="evenodd"/><path d="M514.617 639.284C492.288 635.239 475.254 576.315 476.57 507.675 477.886 439.034 497.054 386.67 519.383 390.716 520.812 390.975 522.235 391.466 523.647 392.188" stroke="#000000" stroke-width="3" stroke-miterlimit="8" fill="none" fill-rule="evenodd"/><path d="M38.1171 248.784C15.7883 244.739-1.24594 185.815 0.0701273 117.175 1.38619 48.5344 20.5542-3.82995 42.883 0.215716 44.3118 0.474584 45.7351 0.966084 47.1469 1.68815" stroke="#000000" stroke-linejoin="round" stroke-miterlimit="10" stroke-dasharray="4 3" fill="none" fill-rule="evenodd" transform="matrix(-1 0 0 1 558.5 390.5)"/><path d="M0.00108924 125.295C-0.101193 90.8921 6.43291 57.9323 18.0527 34.2372" stroke="#000000" stroke-width="2" stroke-linejoin="round" stroke-miterlimit="10" stroke-dasharray="8 6" fill="none" fill-rule="evenodd" transform="matrix(-1 0 0 1 839 396)"/><path d="M155.172 9.69816C264.816-6.59625 399.637-2.05766 491.968 21.036" stroke="#000000" stroke-width="2" stroke-linejoin="round" stroke-miterlimit="10" stroke-dasharray="8 6" fill="none" fill-rule="evenodd" transform="matrix(1 0 0 -1 331 452)"/><path d="M455.415 526.294 455.063 502.828 456.126 479.704 457.192 468.406 458.57 457.5 460.263 447.028 461.928 438.912 463.887 439.314 462.237 447.347 460.555 457.75 459.183 468.594 458.124 479.796 457.062 502.797 457.415 526.264ZM455.983 445.344 463.306 437.169 466.818 447.568C466.994 448.091 466.713 448.658 466.19 448.835 465.667 449.012 465.099 448.731 464.923 448.208L461.96 439.433 463.652 439.78 457.472 446.678C457.104 447.09 456.472 447.125 456.06 446.756 455.649 446.388 455.614 445.755 455.983 445.344Z"/><path d="M350.153 8.10598 395.027 3.6923 440.561 0.752077 486.53-0.749467 532.624-0.812499 578.53 0.562949 623.937 3.37692 668.657 7.62949 710.345 13.0635 710.086 15.0467 668.468 9.62051 623.813 5.37308 578.47 2.56205 532.626 1.1875 486.595 1.24947 440.689 2.74792 395.223 5.6827 350.349 10.0964ZM703.497 7.60206 712.184 14.3117 702.068 18.5701C701.559 18.7844 700.972 18.5455 700.758 18.0365 700.544 17.5274 700.783 16.9411 701.292 16.7268L709.828 13.1335 709.604 14.8465 702.275 9.18485C701.838 8.84723 701.757 8.21922 702.095 7.78215 702.432 7.34507 703.06 7.26444 703.497 7.60206Z" transform="matrix(1 0 0 -1 129 552)"/><path d="M435.615 456.175C435.615 456.084 435.759 455.582 435.759 455.537 435.759 455.492 435.759 455.081 435.187 455.081 434.709 455.081 434.661 455.218 434.47 455.993L431.703 466.528C424.118 466.756 417.104 472.822 417.104 479.024 417.104 483.357 420.444 486.959 426.264 487.278 425.882 488.693 425.548 490.152 425.167 491.565 424.594 493.71 424.118 495.443 424.118 495.579 424.118 496.035 424.45 496.081 424.69 496.081 424.928 496.081 425.024 496.035 425.167 495.898 425.262 495.807 425.548 494.713 425.692 494.074L427.505 487.278C435.187 487.051 442.105 480.895 442.105 474.782 442.105 471.18 439.576 466.984 432.944 466.528L435.615 456.175ZM426.503 486.276C423.64 486.139 420.204 484.543 420.204 479.982 420.204 474.509 424.308 468.124 431.417 467.531L426.503 486.276ZM432.658 467.531C436.283 467.714 439.003 469.812 439.003 473.825 439.003 479.207 434.9 485.728 427.743 486.276L432.658 467.531Z" fill-rule="evenodd"/><path d="M681.102 574.822C681.102 571.688 680.229 565.088 675.29 565.088 668.558 565.088 661.1 578.478 661.1 589.353 661.1 593.818 662.504 599.089 666.912 599.089 673.741 599.089 681.102 585.459 681.102 574.822ZM666.234 581.328C667.057 578.289 668.025 574.49 669.962 571.118 671.269 568.791 673.062 566.132 675.242 566.132 677.614 566.132 677.905 569.172 677.905 571.878 677.905 574.205 677.517 576.627 676.355 581.328L666.234 581.328ZM675.919 582.847C675.386 585.032 674.369 589.069 672.53 592.487 670.835 595.717 668.994 598.044 666.912 598.044 665.313 598.044 664.296 596.666 664.296 592.25 664.296 590.256 664.587 587.501 665.846 582.847L675.919 582.847Z" fill-rule="evenodd"/><path d="M818 432C818 429.791 819.567 428 821.5 428 823.433 428 825 429.791 825 432 825 434.209 823.433 436 821.5 436 819.567 436 818 434.209 818 432Z" fill-rule="evenodd"/><path d="M845.093 430.616C845.093 430.475 845.093 430.381 844.36 429.582 838.972 423.66 837.593 414.776 837.593 407.586 837.593 399.407 839.231 391.229 844.533 385.354 845.093 384.791 845.093 384.697 845.093 384.555 845.093 384.226 844.921 384.086 844.662 384.086 844.231 384.086 840.351 387.282 837.808 393.25 835.609 398.421 835.093 403.638 835.093 407.586 835.093 411.252 835.567 416.939 837.937 422.249 840.524 428.031 844.231 431.086 844.662 431.086 844.921 431.086 845.093 430.946 845.093 430.616Z" fill-rule="evenodd"/><path d="M869.104 395.822C869.104 392.687 868.275 386.087 863.584 386.087 857.189 386.087 850.104 399.477 850.104 410.352 850.104 414.816 851.438 420.087 855.624 420.087 862.112 420.087 869.104 406.458 869.104 395.822ZM854.981 402.327C855.762 399.287 856.683 395.489 858.522 392.118 859.765 389.79 861.467 387.131 863.538 387.131 865.792 387.131 866.067 390.17 866.067 392.877 866.067 395.204 865.7 397.625 864.595 402.327L854.981 402.327ZM864.181 403.846C863.675 406.031 862.709 410.067 860.961 413.486 859.351 416.716 857.603 419.043 855.624 419.043 854.106 419.043 853.14 417.666 853.14 413.248 853.14 411.255 853.416 408.5 854.612 403.846L864.181 403.846Z" fill-rule="evenodd"/><path d="M881.123 419.002C881.123 415.911 879.84 414.085 877.841 414.085 876.148 414.085 875.123 415.255 875.123 416.566 875.123 417.831 876.148 419.049 877.841 419.049 878.455 419.049 879.123 418.861 879.635 418.44 879.789 418.346 879.84 418.299 879.892 418.299 879.943 418.299 879.995 418.346 879.995 419.002 879.995 422.467 878.199 425.276 876.506 426.822 875.944 427.337 875.944 427.431 875.944 427.572 875.944 427.898 876.2 428.087 876.456 428.087 877.021 428.087 881.123 424.481 881.123 419.002Z" fill-rule="evenodd"/><path d="M912.632 388.206C912.632 388.113 912.776 387.599 912.776 387.552 912.776 387.506 912.776 387.085 912.203 387.085 911.726 387.085 911.678 387.225 911.487 388.02L908.72 398.812C901.133 399.045 894.12 405.258 894.12 411.613 894.12 416.051 897.46 419.742 903.281 420.069 902.898 421.518 902.565 423.012 902.183 424.461 901.61 426.656 901.133 428.432 901.133 428.573 901.133 429.039 901.467 429.087 901.706 429.087 901.944 429.087 902.04 429.039 902.183 428.899 902.279 428.805 902.565 427.684 902.708 427.031L904.521 420.069C912.203 419.835 919.121 413.528 919.121 407.268 919.121 403.577 916.593 399.279 909.961 398.812L912.632 388.206ZM903.519 419.041C900.656 418.902 897.221 417.266 897.221 412.593 897.221 406.987 901.325 400.447 908.434 399.84L903.519 419.041ZM909.674 399.84C913.299 400.027 916.02 402.176 916.02 406.286 916.02 411.799 911.916 418.481 904.759 419.041L909.674 399.84Z" fill-rule="evenodd"/><path d="M933.127 407.586C933.127 403.919 932.605 398.233 929.998 392.922 927.153 387.141 923.075 384.086 922.601 384.086 922.316 384.086 922.127 384.273 922.127 384.555 922.127 384.697 922.127 384.791 923.027 385.637 927.675 390.289 930.377 397.762 930.377 407.586 930.377 415.623 928.623 423.894 922.743 429.818 922.127 430.381 922.127 430.475 922.127 430.616 922.127 430.898 922.316 431.086 922.601 431.086 923.075 431.086 927.342 427.889 930.14 421.921 932.559 416.751 933.127 411.534 933.127 407.586Z" fill-rule="evenodd"/></g></svg>