<svg width="1280" height="720" xmlns="http://www.w3.org/2000/svg" xmlns:xlink="http://www.w3.org/1999/xlink" overflow="hidden"><defs><clipPath id="clip0"><rect x="0" y="0" width="1280" height="720"/></clipPath></defs><g clip-path="url(#clip0)"><rect x="0" y="0" width="1280" height="720" fill="#FFFFFF"/><path d="M206.5 250C206.5 210.512 238.736 178.5 278.5 178.5 318.265 178.5 350.5 210.512 350.5 250 350.5 289.488 318.265 321.5 278.5 321.5 238.736 321.5 206.5 289.488 206.5 250Z" stroke="#000000" stroke-width="1.33333" stroke-miterlimit="8" fill="none" fill-rule="evenodd"/><path d="M206.5 537C206.5 497.512 238.736 465.5 278.5 465.5 318.265 465.5 350.5 497.512 350.5 537 350.5 576.488 318.265 608.5 278.5 608.5 238.736 608.5 206.5 576.488 206.5 537Z" stroke="#000000" stroke-width="1.33333" stroke-miterlimit="8" fill="none" fill-rule="evenodd"/><path d="M930.5 254.5C930.5 214.736 962.736 182.5 1002.5 182.5 1042.26 182.5 1074.5 214.736 1074.5 254.5 1074.5 294.265 1042.26 326.5 1002.5 326.5 962.736 326.5 930.5 294.265 930.5 254.5Z" stroke="#000000" stroke-width="1.33333" stroke-miterlimit="8" fill="none" fill-rule="evenodd"/><path d="M1.25658-2.72415 202.701 90.197 200.188 95.6453-1.25658 2.72415ZM202.49 83.4922 225.962 104.23 194.95 99.8371Z" transform="matrix(1 0 0 -1 350 249.23)"/><path d="M351.229 534.263 558.727 627.434 556.269 632.907 348.771 539.737ZM558.448 620.732 582.129 641.23 551.074 637.152Z"/><path d="M576.5 145.5C576.5 105.736 608.736 73.5001 648.5 73.5001 688.265 73.5001 720.5 105.736 720.5 145.5 720.5 185.265 688.265 217.5 648.5 217.5 608.736 217.5 576.5 185.265 576.5 145.5Z" stroke="#000000" stroke-width="1.33333" stroke-miterlimit="8" fill="none" fill-rule="evenodd"/><path d="M582.5 641.5C582.5 601.736 614.736 569.5 654.5 569.5 694.265 569.5 726.5 601.736 726.5 641.5 726.5 681.265 694.265 713.5 654.5 713.5 614.736 713.5 582.5 681.265 582.5 641.5Z" stroke="#000000" stroke-width="1.33333" stroke-miterlimit="8" fill="none" fill-rule="evenodd"/><path d="M352.58 247.47 570.938 615.72 565.777 618.78 347.42 250.53ZM574.569 610.08 582.129 640.474 559.086 619.26Z"/><path d="M2.59824-1.49972 215.063 366.591 209.866 369.591-2.59824 1.49972ZM218.759 360.993 225.962 391.475 203.17 369.991Z" transform="matrix(1 0 0 -1 350 536.475)"/><path d="M721.38 142.336 907.816 238.961 905.055 244.288 718.62 147.664ZM907.913 232.253 930.407 254.048 899.63 248.235Z"/><path d="M1.36369-2.67215 181.554 89.2851 178.827 94.6294-1.36369 2.67215ZM181.609 82.5771 204.24 104.23 173.427 98.61Z" transform="matrix(1 0 0 -1 726 641.23)"/><path d="M580.5 398.5C580.5 358.736 612.736 326.5 652.5 326.5 692.265 326.5 724.5 358.736 724.5 398.5 724.5 438.265 692.265 470.5 652.5 470.5 612.736 470.5 580.5 438.265 580.5 398.5Z" stroke="#000000" stroke-width="1.33333" stroke-miterlimit="8" fill="none" fill-rule="evenodd"/><path d="M1.55024-2.56842 208.404 122.284 205.304 127.42-1.55024 2.56842ZM208.936 115.597 229.97 138.804 199.635 131.007Z" transform="matrix(1 0 0 -1 350 536.804)"/><path d="M351.627 246.479 558.912 380.277 555.658 385.318 348.373 251.521ZM559.645 373.609 579.97 397.44 549.884 388.732Z"/><path d="M1.71352-2.46249 185.95 125.738 182.523 130.663-1.71352 2.46249ZM186.914 119.099 206.399 143.622 176.633 133.874Z" transform="matrix(1 0 0 -1 724 397.622)"/><path d="M930.5 537C930.5 497.512 962.736 465.5 1002.5 465.5 1042.26 465.5 1074.5 497.512 1074.5 537 1074.5 576.488 1042.26 608.5 1002.5 608.5 962.736 608.5 930.5 576.488 930.5 537Z" stroke="#000000" stroke-width="1.33333" stroke-miterlimit="8" fill="none" fill-rule="evenodd"/><path d="M725.674 395.511 909.668 519.247 906.32 524.226 722.326 400.489ZM910.527 512.594 930.399 536.804 900.482 527.531Z"/><path d="M722.643 143.58 920.267 511.272 914.982 514.112 717.357 146.42ZM924.132 505.789 930.407 536.474 908.277 514.31Z"/><path d="M2.65267-1.40119 194.282 361.381 188.976 364.183-2.65267 1.40119ZM198.186 355.926 204.24 386.657 182.27 364.334Z" transform="matrix(1 0 0 -1 726 640.657)"/><path d="M193.773 127.091C193.773 125.668 193.891 125.233 196.999 125.233L198.022 125.233 198.022 124.008C196.645 124.126 193.537 124.126 192.041 124.126 190.507 124.126 187.399 124.126 186.022 124.008L186.022 125.233 187.045 125.233C190.153 125.233 190.271 125.668 190.271 127.091L190.271 147.924C190.271 149.348 190.153 149.782 187.045 149.782L186.022 149.782 186.022 151.008C187.399 150.889 190.507 150.889 192.002 150.889 193.537 150.889 196.645 150.889 198.022 151.008L198.022 149.782 196.999 149.782C193.891 149.782 193.773 149.348 193.773 147.924L193.773 127.091Z" fill-rule="evenodd"/><path d="M204.124 137.777 204.124 148.085C204.124 149.815 203.686 149.815 201.022 149.815L201.022 151.008C202.414 150.969 204.442 150.892 205.515 150.892 206.549 150.892 208.617 150.969 209.969 151.008L209.969 149.815C207.305 149.815 206.867 149.815 206.867 148.085L206.867 141.008C206.867 137.008 209.69 134.854 212.235 134.854 214.74 134.854 215.177 136.931 215.177 139.123L215.177 148.085C215.177 149.815 214.74 149.815 212.076 149.815L212.076 151.008C213.468 150.969 215.495 150.892 216.569 150.892 217.603 150.892 219.67 150.969 221.022 151.008L221.022 149.815C218.955 149.815 217.961 149.815 217.921 148.661L217.921 141.315C217.921 138.008 217.921 136.815 216.688 135.431 216.132 134.777 214.82 134.008 212.513 134.008 209.611 134.008 207.742 135.661 206.629 138.046L206.629 134.008 201.022 134.431 201.022 135.623C203.806 135.623 204.124 135.892 204.124 137.777Z" fill-rule="evenodd"/><path d="M228.572 136.602 228.572 134.008 223.022 134.44 223.022 135.659C225.759 135.659 226.028 135.895 226.028 137.624L226.028 156.02C226.028 157.789 225.604 157.789 223.022 157.789L223.022 159.008C224.333 158.969 226.337 158.89 227.339 158.89 228.379 158.89 230.345 158.969 231.694 159.008L231.694 157.789C229.111 157.789 228.687 157.789 228.687 156.02L228.687 149.417 228.687 149.063C228.88 149.692 230.499 151.814 233.428 151.814 238.014 151.814 242.022 147.962 242.022 142.891 242.022 137.899 238.284 134.008 233.967 134.008 230.961 134.008 229.343 135.737 228.572 136.602ZM228.687 146.901 228.687 138.135C229.805 136.13 231.694 134.99 233.659 134.99 236.473 134.99 238.823 138.45 238.823 142.891 238.823 147.648 236.126 150.95 233.274 150.95 231.732 150.95 230.268 150.163 229.227 148.552 228.687 147.726 228.687 147.687 228.687 146.901Z" fill-rule="evenodd"/><path d="M259.298 148.432 259.298 152.008 265.023 151.571 265.023 150.339C262.24 150.339 261.922 150.061 261.922 148.114L261.922 134.008 256.077 134.445 256.077 135.677C258.86 135.677 259.178 135.955 259.178 137.902L259.178 144.975C259.178 148.432 257.27 151.134 254.367 151.134 251.027 151.134 250.868 149.266 250.868 147.2L250.868 134.008 245.023 134.445 245.023 135.677C248.125 135.677 248.125 135.796 248.125 139.332L248.125 145.293C248.125 148.392 248.125 152.008 254.169 152.008 256.395 152.008 258.145 150.895 259.298 148.432Z" fill-rule="evenodd"/><path d="M272.421 135.594 278.361 135.594 278.361 134.356 272.421 134.356 272.421 127.008 271.383 127.008C271.341 130.283 270.095 134.556 266.025 134.716L266.025 135.594 269.556 135.594 269.556 146.617C269.556 151.529 273.418 152.008 274.913 152.008 277.862 152.008 279.025 149.173 279.025 146.617L279.025 144.34 277.987 144.34 277.987 146.537C277.987 149.492 276.741 151.01 275.204 151.01 272.421 151.01 272.421 147.375 272.421 146.696L272.421 135.594Z" fill-rule="evenodd"/><path d="M301.863 124.008 296.025 124.436 296.025 125.642C298.863 125.642 299.188 125.914 299.188 127.82L299.188 148.051C299.188 149.802 298.742 149.802 296.025 149.802L296.025 151.008C297.363 150.969 299.512 150.891 300.525 150.891 301.539 150.891 303.525 150.969 305.025 151.008L305.025 149.802C302.309 149.802 301.863 149.802 301.863 148.051L301.863 124.008Z" fill-rule="evenodd"/><path d="M318.639 148.407C318.799 150.063 319.877 151.801 321.752 151.801 322.591 151.801 325.025 151.222 325.025 147.869L325.025 145.551 324.027 145.551 324.027 147.869C324.027 150.27 323.03 150.518 322.591 150.518 321.274 150.518 321.114 148.655 321.114 148.448L321.114 140.169C321.114 138.431 321.114 136.816 319.677 135.285 318.121 133.67 316.125 133.008 314.209 133.008 310.936 133.008 308.183 134.954 308.183 137.686 308.183 138.928 308.981 139.631 310.019 139.631 311.136 139.631 311.854 138.803 311.854 137.727 311.854 137.23 311.655 135.864 309.819 135.823 310.897 134.374 312.852 133.919 314.129 133.919 316.085 133.919 318.36 135.533 318.36 139.217L318.36 140.749C316.325 140.873 313.531 140.997 311.016 142.239 308.023 143.647 307.025 145.799 307.025 147.62 307.025 150.973 310.897 152.008 313.411 152.008 316.045 152.008 317.881 150.352 318.639 148.407ZM318.36 141.618 318.36 145.758C318.36 149.69 315.486 151.098 313.69 151.098 311.735 151.098 310.098 149.649 310.098 147.579 310.098 145.302 311.775 141.867 318.36 141.618Z" fill-rule="evenodd"/><path d="M341.223 137.742C342.286 135.266 344.372 135.226 345.026 135.226L345.026 134.008C344.086 134.086 342.9 134.126 341.959 134.126 341.223 134.126 339.3 134.047 338.401 134.008L338.401 135.226C339.669 135.266 340.323 135.934 340.323 136.917 340.323 137.31 340.282 137.388 340.078 137.86L335.947 147.53 331.407 136.956C331.243 136.563 331.161 136.406 331.161 136.248 331.161 135.226 332.675 135.226 333.452 135.226L333.452 134.008C332.388 134.047 329.689 134.126 328.994 134.126 327.889 134.126 326.253 134.086 325.026 134.008L325.026 135.226C326.99 135.226 327.767 135.226 328.339 136.602L334.474 150.95C334.27 151.461 333.697 152.758 333.452 153.269 332.552 155.431 331.407 158.143 328.789 158.143 328.585 158.143 327.644 158.143 326.867 157.435 328.135 157.278 328.462 156.413 328.462 155.785 328.462 154.762 327.685 154.134 326.744 154.134 325.926 154.134 325.026 154.645 325.026 155.824 325.026 157.593 326.744 159.008 328.789 159.008 331.366 159.008 333.043 156.767 334.024 154.527L341.223 137.742Z" fill-rule="evenodd"/><path d="M348.5 141.121C348.748 134.954 352.221 133.919 353.627 133.919 357.885 133.919 358.298 139.507 358.298 141.121L348.5 141.121ZM348.459 141.991 359.994 141.991C360.903 141.991 361.027 141.991 361.027 141.121 361.027 137.023 358.795 133.008 353.627 133.008 348.831 133.008 345.027 137.272 345.027 142.446 345.027 147.993 349.368 152.008 354.123 152.008 359.167 152.008 361.027 147.413 361.027 146.627 361.027 146.213 360.696 146.13 360.49 146.13 360.118 146.13 360.035 146.379 359.952 146.71 358.505 150.973 354.784 150.973 354.371 150.973 352.304 150.973 350.65 149.732 349.699 148.2 348.459 146.213 348.459 143.481 348.459 141.991Z" fill-rule="evenodd"/><path d="M368.82 138.238 368.82 134.008 363.028 134.431 363.028 135.623C365.945 135.623 366.278 135.892 366.278 137.777L366.278 148.085C366.278 149.815 365.819 149.815 363.028 149.815L363.028 151.008C364.653 150.969 366.611 150.892 367.778 150.892 369.445 150.892 371.403 150.892 373.07 151.008L373.07 149.815 372.195 149.815C369.111 149.815 369.028 149.392 369.028 148.008L369.028 142.085C369.028 138.277 370.778 134.854 373.945 134.854 374.236 134.854 374.32 134.854 374.403 134.892 374.278 134.931 373.445 135.392 373.445 136.392 373.445 137.469 374.32 138.046 375.236 138.046 375.986 138.046 377.028 137.584 377.028 136.354 377.028 135.123 375.736 134.008 373.945 134.008 370.903 134.008 369.403 136.584 368.82 138.238Z" fill-rule="evenodd"/><path d="M552.8 31.0913C552.8 29.6681 552.882 29.2333 556.038 29.2333L557.022 29.2333 557.022 28.0078C555.587 28.1263 552.554 28.1263 550.996 28.1263 549.438 28.1263 546.363 28.1263 544.928 28.0078L544.928 29.2333 545.912 29.2333C549.069 29.2333 549.151 29.6681 549.151 31.0913L549.151 40.3417 536.893 40.3417 536.893 31.0913C536.893 29.6681 536.975 29.2333 540.132 29.2333L541.116 29.2333 541.116 28.0078C539.681 28.1263 536.647 28.1263 535.089 28.1263 533.532 28.1263 530.457 28.1263 529.022 28.0078L529.022 29.2333 530.006 29.2333C533.163 29.2333 533.245 29.6681 533.245 31.0913L533.245 51.9244C533.245 53.3475 533.163 53.7824 530.006 53.7824L529.022 53.7824 529.022 55.0079C530.457 54.8893 533.491 54.8893 535.048 54.8893 536.606 54.8893 539.681 54.8893 541.116 55.0079L541.116 53.7824 540.132 53.7824C536.975 53.7824 536.893 53.3475 536.893 51.9244L536.893 41.5671 549.151 41.5671 549.151 51.9244C549.151 53.3475 549.069 53.7824 545.912 53.7824L544.928 53.7824 544.928 55.0079C546.363 54.8893 549.397 54.8893 550.955 54.8893 552.513 54.8893 555.587 54.8893 557.022 55.0079L557.022 53.7824 556.038 53.7824C552.882 53.7824 552.8 53.3475 552.8 51.9244L552.8 31.0913Z" fill-rule="evenodd"/><path d="M565.404 37.8298 560.17 38.2573 560.17 39.4621C562.6 39.4621 562.937 39.6952 562.937 41.5997L562.937 52.0541C562.937 53.803 562.526 53.803 560.021 53.803L560.021 55.0077C561.217 54.9689 563.236 54.8912 564.133 54.8912 565.441 54.8912 566.75 54.9689 568.021 55.0077L568.021 53.803C565.554 53.803 565.404 53.6087 565.404 52.0929L565.404 37.8298ZM565.554 31.0674C565.554 29.8238 564.619 29.0077 563.572 29.0077 562.413 29.0077 561.591 30.057 561.591 31.0674 561.591 32.1168 562.413 33.1273 563.572 33.1273 564.619 33.1273 565.554 32.3111 565.554 31.0674Z" fill-rule="evenodd"/><path d="M585.06 53.3866 585.06 56.0078 591.023 55.571 591.023 54.3398C588.183 54.3398 587.859 54.0618 587.859 52.1157L587.859 28.0078 582.017 28.4447 582.017 29.6759C584.857 29.6759 585.181 29.9539 585.181 31.9L585.181 40.4788C584.005 39.049 582.26 38.0163 580.07 38.0163 575.283 38.0163 571.023 41.9086 571.023 47.032 571.023 52.0759 574.999 56.0078 579.623 56.0078 582.22 56.0078 584.045 54.6576 585.06 53.3866ZM585.06 42.7426 585.06 50.8845C585.06 51.5993 585.06 51.6787 584.613 52.3539 583.396 54.2604 581.571 55.1342 579.826 55.1342 578.001 55.1342 576.54 54.1015 575.566 52.5923 574.512 50.9639 574.39 48.7 574.39 47.0716 574.39 45.6022 574.471 43.2192 575.648 41.432 576.5 40.2008 578.041 38.8901 580.232 38.8901 581.652 38.8901 583.356 39.4858 584.613 41.2731 585.06 41.9483 585.06 42.0277 585.06 42.7426Z" fill-rule="evenodd"/><path d="M607.06 53.3866 607.06 56.0078 613.023 55.571 613.023 54.3398C610.184 54.3398 609.859 54.0618 609.859 52.1157L609.859 28.0078 604.017 28.4447 604.017 29.6759C606.857 29.6759 607.182 29.9539 607.182 31.9L607.182 40.4788C606.005 39.049 604.261 38.0163 602.07 38.0163 597.283 38.0163 593.023 41.9086 593.023 47.032 593.023 52.0759 596.999 56.0078 601.624 56.0078 604.22 56.0078 606.046 54.6576 607.06 53.3866ZM607.06 42.7426 607.06 50.8845C607.06 51.5993 607.06 51.6787 606.614 52.3539 605.397 54.2604 603.571 55.1342 601.827 55.1342 600.001 55.1342 598.541 54.1015 597.567 52.5923 596.512 50.9639 596.391 48.7 596.391 47.0716 596.391 45.6022 596.472 43.2192 597.648 41.432 598.5 40.2008 600.042 38.8901 602.232 38.8901 603.652 38.8901 605.356 39.4858 606.614 41.2731 607.06 41.9483 607.06 42.0277 607.06 42.7426Z" fill-rule="evenodd"/><path d="M618.497 45.694C618.745 39.8509 622.218 38.8704 623.624 38.8704 627.883 38.8704 628.296 44.1646 628.296 45.694L618.497 45.694ZM618.456 46.5176 629.991 46.5176C630.901 46.5176 631.025 46.5176 631.025 45.694 631.025 41.8117 628.792 38.0077 623.624 38.0077 618.828 38.0077 615.024 42.0469 615.024 46.9489 615.024 52.2038 619.366 56.0078 624.12 56.0078 629.164 56.0078 631.025 51.6548 631.025 50.9097 631.025 50.5176 630.694 50.4392 630.487 50.4392 630.115 50.4392 630.032 50.6744 629.95 50.9882 628.503 55.0274 624.782 55.0274 624.368 55.0274 622.301 55.0274 620.647 53.851 619.696 52.3999 618.456 50.5176 618.456 47.9294 618.456 46.5176Z" fill-rule="evenodd"/><path d="M636.282 41.7768 636.282 52.0846C636.282 53.8154 635.823 53.8154 633.025 53.8154L633.025 55.0077C634.487 54.9692 636.616 54.8923 637.743 54.8923 638.828 54.8923 640.999 54.9692 642.419 55.0077L642.419 53.8154C639.622 53.8154 639.162 53.8154 639.162 52.0846L639.162 45.0076C639.162 41.0076 642.127 38.8537 644.799 38.8537 647.429 38.8537 647.888 40.9307 647.888 43.1229L647.888 52.0846C647.888 53.8154 647.429 53.8154 644.632 53.8154L644.632 55.0077C646.093 54.9692 648.222 54.8923 649.349 54.8923 650.435 54.8923 652.606 54.9692 654.025 55.0077L654.025 53.8154C651.854 53.8154 650.811 53.8154 650.769 52.6615L650.769 45.3153C650.769 42.0076 650.769 40.8153 649.475 39.4306 648.89 38.7768 647.512 38.0076 645.091 38.0076 642.043 38.0076 640.081 39.6615 638.912 42.046L638.912 38.0076 633.025 38.4306 633.025 39.623C635.948 39.623 636.282 39.8922 636.282 41.7768Z" fill-rule="evenodd"/><path d="M674.863 28.0077 669.026 28.4356 669.026 29.6417C671.863 29.6417 672.188 29.914 672.188 31.8203L672.188 52.0509C672.188 53.8016 671.742 53.8016 669.026 53.8016L669.026 55.0077C670.363 54.9687 672.512 54.8909 673.526 54.8909 674.539 54.8909 676.526 54.9687 678.026 55.0077L678.026 53.8016C675.309 53.8016 674.863 53.8016 674.863 52.0509L674.863 28.0077Z" fill-rule="evenodd"/><path d="M692.64 52.596C692.799 54.1646 693.877 55.8118 695.753 55.8118 696.591 55.8118 699.025 55.2626 699.025 52.0862L699.025 49.8901 698.028 49.8901 698.028 52.0862C698.028 54.3607 697.03 54.5961 696.591 54.5961 695.274 54.5961 695.114 52.8313 695.114 52.6352L695.114 44.792C695.114 43.145 695.114 41.6156 693.677 40.1645 692.121 38.6352 690.125 38.0077 688.209 38.0077 684.937 38.0077 682.183 39.8509 682.183 42.4391 682.183 43.6156 682.981 44.2823 684.019 44.2823 685.136 44.2823 685.855 43.4979 685.855 42.4783 685.855 42.0078 685.655 40.7137 683.819 40.6744 684.897 39.3019 686.852 38.8704 688.13 38.8704 690.085 38.8704 692.36 40.3999 692.36 43.8901L692.36 45.3411C690.325 45.4587 687.531 45.5764 685.016 46.7528 682.023 48.0862 681.025 50.1254 681.025 51.8509 681.025 55.0274 684.897 56.0078 687.411 56.0078 690.045 56.0078 691.881 54.4391 692.64 52.596ZM692.36 46.1646 692.36 50.0862C692.36 53.8117 689.487 55.1451 687.691 55.1451 685.735 55.1451 684.099 53.7725 684.099 51.8117 684.099 49.6548 685.775 46.3999 692.36 46.1646Z" fill-rule="evenodd"/><path d="M714.412 41.8918C715.422 39.3162 717.404 39.2754 718.025 39.2754L718.025 38.0081C717.132 38.0898 716.005 38.1306 715.111 38.1306 714.412 38.1306 712.586 38.0489 711.731 38.0081L711.731 39.2754C712.935 39.3162 713.557 40.0112 713.557 41.0332 713.557 41.442 713.518 41.5237 713.324 42.0143L709.399 52.071 705.086 41.0741C704.931 40.6653 704.853 40.5018 704.853 40.3383 704.853 39.2754 706.291 39.2754 707.029 39.2754L707.029 38.0081C706.019 38.0489 703.455 38.1306 702.794 38.1306 701.745 38.1306 700.191 38.0898 699.025 38.0081L699.025 39.2754C700.89 39.2754 701.628 39.2754 702.172 40.7062L708.001 55.6276C707.806 56.1591 707.262 57.5081 707.029 58.0395 706.174 60.288 705.086 63.1088 702.6 63.1088 702.406 63.1088 701.512 63.1088 700.774 62.3729 701.978 62.2094 702.289 61.31 702.289 60.6559 702.289 59.593 701.551 58.9389 700.657 58.9389 699.88 58.9389 699.025 59.4703 699.025 60.6968 699.025 62.5365 700.657 64.0081 702.6 64.0081 705.048 64.0081 706.641 61.678 707.573 59.3478L714.412 41.8918Z" fill-rule="evenodd"/><path d="M722.5 45.694C722.748 39.8509 726.221 38.8704 727.627 38.8704 731.885 38.8704 732.299 44.1646 732.299 45.694L722.5 45.694ZM722.459 46.5176 733.994 46.5176C734.903 46.5176 735.027 46.5176 735.027 45.694 735.027 41.8117 732.795 38.0077 727.627 38.0077 722.831 38.0077 719.027 42.0469 719.027 46.9489 719.027 52.2038 723.368 56.0078 728.123 56.0078 733.167 56.0078 735.027 51.6548 735.027 50.9097 735.027 50.5176 734.697 50.4392 734.49 50.4392 734.118 50.4392 734.035 50.6744 733.952 50.9882 732.505 55.0274 728.784 55.0274 728.371 55.0274 726.304 55.0274 724.65 53.851 723.699 52.3999 722.459 50.5176 722.459 47.9294 722.459 46.5176Z" fill-rule="evenodd"/><path d="M742.82 42.2383 742.82 38.0076 737.028 38.4306 737.028 39.623C739.945 39.623 740.278 39.8922 740.278 41.7768L740.278 52.0846C740.278 53.8154 739.82 53.8154 737.028 53.8154L737.028 55.0077C738.653 54.9692 740.611 54.8923 741.778 54.8923 743.445 54.8923 745.403 54.8923 747.07 55.0077L747.07 53.8154 746.195 53.8154C743.111 53.8154 743.028 53.3922 743.028 52.0077L743.028 46.0846C743.028 42.2769 744.778 38.8537 747.945 38.8537 748.236 38.8537 748.32 38.8537 748.403 38.8922 748.278 38.9307 747.445 39.3921 747.445 40.3922 747.445 41.4692 748.32 42.046 749.236 42.046 749.986 42.046 751.028 41.5845 751.028 40.3537 751.028 39.1229 749.736 38.0076 747.945 38.0076 744.903 38.0076 743.403 40.5845 742.82 42.2383Z" fill-rule="evenodd"/><path d="M917.021 135.608C917.021 127.47 911.117 121.008 904.002 121.008 897.003 121.008 891.021 127.39 891.021 135.608 891.021 143.785 897.042 150.008 904.002 150.008 911.117 150.008 917.021 143.665 917.021 135.608ZM904.041 148.971C900.287 148.971 895.048 145.46 895.048 135.049 895.048 124.718 900.756 122.005 904.002 122.005 907.403 122.005 912.994 124.837 912.994 135.049 912.994 145.62 907.638 148.971 904.041 148.971Z" fill-rule="evenodd"/><path d="M935.297 146.432 935.297 150.008 941.022 149.571 941.022 148.339C938.239 148.339 937.921 148.061 937.921 146.114L937.921 132.008 932.076 132.445 932.076 133.677C934.859 133.677 935.177 133.955 935.177 135.902L935.177 142.975C935.177 146.432 933.269 149.134 930.366 149.134 927.026 149.134 926.867 147.266 926.867 145.2L926.867 132.008 921.022 132.445 921.022 133.677C924.124 133.677 924.124 133.796 924.124 137.332L924.124 143.293C924.124 146.392 924.124 150.008 930.167 150.008 932.394 150.008 934.144 148.895 935.297 146.432Z" fill-rule="evenodd"/><path d="M948.42 133.594 954.359 133.594 954.359 132.356 948.42 132.356 948.42 125.008 947.382 125.008C947.34 128.283 946.094 132.556 942.024 132.716L942.024 133.594 945.554 133.594 945.554 144.617C945.554 149.529 949.417 150.008 950.912 150.008 953.861 150.008 955.024 147.173 955.024 144.617L955.024 142.34 953.986 142.34 953.986 144.537C953.986 147.492 952.74 149.01 951.203 149.01 948.42 149.01 948.42 145.375 948.42 144.696L948.42 133.594Z" fill-rule="evenodd"/><path d="M963.866 134.602 963.866 132.008 958.024 132.44 958.024 133.659C960.904 133.659 961.188 133.895 961.188 135.624L961.188 154.02C961.188 155.789 960.742 155.789 958.024 155.789L958.024 157.008C959.403 156.969 961.513 156.89 962.567 156.89 963.663 156.89 965.732 156.969 967.152 157.008L967.152 155.789C964.434 155.789 963.987 155.789 963.987 154.02L963.987 147.417 963.987 147.063C964.19 147.692 965.894 149.814 968.977 149.814 973.805 149.814 978.024 145.962 978.024 140.891 978.024 135.899 974.089 132.008 969.545 132.008 966.381 132.008 964.677 133.737 963.866 134.602ZM963.987 144.901 963.987 136.135C965.164 134.13 967.152 132.99 969.221 132.99 972.182 132.99 974.657 136.45 974.657 140.891 974.657 145.648 971.817 148.95 968.815 148.95 967.192 148.95 965.651 148.163 964.555 146.552 963.987 145.726 963.987 145.687 963.987 144.901Z" fill-rule="evenodd"/><path d="M995.298 146.432 995.298 150.008 1001.02 149.571 1001.02 148.339C998.241 148.339 997.922 148.061 997.922 146.114L997.922 132.008 992.078 132.445 992.078 133.677C994.861 133.677 995.179 133.955 995.179 135.902L995.179 142.975C995.179 146.432 993.27 149.134 990.368 149.134 987.028 149.134 986.869 147.266 986.869 145.2L986.869 132.008 981.024 132.445 981.024 133.677C984.125 133.677 984.125 133.796 984.125 137.332L984.125 143.293C984.125 146.392 984.125 150.008 990.169 150.008 992.396 150.008 994.145 148.895 995.298 146.432Z" fill-rule="evenodd"/><path d="M1008.93 133.594 1014.41 133.594 1014.41 132.356 1008.93 132.356 1008.93 125.008 1007.97 125.008C1007.93 128.283 1006.78 132.556 1003.02 132.716L1003.02 133.594 1006.28 133.594 1006.28 144.617C1006.28 149.529 1009.85 150.008 1011.23 150.008 1013.95 150.008 1015.02 147.173 1015.02 144.617L1015.02 142.34 1014.07 142.34 1014.07 144.537C1014.07 147.492 1012.91 149.01 1011.5 149.01 1008.93 149.01 1008.93 145.375 1008.93 144.696L1008.93 133.594Z" fill-rule="evenodd"/><path d="M1037.86 122.008 1032.03 122.436 1032.03 123.642C1034.86 123.642 1035.19 123.914 1035.19 125.82L1035.19 146.051C1035.19 147.802 1034.74 147.802 1032.03 147.802L1032.03 149.008C1033.36 148.969 1035.51 148.891 1036.53 148.891 1037.54 148.891 1039.53 148.969 1041.03 149.008L1041.03 147.802C1038.31 147.802 1037.86 147.802 1037.86 146.051L1037.86 122.008Z" fill-rule="evenodd"/><path d="M1055.29 146.407C1055.45 148.063 1056.59 149.801 1058.57 149.801 1059.46 149.801 1062.03 149.222 1062.03 145.869L1062.03 143.551 1060.97 143.551 1060.97 145.869C1060.97 148.27 1059.92 148.518 1059.46 148.518 1058.07 148.518 1057.9 146.655 1057.9 146.448L1057.9 138.169C1057.9 136.431 1057.9 134.816 1056.38 133.285 1054.74 131.67 1052.63 131.008 1050.61 131.008 1047.16 131.008 1044.25 132.954 1044.25 135.686 1044.25 136.928 1045.09 137.631 1046.19 137.631 1047.37 137.631 1048.12 136.803 1048.12 135.727 1048.12 135.23 1047.91 133.864 1045.98 133.823 1047.11 132.374 1049.18 131.919 1050.53 131.919 1052.59 131.919 1054.99 133.533 1054.99 137.217L1054.99 138.749C1052.84 138.873 1049.89 138.997 1047.24 140.239 1044.08 141.647 1043.03 143.799 1043.03 145.62 1043.03 148.973 1047.11 150.008 1049.77 150.008 1052.55 150.008 1054.49 148.352 1055.29 146.407ZM1054.99 139.618 1054.99 143.758C1054.99 147.69 1051.96 149.098 1050.06 149.098 1048 149.098 1046.27 147.649 1046.27 145.579 1046.27 143.302 1048.04 139.867 1054.99 139.618Z" fill-rule="evenodd"/><path d="M1077.22 135.742C1078.29 133.266 1080.37 133.226 1081.03 133.226L1081.03 132.008C1080.09 132.086 1078.9 132.126 1077.96 132.126 1077.22 132.126 1075.3 132.047 1074.4 132.008L1074.4 133.226C1075.67 133.266 1076.32 133.934 1076.32 134.917 1076.32 135.31 1076.28 135.388 1076.08 135.86L1071.95 145.53 1067.41 134.956C1067.24 134.563 1067.16 134.406 1067.16 134.248 1067.16 133.226 1068.67 133.226 1069.45 133.226L1069.45 132.008C1068.39 132.047 1065.69 132.126 1064.99 132.126 1063.89 132.126 1062.25 132.086 1061.03 132.008L1061.03 133.226C1062.99 133.226 1063.77 133.226 1064.34 134.602L1070.47 148.95C1070.27 149.461 1069.7 150.758 1069.45 151.269 1068.55 153.431 1067.41 156.143 1064.79 156.143 1064.58 156.143 1063.64 156.143 1062.87 155.435 1064.14 155.278 1064.46 154.413 1064.46 153.785 1064.46 152.762 1063.69 152.134 1062.74 152.134 1061.93 152.134 1061.03 152.645 1061.03 153.824 1061.03 155.593 1062.74 157.008 1064.79 157.008 1067.37 157.008 1069.04 154.767 1070.02 152.527L1077.22 135.742Z" fill-rule="evenodd"/><path d="M1085.28 139.121C1085.51 132.954 1088.77 131.919 1090.09 131.919 1094.08 131.919 1094.47 137.507 1094.47 139.121L1085.28 139.121ZM1085.24 139.991 1096.06 139.991C1096.91 139.991 1097.03 139.991 1097.03 139.121 1097.03 135.023 1094.93 131.008 1090.09 131.008 1085.59 131.008 1082.03 135.272 1082.03 140.446 1082.03 145.993 1086.1 150.008 1090.55 150.008 1095.28 150.008 1097.03 145.413 1097.03 144.627 1097.03 144.213 1096.72 144.13 1096.52 144.13 1096.17 144.13 1096.1 144.379 1096.02 144.71 1094.66 148.973 1091.17 148.973 1090.79 148.973 1088.85 148.973 1087.3 147.732 1086.41 146.2 1085.24 144.213 1085.24 141.481 1085.24 139.991Z" fill-rule="evenodd"/><path d="M1105.4 136.238 1105.4 132.008 1100.03 132.431 1100.03 133.623C1102.73 133.623 1103.04 133.892 1103.04 135.777L1103.04 146.085C1103.04 147.815 1102.62 147.815 1100.03 147.815L1100.03 149.008C1101.54 148.969 1103.35 148.892 1104.44 148.892 1105.98 148.892 1107.8 148.892 1109.35 149.008L1109.35 147.815 1108.54 147.815C1105.67 147.815 1105.6 147.392 1105.6 146.008L1105.6 140.085C1105.6 136.277 1107.22 132.854 1110.16 132.854 1110.43 132.854 1110.51 132.854 1110.59 132.892 1110.47 132.931 1109.7 133.392 1109.7 134.392 1109.7 135.469 1110.51 136.046 1111.36 136.046 1112.06 136.046 1113.03 135.584 1113.03 134.354 1113.03 133.123 1111.83 132.008 1110.16 132.008 1107.34 132.008 1105.95 134.584 1105.4 136.238Z" fill-rule="evenodd"/></g></svg>