<svg width="1280" height="720" xmlns="http://www.w3.org/2000/svg" xmlns:xlink="http://www.w3.org/1999/xlink" overflow="hidden"><defs><clipPath id="clip0"><rect x="0" y="0" width="1280" height="720"/></clipPath></defs><g clip-path="url(#clip0)"><rect x="0" y="0" width="1280" height="720" fill="#FFFFFF"/><path d="M454.5 219C454.5 177.303 488.303 143.5 530 143.5 571.698 143.5 605.5 177.303 605.5 219 605.5 260.698 571.698 294.5 530 294.5 488.303 294.5 454.5 260.698 454.5 219Z" stroke="#000000" stroke-miterlimit="8" fill="none" fill-rule="evenodd"/><path d="M451.5 619C451.5 577.303 485.303 543.5 527 543.5 568.698 543.5 602.5 577.303 602.5 619 602.5 660.698 568.698 694.5 527 694.5 485.303 694.5 451.5 660.698 451.5 619Z" stroke="#000000" stroke-width="1.33333" stroke-miterlimit="8" fill="none" fill-rule="evenodd"/><path d="M451.5 419.5C451.5 377.526 485.303 343.5 527 343.5 568.698 343.5 602.5 377.526 602.5 419.5 602.5 461.474 568.698 495.5 527 495.5 485.303 495.5 451.5 461.474 451.5 419.5Z" stroke="#000000" stroke-width="1.33333" stroke-miterlimit="8" fill="none" fill-rule="evenodd"/><path d="M218 113C218 83.7289 241.729 60 271 60 300.271 60 324 83.7289 324 113 324 142.271 300.271 166 271 166 241.729 166 218 142.271 218 113Z" stroke="#000000" stroke-width="6" stroke-miterlimit="8" fill="#BFBFBF" fill-rule="evenodd"/><path d="M218 512C218 482.729 241.729 459 271 459 300.271 459 324 482.729 324 512 324 541.271 300.271 565 271 565 241.729 565 218 541.271 218 512Z" stroke="#000000" stroke-width="6" stroke-miterlimit="8" fill="none" fill-rule="evenodd"/><path d="M218 312.5C218 283.505 241.729 260 271 260 300.271 260 324 283.505 324 312.5 324 341.495 300.271 365 271 365 241.729 365 218 341.495 218 312.5Z" stroke="#000000" stroke-width="6" stroke-miterlimit="8" fill="none" fill-rule="evenodd"/><path d="M729.5 512.5C729.5 483.229 753.229 459.5 782.5 459.5 811.771 459.5 835.5 483.229 835.5 512.5 835.5 541.771 811.771 565.5 782.5 565.5 753.229 565.5 729.5 541.771 729.5 512.5Z" stroke="#000000" stroke-width="1.33333" stroke-miterlimit="8" fill="none" fill-rule="evenodd"/><path d="M729.5 313C729.5 284.005 753.229 260.5 782.5 260.5 811.771 260.5 835.5 284.005 835.5 313 835.5 341.995 811.771 365.5 782.5 365.5 753.229 365.5 729.5 341.995 729.5 313Z" stroke="#000000" stroke-width="1.33333" stroke-miterlimit="8" fill="none" fill-rule="evenodd"/><path d="M975.5 453C975.5 424.005 999.229 400.5 1028.5 400.5 1057.77 400.5 1081.5 424.005 1081.5 453 1081.5 481.995 1057.77 505.5 1028.5 505.5 999.229 505.5 975.5 481.995 975.5 453Z" stroke="#000000" stroke-width="1.33333" stroke-miterlimit="8" fill="none" fill-rule="evenodd"/><path d="M975.5 253.5C975.5 224.229 999.229 200.5 1028.5 200.5 1057.77 200.5 1081.5 224.229 1081.5 253.5 1081.5 282.771 1057.77 306.5 1028.5 306.5 999.229 306.5 975.5 282.771 975.5 253.5Z" stroke="#000000" stroke-width="1.33333" stroke-miterlimit="8" fill="none" fill-rule="evenodd"/><path d="M267.274 310.571C267.515 309.538 268.439 305.882 271.25 305.882 271.451 305.882 272.414 305.882 273.258 306.399 272.133 306.597 271.33 307.591 271.33 308.544 271.33 309.18 271.772 309.935 272.856 309.935 273.74 309.935 275.025 309.22 275.025 307.63 275.025 305.564 272.655 305.008 271.29 305.008 268.961 305.008 267.555 307.114 267.073 308.028 266.069 305.405 263.9 305.008 262.736 305.008 258.559 305.008 256.27 310.134 256.27 311.127 256.27 311.524 256.671 311.524 256.752 311.524 257.073 311.524 257.193 311.445 257.274 311.087 258.639 306.875 261.29 305.882 262.655 305.882 263.418 305.882 264.824 306.24 264.824 308.544 264.824 309.776 264.141 312.438 262.655 318.001 262.013 320.465 260.607 322.134 258.84 322.134 258.599 322.134 257.675 322.134 256.832 321.617 257.836 321.418 258.72 320.584 258.72 319.471 258.72 318.399 257.836 318.081 257.234 318.081 256.029 318.081 255.025 319.114 255.025 320.385 255.025 322.213 257.033 323.008 258.8 323.008 261.45 323.008 262.896 320.226 263.017 319.988 263.499 321.458 264.944 323.008 267.354 323.008 271.491 323.008 273.78 317.882 273.78 316.889 273.78 316.491 273.418 316.491 273.298 316.491 272.936 316.491 272.856 316.65 272.776 316.928 271.451 321.18 268.72 322.134 267.434 322.134 265.868 322.134 265.226 320.862 265.226 319.511 265.226 318.637 265.467 317.763 265.908 316.014L267.274 310.571Z" fill-rule="evenodd"/><path d="M285.234 310.809C285.234 310.037 285.179 310.008 284.409 310.008 282.651 311.811 280.151 311.84 279.025 311.84L279.025 312.87C279.684 312.87 281.497 312.87 283.008 312.068L283.008 326.662C283.008 327.606 283.008 327.978 280.261 327.978L279.217 327.978 279.217 329.008C279.712 328.98 283.091 328.894 284.107 328.894 284.959 328.894 288.42 328.98 289.025 329.008L289.025 327.978 287.981 327.978C285.234 327.978 285.234 327.606 285.234 326.662L285.234 310.809Z" fill-rule="evenodd"/><path d="M265.274 508.88C265.515 507.79 266.439 503.931 269.25 503.931 269.451 503.931 270.414 503.931 271.258 504.476 270.133 504.686 269.33 505.734 269.33 506.741 269.33 507.412 269.772 508.209 270.856 508.209 271.74 508.209 273.025 507.454 273.025 505.776 273.025 503.595 270.655 503.008 269.29 503.008 266.961 503.008 265.555 505.231 265.073 506.196 264.069 503.428 261.9 503.008 260.736 503.008 256.559 503.008 254.27 508.419 254.27 509.467 254.27 509.887 254.671 509.887 254.752 509.887 255.073 509.887 255.193 509.803 255.274 509.425 256.639 504.98 259.29 503.931 260.655 503.931 261.418 503.931 262.824 504.309 262.824 506.741 262.824 508.041 262.141 510.852 260.655 516.723 260.013 519.324 258.607 521.086 256.84 521.086 256.599 521.086 255.675 521.086 254.832 520.54 255.836 520.331 256.72 519.45 256.72 518.275 256.72 517.143 255.836 516.807 255.234 516.807 254.029 516.807 253.025 517.898 253.025 519.24 253.025 521.169 255.033 522.008 256.8 522.008 259.45 522.008 260.896 519.072 261.017 518.821 261.499 520.372 262.944 522.008 265.354 522.008 269.491 522.008 271.78 516.598 271.78 515.549 271.78 515.13 271.418 515.13 271.298 515.13 270.936 515.13 270.856 515.297 270.776 515.591 269.451 520.079 266.72 521.086 265.434 521.086 263.868 521.086 263.226 519.743 263.226 518.317 263.226 517.395 263.467 516.472 263.908 514.626L265.274 508.88Z" fill-rule="evenodd"/><path d="M288.025 522.074 287.102 522.074C287.02 522.67 286.749 524.27 286.396 524.541 286.178 524.704 284.088 524.704 283.708 524.704L278.712 524.704C281.563 522.182 282.513 521.423 284.142 520.149 286.151 518.55 288.025 516.869 288.025 514.294 288.025 511.014 285.147 509.008 281.672 509.008 278.305 509.008 276.025 511.366 276.025 513.86 276.025 515.243 277.192 515.378 277.463 515.378 278.115 515.378 278.902 514.917 278.902 513.941 278.902 513.454 278.712 512.505 277.301 512.505 278.142 510.58 279.988 509.984 281.264 509.984 283.979 509.984 285.391 512.098 285.391 514.294 285.391 516.652 283.708 518.523 282.839 519.499L276.296 525.951C276.025 526.195 276.025 526.249 276.025 527.008L287.21 527.008 288.025 522.074Z" fill-rule="evenodd"/><path d="M1032.87 244.459C1033.02 243.897 1033.02 243.816 1033.02 243.535 1033.02 242.812 1032.48 242.45 1031.89 242.45 1031.5 242.45 1030.88 242.691 1030.52 243.294 1030.45 243.495 1030.13 244.741 1029.98 245.464 1029.7 246.509 1029.43 247.594 1029.2 248.679L1027.44 255.912C1027.28 256.515 1025.6 259.328 1023.03 259.328 1021.04 259.328 1020.61 257.56 1020.61 256.073 1020.61 254.224 1021.27 251.733 1022.6 248.197 1023.22 246.549 1023.38 246.107 1023.38 245.303 1023.38 243.495 1022.13 242.008 1020.18 242.008 1016.47 242.008 1015.02 247.835 1015.02 248.197 1015.02 248.598 1015.41 248.598 1015.49 248.598 1015.88 248.598 1015.92 248.518 1016.12 247.875 1017.17 244.098 1018.73 242.892 1020.06 242.892 1020.37 242.892 1021.04 242.892 1021.04 244.178 1021.04 245.183 1020.65 246.227 1020.37 246.991 1018.81 251.251 1018.11 253.541 1018.11 255.43 1018.11 259.006 1020.57 260.212 1022.87 260.212 1024.39 260.212 1025.72 259.529 1026.82 258.404 1026.31 260.493 1025.84 262.462 1024.28 264.592 1023.26 265.958 1021.78 267.124 1019.98 267.124 1019.44 267.124 1017.68 267.003 1017.01 265.436 1017.64 265.436 1018.15 265.436 1018.69 264.954 1019.08 264.592 1019.47 264.07 1019.47 263.306 1019.47 262.06 1018.42 261.9 1018.03 261.9 1017.13 261.9 1015.84 262.543 1015.84 264.512 1015.84 266.521 1017.56 268.008 1019.98 268.008 1024 268.008 1028.03 264.351 1029.12 259.81L1032.87 244.459Z" fill-rule="evenodd"/><path d="M1042.23 247.809C1042.23 247.037 1042.18 247.008 1041.41 247.008 1039.65 248.811 1037.15 248.84 1036.02 248.84L1036.02 249.87C1036.68 249.87 1038.5 249.87 1040.01 249.068L1040.01 263.662C1040.01 264.606 1040.01 264.978 1037.26 264.978L1036.22 264.978 1036.22 266.008C1036.71 265.98 1040.09 265.894 1041.11 265.894 1041.96 265.894 1045.42 265.98 1046.02 266.008L1046.02 264.978 1044.98 264.978C1042.23 264.978 1042.23 264.606 1042.23 263.662L1042.23 247.809Z" fill-rule="evenodd"/><path d="M1033.87 445.459C1034.02 444.897 1034.02 444.816 1034.02 444.535 1034.02 443.812 1033.48 443.45 1032.89 443.45 1032.5 443.45 1031.88 443.691 1031.52 444.294 1031.45 444.495 1031.13 445.741 1030.98 446.464 1030.7 447.509 1030.43 448.594 1030.2 449.679L1028.44 456.912C1028.28 457.515 1026.6 460.328 1024.03 460.328 1022.04 460.328 1021.61 458.56 1021.61 457.073 1021.61 455.224 1022.27 452.733 1023.6 449.197 1024.22 447.549 1024.38 447.107 1024.38 446.303 1024.38 444.495 1023.13 443.008 1021.18 443.008 1017.47 443.008 1016.02 448.835 1016.02 449.197 1016.02 449.598 1016.41 449.598 1016.49 449.598 1016.88 449.598 1016.92 449.518 1017.12 448.875 1018.17 445.098 1019.73 443.892 1021.06 443.892 1021.37 443.892 1022.04 443.892 1022.04 445.178 1022.04 446.183 1021.65 447.227 1021.37 447.991 1019.81 452.251 1019.11 454.541 1019.11 456.43 1019.11 460.006 1021.57 461.212 1023.87 461.212 1025.39 461.212 1026.72 460.529 1027.82 459.404 1027.31 461.493 1026.84 463.462 1025.28 465.592 1024.26 466.958 1022.78 468.124 1020.98 468.124 1020.44 468.124 1018.68 468.003 1018.01 466.436 1018.64 466.436 1019.15 466.436 1019.69 465.954 1020.08 465.592 1020.47 465.07 1020.47 464.306 1020.47 463.06 1019.42 462.9 1019.03 462.9 1018.13 462.9 1016.84 463.543 1016.84 465.512 1016.84 467.521 1018.56 469.008 1020.98 469.008 1025 469.008 1029.03 465.351 1030.12 460.81L1033.87 445.459Z" fill-rule="evenodd"/><path d="M1048.02 461.8 1047.1 461.8C1047.02 462.43 1046.75 464.118 1046.4 464.404 1046.18 464.576 1044.09 464.576 1043.71 464.576L1038.71 464.576C1041.56 461.915 1042.51 461.114 1044.14 459.769 1046.15 458.081 1048.02 456.306 1048.02 453.588 1048.02 450.126 1045.15 448.008 1041.67 448.008 1038.3 448.008 1036.02 450.498 1036.02 453.13 1036.02 454.59 1037.19 454.733 1037.46 454.733 1038.11 454.733 1038.9 454.246 1038.9 453.216 1038.9 452.701 1038.71 451.699 1037.3 451.699 1038.14 449.668 1039.99 449.038 1041.26 449.038 1043.98 449.038 1045.39 451.27 1045.39 453.588 1045.39 456.078 1043.71 458.052 1042.84 459.082L1036.3 465.892C1036.02 466.15 1036.02 466.207 1036.02 467.008L1047.21 467.008 1048.02 461.8Z" fill-rule="evenodd"/><path d="M325.592 110.457 454.472 191.135 451.288 196.221 322.408 115.543ZM452.88 193.678 452.569 182.866 463.051 200.045 443.019 198.123Z"/><path d="M325.803 112.134 459.708 391.034 456.102 392.765 322.197 113.866ZM457.905 391.9 461.583 385.697 461.368 399.111 450.765 390.891Z" fill="#D9D9D9"/><path d="M325.897 112.367 482.947 583.157 479.153 584.423 322.103 113.633ZM481.049 583.789 485.475 578.096 483.581 591.378 474.092 581.893Z" fill="#D9D9D9"/><path d="M1.7615-2.4284 122.12 84.8768 118.597 89.7336-1.7615 2.4284ZM120.359 87.3053 120.787 76.4971 130.073 94.3513 110.218 91.0675Z" transform="matrix(1 0 0 -1 324 312.351)"/><path d="M325.285 311.467 447.666 414.062 445.096 417.128 322.715 314.533ZM446.381 415.595 447.17 408.427 452.512 420.735 439.461 417.623Z" fill="#D9D9D9"/><path d="M325.803 312.133 460.537 592.399 456.932 594.132 322.197 313.867ZM458.735 593.267 462.409 587.062 462.201 600.477 451.594 592.261Z" fill="#D9D9D9"/><path d="M2.66648-1.37473 136.219 257.668 130.886 260.417-2.66648 1.37473ZM133.552 259.042 138.802 249.585 139.051 269.708 122.803 257.834Z" transform="matrix(1 0 0 -1 324 512.708)"/><path d="M0.914653-1.7786 131.168 65.2048 129.338 68.762-0.914653 1.7786ZM130.253 66.9834 129.44 59.8183 137.368 70.642 123.952 70.4899Z" fill="#D9D9D9" transform="matrix(1 0 0 -1 324 512.642)"/><path d="M325.289 510.471 448.519 614.413 445.94 617.471 322.711 513.529ZM447.23 615.942 448.041 608.777 453.345 621.1 440.304 617.949Z" fill="#D9D9D9"/><path d="M475.476 223.703C474.965 222.723 474.142 222.008 472.865 222.008 469.544 222.008 466.024 225.902 466.024 229.77 466.024 232.26 467.585 234.008 469.799 234.008 470.367 234.008 471.786 233.902 473.489 232.021 473.716 233.134 474.71 234.008 476.072 234.008 477.066 234.008 477.719 233.399 478.173 232.551 478.655 231.597 479.024 229.982 479.024 229.929 479.024 229.664 478.769 229.664 478.683 229.664 478.4 229.664 478.371 229.77 478.286 230.14 477.804 231.862 477.293 233.425 476.129 233.425 475.363 233.425 475.277 232.737 475.277 232.207 475.277 231.624 475.334 231.412 475.646 230.246 475.959 229.134 476.015 228.869 476.271 227.862L477.293 224.154C477.491 223.412 477.491 223.359 477.491 223.253 477.491 222.803 477.151 222.538 476.668 222.538 475.987 222.538 475.561 223.121 475.476 223.703ZM473.631 230.564C473.489 231.041 473.489 231.094 473.063 231.544 471.814 233.001 470.651 233.425 469.856 233.425 468.437 233.425 468.039 231.968 468.039 230.935 468.039 229.611 468.948 226.352 469.6 225.134 470.48 223.571 471.758 222.591 472.893 222.591 474.738 222.591 475.135 224.763 475.135 224.922 475.135 225.081 475.079 225.24 475.05 225.372L473.631 230.564Z" fill-rule="evenodd"/><path d="M486.639 206.008C482.985 208.556 482.024 212.588 482.024 215.498 482.024 218.18 482.832 222.345 486.639 225.008 486.793 225.008 487.024 225.008 487.024 224.779 487.024 224.665 486.966 224.627 486.832 224.494 484.274 222.212 483.332 218.979 483.332 215.517 483.332 210.382 485.312 207.871 486.889 206.464 486.966 206.388 487.024 206.331 487.024 206.236 487.024 206.008 486.793 206.008 486.639 206.008Z" fill-rule="evenodd"/><path d="M495.37 208.513C495.37 208.025 495.332 208.007 494.793 208.007 493.563 209.146 491.813 209.164 491.024 209.164L491.024 209.814C491.486 209.814 492.755 209.814 493.813 209.308L493.813 218.525C493.813 219.122 493.813 219.357 491.89 219.357L491.159 219.357 491.159 220.007C491.505 219.989 493.87 219.935 494.582 219.935 495.178 219.935 497.601 219.989 498.024 220.007L498.024 219.357 497.293 219.357C495.37 219.357 495.37 219.122 495.37 218.525L495.37 208.513Z" fill-rule="evenodd"/><path d="M501.392 206.008C501.256 206.008 501.025 206.008 501.025 206.236 501.025 206.331 501.083 206.388 501.198 206.521 502.859 208.024 504.712 210.591 504.712 215.498 504.712 219.473 503.457 222.478 501.372 224.342 501.044 224.665 501.025 224.684 501.025 224.779 501.025 224.875 501.083 225.008 501.276 225.008 501.507 225.008 503.341 223.752 504.615 221.375 505.465 219.796 506.025 217.742 506.025 215.517 506.025 212.835 505.214 208.67 501.392 206.008Z" fill-rule="evenodd"/><path d="M486.37 228.514C486.37 228.026 486.332 228.008 485.793 228.008 484.562 229.147 482.812 229.165 482.024 229.165L482.024 229.815C482.485 229.815 483.755 229.815 484.812 229.309L484.812 238.526C484.812 239.123 484.812 239.357 482.889 239.357L482.159 239.357 482.159 240.008C482.505 239.99 484.87 239.936 485.582 239.936 486.178 239.936 488.601 239.99 489.024 240.008L489.024 239.357 488.293 239.357C486.37 239.357 486.37 239.123 486.37 238.526L486.37 228.514Z" fill-rule="evenodd"/><path d="M383.143 322.508C383.272 321.974 383.528 321.076 383.528 320.93 383.528 320.493 383.169 320.274 382.784 320.274 382.475 320.274 382.013 320.469 381.833 320.954 381.756 321.124 380.549 325.762 380.37 326.394 380.19 327.122 380.139 327.559 380.139 327.996 380.139 328.263 380.139 328.312 380.164 328.433 379.574 329.72 378.803 330.473 377.802 330.473 375.747 330.473 375.747 328.676 375.747 328.263 375.747 327.486 375.876 326.539 377.083 323.553 377.365 322.824 377.519 322.484 377.519 321.999 377.519 320.906 376.672 320.007 375.414 320.007 372.974 320.007 372.024 323.528 372.024 323.747 372.024 323.99 372.281 323.99 372.332 323.99 372.589 323.99 372.614 323.941 372.743 323.553 373.436 321.294 374.438 320.542 375.336 320.542 375.568 320.542 375.979 320.566 375.979 321.343 375.979 321.95 375.696 322.63 375.516 323.043 374.386 325.908 374.078 327.025 374.078 327.948 374.078 330.158 375.799 331.007 377.725 331.007 378.161 331.007 379.368 331.007 380.395 329.308 381.063 330.862 382.835 331.007 383.605 331.007 385.531 331.007 386.661 329.478 387.329 328.021 388.202 326.127 389.024 322.873 389.024 321.707 389.024 320.372 388.331 320.007 387.894 320.007 387.252 320.007 386.61 320.639 386.61 321.173 386.61 321.489 386.764 321.634 386.995 321.829 387.278 322.096 387.92 322.727 387.92 323.893 387.92 324.718 387.175 327.098 386.507 328.336 385.84 329.623 384.941 330.473 383.682 330.473 382.475 330.473 381.782 329.745 381.782 328.361 381.782 327.681 381.962 326.928 382.065 326.588L383.143 322.508Z" fill-rule="evenodd"/><path d="M396.713 304.007C393.79 306.422 393.021 310.241 393.021 312.998 393.021 315.539 393.667 319.485 396.713 322.007 396.836 322.007 397.021 322.007 397.021 321.791 397.021 321.683 396.975 321.647 396.867 321.521 394.821 319.359 394.067 316.296 394.067 313.016 394.067 308.151 395.652 305.773 396.913 304.44 396.975 304.368 397.021 304.314 397.021 304.223 397.021 304.007 396.836 304.007 396.713 304.007Z" fill-rule="evenodd"/><path d="M404.373 305.556C404.373 305.027 404.334 305.008 403.796 305.008 402.565 306.241 400.815 306.261 400.027 306.261L400.027 306.966C400.488 306.966 401.757 306.966 402.815 306.417L402.815 316.402C402.815 317.049 402.815 317.303 400.892 317.303L400.161 317.303 400.161 318.008C400.507 317.988 402.873 317.93 403.584 317.93 404.181 317.93 406.604 317.988 407.027 318.008L407.027 317.303 406.296 317.303C404.373 317.303 404.373 317.049 404.373 316.402L404.373 305.556Z" fill-rule="evenodd"/><path d="M410.394 304.007C410.259 304.007 410.027 304.007 410.027 304.223 410.027 304.314 410.085 304.368 410.201 304.494 411.861 305.917 413.714 308.35 413.714 312.998 413.714 316.764 412.46 319.611 410.375 321.377 410.047 321.683 410.027 321.701 410.027 321.791 410.027 321.881 410.085 322.007 410.278 322.007 410.51 322.007 412.344 320.818 413.618 318.566 414.467 317.07 415.027 315.124 415.027 313.016 415.027 310.476 414.216 306.53 410.394 304.007Z" fill-rule="evenodd"/><path d="M395.748 326.514C395.748 326.026 395.715 326.008 395.253 326.008 394.198 327.147 392.698 327.165 392.023 327.165L392.023 327.815C392.418 327.815 393.506 327.815 394.413 327.309L394.413 336.526C394.413 337.123 394.413 337.357 392.764 337.357L392.138 337.357 392.138 338.008C392.435 337.99 394.462 337.936 395.072 337.936 395.583 337.936 397.66 337.99 398.023 338.008L398.023 337.357 397.396 337.357C395.748 337.357 395.748 337.123 395.748 336.526L395.748 326.514Z" fill-rule="evenodd"/><path d="M409.025 334.719 408.41 334.719C408.356 335.117 408.175 336.183 407.939 336.363 407.794 336.472 406.401 336.472 406.147 336.472L402.817 336.472C404.717 334.791 405.351 334.285 406.437 333.436 407.776 332.37 409.025 331.249 409.025 329.532 409.025 327.345 407.107 326.008 404.79 326.008 402.546 326.008 401.025 327.58 401.025 329.243 401.025 330.165 401.803 330.255 401.984 330.255 402.419 330.255 402.944 329.948 402.944 329.297 402.944 328.972 402.817 328.339 401.876 328.339 402.437 327.056 403.668 326.659 404.518 326.659 406.328 326.659 407.27 328.068 407.27 329.532 407.27 331.104 406.147 332.351 405.568 333.002L401.206 337.303C401.025 337.466 401.025 337.502 401.025 338.008L408.482 338.008 409.025 334.719Z" fill-rule="evenodd"/><path d="M386.143 221.736C386.272 221.154 386.528 220.174 386.528 220.015 386.528 219.538 386.169 219.299 385.784 219.299 385.475 219.299 385.013 219.511 384.833 220.041 384.756 220.227 383.549 225.286 383.37 225.975 383.19 226.77 383.139 227.246 383.139 227.723 383.139 228.015 383.139 228.068 383.164 228.2 382.574 229.604 381.803 230.425 380.802 230.425 378.747 230.425 378.747 228.465 378.747 228.015 378.747 227.167 378.876 226.134 380.083 222.876 380.365 222.081 380.519 221.71 380.519 221.18 380.519 219.988 379.672 219.008 378.414 219.008 375.974 219.008 375.024 222.849 375.024 223.087 375.024 223.352 375.281 223.352 375.332 223.352 375.589 223.352 375.614 223.299 375.743 222.876 376.436 220.412 377.438 219.591 378.336 219.591 378.568 219.591 378.979 219.617 378.979 220.465 378.979 221.127 378.696 221.869 378.516 222.319 377.386 225.445 377.078 226.664 377.078 227.67 377.078 230.081 378.799 231.008 380.725 231.008 381.161 231.008 382.368 231.008 383.395 229.154 384.063 230.849 385.835 231.008 386.605 231.008 388.531 231.008 389.661 229.339 390.329 227.75 391.202 225.683 392.024 222.134 392.024 220.862 392.024 219.405 391.331 219.008 390.894 219.008 390.252 219.008 389.61 219.697 389.61 220.28 389.61 220.624 389.764 220.783 389.995 220.995 390.278 221.286 390.92 221.975 390.92 223.246 390.92 224.147 390.175 226.743 389.507 228.094 388.84 229.498 387.941 230.425 386.682 230.425 385.475 230.425 384.782 229.631 384.782 228.121 384.782 227.379 384.962 226.558 385.065 226.187L386.143 221.736Z" fill-rule="evenodd"/><path d="M399.713 204.007C396.79 206.422 396.021 210.241 396.021 212.998 396.021 215.539 396.667 219.485 399.713 222.007 399.836 222.007 400.021 222.007 400.021 221.791 400.021 221.683 399.975 221.647 399.867 221.521 397.821 219.359 397.067 216.296 397.067 213.016 397.067 208.151 398.652 205.773 399.913 204.44 399.975 204.368 400.021 204.314 400.021 204.223 400.021 204.007 399.836 204.007 399.713 204.007Z" fill-rule="evenodd"/><path d="M407.748 205.513C407.748 205.025 407.715 205.007 407.254 205.007 406.199 206.146 404.699 206.164 404.023 206.164L404.023 206.814C404.418 206.814 405.506 206.814 406.413 206.308L406.413 215.525C406.413 216.122 406.413 216.357 404.765 216.357L404.138 216.357 404.138 217.007C404.435 216.989 406.462 216.935 407.072 216.935 407.583 216.935 409.66 216.989 410.023 217.007L410.023 216.357 409.397 216.357C407.748 216.357 407.748 216.122 407.748 215.525L407.748 205.513Z" fill-rule="evenodd"/><path d="M413.394 204.007C413.259 204.007 413.027 204.007 413.027 204.223 413.027 204.314 413.085 204.368 413.201 204.494 414.861 205.917 416.714 208.35 416.714 212.998 416.714 216.764 415.46 219.611 413.375 221.377 413.047 221.683 413.027 221.701 413.027 221.791 413.027 221.881 413.085 222.007 413.278 222.007 413.51 222.007 415.344 220.818 416.618 218.566 417.467 217.07 418.027 215.124 418.027 213.016 418.027 210.476 417.216 206.53 413.394 204.007Z" fill-rule="evenodd"/><path d="M398.748 226.514C398.748 226.026 398.715 226.008 398.253 226.008 397.198 227.147 395.698 227.165 395.023 227.165L395.023 227.815C395.418 227.815 396.506 227.815 397.413 227.309L397.413 236.526C397.413 237.123 397.413 237.357 395.764 237.357L395.138 237.357 395.138 238.008C395.435 237.99 397.462 237.936 398.072 237.936 398.583 237.936 400.66 237.99 401.023 238.008L401.023 237.357 400.396 237.357C398.748 237.357 398.748 237.123 398.748 236.526L398.748 226.514Z" fill-rule="evenodd"/><path d="M408.748 226.514C408.748 226.026 408.715 226.008 408.254 226.008 407.199 227.147 405.699 227.165 405.023 227.165L405.023 227.815C405.419 227.815 406.506 227.815 407.413 227.309L407.413 236.526C407.413 237.123 407.413 237.357 405.765 237.357L405.138 237.357 405.138 238.008C405.435 237.99 407.462 237.936 408.072 237.936 408.583 237.936 410.66 237.99 411.023 238.008L411.023 237.357 410.397 237.357C408.748 237.357 408.748 237.123 408.748 236.526L408.748 226.514Z" fill-rule="evenodd"/><path d="M390.241 111.305C390.241 111.278 390.241 111.008 389.888 111.008 389.263 111.008 387.279 111.224 386.573 111.278 386.355 111.305 386.056 111.332 386.056 111.817 386.056 112.14 386.301 112.14 386.709 112.14 388.013 112.14 388.067 112.329 388.067 112.598 388.067 112.787 387.823 113.703 387.687 114.269L385.459 123.055C385.133 124.403 385.024 124.834 385.024 125.777 385.024 128.337 386.464 130.008 388.475 130.008 391.682 130.008 395.024 125.992 395.024 122.112 395.024 119.659 393.584 117.8 391.41 117.8 390.16 117.8 389.046 118.581 388.23 119.417L390.241 111.305ZM387.687 121.492C387.85 120.899 387.85 120.845 388.095 120.549 389.426 118.797 390.649 118.392 391.355 118.392 392.334 118.392 393.067 119.201 393.067 120.926 393.067 122.516 392.171 125.615 391.682 126.639 390.785 128.445 389.535 129.415 388.475 129.415 387.551 129.415 386.654 128.688 386.654 126.693 386.654 126.181 386.654 125.669 387.089 123.971L387.687 121.492Z" fill-rule="evenodd"/><path d="M402.64 102.007C398.986 104.422 398.025 108.241 398.025 110.998 398.025 113.539 398.832 117.485 402.64 120.007 402.794 120.007 403.025 120.007 403.025 119.791 403.025 119.683 402.967 119.647 402.832 119.521 400.275 117.359 399.332 114.296 399.332 111.016 399.332 106.151 401.313 103.773 402.89 102.44 402.967 102.368 403.025 102.314 403.025 102.223 403.025 102.007 402.794 102.007 402.64 102.007Z" fill-rule="evenodd"/><path d="M410.371 104.513C410.371 104.025 410.333 104.007 409.794 104.007 408.563 105.146 406.813 105.164 406.025 105.164L406.025 105.814C406.486 105.814 407.756 105.814 408.813 105.308L408.813 114.525C408.813 115.122 408.813 115.357 406.89 115.357L406.16 115.357 406.16 116.007C406.506 115.989 408.871 115.935 409.583 115.935 410.179 115.935 412.602 115.989 413.025 116.007L413.025 115.357 412.294 115.357C410.371 115.357 410.371 115.122 410.371 114.525L410.371 104.513Z" fill-rule="evenodd"/><path d="M416.392 102.007C416.257 102.007 416.025 102.007 416.025 102.223 416.025 102.314 416.083 102.368 416.199 102.494 417.859 103.917 419.713 106.35 419.713 110.998 419.713 114.764 418.458 117.611 416.373 119.377 416.045 119.683 416.025 119.701 416.025 119.791 416.025 119.881 416.083 120.007 416.276 120.007 416.508 120.007 418.342 118.818 419.616 116.566 420.466 115.07 421.025 113.124 421.025 111.016 421.025 108.476 420.215 104.53 416.392 102.007Z" fill-rule="evenodd"/><path d="M401.746 124.514C401.746 124.026 401.713 124.008 401.252 124.008 400.197 125.147 398.697 125.165 398.021 125.165L398.021 125.815C398.417 125.815 399.505 125.815 400.411 125.309L400.411 134.526C400.411 135.123 400.411 135.357 398.763 135.357L398.137 135.357 398.137 136.008C398.433 135.99 400.461 135.936 401.071 135.936 401.582 135.936 403.659 135.99 404.021 136.008L404.021 135.357 403.395 135.357C401.746 135.357 401.746 135.123 401.746 134.526L401.746 124.514Z" fill-rule="evenodd"/><path d="M272.722 100.179C272.722 99.098 272.722 99.0079 271.746 99.0079 269.116 101.891 265.382 101.891 264.025 101.891L264.025 103.287C264.873 103.287 267.376 103.287 269.582 102.116L269.582 125.449C269.582 127.071 269.455 127.612 265.637 127.612L264.279 127.612 264.279 129.008C265.764 128.873 269.455 128.873 271.152 128.873 272.849 128.873 276.54 128.873 278.025 129.008L278.025 127.612 276.667 127.612C272.849 127.612 272.722 127.116 272.722 125.449L272.722 100.179Z" fill-rule="evenodd"/><path d="M605.942 216.236 727.65 281.225 725.766 284.753 604.058 219.764ZM726.707 282.989 726.005 275.812 733.764 286.757 720.353 286.397Z" fill="#D9D9D9"/><path d="M606.81 217.149 733.348 486.349 729.728 488.051 603.19 218.851ZM731.539 487.201 735.267 481.028 734.942 494.441 724.407 486.133Z" fill="#D9D9D9"/><path d="M1.28718-1.53074 121.814 99.8194 119.24 102.881-1.28718 1.53074ZM120.527 101.35 121.327 94.1837 126.65 106.499 113.604 103.368Z" fill="#D9D9D9" transform="matrix(1 0 0 -1 602 419.499)"/><path d="M603.186 417.389 723.394 505.904 721.022 509.125 600.814 420.611ZM722.208 507.514 722.545 500.311 728.65 512.258 715.43 509.974Z" fill="#D9D9D9"/><path d="M1.76806-0.934855 140.176 260.832 136.64 262.702-1.76806 0.934855ZM138.409 261.768 141.843 255.428 142.148 268.841 131.235 261.037Z" fill="#D9D9D9" transform="matrix(1 0 0 -1 602 618.841)"/><path d="M0.874219-1.79882 135.827 63.7878 134.079 67.3854-0.874219 1.79882ZM134.953 65.5867 133.978 58.4418 142.148 69.0836 128.733 69.2347Z" fill="#D9D9D9" transform="matrix(1 0 0 -1 602 619.084)"/><path d="M0.781375-1.84105 134.068 54.7285 132.506 58.4106-0.781375 1.84105ZM133.287 56.5696 131.949 49.4837 140.651 59.6951 127.261 60.53Z" fill="#D9D9D9" transform="matrix(1 0 0 -1 835 312.695)"/><path d="M836.257 311.444 975.465 423.918 972.951 427.03 833.743 314.556ZM974.208 425.474 974.867 418.293 980.43 430.502 967.326 427.627Z" fill="#D9D9D9"/><path d="M1.63596-1.1505 153.183 214.343 149.911 216.644-1.63596 1.1505ZM151.547 215.493 154.154 208.769 156.149 222.037 144.338 215.672Z" fill="#D9D9D9" transform="matrix(1 0 0 -1 835 512.037)"/><path d="M0.781375-1.84105 134.068 54.7285 132.506 58.4106-0.781375 1.84105ZM133.287 56.5696 131.949 49.4837 140.651 59.6951 127.261 60.53Z" fill="#D9D9D9" transform="matrix(1 0 0 -1 835 512.695)"/><path d="M454 221C454 204.431 467.431 191 484 191 500.569 191 514 204.431 514 221 514 237.569 500.569 251 484 251 467.431 251 454 237.569 454 221Z" stroke="#000000" stroke-width="4" stroke-miterlimit="8" fill="none" fill-rule="evenodd"/><path d="M543 220.5C543 203.655 556.655 190 573.5 190 590.345 190 604 203.655 604 220.5 604 237.345 590.345 251 573.5 251 556.655 251 543 237.345 543 220.5Z" stroke="#000000" stroke-width="4" stroke-miterlimit="8" fill="none" fill-rule="evenodd"/><path d="M0.0765153-2.99902 17.0169-2.56682 16.8639 3.43123-0.0765153 2.99902ZM16.9404 0.432207 11.1719-8.7179 28.9365 0.738268 10.7128 9.27625Z" transform="matrix(1 0 0 -1 514 220.738)"/><path d="M557.358 230.518C558.759 228.982 559.511 228.319 560.445 227.498 560.445 227.472 562.054 226.068 562.988 225.114 565.452 222.65 566.023 221.379 566.023 221.273 566.023 221.008 565.79 221.008 565.738 221.008 565.556 221.008 565.478 221.061 565.349 221.299 564.57 222.571 564.026 222.995 563.403 222.995 562.78 222.995 562.469 222.597 562.08 222.147 561.587 221.538 561.146 221.008 560.29 221.008 558.344 221.008 557.151 223.472 557.151 224.028 557.151 224.16 557.228 224.319 557.462 224.319 557.695 224.319 557.747 224.187 557.799 224.028 558.292 222.809 559.797 222.783 560.004 222.783 560.549 222.783 561.042 222.968 561.639 223.18 562.677 223.578 562.962 223.578 563.636 223.578 562.702 224.717 560.523 226.624 560.03 227.048L557.695 229.273C555.931 231.048 555.023 232.558 555.023 232.743 555.023 233.008 555.283 233.008 555.334 233.008 555.542 233.008 555.594 232.955 555.75 232.664 556.346 231.737 557.125 231.021 557.955 231.021 558.552 231.021 558.811 231.26 559.459 232.028 559.901 232.584 560.367 233.008 561.12 233.008 563.688 233.008 565.193 229.644 565.193 228.929 565.193 228.796 565.089 228.664 564.882 228.664 564.648 228.664 564.596 228.823 564.518 229.008 563.922 230.73 562.261 231.233 561.405 231.233 560.886 231.233 560.419 231.074 559.875 230.889 558.993 230.544 558.603 230.438 558.059 230.438 558.007 230.438 557.592 230.438 557.358 230.518Z" fill-rule="evenodd"/><path d="M573.64 205.008C569.987 207.556 569.025 211.588 569.025 214.498 569.025 217.18 569.833 221.345 573.64 224.008 573.794 224.008 574.025 224.008 574.025 223.779 574.025 223.665 573.967 223.627 573.833 223.494 571.275 221.212 570.333 217.979 570.333 214.517 570.333 209.382 572.314 206.871 573.89 205.464 573.967 205.388 574.025 205.331 574.025 205.236 574.025 205.008 573.794 205.008 573.64 205.008Z" fill-rule="evenodd"/><path d="M581.372 207.513C581.372 207.025 581.333 207.007 580.795 207.007 579.564 208.146 577.814 208.164 577.025 208.164L577.025 208.814C577.487 208.814 578.756 208.814 579.814 208.308L579.814 217.525C579.814 218.122 579.814 218.357 577.891 218.357L577.16 218.357 577.16 219.007C577.506 218.989 579.872 218.935 580.583 218.935 581.179 218.935 583.602 218.989 584.025 219.007L584.025 218.357 583.295 218.357C581.372 218.357 581.372 218.122 581.372 217.525L581.372 207.513Z" fill-rule="evenodd"/><path d="M587.393 205.008C587.258 205.008 587.026 205.008 587.026 205.236 587.026 205.331 587.084 205.388 587.2 205.521 588.86 207.024 590.713 209.591 590.713 214.498 590.713 218.473 589.458 221.478 587.373 223.342 587.045 223.665 587.026 223.684 587.026 223.779 587.026 223.875 587.084 224.008 587.277 224.008 587.509 224.008 589.343 222.752 590.617 220.375 591.466 218.796 592.026 216.742 592.026 214.517 592.026 211.835 591.215 207.67 587.393 205.008Z" fill-rule="evenodd"/><path d="M572.371 227.514C572.371 227.026 572.333 227.008 571.794 227.008 570.563 228.147 568.813 228.165 568.025 228.165L568.025 228.815C568.487 228.815 569.756 228.815 570.813 228.309L570.813 237.526C570.813 238.123 570.813 238.357 568.89 238.357L568.16 238.357 568.16 239.008C568.506 238.99 570.871 238.936 571.583 238.936 572.179 238.936 574.602 238.99 575.025 239.008L575.025 238.357 574.294 238.357C572.371 238.357 572.371 238.123 572.371 237.526L572.371 227.514Z" fill-rule="evenodd"/><path d="M473.476 422.703C472.965 421.723 472.142 421.008 470.865 421.008 467.544 421.008 464.024 424.902 464.024 428.77 464.024 431.26 465.585 433.008 467.799 433.008 468.367 433.008 469.786 432.902 471.489 431.021 471.716 432.134 472.71 433.008 474.072 433.008 475.066 433.008 475.719 432.399 476.173 431.551 476.655 430.597 477.024 428.982 477.024 428.929 477.024 428.664 476.769 428.664 476.683 428.664 476.4 428.664 476.371 428.77 476.286 429.14 475.804 430.862 475.293 432.425 474.129 432.425 473.363 432.425 473.277 431.737 473.277 431.207 473.277 430.624 473.334 430.412 473.646 429.246 473.959 428.134 474.015 427.869 474.271 426.862L475.293 423.154C475.491 422.412 475.491 422.359 475.491 422.253 475.491 421.803 475.151 421.538 474.668 421.538 473.987 421.538 473.561 422.121 473.476 422.703ZM471.631 429.564C471.489 430.041 471.489 430.094 471.063 430.544 469.814 432.001 468.651 432.425 467.856 432.425 466.437 432.425 466.039 430.968 466.039 429.935 466.039 428.611 466.948 425.352 467.6 424.134 468.48 422.571 469.758 421.591 470.893 421.591 472.738 421.591 473.135 423.763 473.135 423.922 473.135 424.081 473.079 424.24 473.05 424.372L471.631 429.564Z" fill-rule="evenodd"/><path d="M484.639 405.008C480.985 407.556 480.024 411.588 480.024 414.498 480.024 417.18 480.832 421.345 484.639 424.008 484.793 424.008 485.024 424.008 485.024 423.779 485.024 423.665 484.966 423.627 484.832 423.494 482.274 421.212 481.332 417.979 481.332 414.517 481.332 409.382 483.312 406.871 484.889 405.464 484.966 405.388 485.024 405.331 485.024 405.236 485.024 405.008 484.793 405.008 484.639 405.008Z" fill-rule="evenodd"/><path d="M492.995 407.513C492.995 407.025 492.951 407.007 492.335 407.007 490.929 408.146 488.929 408.164 488.028 408.164L488.028 408.814C488.555 408.814 490.006 408.814 491.214 408.308L491.214 417.525C491.214 418.122 491.214 418.357 489.017 418.357L488.182 418.357 488.182 419.007C488.577 418.989 491.28 418.935 492.094 418.935 492.775 418.935 495.544 418.989 496.028 419.007L496.028 418.357 495.193 418.357C492.995 418.357 492.995 418.122 492.995 417.525L492.995 407.513Z" fill-rule="evenodd"/><path d="M499.392 405.008C499.256 405.008 499.025 405.008 499.025 405.236 499.025 405.331 499.083 405.388 499.198 405.521 500.859 407.024 502.712 409.591 502.712 414.498 502.712 418.473 501.457 421.478 499.372 423.342 499.044 423.665 499.025 423.684 499.025 423.779 499.025 423.875 499.083 424.008 499.276 424.008 499.507 424.008 501.341 422.752 502.615 420.375 503.465 418.796 504.025 416.742 504.025 414.517 504.025 411.835 503.214 407.67 499.392 405.008Z" fill-rule="evenodd"/><path d="M487.023 435.719 486.407 435.719C486.353 436.117 486.172 437.183 485.937 437.363 485.792 437.472 484.398 437.472 484.145 437.472L480.814 437.472C482.715 435.791 483.348 435.285 484.434 434.436 485.774 433.37 487.023 432.249 487.023 430.532 487.023 428.345 485.104 427.008 482.787 427.008 480.543 427.008 479.022 428.58 479.022 430.243 479.022 431.165 479.801 431.255 479.982 431.255 480.416 431.255 480.941 430.948 480.941 430.297 480.941 429.972 480.814 429.339 479.873 429.339 480.434 428.056 481.665 427.659 482.516 427.659 484.326 427.659 485.267 429.068 485.267 430.532 485.267 432.104 484.145 433.351 483.565 434.002L479.203 438.303C479.022 438.466 479.022 438.502 479.022 439.008L486.48 439.008 487.023 435.719Z" fill-rule="evenodd"/><path d="M452.5 420.5C452.5 403.932 466.155 390.5 483 390.5 499.845 390.5 513.5 403.932 513.5 420.5 513.5 437.069 499.845 450.5 483 450.5 466.155 450.5 452.5 437.069 452.5 420.5Z" stroke="#000000" stroke-width="1.33333" stroke-miterlimit="8" fill="none" fill-rule="evenodd"/><path d="M542.5 420C542.5 403.155 555.932 389.5 572.5 389.5 589.069 389.5 602.5 403.155 602.5 420 602.5 436.845 589.069 450.5 572.5 450.5 555.932 450.5 542.5 436.845 542.5 420Z" stroke="#000000" stroke-width="1.33333" stroke-miterlimit="8" fill="none" fill-rule="evenodd"/><path d="M0.0510102-1.99935 20.9901-1.46512 20.8881 2.53358-0.0510102 1.99935ZM20.9391 0.534227 17.0934-5.56584 28.9365 0.738268 16.7874 6.43025Z" fill="#D9D9D9" transform="matrix(1 0 0 -1 513 420.738)"/><path d="M555.572 429.518C557.101 427.982 557.922 427.319 558.94 426.498 558.94 426.472 560.695 425.068 561.714 424.114 564.403 421.65 565.025 420.379 565.025 420.273 565.025 420.008 564.771 420.008 564.714 420.008 564.516 420.008 564.431 420.061 564.289 420.299 563.44 421.571 562.846 421.995 562.167 421.995 561.488 421.995 561.148 421.597 560.723 421.147 560.186 420.538 559.705 420.008 558.771 420.008 556.648 420.008 555.346 422.472 555.346 423.028 555.346 423.16 555.431 423.319 555.686 423.319 555.94 423.319 555.997 423.187 556.054 423.028 556.591 421.809 558.233 421.783 558.459 421.783 559.054 421.783 559.591 421.968 560.242 422.18 561.374 422.578 561.686 422.578 562.422 422.578 561.403 423.717 559.025 425.624 558.488 426.048L555.94 428.273C554.016 430.048 553.025 431.558 553.025 431.743 553.025 432.008 553.308 432.008 553.365 432.008 553.591 432.008 553.648 431.955 553.818 431.664 554.469 430.737 555.318 430.021 556.223 430.021 556.874 430.021 557.157 430.26 557.865 431.028 558.346 431.584 558.855 432.008 559.676 432.008 562.478 432.008 564.12 428.644 564.12 427.929 564.12 427.796 564.006 427.664 563.78 427.664 563.525 427.664 563.469 427.823 563.384 428.008 562.733 429.73 560.922 430.233 559.988 430.233 559.422 430.233 558.912 430.074 558.318 429.889 557.356 429.544 556.931 429.438 556.337 429.438 556.28 429.438 555.827 429.438 555.572 429.518Z" fill-rule="evenodd"/><path d="M572.64 404.007C568.987 406.422 568.025 410.241 568.025 412.998 568.025 415.539 568.833 419.485 572.64 422.007 572.794 422.007 573.025 422.007 573.025 421.791 573.025 421.683 572.967 421.647 572.833 421.521 570.275 419.359 569.333 416.296 569.333 413.016 569.333 408.151 571.314 405.773 572.89 404.44 572.967 404.368 573.025 404.314 573.025 404.223 573.025 404.007 572.794 404.007 572.64 404.007Z" fill-rule="evenodd"/><path d="M580.372 406.513C580.372 406.025 580.333 406.007 579.795 406.007 578.564 407.146 576.814 407.164 576.025 407.164L576.025 407.814C576.487 407.814 577.756 407.814 578.814 407.308L578.814 416.525C578.814 417.122 578.814 417.357 576.891 417.357L576.16 417.357 576.16 418.007C576.506 417.989 578.872 417.935 579.583 417.935 580.179 417.935 582.602 417.989 583.025 418.007L583.025 417.357 582.295 417.357C580.372 417.357 580.372 417.122 580.372 416.525L580.372 406.513Z" fill-rule="evenodd"/><path d="M586.393 404.007C586.258 404.007 586.026 404.007 586.026 404.223 586.026 404.314 586.084 404.368 586.2 404.494 587.86 405.917 589.713 408.35 589.713 412.998 589.713 416.764 588.458 419.611 586.373 421.377 586.045 421.683 586.026 421.701 586.026 421.791 586.026 421.881 586.084 422.007 586.277 422.007 586.509 422.007 588.343 420.818 589.617 418.566 590.466 417.07 591.026 415.124 591.026 413.016 591.026 410.476 590.215 406.53 586.393 404.007Z" fill-rule="evenodd"/><path d="M574.024 434.719 573.408 434.719C573.354 435.117 573.173 436.183 572.938 436.363 572.793 436.472 571.399 436.472 571.146 436.472L567.815 436.472C569.716 434.791 570.349 434.285 571.435 433.436 572.775 432.37 574.024 431.249 574.024 429.532 574.024 427.345 572.105 426.008 569.788 426.008 567.544 426.008 566.023 427.58 566.023 429.243 566.023 430.165 566.802 430.255 566.983 430.255 567.417 430.255 567.942 429.948 567.942 429.297 567.942 428.972 567.815 428.339 566.874 428.339 567.435 427.056 568.666 426.659 569.517 426.659 571.327 426.659 572.268 428.068 572.268 429.532 572.268 431.104 571.146 432.351 570.567 433.002L566.205 437.303C566.023 437.466 566.023 437.502 566.023 438.008L573.481 438.008 574.024 434.719Z" fill-rule="evenodd"/><path d="M474.476 623.703C473.965 622.723 473.142 622.008 471.865 622.008 468.544 622.008 465.024 625.902 465.024 629.77 465.024 632.26 466.585 634.008 468.799 634.008 469.367 634.008 470.786 633.902 472.489 632.021 472.716 633.134 473.71 634.008 475.072 634.008 476.066 634.008 476.719 633.399 477.173 632.551 477.655 631.597 478.024 629.982 478.024 629.929 478.024 629.664 477.769 629.664 477.683 629.664 477.4 629.664 477.371 629.77 477.286 630.14 476.804 631.862 476.293 633.425 475.129 633.425 474.363 633.425 474.277 632.737 474.277 632.207 474.277 631.624 474.334 631.412 474.646 630.246 474.959 629.134 475.015 628.869 475.271 627.862L476.293 624.154C476.491 623.412 476.491 623.359 476.491 623.253 476.491 622.803 476.151 622.538 475.668 622.538 474.987 622.538 474.561 623.12 474.476 623.703ZM472.631 630.564C472.489 631.041 472.489 631.094 472.063 631.544 470.814 633.001 469.651 633.425 468.856 633.425 467.437 633.425 467.039 631.968 467.039 630.935 467.039 629.611 467.948 626.352 468.6 625.134 469.48 623.571 470.758 622.591 471.893 622.591 473.738 622.591 474.135 624.763 474.135 624.922 474.135 625.081 474.079 625.24 474.05 625.372L472.631 630.564Z" fill-rule="evenodd"/><path d="M485.639 607.007C481.985 609.422 481.024 613.241 481.024 615.998 481.024 618.539 481.832 622.485 485.639 625.007 485.793 625.007 486.024 625.007 486.024 624.791 486.024 624.683 485.966 624.647 485.832 624.521 483.274 622.359 482.332 619.296 482.332 616.016 482.332 611.151 484.312 608.773 485.889 607.44 485.966 607.368 486.024 607.314 486.024 607.223 486.024 607.007 485.793 607.007 485.639 607.007Z" fill-rule="evenodd"/><path d="M494.37 608.513C494.37 608.025 494.332 608.007 493.793 608.007 492.563 609.146 490.813 609.164 490.024 609.164L490.024 609.814C490.486 609.814 491.755 609.814 492.813 609.308L492.813 618.525C492.813 619.122 492.813 619.357 490.89 619.357L490.159 619.357 490.159 620.007C490.505 619.989 492.87 619.935 493.582 619.935 494.178 619.935 496.601 619.989 497.024 620.007L497.024 619.357 496.293 619.357C494.37 619.357 494.37 619.122 494.37 618.525L494.37 608.513Z" fill-rule="evenodd"/><path d="M500.392 607.007C500.256 607.007 500.025 607.007 500.025 607.223 500.025 607.314 500.083 607.368 500.198 607.494 501.859 608.917 503.712 611.35 503.712 615.998 503.712 619.764 502.457 622.611 500.372 624.377 500.044 624.683 500.025 624.701 500.025 624.791 500.025 624.881 500.083 625.007 500.276 625.007 500.507 625.007 502.341 623.818 503.615 621.566 504.465 620.07 505.025 618.124 505.025 616.016 505.025 613.476 504.214 609.53 500.392 607.007Z" fill-rule="evenodd"/><path d="M484.309 634.797C485.835 634.797 486.931 635.745 486.931 637.622 486.931 639.797 485.522 640.447 484.387 640.447 483.605 640.447 481.883 640.254 481.061 639.218 481.981 639.183 482.196 638.604 482.196 638.236 482.196 637.675 481.726 637.271 481.12 637.271 480.572 637.271 480.024 637.569 480.024 638.289 480.024 639.938 482.059 641.008 484.426 641.008 487.146 641.008 489.024 639.376 489.024 637.622 489.024 636.254 487.772 634.885 485.62 634.482 487.674 633.815 488.418 632.499 488.418 631.429 488.418 630.043 486.637 629.008 484.466 629.008 482.294 629.008 480.631 629.955 480.631 631.359 480.631 631.955 481.061 632.289 481.648 632.289 482.255 632.289 482.646 631.885 482.646 631.394 482.646 630.885 482.255 630.517 481.648 630.482 482.333 629.71 483.683 629.517 484.407 629.517 485.287 629.517 486.52 629.903 486.52 631.429 486.52 632.166 486.246 632.973 485.737 633.517 485.092 634.183 484.544 634.218 483.566 634.271 483.077 634.306 483.037 634.306 482.94 634.324 482.9 634.324 482.744 634.359 482.744 634.552 482.744 634.797 482.92 634.797 483.253 634.797L484.309 634.797Z" fill-rule="evenodd"/><path d="M453.5 622C453.5 605.155 467.155 591.5 484 591.5 500.845 591.5 514.5 605.155 514.5 622 514.5 638.845 500.845 652.5 484 652.5 467.155 652.5 453.5 638.845 453.5 622Z" stroke="#000000" stroke-width="1.33333" stroke-miterlimit="8" fill="none" fill-rule="evenodd"/><path d="M543.5 621C543.5 604.155 556.932 590.5 573.5 590.5 590.069 590.5 603.5 604.155 603.5 621 603.5 637.845 590.069 651.5 573.5 651.5 556.932 651.5 543.5 637.845 543.5 621Z" stroke="#000000" stroke-width="1.33333" stroke-miterlimit="8" fill="none" fill-rule="evenodd"/><path d="M0.0510102-1.99935 20.9901-1.46512 20.8881 2.53358-0.0510102 1.99935ZM20.9391 0.534227 17.0934-5.56584 28.9365 0.738268 16.7874 6.43025Z" fill="#D9D9D9" transform="matrix(1 0 0 -1 514 621.738)"/><path d="M555.572 630.518C557.101 628.982 557.922 628.319 558.94 627.498 558.94 627.472 560.695 626.068 561.714 625.114 564.403 622.65 565.025 621.379 565.025 621.273 565.025 621.008 564.771 621.008 564.714 621.008 564.516 621.008 564.431 621.061 564.289 621.299 563.44 622.571 562.846 622.995 562.167 622.995 561.488 622.995 561.148 622.597 560.723 622.147 560.186 621.538 559.705 621.008 558.771 621.008 556.648 621.008 555.346 623.472 555.346 624.028 555.346 624.16 555.431 624.319 555.686 624.319 555.94 624.319 555.997 624.187 556.054 624.028 556.591 622.809 558.233 622.783 558.459 622.783 559.054 622.783 559.591 622.968 560.242 623.18 561.374 623.578 561.686 623.578 562.422 623.578 561.403 624.717 559.025 626.624 558.488 627.048L555.94 629.273C554.016 631.048 553.025 632.558 553.025 632.743 553.025 633.008 553.308 633.008 553.365 633.008 553.591 633.008 553.648 632.955 553.818 632.664 554.469 631.737 555.318 631.021 556.223 631.021 556.874 631.021 557.157 631.26 557.865 632.028 558.346 632.584 558.855 633.008 559.676 633.008 562.478 633.008 564.12 629.644 564.12 628.929 564.12 628.796 564.006 628.664 563.78 628.664 563.525 628.664 563.469 628.823 563.384 629.008 562.733 630.73 560.922 631.233 559.988 631.233 559.422 631.233 558.912 631.074 558.318 630.889 557.356 630.544 556.931 630.438 556.337 630.438 556.28 630.438 555.827 630.438 555.572 630.518Z" fill-rule="evenodd"/><path d="M572.64 605.008C568.987 607.556 568.025 611.588 568.025 614.498 568.025 617.18 568.833 621.345 572.64 624.008 572.794 624.008 573.025 624.008 573.025 623.779 573.025 623.665 572.967 623.627 572.833 623.494 570.275 621.212 569.333 617.979 569.333 614.517 569.333 609.382 571.314 606.871 572.89 605.464 572.967 605.388 573.025 605.331 573.025 605.236 573.025 605.008 572.794 605.008 572.64 605.008Z" fill-rule="evenodd"/><path d="M580.372 607.513C580.372 607.025 580.333 607.007 579.795 607.007 578.564 608.146 576.814 608.164 576.025 608.164L576.025 608.814C576.487 608.814 577.756 608.814 578.814 608.308L578.814 617.525C578.814 618.122 578.814 618.357 576.891 618.357L576.16 618.357 576.16 619.007C576.506 618.989 578.872 618.935 579.583 618.935 580.179 618.935 582.602 618.989 583.025 619.007L583.025 618.357 582.295 618.357C580.372 618.357 580.372 618.122 580.372 617.525L580.372 607.513Z" fill-rule="evenodd"/><path d="M586.393 605.008C586.258 605.008 586.026 605.008 586.026 605.236 586.026 605.331 586.084 605.388 586.2 605.521 587.86 607.024 589.713 609.591 589.713 614.498 589.713 618.473 588.458 621.478 586.373 623.342 586.045 623.665 586.026 623.684 586.026 623.779 586.026 623.875 586.084 624.008 586.277 624.008 586.509 624.008 588.343 622.752 589.617 620.375 590.466 618.796 591.026 616.742 591.026 614.517 591.026 611.835 590.215 607.67 586.393 605.008Z" fill-rule="evenodd"/><path d="M569.831 633.28C571.188 633.28 572.162 634.307 572.162 636.34 572.162 638.697 570.91 639.4 569.901 639.4 569.205 639.4 567.675 639.191 566.944 638.07 567.762 638.032 567.953 637.405 567.953 637.006 567.953 636.397 567.536 635.96 566.997 635.96 566.51 635.96 566.023 636.283 566.023 637.063 566.023 638.849 567.831 640.009 569.936 640.009 572.353 640.009 574.023 638.241 574.023 636.34 574.023 634.858 572.91 633.375 570.997 632.938 572.823 632.216 573.484 630.791 573.484 629.631 573.484 628.13 571.901 627.008 569.97 627.008 568.04 627.008 566.562 628.035 566.562 629.555 566.562 630.201 566.944 630.563 567.466 630.563 568.005 630.563 568.353 630.125 568.353 629.593 568.353 629.042 568.005 628.643 567.466 628.605 568.075 627.769 569.275 627.56 569.918 627.56 570.701 627.56 571.797 627.978 571.797 629.631 571.797 630.43 571.553 631.304 571.101 631.893 570.527 632.615 570.04 632.653 569.17 632.71 568.736 632.748 568.701 632.748 568.614 632.767 568.579 632.767 568.44 632.805 568.44 633.014 568.44 633.28 568.596 633.28 568.892 633.28L569.831 633.28Z" fill-rule="evenodd"/><path d="M518.165 178.305C518.165 178.278 518.165 178.008 517.821 178.008 517.212 178.008 515.279 178.224 514.591 178.278 514.379 178.305 514.088 178.332 514.088 178.817 514.088 179.14 514.326 179.14 514.724 179.14 515.994 179.14 516.047 179.329 516.047 179.598L515.968 180.137 512.129 195.661C512.023 196.038 512.023 196.092 512.023 196.254 512.023 196.874 512.552 197.008 512.791 197.008 513.214 197.008 513.638 196.685 513.77 196.308L514.273 194.259 514.856 191.834C515.015 191.241 515.174 190.648 515.306 190.028 515.359 189.866 515.571 188.977 515.597 188.815 515.677 188.573 516.497 187.064 517.398 186.336 517.98 185.905 518.801 185.393 519.939 185.393 521.078 185.393 521.369 186.309 521.369 187.279 521.369 188.734 520.363 191.672 519.728 193.316 519.516 193.936 519.383 194.259 519.383 194.798 519.383 196.065 520.31 197.008 521.555 197.008 524.043 197.008 525.023 193.074 525.023 192.858 525.023 192.588 524.785 192.588 524.705 192.588 524.44 192.588 524.44 192.669 524.308 193.074 523.911 194.502 523.064 196.415 521.607 196.415 521.157 196.415 520.972 196.146 520.972 195.526 520.972 194.852 521.21 194.205 521.449 193.612 521.872 192.454 523.064 189.247 523.064 187.683 523.064 185.932 522.005 184.8 520.019 184.8 518.351 184.8 517.08 185.635 516.1 186.875L518.165 178.305Z" fill-rule="evenodd"/><path d="M535.023 202.748C535.023 202.67 535.023 202.618 534.583 202.176 531.351 198.9 530.523 193.986 530.523 190.008 530.523 185.484 531.506 180.96 534.687 177.71 535.023 177.398 535.023 177.346 535.023 177.268 535.023 177.086 534.919 177.008 534.764 177.008 534.506 177.008 532.178 178.776 530.652 182.078 529.333 184.938 529.023 187.824 529.023 190.008 529.023 192.036 529.307 195.182 530.73 198.12 532.281 201.318 534.506 203.008 534.764 203.008 534.919 203.008 535.023 202.93 535.023 202.748Z" fill-rule="evenodd"/><path d="M545.027 190.008C545.027 187.98 544.695 184.834 543.036 181.896 541.226 178.698 538.631 177.008 538.329 177.008 538.148 177.008 538.027 177.112 538.027 177.268 538.027 177.346 538.027 177.398 538.6 177.866 541.557 180.44 543.277 184.574 543.277 190.008 543.277 194.454 542.161 199.03 538.419 202.306 538.027 202.618 538.027 202.67 538.027 202.748 538.027 202.904 538.148 203.008 538.329 203.008 538.631 203.008 541.346 201.24 543.126 197.938 544.665 195.078 545.027 192.192 545.027 190.008Z" fill-rule="evenodd"/><path d="M517.165 374.305C517.165 374.278 517.165 374.008 516.821 374.008 516.212 374.008 514.279 374.224 513.591 374.278 513.379 374.305 513.088 374.332 513.088 374.817 513.088 375.14 513.326 375.14 513.724 375.14 514.994 375.14 515.047 375.329 515.047 375.598L514.968 376.137 511.129 391.661C511.023 392.038 511.023 392.092 511.023 392.254 511.023 392.874 511.552 393.008 511.791 393.008 512.214 393.008 512.638 392.685 512.77 392.308L513.273 390.259 513.856 387.834C514.015 387.241 514.174 386.648 514.306 386.028 514.359 385.866 514.571 384.977 514.597 384.815 514.677 384.573 515.497 383.064 516.398 382.336 516.98 381.905 517.801 381.393 518.939 381.393 520.078 381.393 520.369 382.309 520.369 383.279 520.369 384.734 519.363 387.672 518.728 389.316 518.516 389.936 518.383 390.259 518.383 390.798 518.383 392.065 519.31 393.008 520.555 393.008 523.043 393.008 524.023 389.074 524.023 388.858 524.023 388.588 523.785 388.588 523.705 388.588 523.44 388.588 523.44 388.669 523.308 389.074 522.911 390.502 522.064 392.415 520.607 392.415 520.157 392.415 519.972 392.146 519.972 391.526 519.972 390.852 520.21 390.205 520.449 389.612 520.872 388.454 522.064 385.247 522.064 383.683 522.064 381.932 521.005 380.8 519.019 380.8 517.351 380.8 516.08 381.635 515.1 382.875L517.165 374.305Z" fill-rule="evenodd"/><path d="M534.023 398.748C534.023 398.67 534.023 398.618 533.583 398.176 530.351 394.9 529.523 389.986 529.523 386.008 529.523 381.484 530.506 376.96 533.687 373.71 534.023 373.398 534.023 373.346 534.023 373.268 534.023 373.086 533.919 373.008 533.764 373.008 533.506 373.008 531.178 374.776 529.652 378.078 528.333 380.938 528.023 383.824 528.023 386.008 528.023 388.036 528.307 391.182 529.73 394.12 531.281 397.318 533.506 399.008 533.764 399.008 533.919 399.008 534.023 398.93 534.023 398.748Z" fill-rule="evenodd"/><path d="M544.023 386.008C544.023 383.98 543.739 380.834 542.316 377.896 540.765 374.698 538.541 373.008 538.282 373.008 538.127 373.008 538.023 373.112 538.023 373.268 538.023 373.346 538.023 373.398 538.515 373.866 541.049 376.44 542.523 380.574 542.523 386.008 542.523 390.454 541.566 395.03 538.359 398.306 538.023 398.618 538.023 398.67 538.023 398.748 538.023 398.904 538.127 399.008 538.282 399.008 538.541 399.008 540.868 397.24 542.394 393.938 543.713 391.078 544.023 388.192 544.023 386.008Z" fill-rule="evenodd"/><path d="M517.165 574.289C517.165 574.263 517.165 574.008 516.821 574.008 516.212 574.008 514.279 574.212 513.591 574.263 513.379 574.289 513.088 574.314 513.088 574.774 513.088 575.08 513.326 575.08 513.724 575.08 514.994 575.08 515.047 575.259 515.047 575.514L514.968 576.025 511.129 590.731C511.023 591.089 511.023 591.14 511.023 591.293 511.023 591.88 511.552 592.008 511.791 592.008 512.214 592.008 512.638 591.701 512.77 591.344L513.273 589.404 513.856 587.106C514.015 586.544 514.174 585.982 514.306 585.395 514.359 585.242 514.571 584.399 514.597 584.246 514.677 584.016 515.497 582.586 516.398 581.897 516.98 581.489 517.801 581.003 518.939 581.003 520.078 581.003 520.369 581.872 520.369 582.791 520.369 584.169 519.363 586.952 518.728 588.51 518.516 589.097 518.383 589.404 518.383 589.914 518.383 591.114 519.31 592.008 520.555 592.008 523.043 592.008 524.023 588.28 524.023 588.076 524.023 587.821 523.785 587.821 523.705 587.821 523.44 587.821 523.44 587.897 523.308 588.28 522.911 589.633 522.064 591.446 520.607 591.446 520.157 591.446 519.972 591.191 519.972 590.604 519.972 589.965 520.21 589.352 520.449 588.791 520.872 587.693 522.064 584.655 522.064 583.174 522.064 581.514 521.005 580.442 519.019 580.442 517.351 580.442 516.08 581.233 515.1 582.408L517.165 574.289Z" fill-rule="evenodd"/><path d="M534.023 597.748C534.023 597.67 534.023 597.618 533.583 597.176 530.351 593.9 529.523 588.986 529.523 585.008 529.523 580.484 530.506 575.96 533.687 572.71 534.023 572.398 534.023 572.346 534.023 572.268 534.023 572.086 533.919 572.008 533.764 572.008 533.506 572.008 531.178 573.776 529.652 577.078 528.333 579.938 528.023 582.824 528.023 585.008 528.023 587.036 528.307 590.182 529.73 593.12 531.281 596.318 533.506 598.008 533.764 598.008 533.919 598.008 534.023 597.93 534.023 597.748Z" fill-rule="evenodd"/><path d="M544.023 585.008C544.023 582.98 543.739 579.834 542.316 576.896 540.765 573.698 538.541 572.008 538.282 572.008 538.127 572.008 538.023 572.112 538.023 572.268 538.023 572.346 538.023 572.398 538.515 572.866 541.049 575.44 542.523 579.574 542.523 585.008 542.523 589.454 541.566 594.03 538.359 597.306 538.023 597.618 538.023 597.67 538.023 597.748 538.023 597.904 538.127 598.008 538.282 598.008 538.541 598.008 540.868 596.24 542.394 592.938 543.713 590.078 544.023 587.192 544.023 585.008Z" fill-rule="evenodd"/><path d="M472.5 60.5C472.5 31.229 496.229 7.50005 525.5 7.50005 554.771 7.50005 578.5 31.229 578.5 60.5 578.5 89.7711 554.771 113.5 525.5 113.5 496.229 113.5 472.5 89.7711 472.5 60.5Z" stroke="#000000" stroke-width="1.33333" stroke-miterlimit="8" fill="#BFBFBF" fill-rule="evenodd"/><path d="M528.722 44.179C528.722 43.098 528.722 43.0079 527.746 43.0079 525.116 45.8907 521.382 45.8907 520.025 45.8907L520.025 47.2872C520.873 47.2872 523.376 47.2872 525.582 46.116L525.582 69.4494C525.582 71.071 525.455 71.6116 521.637 71.6116L520.279 71.6116 520.279 73.0079C521.764 72.8728 525.455 72.8728 527.152 72.8728 528.849 72.8728 532.54 72.8728 534.025 73.0079L534.025 71.6116 532.667 71.6116C528.849 71.6116 528.722 71.116 528.722 69.4494L528.722 44.179Z" fill-rule="evenodd"/><path d="M726.5 116.5C726.5 87.229 750.229 63.5001 779.5 63.5001 808.771 63.5001 832.5 87.229 832.5 116.5 832.5 145.771 808.771 169.5 779.5 169.5 750.229 169.5 726.5 145.771 726.5 116.5Z" stroke="#000000" stroke-width="1.33333" stroke-miterlimit="8" fill="#BFBFBF" fill-rule="evenodd"/><path d="M782.099 100.179C782.099 99.098 782.099 99.0079 781.193 99.0079 778.75 101.891 775.283 101.891 774.023 101.891L774.023 103.287C774.811 103.287 777.135 103.287 779.183 102.116L779.183 125.449C779.183 127.071 779.065 127.612 775.52 127.612L774.259 127.612 774.259 129.008C775.638 128.873 779.065 128.873 780.641 128.873 782.217 128.873 785.644 128.873 787.023 129.008L787.023 127.612 785.762 127.612C782.217 127.612 782.099 127.116 782.099 125.449L782.099 100.179Z" fill-rule="evenodd"/><path d="M579.581 58.7756 741.196 267.523 738.033 269.972 576.419 61.2244ZM739.615 268.748 741.91 261.912 744.512 275.073 732.422 269.258Z" fill="#D9D9D9"/><path d="M579.856 59.255 743.388 466.661 739.676 468.151 576.144 60.745ZM741.532 467.406 745.61 461.459 744.512 474.83 734.474 465.929Z" fill="#D9D9D9"/><path d="M833.059 114.303 985.469 209.446 983.351 212.84 830.941 117.697ZM984.411 211.143 984.195 203.935 991.197 215.38 977.84 214.115Z" fill="#D9D9D9"/><path d="M833.766 115.06 989.204 407.135 985.673 409.014 830.234 116.94ZM987.438 408.074 990.856 401.724 991.197 415.136 980.262 407.362Z" fill="#D9D9D9"/></g></svg>