<svg width="1280" height="720" xmlns="http://www.w3.org/2000/svg" xmlns:xlink="http://www.w3.org/1999/xlink" overflow="hidden"><defs><clipPath id="clip0"><rect x="0" y="0" width="1280" height="720"/></clipPath></defs><g clip-path="url(#clip0)"><rect x="0" y="0" width="1280" height="720" fill="#FFFFFF"/><path d="M473 213C473 183.729 496.729 160 526 160 555.271 160 579 183.729 579 213 579 242.271 555.271 266 526 266 496.729 266 473 242.271 473 213Z" stroke="#000000" stroke-width="6" stroke-miterlimit="8" fill="none" fill-rule="evenodd"/><path d="M473.5 613.5C473.5 584.229 497.229 560.5 526.5 560.5 555.771 560.5 579.5 584.229 579.5 613.5 579.5 642.771 555.771 666.5 526.5 666.5 497.229 666.5 473.5 642.771 473.5 613.5Z" stroke="#000000" stroke-width="1.33333" stroke-miterlimit="8" fill="none" fill-rule="evenodd"/><path d="M473.5 413.5C473.5 384.229 497.229 360.5 526.5 360.5 555.771 360.5 579.5 384.229 579.5 413.5 579.5 442.771 555.771 466.5 526.5 466.5 497.229 466.5 473.5 442.771 473.5 413.5Z" stroke="#000000" stroke-width="1.33333" stroke-miterlimit="8" fill="none" fill-rule="evenodd"/><path d="M218 113C218 83.7289 241.729 60 271 60 300.271 60 324 83.7289 324 113 324 142.271 300.271 166 271 166 241.729 166 218 142.271 218 113Z" stroke="#000000" stroke-width="6" stroke-miterlimit="8" fill="#BFBFBF" fill-rule="evenodd"/><path d="M218 512C218 482.729 241.729 459 271 459 300.271 459 324 482.729 324 512 324 541.271 300.271 565 271 565 241.729 565 218 541.271 218 512Z" stroke="#000000" stroke-width="6" stroke-miterlimit="8" fill="none" fill-rule="evenodd"/><path d="M218 312.5C218 283.505 241.729 260 271 260 300.271 260 324 283.505 324 312.5 324 341.495 300.271 365 271 365 241.729 365 218 341.495 218 312.5Z" stroke="#000000" stroke-width="6" stroke-miterlimit="8" fill="none" fill-rule="evenodd"/><path d="M729.5 512.5C729.5 483.229 753.229 459.5 782.5 459.5 811.771 459.5 835.5 483.229 835.5 512.5 835.5 541.771 811.771 565.5 782.5 565.5 753.229 565.5 729.5 541.771 729.5 512.5Z" stroke="#000000" stroke-width="1.33333" stroke-miterlimit="8" fill="none" fill-rule="evenodd"/><path d="M729.5 313C729.5 284.005 753.229 260.5 782.5 260.5 811.771 260.5 835.5 284.005 835.5 313 835.5 341.995 811.771 365.5 782.5 365.5 753.229 365.5 729.5 341.995 729.5 313Z" stroke="#000000" stroke-width="1.33333" stroke-miterlimit="8" fill="none" fill-rule="evenodd"/><path d="M984.5 513.5C984.5 484.229 1008.23 460.5 1037.5 460.5 1066.77 460.5 1090.5 484.229 1090.5 513.5 1090.5 542.771 1066.77 566.5 1037.5 566.5 1008.23 566.5 984.5 542.771 984.5 513.5Z" stroke="#000000" stroke-width="1.33333" stroke-miterlimit="8" fill="none" fill-rule="evenodd"/><path d="M984.5 313.5C984.5 284.229 1008.23 260.5 1037.5 260.5 1066.77 260.5 1090.5 284.229 1090.5 313.5 1090.5 342.771 1066.77 366.5 1037.5 366.5 1008.23 366.5 984.5 342.771 984.5 313.5Z" stroke="#000000" stroke-width="1.33333" stroke-miterlimit="8" fill="none" fill-rule="evenodd"/><path d="M267.274 310.571C267.515 309.538 268.439 305.882 271.25 305.882 271.451 305.882 272.414 305.882 273.258 306.399 272.133 306.597 271.33 307.591 271.33 308.544 271.33 309.18 271.772 309.935 272.856 309.935 273.74 309.935 275.025 309.22 275.025 307.63 275.025 305.564 272.655 305.008 271.29 305.008 268.961 305.008 267.555 307.114 267.073 308.028 266.069 305.405 263.9 305.008 262.736 305.008 258.559 305.008 256.27 310.134 256.27 311.127 256.27 311.524 256.671 311.524 256.752 311.524 257.073 311.524 257.193 311.445 257.274 311.087 258.639 306.875 261.29 305.882 262.655 305.882 263.418 305.882 264.824 306.24 264.824 308.544 264.824 309.776 264.141 312.438 262.655 318.001 262.013 320.465 260.607 322.134 258.84 322.134 258.599 322.134 257.675 322.134 256.832 321.617 257.836 321.418 258.72 320.584 258.72 319.471 258.72 318.399 257.836 318.081 257.234 318.081 256.029 318.081 255.025 319.114 255.025 320.385 255.025 322.213 257.033 323.008 258.8 323.008 261.45 323.008 262.896 320.226 263.017 319.988 263.499 321.458 264.944 323.008 267.354 323.008 271.491 323.008 273.78 317.882 273.78 316.889 273.78 316.491 273.418 316.491 273.298 316.491 272.936 316.491 272.856 316.65 272.776 316.928 271.451 321.18 268.72 322.134 267.434 322.134 265.868 322.134 265.226 320.862 265.226 319.511 265.226 318.637 265.467 317.763 265.908 316.014L267.274 310.571Z" fill-rule="evenodd"/><path d="M285.234 310.809C285.234 310.037 285.179 310.008 284.409 310.008 282.651 311.811 280.151 311.84 279.025 311.84L279.025 312.87C279.684 312.87 281.497 312.87 283.008 312.068L283.008 326.662C283.008 327.606 283.008 327.978 280.261 327.978L279.217 327.978 279.217 329.008C279.712 328.98 283.091 328.894 284.107 328.894 284.959 328.894 288.42 328.98 289.025 329.008L289.025 327.978 287.981 327.978C285.234 327.978 285.234 327.606 285.234 326.662L285.234 310.809Z" fill-rule="evenodd"/><path d="M265.274 508.88C265.515 507.79 266.439 503.931 269.25 503.931 269.451 503.931 270.414 503.931 271.258 504.476 270.133 504.686 269.33 505.734 269.33 506.741 269.33 507.412 269.772 508.209 270.856 508.209 271.74 508.209 273.025 507.454 273.025 505.776 273.025 503.595 270.655 503.008 269.29 503.008 266.961 503.008 265.555 505.231 265.073 506.196 264.069 503.428 261.9 503.008 260.736 503.008 256.559 503.008 254.27 508.419 254.27 509.467 254.27 509.887 254.671 509.887 254.752 509.887 255.073 509.887 255.193 509.803 255.274 509.425 256.639 504.98 259.29 503.931 260.655 503.931 261.418 503.931 262.824 504.309 262.824 506.741 262.824 508.041 262.141 510.852 260.655 516.723 260.013 519.324 258.607 521.086 256.84 521.086 256.599 521.086 255.675 521.086 254.832 520.54 255.836 520.331 256.72 519.45 256.72 518.275 256.72 517.143 255.836 516.807 255.234 516.807 254.029 516.807 253.025 517.898 253.025 519.24 253.025 521.169 255.033 522.008 256.8 522.008 259.45 522.008 260.896 519.072 261.017 518.821 261.499 520.372 262.944 522.008 265.354 522.008 269.491 522.008 271.78 516.598 271.78 515.549 271.78 515.13 271.418 515.13 271.298 515.13 270.936 515.13 270.856 515.297 270.776 515.591 269.451 520.079 266.72 521.086 265.434 521.086 263.868 521.086 263.226 519.743 263.226 518.317 263.226 517.395 263.467 516.472 263.908 514.626L265.274 508.88Z" fill-rule="evenodd"/><path d="M288.025 522.074 287.102 522.074C287.02 522.67 286.749 524.27 286.396 524.541 286.178 524.704 284.088 524.704 283.708 524.704L278.712 524.704C281.563 522.182 282.513 521.423 284.142 520.149 286.151 518.55 288.025 516.869 288.025 514.294 288.025 511.014 285.147 509.008 281.672 509.008 278.305 509.008 276.025 511.366 276.025 513.86 276.025 515.243 277.192 515.378 277.463 515.378 278.115 515.378 278.902 514.917 278.902 513.941 278.902 513.454 278.712 512.505 277.301 512.505 278.142 510.58 279.988 509.984 281.264 509.984 283.979 509.984 285.391 512.098 285.391 514.294 285.391 516.652 283.708 518.523 282.839 519.499L276.296 525.951C276.025 526.195 276.025 526.249 276.025 527.008L287.21 527.008 288.025 522.074Z" fill-rule="evenodd"/><path d="M1041.87 304.459C1042.02 303.897 1042.02 303.816 1042.02 303.535 1042.02 302.812 1041.48 302.45 1040.89 302.45 1040.5 302.45 1039.88 302.691 1039.52 303.294 1039.45 303.495 1039.13 304.741 1038.98 305.464 1038.7 306.509 1038.43 307.594 1038.2 308.679L1036.44 315.912C1036.28 316.515 1034.6 319.328 1032.03 319.328 1030.04 319.328 1029.61 317.56 1029.61 316.073 1029.61 314.224 1030.27 311.733 1031.6 308.197 1032.22 306.549 1032.38 306.107 1032.38 305.303 1032.38 303.495 1031.13 302.008 1029.18 302.008 1025.47 302.008 1024.02 307.835 1024.02 308.197 1024.02 308.598 1024.41 308.598 1024.49 308.598 1024.88 308.598 1024.92 308.518 1025.12 307.875 1026.17 304.098 1027.73 302.892 1029.06 302.892 1029.37 302.892 1030.04 302.892 1030.04 304.178 1030.04 305.183 1029.65 306.227 1029.37 306.991 1027.81 311.251 1027.11 313.541 1027.11 315.43 1027.11 319.006 1029.57 320.212 1031.87 320.212 1033.39 320.212 1034.72 319.529 1035.82 318.404 1035.31 320.493 1034.84 322.462 1033.28 324.592 1032.26 325.958 1030.78 327.124 1028.98 327.124 1028.44 327.124 1026.68 327.003 1026.01 325.436 1026.64 325.436 1027.15 325.436 1027.69 324.954 1028.08 324.592 1028.47 324.07 1028.47 323.306 1028.47 322.06 1027.42 321.9 1027.03 321.9 1026.13 321.9 1024.84 322.543 1024.84 324.512 1024.84 326.521 1026.56 328.008 1028.98 328.008 1033 328.008 1037.03 324.351 1038.12 319.81L1041.87 304.459Z" fill-rule="evenodd"/><path d="M1051.23 307.809C1051.23 307.037 1051.18 307.008 1050.41 307.008 1048.65 308.811 1046.15 308.84 1045.02 308.84L1045.02 309.87C1045.68 309.87 1047.5 309.87 1049.01 309.068L1049.01 323.662C1049.01 324.606 1049.01 324.978 1046.26 324.978L1045.22 324.978 1045.22 326.008C1045.71 325.98 1049.09 325.894 1050.11 325.894 1050.96 325.894 1054.42 325.98 1055.02 326.008L1055.02 324.978 1053.98 324.978C1051.23 324.978 1051.23 324.606 1051.23 323.662L1051.23 307.809Z" fill-rule="evenodd"/><path d="M1042.87 505.459C1043.02 504.897 1043.02 504.816 1043.02 504.535 1043.02 503.812 1042.48 503.45 1041.89 503.45 1041.5 503.45 1040.88 503.691 1040.52 504.294 1040.45 504.495 1040.13 505.741 1039.98 506.464 1039.7 507.509 1039.43 508.594 1039.2 509.679L1037.44 516.912C1037.28 517.515 1035.6 520.328 1033.03 520.328 1031.04 520.328 1030.61 518.56 1030.61 517.073 1030.61 515.224 1031.27 512.733 1032.6 509.197 1033.22 507.549 1033.38 507.107 1033.38 506.303 1033.38 504.495 1032.13 503.008 1030.18 503.008 1026.47 503.008 1025.02 508.835 1025.02 509.197 1025.02 509.598 1025.41 509.598 1025.49 509.598 1025.88 509.598 1025.92 509.518 1026.12 508.875 1027.17 505.098 1028.73 503.892 1030.06 503.892 1030.37 503.892 1031.04 503.892 1031.04 505.178 1031.04 506.183 1030.65 507.227 1030.37 507.991 1028.81 512.251 1028.11 514.541 1028.11 516.43 1028.11 520.006 1030.57 521.212 1032.87 521.212 1034.39 521.212 1035.72 520.529 1036.82 519.404 1036.31 521.493 1035.84 523.462 1034.28 525.592 1033.26 526.958 1031.78 528.124 1029.98 528.124 1029.44 528.124 1027.68 528.003 1027.01 526.436 1027.64 526.436 1028.15 526.436 1028.69 525.954 1029.08 525.592 1029.47 525.07 1029.47 524.306 1029.47 523.06 1028.42 522.9 1028.03 522.9 1027.13 522.9 1025.84 523.543 1025.84 525.512 1025.84 527.521 1027.56 529.008 1029.98 529.008 1034 529.008 1038.03 525.351 1039.12 520.81L1042.87 505.459Z" fill-rule="evenodd"/><path d="M1057.02 522.074 1056.1 522.074C1056.02 522.67 1055.75 524.27 1055.4 524.541 1055.18 524.704 1053.09 524.704 1052.71 524.704L1047.71 524.704C1050.56 522.182 1051.51 521.423 1053.14 520.149 1055.15 518.55 1057.02 516.869 1057.02 514.294 1057.02 511.014 1054.15 509.008 1050.67 509.008 1047.3 509.008 1045.02 511.366 1045.02 513.86 1045.02 515.243 1046.19 515.378 1046.46 515.378 1047.11 515.378 1047.9 514.917 1047.9 513.941 1047.9 513.454 1047.71 512.505 1046.3 512.505 1047.14 510.58 1048.99 509.984 1050.26 509.984 1052.98 509.984 1054.39 512.098 1054.39 514.294 1054.39 516.652 1052.71 518.523 1051.84 519.499L1045.3 525.951C1045.02 526.195 1045.02 526.249 1045.02 527.008L1056.21 527.008 1057.02 522.074Z" fill-rule="evenodd"/><path d="M325.069 110.197 479.027 168.903 476.89 174.509 322.931 115.803ZM477.959 171.706 475.559 161.159 489.171 175.981 469.146 177.977Z"/><path d="M325.693 111.936 486.607 367.901 483.22 370.03 322.307 114.064ZM484.913 368.965 487.864 362.385 489.171 375.738 477.705 368.772Z" fill="#D9D9D9"/><path d="M325.883 112.327 488.364 567.288 484.597 568.633 322.117 113.673ZM486.481 567.961 490.786 562.176 489.171 575.495 479.485 566.212Z" fill="#D9D9D9"/><path d="M1.65922-2.4994 141.335 90.2243 138.017 95.223-1.65922 2.4994ZM139.676 92.7235 139.654 81.9069 149.673 99.3604 129.699 96.9033Z" transform="matrix(1 0 0 -1 324 312.36)"/><path d="M325.114 311.339 468.143 407.279 465.915 410.601 322.886 314.661ZM467.029 408.94 467.05 401.729 473.673 413.397 460.365 411.695Z" fill="#D9D9D9"/><path d="M325.79 312.108 471.893 605.103 468.314 606.888 322.21 313.892ZM470.103 605.994 473.688 599.737 473.673 613.153 462.949 605.092Z" fill="#D9D9D9"/><path d="M2.53697-1.60119 161.303 249.952 156.229 253.155-2.53697 1.60119ZM158.766 251.554 163.175 241.677 165.171 261.702 147.953 251.284Z" transform="matrix(1 0 0 -1 324 512.702)"/><path d="M0.702305-1.87264 158.383 57.2631 156.978 61.0083-0.702305 1.87264ZM157.681 59.1358 156.042 52.1132 165.171 61.945 151.828 63.3491Z" fill="#D9D9D9" transform="matrix(1 0 0 -1 324 511.945)"/><path d="M325.281 510.464 484.31 643.151 481.748 646.223 322.719 513.536ZM483.028 644.687 483.801 637.517 489.171 649.812 476.113 646.731Z" fill="#D9D9D9"/><path d="M511.838 218.551C511.091 217.081 509.888 216.008 508.021 216.008 503.168 216.008 498.024 221.849 498.024 227.65 498.024 231.386 500.305 234.008 503.541 234.008 504.371 234.008 506.445 233.849 508.934 231.028 509.266 232.697 510.718 234.008 512.709 234.008 514.161 234.008 515.115 233.094 515.779 231.823 516.484 230.392 517.023 227.968 517.023 227.889 517.023 227.491 516.65 227.491 516.526 227.491 516.111 227.491 516.069 227.65 515.945 228.207 515.24 230.79 514.493 233.134 512.792 233.134 511.672 233.134 511.548 232.101 511.548 231.306 511.548 230.432 511.631 230.114 512.087 228.366 512.543 226.697 512.626 226.299 513 224.789L514.493 219.227C514.783 218.114 514.783 218.034 514.783 217.876 514.783 217.2 514.285 216.803 513.58 216.803 512.585 216.803 511.962 217.677 511.838 218.551ZM509.141 228.842C508.934 229.558 508.934 229.637 508.312 230.313 506.486 232.498 504.785 233.134 503.624 233.134 501.55 233.134 500.969 230.948 500.969 229.399 500.969 227.412 502.296 222.525 503.251 220.697 504.537 218.352 506.403 216.882 508.063 216.882 510.759 216.882 511.34 220.14 511.34 220.379 511.34 220.617 511.257 220.856 511.216 221.054L509.141 228.842Z" fill-rule="evenodd"/><path d="M528.484 192.008C523.368 195.763 522.022 201.705 522.022 205.993 522.022 209.945 523.153 216.084 528.484 220.008 528.699 220.008 529.022 220.008 529.022 219.671 529.022 219.503 528.942 219.447 528.753 219.251 525.172 215.887 523.853 211.123 523.853 206.022 523.853 198.454 526.626 194.754 528.834 192.68 528.942 192.568 529.022 192.484 529.022 192.344 529.022 192.008 528.699 192.008 528.484 192.008Z" fill-rule="evenodd"/><path d="M541.232 195.766C541.232 195.034 541.177 195.007 540.408 195.007 538.649 196.715 536.149 196.742 535.023 196.742L535.023 197.718C535.682 197.718 537.496 197.718 539.007 196.959L539.007 210.784C539.007 211.679 539.007 212.031 536.259 212.031L535.215 212.031 535.215 213.007C535.71 212.98 539.089 212.899 540.106 212.899 540.957 212.899 544.419 212.98 545.023 213.007L545.023 212.031 543.979 212.031C541.232 212.031 541.232 211.679 541.232 210.784L541.232 195.766Z" fill-rule="evenodd"/><path d="M550.613 192.008C550.397 192.008 550.026 192.008 550.026 192.344 550.026 192.484 550.119 192.568 550.304 192.764 552.961 194.978 555.926 198.762 555.926 205.993 555.926 211.851 553.918 216.28 550.582 219.027 550.057 219.503 550.026 219.531 550.026 219.671 550.026 219.811 550.119 220.008 550.428 220.008 550.799 220.008 553.733 218.158 555.772 214.654 557.131 212.328 558.026 209.301 558.026 206.022 558.026 202.07 556.729 195.931 550.613 192.008Z" fill-rule="evenodd"/><path d="M527.855 225.81C527.855 225.037 527.794 225.008 526.948 225.008 525.014 226.811 522.264 226.84 521.025 226.84L521.025 227.87C521.75 227.87 523.745 227.87 525.407 227.069L525.407 241.662C525.407 242.606 525.407 242.978 522.385 242.978L521.237 242.978 521.237 244.009C521.781 243.98 525.498 243.894 526.616 243.894 527.553 243.894 531.36 243.98 532.025 244.009L532.025 242.978 530.877 242.978C527.855 242.978 527.855 242.606 527.855 241.662L527.855 225.81Z" fill-rule="evenodd"/><path d="M511.838 416.551C511.091 415.081 509.888 414.008 508.021 414.008 503.168 414.008 498.024 419.849 498.024 425.65 498.024 429.385 500.305 432.008 503.541 432.008 504.371 432.008 506.445 431.849 508.934 429.028 509.266 430.697 510.718 432.008 512.709 432.008 514.161 432.008 515.115 431.094 515.779 429.823 516.484 428.392 517.023 425.968 517.023 425.889 517.023 425.491 516.65 425.491 516.526 425.491 516.111 425.491 516.069 425.65 515.945 426.207 515.24 428.789 514.493 431.134 512.792 431.134 511.672 431.134 511.548 430.101 511.548 429.306 511.548 428.432 511.631 428.114 512.087 426.366 512.543 424.697 512.626 424.299 513 422.789L514.493 417.227C514.783 416.114 514.783 416.034 514.783 415.876 514.783 415.2 514.285 414.803 513.58 414.803 512.585 414.803 511.962 415.677 511.838 416.551ZM509.141 426.842C508.934 427.558 508.934 427.637 508.312 428.313 506.486 430.498 504.785 431.134 503.624 431.134 501.55 431.134 500.969 428.948 500.969 427.399 500.969 425.412 502.296 420.525 503.251 418.697 504.537 416.352 506.403 414.882 508.063 414.882 510.759 414.882 511.34 418.141 511.34 418.379 511.34 418.617 511.257 418.856 511.216 419.054L509.141 426.842Z" fill-rule="evenodd"/><path d="M528.484 390.008C523.368 393.763 522.022 399.705 522.022 403.993 522.022 407.945 523.153 414.084 528.484 418.008 528.699 418.008 529.022 418.008 529.022 417.671 529.022 417.503 528.942 417.447 528.753 417.251 525.172 413.887 523.853 409.123 523.853 404.022 523.853 396.454 526.626 392.754 528.834 390.68 528.942 390.568 529.022 390.484 529.022 390.344 529.022 390.008 528.699 390.008 528.484 390.008Z" fill-rule="evenodd"/><path d="M541.232 393.766C541.232 393.034 541.177 393.007 540.408 393.007 538.649 394.715 536.149 394.742 535.023 394.742L535.023 395.718C535.682 395.718 537.496 395.718 539.007 394.959L539.007 408.784C539.007 409.679 539.007 410.031 536.259 410.031L535.215 410.031 535.215 411.007C535.71 410.98 539.089 410.899 540.106 410.899 540.957 410.899 544.419 410.98 545.023 411.007L545.023 410.031 543.979 410.031C541.232 410.031 541.232 409.679 541.232 408.784L541.232 393.766Z" fill-rule="evenodd"/><path d="M550.613 390.008C550.397 390.008 550.026 390.008 550.026 390.344 550.026 390.484 550.119 390.568 550.304 390.764 552.961 392.978 555.926 396.762 555.926 403.993 555.926 409.851 553.918 414.28 550.582 417.027 550.057 417.503 550.026 417.531 550.026 417.671 550.026 417.811 550.119 418.008 550.428 418.008 550.799 418.008 553.733 416.158 555.772 412.654 557.131 410.328 558.026 407.301 558.026 404.022 558.026 400.07 556.729 393.931 550.613 390.008Z" fill-rule="evenodd"/><path d="M533.024 436.801 532.024 436.801C531.936 437.43 531.642 439.118 531.26 439.405 531.024 439.576 528.76 439.576 528.348 439.576L522.936 439.576C526.024 436.915 527.054 436.114 528.818 434.769 530.995 433.081 533.024 431.307 533.024 428.588 533.024 425.126 529.907 423.008 526.142 423.008 522.495 423.008 520.024 425.498 520.024 428.131 520.024 429.59 521.289 429.733 521.583 429.733 522.289 429.733 523.142 429.246 523.142 428.216 523.142 427.701 522.936 426.7 521.407 426.7 522.318 424.668 524.318 424.039 525.701 424.039 528.642 424.039 530.171 426.271 530.171 428.588 530.171 431.078 528.348 433.052 527.407 434.082L520.318 440.893C520.024 441.15 520.024 441.207 520.024 442.009L532.142 442.009 533.024 436.801Z" fill-rule="evenodd"/><path d="M512.838 612.551C512.091 611.081 510.888 610.008 509.021 610.008 504.168 610.008 499.024 615.849 499.024 621.65 499.024 625.385 501.305 628.008 504.541 628.008 505.371 628.008 507.445 627.849 509.934 625.028 510.266 626.697 511.718 628.008 513.709 628.008 515.161 628.008 516.115 627.094 516.779 625.823 517.484 624.392 518.023 621.968 518.023 621.889 518.023 621.491 517.65 621.491 517.526 621.491 517.111 621.491 517.069 621.65 516.945 622.207 516.24 624.789 515.493 627.134 513.792 627.134 512.672 627.134 512.548 626.101 512.548 625.306 512.548 624.432 512.63 624.114 513.087 622.366 513.543 620.697 513.626 620.299 514 618.789L515.493 613.227C515.783 612.114 515.783 612.034 515.783 611.876 515.783 611.2 515.285 610.803 514.58 610.803 513.585 610.803 512.962 611.677 512.838 612.551ZM510.141 622.842C509.934 623.558 509.934 623.637 509.312 624.313 507.486 626.498 505.785 627.134 504.624 627.134 502.55 627.134 501.969 624.948 501.969 623.399 501.969 621.412 503.296 616.525 504.251 614.697 505.537 612.352 507.403 610.882 509.063 610.882 511.759 610.882 512.34 614.141 512.34 614.379 512.34 614.617 512.257 614.856 512.216 615.054L510.141 622.842Z" fill-rule="evenodd"/><path d="M530.41 587.007C524.564 590.629 523.025 596.359 523.025 600.494 523.025 604.305 524.318 610.224 530.41 614.007 530.656 614.007 531.025 614.007 531.025 613.683 531.025 613.521 530.933 613.467 530.718 613.278 526.625 610.034 525.118 605.44 525.118 600.521 525.118 593.223 528.287 589.656 530.81 587.656 530.933 587.548 531.025 587.467 531.025 587.332 531.025 587.007 530.656 587.007 530.41 587.007Z" fill-rule="evenodd"/><path d="M542.855 589.766C542.855 589.034 542.795 589.007 541.948 589.007 540.014 590.715 537.264 590.742 536.025 590.742L536.025 591.718C536.751 591.718 538.745 591.718 540.407 590.959L540.407 604.784C540.407 605.679 540.407 606.031 537.385 606.031L536.237 606.031 536.237 607.007C536.781 606.98 540.498 606.899 541.616 606.899 542.553 606.899 546.361 606.98 547.025 607.007L547.025 606.031 545.877 606.031C542.855 606.031 542.855 605.679 542.855 604.784L542.855 589.766Z" fill-rule="evenodd"/><path d="M552.537 587.007C552.347 587.007 552.023 587.007 552.023 587.332 552.023 587.467 552.104 587.548 552.266 587.737 554.591 589.872 557.185 593.521 557.185 600.494 557.185 606.142 555.429 610.413 552.51 613.061 552.05 613.521 552.023 613.548 552.023 613.683 552.023 613.818 552.104 614.007 552.374 614.007 552.699 614.007 555.266 612.224 557.05 608.845 558.239 606.602 559.023 603.683 559.023 600.521 559.023 596.71 557.888 590.791 552.537 587.007Z" fill-rule="evenodd"/><path d="M527.69 629.175C530.064 629.175 531.769 630.675 531.769 633.647 531.769 637.092 529.577 638.119 527.812 638.119 526.595 638.119 523.917 637.814 522.638 636.175 524.069 636.119 524.404 635.203 524.404 634.619 524.404 633.731 523.673 633.092 522.729 633.092 521.877 633.092 521.025 633.564 521.025 634.703 521.025 637.314 524.19 639.008 527.873 639.008 532.104 639.008 535.025 636.425 535.025 633.647 535.025 631.481 533.077 629.314 529.73 628.675 532.925 627.619 534.082 625.536 534.082 623.842 534.082 621.647 531.312 620.008 527.934 620.008 524.556 620.008 521.969 621.508 521.969 623.73 521.969 624.675 522.638 625.203 523.551 625.203 524.495 625.203 525.103 624.564 525.103 623.786 525.103 622.98 524.495 622.397 523.551 622.342 524.617 621.119 526.717 620.814 527.843 620.814 529.212 620.814 531.13 621.425 531.13 623.842 531.13 625.008 530.703 626.286 529.912 627.147 528.908 628.203 528.056 628.258 526.534 628.342 525.773 628.397 525.712 628.397 525.56 628.425 525.499 628.425 525.256 628.481 525.256 628.786 525.256 629.175 525.53 629.175 526.047 629.175L527.69 629.175Z" fill-rule="evenodd"/><path d="M388.143 328.508C388.272 327.974 388.528 327.076 388.528 326.93 388.528 326.493 388.169 326.274 387.784 326.274 387.475 326.274 387.013 326.469 386.833 326.954 386.756 327.124 385.549 331.762 385.37 332.394 385.19 333.122 385.139 333.559 385.139 333.996 385.139 334.263 385.139 334.312 385.164 334.433 384.574 335.72 383.803 336.473 382.802 336.473 380.747 336.473 380.747 334.676 380.747 334.263 380.747 333.486 380.876 332.539 382.083 329.553 382.365 328.824 382.519 328.484 382.519 327.999 382.519 326.906 381.672 326.007 380.414 326.007 377.974 326.007 377.024 329.528 377.024 329.747 377.024 329.99 377.281 329.99 377.332 329.99 377.589 329.99 377.614 329.941 377.743 329.553 378.436 327.294 379.438 326.542 380.336 326.542 380.568 326.542 380.979 326.566 380.979 327.343 380.979 327.95 380.696 328.63 380.516 329.043 379.386 331.908 379.078 333.025 379.078 333.948 379.078 336.158 380.799 337.007 382.725 337.007 383.161 337.007 384.368 337.007 385.395 335.308 386.063 336.862 387.835 337.007 388.605 337.007 390.531 337.007 391.661 335.478 392.329 334.021 393.202 332.127 394.024 328.873 394.024 327.707 394.024 326.372 393.331 326.007 392.894 326.007 392.252 326.007 391.61 326.639 391.61 327.173 391.61 327.489 391.764 327.634 391.995 327.829 392.278 328.096 392.92 328.727 392.92 329.893 392.92 330.718 392.175 333.098 391.507 334.336 390.84 335.623 389.941 336.473 388.682 336.473 387.475 336.473 386.782 335.745 386.782 334.361 386.782 333.681 386.962 332.928 387.065 332.588L388.143 328.508Z" fill-rule="evenodd"/><path d="M401.642 310.007C397.988 312.422 397.026 316.241 397.026 318.998 397.026 321.539 397.834 325.485 401.642 328.007 401.796 328.007 402.026 328.007 402.026 327.791 402.026 327.683 401.969 327.647 401.834 327.521 399.276 325.359 398.334 322.296 398.334 319.016 398.334 314.151 400.315 311.773 401.892 310.44 401.969 310.368 402.026 310.314 402.026 310.223 402.026 310.007 401.796 310.007 401.642 310.007Z" fill-rule="evenodd"/><path d="M408.748 311.556C408.748 311.027 408.715 311.008 408.254 311.008 407.199 312.241 405.699 312.261 405.023 312.261L405.023 312.966C405.418 312.966 406.506 312.966 407.413 312.417L407.413 322.402C407.413 323.049 407.413 323.303 405.765 323.303L405.138 323.303 405.138 324.008C405.435 323.988 407.462 323.93 408.072 323.93 408.583 323.93 410.66 323.988 411.023 324.008L411.023 323.303 410.397 323.303C408.748 323.303 408.748 323.049 408.748 322.402L408.748 311.556Z" fill-rule="evenodd"/><path d="M414.394 310.007C414.259 310.007 414.027 310.007 414.027 310.223 414.027 310.314 414.085 310.368 414.201 310.494 415.861 311.917 417.714 314.35 417.714 318.998 417.714 322.764 416.46 325.611 414.375 327.377 414.047 327.683 414.027 327.701 414.027 327.791 414.027 327.881 414.085 328.007 414.278 328.007 414.51 328.007 416.344 326.818 417.618 324.566 418.467 323.07 419.027 321.124 419.027 319.016 419.027 316.476 418.216 312.53 414.394 310.007Z" fill-rule="evenodd"/><path d="M400.372 332.514C400.372 332.026 400.334 332.008 399.796 332.008 398.565 333.147 396.815 333.165 396.026 333.165L396.026 333.815C396.488 333.815 397.757 333.815 398.815 333.309L398.815 342.526C398.815 343.123 398.815 343.357 396.892 343.357L396.161 343.357 396.161 344.008C396.507 343.99 398.872 343.936 399.584 343.936 400.18 343.936 402.603 343.99 403.026 344.008L403.026 343.357 402.296 343.357C400.372 343.357 400.372 343.123 400.372 342.526L400.372 332.514Z" fill-rule="evenodd"/><path d="M414.025 340.719 413.41 340.719C413.356 341.117 413.175 342.183 412.939 342.363 412.794 342.472 411.401 342.472 411.147 342.472L407.817 342.472C409.717 340.791 410.351 340.285 411.437 339.436 412.776 338.37 414.025 337.249 414.025 335.532 414.025 333.345 412.107 332.008 409.79 332.008 407.546 332.008 406.025 333.58 406.025 335.243 406.025 336.165 406.803 336.255 406.984 336.255 407.419 336.255 407.944 335.948 407.944 335.297 407.944 334.972 407.817 334.339 406.876 334.339 407.437 333.056 408.668 332.659 409.518 332.659 411.328 332.659 412.27 334.068 412.27 335.532 412.27 337.104 411.147 338.351 410.568 339.002L406.206 343.303C406.025 343.466 406.025 343.502 406.025 344.008L413.482 344.008 414.025 340.719Z" fill-rule="evenodd"/><path d="M386.143 221.736C386.272 221.154 386.528 220.174 386.528 220.015 386.528 219.538 386.169 219.299 385.784 219.299 385.475 219.299 385.013 219.511 384.833 220.041 384.756 220.227 383.549 225.286 383.37 225.975 383.19 226.77 383.139 227.246 383.139 227.723 383.139 228.015 383.139 228.068 383.164 228.2 382.574 229.604 381.803 230.425 380.802 230.425 378.747 230.425 378.747 228.465 378.747 228.015 378.747 227.167 378.876 226.134 380.083 222.876 380.365 222.081 380.519 221.71 380.519 221.18 380.519 219.988 379.672 219.008 378.414 219.008 375.974 219.008 375.024 222.849 375.024 223.087 375.024 223.352 375.281 223.352 375.332 223.352 375.589 223.352 375.614 223.299 375.743 222.876 376.436 220.412 377.438 219.591 378.336 219.591 378.568 219.591 378.979 219.617 378.979 220.465 378.979 221.127 378.696 221.869 378.516 222.319 377.386 225.445 377.078 226.664 377.078 227.67 377.078 230.081 378.799 231.008 380.725 231.008 381.161 231.008 382.368 231.008 383.395 229.154 384.063 230.849 385.835 231.008 386.605 231.008 388.531 231.008 389.661 229.339 390.329 227.75 391.202 225.683 392.024 222.134 392.024 220.862 392.024 219.405 391.331 219.008 390.894 219.008 390.252 219.008 389.61 219.697 389.61 220.28 389.61 220.624 389.764 220.783 389.995 220.995 390.278 221.286 390.92 221.975 390.92 223.246 390.92 224.147 390.175 226.743 389.507 228.094 388.84 229.498 387.941 230.425 386.682 230.425 385.475 230.425 384.782 229.631 384.782 228.121 384.782 227.379 384.962 226.558 385.065 226.187L386.143 221.736Z" fill-rule="evenodd"/><path d="M399.713 204.007C396.79 206.422 396.021 210.241 396.021 212.998 396.021 215.539 396.667 219.485 399.713 222.007 399.836 222.007 400.021 222.007 400.021 221.791 400.021 221.683 399.975 221.647 399.867 221.521 397.821 219.359 397.067 216.296 397.067 213.016 397.067 208.151 398.652 205.773 399.913 204.44 399.975 204.368 400.021 204.314 400.021 204.223 400.021 204.007 399.836 204.007 399.713 204.007Z" fill-rule="evenodd"/><path d="M407.748 205.513C407.748 205.025 407.715 205.007 407.254 205.007 406.199 206.146 404.699 206.164 404.023 206.164L404.023 206.814C404.418 206.814 405.506 206.814 406.413 206.308L406.413 215.525C406.413 216.122 406.413 216.357 404.765 216.357L404.138 216.357 404.138 217.007C404.435 216.989 406.462 216.935 407.072 216.935 407.583 216.935 409.66 216.989 410.023 217.007L410.023 216.357 409.397 216.357C407.748 216.357 407.748 216.122 407.748 215.525L407.748 205.513Z" fill-rule="evenodd"/><path d="M413.394 204.007C413.259 204.007 413.027 204.007 413.027 204.223 413.027 204.314 413.085 204.368 413.201 204.494 414.861 205.917 416.714 208.35 416.714 212.998 416.714 216.764 415.46 219.611 413.375 221.377 413.047 221.683 413.027 221.701 413.027 221.791 413.027 221.881 413.085 222.007 413.278 222.007 413.51 222.007 415.344 220.818 416.618 218.566 417.467 217.07 418.027 215.124 418.027 213.016 418.027 210.476 417.216 206.53 413.394 204.007Z" fill-rule="evenodd"/><path d="M398.748 226.514C398.748 226.026 398.715 226.008 398.253 226.008 397.198 227.147 395.698 227.165 395.023 227.165L395.023 227.815C395.418 227.815 396.506 227.815 397.413 227.309L397.413 236.526C397.413 237.123 397.413 237.357 395.764 237.357L395.138 237.357 395.138 238.008C395.435 237.99 397.462 237.936 398.072 237.936 398.583 237.936 400.66 237.99 401.023 238.008L401.023 237.357 400.396 237.357C398.748 237.357 398.748 237.123 398.748 236.526L398.748 226.514Z" fill-rule="evenodd"/><path d="M408.748 226.514C408.748 226.026 408.715 226.008 408.254 226.008 407.199 227.147 405.699 227.165 405.023 227.165L405.023 227.815C405.419 227.815 406.506 227.815 407.413 227.309L407.413 236.526C407.413 237.123 407.413 237.357 405.765 237.357L405.138 237.357 405.138 238.008C405.435 237.99 407.462 237.936 408.072 237.936 408.583 237.936 410.66 237.99 411.023 238.008L411.023 237.357 410.397 237.357C408.748 237.357 408.748 237.123 408.748 236.526L408.748 226.514Z" fill-rule="evenodd"/><path d="M390.241 99.3046C390.241 99.2777 390.241 99.0081 389.888 99.0081 389.263 99.0081 387.279 99.2237 386.573 99.2777 386.355 99.3046 386.056 99.3315 386.056 99.8166 386.056 100.14 386.301 100.14 386.709 100.14 388.013 100.14 388.067 100.329 388.067 100.598 388.067 100.787 387.823 101.703 387.687 102.269L385.459 111.055C385.133 112.403 385.024 112.834 385.024 113.777 385.024 116.337 386.464 118.008 388.475 118.008 391.682 118.008 395.024 113.992 395.024 110.112 395.024 107.659 393.584 105.8 391.41 105.8 390.16 105.8 389.046 106.581 388.23 107.417L390.241 99.3046ZM387.687 109.492C387.85 108.899 387.85 108.845 388.095 108.549 389.426 106.797 390.649 106.392 391.355 106.392 392.334 106.392 393.067 107.201 393.067 108.926 393.067 110.516 392.171 113.615 391.682 114.639 390.785 116.445 389.535 117.415 388.475 117.415 387.551 117.415 386.654 116.688 386.654 114.693 386.654 114.181 386.654 113.669 387.089 111.971L387.687 109.492Z" fill-rule="evenodd"/><path d="M402.64 90.0073C398.986 92.4216 398.025 96.2415 398.025 98.9982 398.025 101.539 398.832 105.485 402.64 108.007 402.794 108.007 403.025 108.007 403.025 107.791 403.025 107.683 402.967 107.647 402.832 107.521 400.275 105.359 399.332 102.296 399.332 99.0162 399.332 94.1513 401.313 91.773 402.89 90.4396 402.967 90.3676 403.025 90.3135 403.025 90.2234 403.025 90.0073 402.794 90.0073 402.64 90.0073Z" fill-rule="evenodd"/><path d="M410.371 92.5133C410.371 92.0253 410.333 92.0073 409.794 92.0073 408.563 93.1457 406.813 93.1638 406.025 93.1638L406.025 93.8144C406.486 93.8144 407.756 93.8144 408.813 93.3084L408.813 102.525C408.813 103.122 408.813 103.357 406.89 103.357L406.16 103.357 406.16 104.007C406.506 103.989 408.871 103.935 409.583 103.935 410.179 103.935 412.602 103.989 413.025 104.007L413.025 103.357 412.294 103.357C410.371 103.357 410.371 103.122 410.371 102.525L410.371 92.5133Z" fill-rule="evenodd"/><path d="M416.392 90.0073C416.257 90.0073 416.025 90.0073 416.025 90.2234 416.025 90.3135 416.083 90.3676 416.199 90.4937 417.859 91.9171 419.713 94.3495 419.713 98.9982 419.713 102.764 418.458 105.611 416.373 107.377 416.045 107.683 416.025 107.701 416.025 107.791 416.025 107.881 416.083 108.007 416.276 108.007 416.508 108.007 418.342 106.818 419.616 104.566 420.466 103.07 421.025 101.124 421.025 99.0162 421.025 96.4757 420.215 92.5298 416.392 90.0073Z" fill-rule="evenodd"/><path d="M401.746 112.514C401.746 112.026 401.713 112.008 401.252 112.008 400.197 113.147 398.697 113.165 398.021 113.165L398.021 113.815C398.417 113.815 399.505 113.815 400.411 113.309L400.411 122.526C400.411 123.123 400.411 123.357 398.763 123.357L398.137 123.357 398.137 124.008C398.433 123.99 400.461 123.936 401.071 123.936 401.582 123.936 403.659 123.99 404.021 124.008L404.021 123.357 403.395 123.357C401.746 123.357 401.746 123.123 401.746 122.526L401.746 112.514Z" fill-rule="evenodd"/><path d="M272.722 100.179C272.722 99.098 272.722 99.0079 271.746 99.0079 269.116 101.891 265.382 101.891 264.025 101.891L264.025 103.287C264.873 103.287 267.376 103.287 269.582 102.116L269.582 125.449C269.582 127.071 269.455 127.612 265.637 127.612L264.279 127.612 264.279 129.008C265.764 128.873 269.455 128.873 271.152 128.873 272.849 128.873 276.54 128.873 278.025 129.008L278.025 127.612 276.667 127.612C272.849 127.612 272.722 127.116 272.722 125.449L272.722 100.179Z" fill-rule="evenodd"/><path d="M579.702 211.127 737.383 270.263 735.978 274.008 578.298 214.873ZM736.681 272.136 735.042 265.113 744.171 274.945 730.828 276.349Z" fill="#D9D9D9"/><path d="M580.691 211.933 741.592 466.869 738.21 469.004 577.309 214.067ZM739.901 467.937 742.84 461.352 744.171 474.702 732.692 467.756Z" fill="#D9D9D9"/><path d="M1.11412-1.66095 144.143 94.2791 141.915 97.601-1.11412 1.66095ZM143.029 95.9401 143.05 88.729 149.673 100.397 136.365 98.6947Z" fill="#D9D9D9" transform="matrix(1 0 0 -1 579 413.397)"/><path d="M580.106 411.334 723.115 506.27 720.902 509.602 577.894 414.666ZM722.008 507.936 721.994 500.725 728.673 512.36 715.357 510.722Z" fill="#D9D9D9"/><path d="M1.69321-1.06444 162.607 254.901 159.22 257.03-1.69321 1.06444ZM160.913 255.965 163.864 249.385 165.171 262.738 153.705 255.772Z" fill="#D9D9D9" transform="matrix(1 0 0 -1 579 612.738)"/><path d="M0.712571-1.86875 158.408 58.262 156.983 61.9995-0.712571 1.86875ZM157.696 60.1308 156.096 53.0994 165.171 62.9811 151.821 64.3119Z" fill="#D9D9D9" transform="matrix(1 0 0 -1 579 612.981)"/><path d="M835.008 311 976.681 311.539 976.666 315.539 834.992 315ZM976.673 313.539 972.696 307.524 984.673 313.57 972.65 319.524Z" fill="#D9D9D9"/><path d="M836.602 311.803 981.487 505.72 978.282 508.114 833.398 314.197ZM979.885 506.918 982.297 500.122 984.673 513.327 972.684 507.305Z" fill="#D9D9D9"/><path d="M1.57232-1.23605 146.3 182.865 143.156 185.337-1.57232 1.23605ZM144.729 184.102 146.974 177.249 149.673 190.391 137.54 184.666Z" fill="#D9D9D9" transform="matrix(1 0 0 -1 835 503.392)"/><path d="M835.008 510 976.681 510.539 976.666 514.539 834.992 514ZM976.673 512.539 972.696 506.524 984.673 512.57 972.65 518.524Z" fill="#D9D9D9"/></g></svg>