<svg width="1280" height="720" xmlns="http://www.w3.org/2000/svg" xmlns:xlink="http://www.w3.org/1999/xlink" overflow="hidden"><defs><clipPath id="clip0"><rect x="0" y="0" width="1280" height="720"/></clipPath></defs><g clip-path="url(#clip0)"><rect x="0" y="0" width="1280" height="720" fill="#FFFFFF"/><path d="M173.5 221.5C173.5 196.095 193.871 175.5 219 175.5 244.129 175.5 264.5 196.095 264.5 221.5 264.5 246.905 244.129 267.5 219 267.5 193.871 267.5 173.5 246.905 173.5 221.5Z" stroke="#BFBFBF" stroke-width="1.33333" stroke-miterlimit="8" fill="none" fill-rule="evenodd"/><path d="M173 508C173 482.595 193.371 462 218.5 462 243.629 462 264 482.595 264 508 264 533.405 243.629 554 218.5 554 193.371 554 173 533.405 173 508Z" stroke="#000000" stroke-width="6" stroke-miterlimit="8" fill="none" fill-rule="evenodd"/><path d="M1.05294-2.80915 253.85 91.9449 251.744 97.5632-1.05294 2.80915ZM253.146 85.2736 278.079 104.23 246.829 102.129Z" fill="#BFBFBF" transform="matrix(1 0 0 -1 264 221.23)"/><path d="M265.033 505.183 523.929 600.118 521.864 605.752 262.967 510.817ZM523.178 593.452 548.246 612.23 516.981 610.352Z" fill="#BFBFBF"/><path d="M542 117C542 91.5949 562.595 71 588 71 613.405 71 634 91.5949 634 117 634 142.405 613.405 163 588 163 562.595 163 542 142.405 542 117Z" stroke="#000000" stroke-width="6" stroke-miterlimit="8" fill="none" fill-rule="evenodd"/><path d="M548.5 613.5C548.5 588.095 569.095 567.5 594.5 567.5 619.905 567.5 640.5 588.095 640.5 613.5 640.5 638.905 619.905 659.5 594.5 659.5 569.095 659.5 548.5 638.905 548.5 613.5Z" stroke="#BFBFBF" stroke-width="1.33333" stroke-miterlimit="8" fill="none" fill-rule="evenodd"/><path d="M266.428 219.237 534.81 588.864 529.955 592.389 261.572 222.763ZM537.902 582.911 548.246 612.474 523.337 593.487Z" fill="#BFBFBF"/><path d="M546.5 370.5C546.5 345.095 567.095 324.5 592.5 324.5 617.905 324.5 638.5 345.095 638.5 370.5 638.5 395.905 617.905 416.5 592.5 416.5 567.095 416.5 546.5 395.905 546.5 370.5Z" stroke="#BFBFBF" stroke-width="1.33333" stroke-miterlimit="8" fill="none" fill-rule="evenodd"/><path d="M1.32452-2.69177 259.186 124.192 256.537 129.575-1.32452 2.69177ZM259.143 117.484 282.087 138.804 251.196 133.634Z" fill="#BFBFBF" transform="matrix(1 0 0 -1 264 508.804)"/><path d="M265.397 218.345 523.591 354.212 520.797 359.521 262.603 223.655ZM523.73 347.505 546.087 369.44 515.347 363.434Z" fill="#BFBFBF"/><path d="M213.66 217.571C213.889 216.538 214.767 212.882 217.437 212.882 217.628 212.882 218.544 212.882 219.345 213.399 218.277 213.597 217.514 214.591 217.514 215.544 217.514 216.18 217.933 216.935 218.963 216.935 219.803 216.935 221.024 216.22 221.024 214.63 221.024 212.564 218.773 212.008 217.475 212.008 215.263 212.008 213.927 214.114 213.469 215.028 212.516 212.405 210.455 212.008 209.349 212.008 205.381 212.008 203.206 217.134 203.206 218.127 203.206 218.524 203.588 218.524 203.664 218.524 203.969 218.524 204.084 218.445 204.16 218.087 205.457 213.875 207.975 212.882 209.273 212.882 209.997 212.882 211.333 213.24 211.333 215.544 211.333 216.776 210.684 219.438 209.273 225.001 208.662 227.465 207.327 229.134 205.648 229.134 205.419 229.134 204.542 229.134 203.74 228.617 204.694 228.418 205.534 227.584 205.534 226.471 205.534 225.399 204.694 225.081 204.122 225.081 202.977 225.081 202.024 226.114 202.024 227.385 202.024 229.213 203.931 230.008 205.61 230.008 208.128 230.008 209.502 227.226 209.616 226.988 210.074 228.458 211.447 230.008 213.736 230.008 217.666 230.008 219.841 224.882 219.841 223.889 219.841 223.491 219.497 223.491 219.383 223.491 219.04 223.491 218.963 223.65 218.887 223.928 217.628 228.18 215.034 229.134 213.813 229.134 212.325 229.134 211.714 227.862 211.714 226.511 211.714 225.637 211.943 224.763 212.363 223.014L213.66 217.571Z" fill-rule="evenodd"/><path d="M232.234 217.809C232.234 217.037 232.179 217.008 231.409 217.008 229.651 218.811 227.151 218.84 226.025 218.84L226.025 219.87C226.684 219.87 228.497 219.87 230.008 219.068L230.008 233.662C230.008 234.606 230.008 234.978 227.261 234.978L226.217 234.978 226.217 236.008C226.712 235.98 230.091 235.894 231.107 235.894 231.959 235.894 235.42 235.98 236.025 236.008L236.025 234.978 234.981 234.978C232.234 234.978 232.234 234.606 232.234 233.662L232.234 217.809Z" fill-rule="evenodd"/><path d="M212.66 506.571C212.889 505.538 213.767 501.882 216.437 501.882 216.628 501.882 217.544 501.882 218.345 502.399 217.277 502.597 216.514 503.591 216.514 504.544 216.514 505.18 216.933 505.935 217.963 505.935 218.803 505.935 220.024 505.22 220.024 503.63 220.024 501.564 217.773 501.008 216.475 501.008 214.263 501.008 212.927 503.114 212.469 504.028 211.516 501.405 209.455 501.008 208.349 501.008 204.381 501.008 202.206 506.134 202.206 507.127 202.206 507.524 202.588 507.524 202.664 507.524 202.969 507.524 203.084 507.445 203.16 507.087 204.457 502.875 206.975 501.882 208.273 501.882 208.997 501.882 210.333 502.24 210.333 504.544 210.333 505.776 209.684 508.438 208.273 514.001 207.662 516.465 206.327 518.134 204.648 518.134 204.419 518.134 203.542 518.134 202.74 517.617 203.694 517.418 204.534 516.584 204.534 515.471 204.534 514.399 203.694 514.081 203.122 514.081 201.977 514.081 201.024 515.114 201.024 516.385 201.024 518.213 202.931 519.008 204.61 519.008 207.128 519.008 208.502 516.226 208.616 515.988 209.074 517.458 210.447 519.008 212.736 519.008 216.666 519.008 218.841 513.882 218.841 512.889 218.841 512.491 218.497 512.491 218.383 512.491 218.04 512.491 217.963 512.65 217.887 512.928 216.628 517.18 214.034 518.134 212.813 518.134 211.325 518.134 210.714 516.862 210.714 515.511 210.714 514.637 210.943 513.763 211.363 512.014L212.66 506.571Z" fill-rule="evenodd"/><path d="M236.025 519.074 235.102 519.074C235.02 519.67 234.749 521.27 234.396 521.541 234.178 521.704 232.088 521.704 231.708 521.704L226.712 521.704C229.563 519.182 230.513 518.423 232.142 517.149 234.151 515.55 236.025 513.869 236.025 511.294 236.025 508.014 233.147 506.008 229.672 506.008 226.305 506.008 224.025 508.366 224.025 510.86 224.025 512.243 225.192 512.378 225.463 512.378 226.115 512.378 226.902 511.917 226.902 510.941 226.902 510.454 226.712 509.505 225.301 509.505 226.142 507.58 227.988 506.984 229.264 506.984 231.979 506.984 233.391 509.098 233.391 511.294 233.391 513.652 231.708 515.523 230.839 516.499L224.296 522.951C224.025 523.195 224.025 523.249 224.025 524.008L235.21 524.008 236.025 519.074Z" fill-rule="evenodd"/><path d="M573.838 120.551C573.091 119.081 571.888 118.008 570.021 118.008 565.168 118.008 560.023 123.849 560.023 129.65 560.023 133.386 562.305 136.008 565.541 136.008 566.371 136.008 568.445 135.849 570.934 133.028 571.266 134.697 572.718 136.008 574.709 136.008 576.161 136.008 577.115 135.094 577.779 133.823 578.484 132.392 579.023 129.968 579.023 129.889 579.023 129.491 578.65 129.491 578.526 129.491 578.111 129.491 578.069 129.65 577.945 130.207 577.24 132.79 576.493 135.134 574.792 135.134 573.672 135.134 573.548 134.101 573.548 133.306 573.548 132.432 573.63 132.114 574.087 130.366 574.543 128.697 574.626 128.299 575 126.789L576.493 121.227C576.783 120.114 576.783 120.034 576.783 119.876 576.783 119.2 576.285 118.803 575.58 118.803 574.585 118.803 573.962 119.677 573.838 120.551ZM571.141 130.842C570.934 131.558 570.934 131.637 570.312 132.313 568.486 134.498 566.785 135.134 565.624 135.134 563.55 135.134 562.969 132.948 562.969 131.399 562.969 129.412 564.296 124.525 565.251 122.697 566.537 120.352 568.403 118.882 570.063 118.882 572.759 118.882 573.34 122.14 573.34 122.379 573.34 122.617 573.257 122.856 573.216 123.054L571.141 130.842Z" fill-rule="evenodd"/><path d="M590.484 94.0075C585.368 97.7632 584.022 103.705 584.022 107.993 584.022 111.945 585.153 118.084 590.484 122.008 590.699 122.008 591.022 122.008 591.022 121.671 591.022 121.503 590.942 121.447 590.753 121.251 587.172 117.887 585.853 113.123 585.853 108.022 585.853 100.454 588.626 96.7543 590.834 94.6802 590.942 94.568 591.022 94.484 591.022 94.3438 591.022 94.0075 590.699 94.0075 590.484 94.0075Z" fill-rule="evenodd"/><path d="M602.855 97.7663C602.855 97.0343 602.795 97.0073 601.948 97.0073 600.014 98.7151 597.264 98.7422 596.025 98.7422L596.025 99.7181C596.751 99.7181 598.745 99.7181 600.407 98.959L600.407 112.784C600.407 113.679 600.407 114.031 597.385 114.031L596.237 114.031 596.237 115.007C596.781 114.98 600.498 114.899 601.616 114.899 602.553 114.899 606.361 114.98 607.025 115.007L607.025 114.031 605.877 114.031C602.855 114.031 602.855 113.679 602.855 112.784L602.855 97.7663Z" fill-rule="evenodd"/><path d="M612.613 94.0075C612.397 94.0075 612.026 94.0075 612.026 94.3438 612.026 94.484 612.119 94.568 612.304 94.7643 614.961 96.9784 617.926 100.762 617.926 107.993 617.926 113.851 615.918 118.28 612.582 121.027 612.057 121.503 612.026 121.531 612.026 121.671 612.026 121.811 612.119 122.008 612.428 122.008 612.799 122.008 615.733 120.158 617.772 116.654 619.131 114.328 620.026 111.301 620.026 108.022 620.026 104.07 618.729 97.9314 612.613 94.0075Z" fill-rule="evenodd"/><path d="M589.855 127.81C589.855 127.037 589.794 127.008 588.948 127.008 587.014 128.811 584.264 128.84 583.025 128.84L583.025 129.87C583.75 129.87 585.745 129.87 587.407 129.069L587.407 143.662C587.407 144.606 587.407 144.978 584.385 144.978L583.237 144.978 583.237 146.009C583.781 145.98 587.498 145.894 588.616 145.894 589.553 145.894 593.36 145.98 594.025 146.009L594.025 144.978 592.877 144.978C589.855 144.978 589.855 144.606 589.855 143.662L589.855 127.81Z" fill-rule="evenodd"/><path d="M579.838 372.551C579.091 371.081 577.888 370.008 576.021 370.008 571.168 370.008 566.023 375.849 566.023 381.65 566.023 385.385 568.305 388.008 571.541 388.008 572.371 388.008 574.445 387.849 576.934 385.028 577.266 386.697 578.718 388.008 580.709 388.008 582.161 388.008 583.115 387.094 583.779 385.823 584.484 384.392 585.023 381.968 585.023 381.889 585.023 381.491 584.65 381.491 584.526 381.491 584.111 381.491 584.069 381.65 583.945 382.207 583.24 384.789 582.493 387.134 580.792 387.134 579.672 387.134 579.548 386.101 579.548 385.306 579.548 384.432 579.63 384.114 580.087 382.366 580.543 380.697 580.626 380.299 581 378.789L582.493 373.227C582.783 372.114 582.783 372.034 582.783 371.876 582.783 371.2 582.285 370.803 581.58 370.803 580.585 370.803 579.962 371.677 579.838 372.551ZM577.141 382.842C576.934 383.558 576.934 383.637 576.312 384.313 574.486 386.498 572.785 387.134 571.624 387.134 569.55 387.134 568.969 384.948 568.969 383.399 568.969 381.412 570.296 376.525 571.251 374.697 572.537 372.352 574.403 370.882 576.063 370.882 578.759 370.882 579.34 374.141 579.34 374.379 579.34 374.617 579.257 374.856 579.216 375.054L577.141 382.842Z" fill-rule="evenodd"/><path d="M596.484 347.007C591.368 350.629 590.022 356.359 590.022 360.494 590.022 364.305 591.153 370.223 596.484 374.007 596.699 374.007 597.022 374.007 597.022 373.683 597.022 373.521 596.942 373.467 596.753 373.278 593.172 370.034 591.853 365.44 591.853 360.521 591.853 353.223 594.626 349.656 596.834 347.656 596.942 347.548 597.022 347.467 597.022 347.332 597.022 347.007 596.699 347.007 596.484 347.007Z" fill-rule="evenodd"/><path d="M608.855 349.766C608.855 349.034 608.795 349.007 607.948 349.007 606.014 350.715 603.264 350.742 602.025 350.742L602.025 351.718C602.751 351.718 604.745 351.718 606.407 350.959L606.407 364.784C606.407 365.679 606.407 366.031 603.385 366.031L602.237 366.031 602.237 367.007C602.781 366.98 606.498 366.899 607.616 366.899 608.553 366.899 612.361 366.98 613.025 367.007L613.025 366.031 611.877 366.031C608.855 366.031 608.855 365.679 608.855 364.784L608.855 349.766Z" fill-rule="evenodd"/><path d="M618.613 347.007C618.397 347.007 618.026 347.007 618.026 347.332 618.026 347.467 618.119 347.548 618.304 347.737 620.961 349.872 623.926 353.521 623.926 360.494 623.926 366.142 621.918 370.413 618.582 373.061 618.057 373.521 618.026 373.548 618.026 373.683 618.026 373.818 618.119 374.007 618.428 374.007 618.799 374.007 621.733 372.223 623.772 368.845 625.131 366.602 626.026 363.683 626.026 360.521 626.026 356.71 624.729 350.791 618.613 347.007Z" fill-rule="evenodd"/><path d="M601.024 393.074 600.024 393.074C599.936 393.671 599.642 395.27 599.26 395.541 599.024 395.704 596.76 395.704 596.348 395.704L590.936 395.704C594.024 393.183 595.054 392.424 596.818 391.15 598.995 389.55 601.024 387.87 601.024 385.294 601.024 382.014 597.907 380.008 594.142 380.008 590.495 380.008 588.024 382.366 588.024 384.861 588.024 386.243 589.289 386.379 589.583 386.379 590.289 386.379 591.142 385.918 591.142 384.942 591.142 384.454 590.936 383.505 589.407 383.505 590.318 381.58 592.318 380.984 593.701 380.984 596.642 380.984 598.171 383.098 598.171 385.294 598.171 387.653 596.348 389.523 595.407 390.499L588.318 396.951C588.024 397.195 588.024 397.249 588.024 398.008L600.142 398.008 601.024 393.074Z" fill-rule="evenodd"/><path d="M580.566 615.551C579.78 614.081 578.514 613.008 576.549 613.008 571.44 613.008 566.025 618.849 566.025 624.65 566.025 628.385 568.426 631.008 571.833 631.008 572.706 631.008 574.889 630.849 577.51 628.028 577.859 629.697 579.387 631.008 581.483 631.008 583.012 631.008 584.016 630.094 584.715 628.823 585.457 627.392 586.025 624.968 586.025 624.889 586.025 624.491 585.632 624.491 585.501 624.491 585.064 624.491 585.02 624.65 584.889 625.207 584.147 627.789 583.361 630.134 581.571 630.134 580.392 630.134 580.261 629.101 580.261 628.306 580.261 627.432 580.348 627.114 580.828 625.366 581.309 623.697 581.396 623.299 581.789 621.789L583.361 616.227C583.667 615.114 583.667 615.034 583.667 614.876 583.667 614.2 583.143 613.803 582.4 613.803 581.352 613.803 580.697 614.677 580.566 615.551ZM577.728 625.842C577.51 626.558 577.51 626.637 576.854 627.313 574.933 629.498 573.143 630.134 571.92 630.134 569.737 630.134 569.125 627.948 569.125 626.399 569.125 624.412 570.523 619.525 571.527 617.697 572.881 615.352 574.846 613.882 576.592 613.882 579.431 613.882 580.042 617.141 580.042 617.379 580.042 617.617 579.955 617.856 579.911 618.054L577.728 625.842Z" fill-rule="evenodd"/><path d="M597.41 590.007C591.564 593.629 590.025 599.359 590.025 603.494 590.025 607.305 591.318 613.224 597.41 617.007 597.656 617.007 598.025 617.007 598.025 616.683 598.025 616.521 597.933 616.467 597.718 616.278 593.625 613.034 592.118 608.44 592.118 603.521 592.118 596.223 595.287 592.656 597.81 590.656 597.933 590.548 598.025 590.467 598.025 590.332 598.025 590.007 597.656 590.007 597.41 590.007Z" fill-rule="evenodd"/><path d="M609.855 592.766C609.855 592.034 609.795 592.007 608.948 592.007 607.014 593.715 604.264 593.742 603.025 593.742L603.025 594.718C603.751 594.718 605.745 594.718 607.407 593.959L607.407 607.784C607.407 608.679 607.407 609.031 604.385 609.031L603.237 609.031 603.237 610.007C603.781 609.98 607.498 609.899 608.616 609.899 609.553 609.899 613.361 609.98 614.025 610.007L614.025 609.031 612.877 609.031C609.855 609.031 609.855 608.679 609.855 607.784L609.855 592.766Z" fill-rule="evenodd"/><path d="M619.537 590.007C619.347 590.007 619.023 590.007 619.023 590.332 619.023 590.467 619.104 590.548 619.266 590.737 621.591 592.872 624.185 596.521 624.185 603.494 624.185 609.142 622.429 613.413 619.51 616.061 619.05 616.521 619.023 616.548 619.023 616.683 619.023 616.818 619.104 617.007 619.374 617.007 619.699 617.007 622.266 615.224 624.05 611.845 625.239 609.602 626.023 606.683 626.023 603.521 626.023 599.71 624.888 593.791 619.537 590.007Z" fill-rule="evenodd"/><path d="M594.69 632.175C597.064 632.175 598.769 633.675 598.769 636.647 598.769 640.092 596.577 641.119 594.812 641.119 593.595 641.119 590.917 640.814 589.638 639.175 591.069 639.119 591.404 638.203 591.404 637.619 591.404 636.731 590.673 636.092 589.729 636.092 588.877 636.092 588.025 636.564 588.025 637.703 588.025 640.314 591.19 642.008 594.873 642.008 599.104 642.008 602.025 639.425 602.025 636.647 602.025 634.481 600.077 632.314 596.73 631.675 599.925 630.619 601.082 628.536 601.082 626.842 601.082 624.647 598.312 623.008 594.934 623.008 591.556 623.008 588.969 624.508 588.969 626.73 588.969 627.675 589.638 628.203 590.551 628.203 591.495 628.203 592.103 627.564 592.103 626.786 592.103 625.98 591.495 625.397 590.551 625.342 591.617 624.119 593.717 623.814 594.843 623.814 596.212 623.814 598.13 624.425 598.13 626.842 598.13 628.008 597.703 629.286 596.912 630.147 595.908 631.203 595.056 631.258 593.534 631.342 592.773 631.397 592.712 631.397 592.56 631.425 592.499 631.425 592.256 631.481 592.256 631.786 592.256 632.175 592.53 632.175 593.047 632.175L594.69 632.175Z" fill-rule="evenodd"/><path d="M2.44576-1.73731 264.889 367.726 259.998 371.201-2.44576 1.73731ZM268.043 361.805 278.079 391.475 253.369 372.229Z" transform="matrix(1 0 0 -1 264 508.475)"/><path d="M387.03 238.101C387.227 237.227 387.619 235.756 387.619 235.518 387.619 234.803 387.07 234.445 386.48 234.445 386.009 234.445 385.302 234.763 385.027 235.558 384.909 235.836 383.064 243.425 382.789 244.458 382.514 245.65 382.435 246.366 382.435 247.081 382.435 247.518 382.435 247.597 382.474 247.796 381.571 249.902 380.393 251.134 378.861 251.134 375.719 251.134 375.719 248.193 375.719 247.518 375.719 246.246 375.916 244.697 377.761 239.809 378.193 238.617 378.429 238.061 378.429 237.266 378.429 235.478 377.133 234.008 375.209 234.008 371.477 234.008 370.024 239.77 370.024 240.127 370.024 240.525 370.417 240.525 370.496 240.525 370.888 240.525 370.928 240.445 371.124 239.809 372.184 236.114 373.716 234.882 375.091 234.882 375.444 234.882 376.073 234.922 376.073 236.193 376.073 237.187 375.641 238.299 375.366 238.975 373.638 243.664 373.166 245.491 373.166 247.001 373.166 250.617 375.798 252.008 378.743 252.008 379.411 252.008 381.257 252.008 382.828 249.227 383.849 251.77 386.559 252.008 387.737 252.008 390.683 252.008 392.411 249.505 393.432 247.121 394.768 244.021 396.024 238.697 396.024 236.789 396.024 234.604 394.964 234.008 394.296 234.008 393.314 234.008 392.332 235.041 392.332 235.915 392.332 236.432 392.568 236.67 392.922 236.988 393.354 237.425 394.336 238.458 394.336 240.366 394.336 241.717 393.196 245.611 392.175 247.637 391.154 249.743 389.78 251.134 387.855 251.134 386.009 251.134 384.949 249.942 384.949 247.677 384.949 246.564 385.224 245.333 385.381 244.776L387.03 238.101Z" fill-rule="evenodd"/><path d="M407.486 210.008C402.371 213.763 401.025 219.705 401.025 223.993 401.025 227.945 402.155 234.084 407.486 238.008 407.702 238.008 408.025 238.008 408.025 237.671 408.025 237.503 407.944 237.447 407.755 237.251 404.175 233.887 402.855 229.123 402.855 224.022 402.855 216.454 405.628 212.754 407.836 210.68 407.944 210.568 408.025 210.484 408.025 210.344 408.025 210.008 407.702 210.008 407.486 210.008Z" fill-rule="evenodd"/><path d="M418.611 213.766C418.611 213.034 418.561 213.007 417.869 213.007 416.287 214.715 414.037 214.742 413.023 214.742L413.023 215.718C413.616 215.718 415.248 215.718 416.608 214.959L416.608 228.784C416.608 229.679 416.608 230.031 414.135 230.031L413.196 230.031 413.196 231.007C413.641 230.98 416.682 230.899 417.597 230.899 418.364 230.899 421.479 230.98 422.023 231.007L422.023 230.031 421.083 230.031C418.611 230.031 418.611 229.679 418.611 228.784L418.611 213.766Z" fill-rule="evenodd"/><path d="M427.539 210.008C427.35 210.008 427.025 210.008 427.025 210.344 427.025 210.484 427.106 210.568 427.269 210.764 429.593 212.978 432.188 216.762 432.188 223.993 432.188 229.851 430.431 234.28 427.512 237.027 427.052 237.503 427.025 237.531 427.025 237.671 427.025 237.811 427.106 238.008 427.377 238.008 427.701 238.008 430.269 236.158 432.052 232.654 433.242 230.328 434.025 227.301 434.025 224.022 434.025 220.07 432.89 213.931 427.539 210.008Z" fill-rule="evenodd"/><path d="M405.61 243.81C405.61 243.037 405.561 243.008 404.869 243.008 403.286 244.811 401.036 244.84 400.023 244.84L400.023 245.87C400.616 245.87 402.248 245.87 403.608 245.069L403.608 259.662C403.608 260.606 403.608 260.978 401.135 260.978L400.196 260.978 400.196 262.009C400.641 261.98 403.682 261.894 404.597 261.894 405.363 261.894 408.479 261.98 409.023 262.009L409.023 260.978 408.083 260.978C405.61 260.978 405.61 260.606 405.61 259.662L405.61 243.81Z" fill-rule="evenodd"/><path d="M425.023 256.801 424.177 256.801C424.102 257.43 423.853 259.118 423.53 259.405 423.331 259.576 421.415 259.576 421.066 259.576L416.487 259.576C419.1 256.915 419.971 256.114 421.464 254.769 423.306 253.081 425.023 251.307 425.023 248.588 425.023 245.126 422.385 243.008 419.199 243.008 416.114 243.008 414.023 245.498 414.023 248.131 414.023 249.59 415.093 249.733 415.342 249.733 415.939 249.733 416.661 249.246 416.661 248.216 416.661 247.701 416.487 246.7 415.193 246.7 415.964 244.668 417.657 244.039 418.826 244.039 421.315 244.039 422.609 246.271 422.609 248.588 422.609 251.078 421.066 253.052 420.27 254.082L414.272 260.893C414.023 261.15 414.023 261.207 414.023 262.009L424.276 262.009 425.023 256.801Z" fill-rule="evenodd"/><path d="M859.495 348.602C859.812 347.193 860.447 344.824 860.447 344.44 860.447 343.288 859.558 342.712 858.607 342.712 857.845 342.712 856.703 343.224 856.259 344.504 856.069 344.953 853.087 357.18 852.643 358.844 852.199 360.765 852.072 361.917 852.072 363.07 852.072 363.774 852.072 363.902 852.135 364.222 850.676 367.615 848.773 369.599 846.298 369.599 841.223 369.599 841.223 364.862 841.223 363.774 841.223 361.725 841.54 359.228 844.522 351.354 845.22 349.434 845.601 348.538 845.601 347.257 845.601 344.376 843.507 342.008 840.398 342.008 834.371 342.008 832.024 351.29 832.024 351.866 832.024 352.507 832.658 352.507 832.785 352.507 833.419 352.507 833.483 352.379 833.8 351.354 835.513 345.401 837.987 343.416 840.208 343.416 840.779 343.416 841.794 343.48 841.794 345.529 841.794 347.129 841.096 348.922 840.652 350.01 837.86 357.564 837.099 360.509 837.099 362.942 837.099 368.767 841.35 371.008 846.108 371.008 847.187 371.008 850.169 371.008 852.706 366.527 854.356 370.624 858.733 371.008 860.637 371.008 865.395 371.008 868.187 366.975 869.836 363.134 871.993 358.14 874.024 349.562 874.024 346.489 874.024 342.968 872.311 342.008 871.232 342.008 869.646 342.008 868.06 343.672 868.06 345.081 868.06 345.913 868.44 346.297 869.011 346.809 869.709 347.513 871.296 349.178 871.296 352.251 871.296 354.427 869.456 360.701 867.806 363.966 866.156 367.359 863.936 369.599 860.827 369.599 857.845 369.599 856.132 367.679 856.132 364.03 856.132 362.237 856.576 360.253 856.83 359.357L859.495 348.602Z" fill-rule="evenodd"/><path d="M893.177 303.007C885.138 309.043 883.023 318.593 883.023 325.485 883.023 331.836 884.8 341.701 893.177 348.007 893.516 348.007 894.023 348.007 894.023 347.467 894.023 347.197 893.896 347.106 893.6 346.791 887.973 341.386 885.9 333.728 885.9 325.53 885.9 313.368 890.258 307.422 893.727 304.088 893.896 303.908 894.023 303.773 894.023 303.548 894.023 303.007 893.516 303.007 893.177 303.007Z" fill-rule="evenodd"/><path d="M912.958 308.272C912.958 307.052 912.871 307.007 911.64 307.007 908.827 309.854 904.827 309.899 903.024 309.899L903.024 311.525C904.079 311.525 906.98 311.525 909.398 310.26L909.398 333.302C909.398 334.793 909.398 335.381 905.002 335.381L903.332 335.381 903.332 337.007C904.123 336.962 909.53 336.827 911.156 336.827 912.519 336.827 918.057 336.962 919.024 337.007L919.024 335.381 917.354 335.381C912.958 335.381 912.958 334.793 912.958 333.302L912.958 308.272Z" fill-rule="evenodd"/><path d="M926.906 303.007C926.582 303.007 926.026 303.007 926.026 303.548 926.026 303.773 926.165 303.908 926.443 304.223 930.428 307.782 934.876 313.863 934.876 325.485 934.876 334.899 931.864 342.016 926.86 346.431 926.072 347.197 926.026 347.242 926.026 347.467 926.026 347.692 926.165 348.007 926.628 348.007 927.184 348.007 931.586 345.034 934.644 339.404 936.682 335.665 938.026 330.8 938.026 325.53 938.026 319.178 936.08 309.314 926.906 303.007Z" fill-rule="evenodd"/><path d="M890.958 359.273C890.958 358.053 890.87 358.008 889.639 358.008 886.826 360.854 882.826 360.9 881.024 360.9L881.024 362.526C882.079 362.526 884.98 362.526 887.398 361.261L887.398 384.303C887.398 385.794 887.398 386.382 883.002 386.382L881.332 386.382 881.332 388.008C882.123 387.963 887.529 387.827 889.156 387.827 890.519 387.827 896.057 387.963 897.024 388.008L897.024 386.382 895.354 386.382C890.958 386.382 890.958 385.794 890.958 384.303L890.958 359.273Z" fill-rule="evenodd"/><path d="M924.025 379.785 922.487 379.785C922.351 380.779 921.898 383.445 921.31 383.897 920.948 384.168 917.464 384.168 916.831 384.168L908.505 384.168C913.256 379.966 914.84 378.701 917.555 376.577 920.903 373.912 924.025 371.11 924.025 366.818 924.025 361.351 919.229 358.008 913.437 358.008 907.826 358.008 904.025 361.939 904.025 366.095 904.025 368.4 905.971 368.626 906.423 368.626 907.509 368.626 908.822 367.857 908.822 366.231 908.822 365.418 908.505 363.836 906.152 363.836 907.555 360.629 910.631 359.635 912.758 359.635 917.283 359.635 919.636 363.159 919.636 366.818 919.636 370.749 916.831 373.867 915.383 375.493L904.478 386.246C904.025 386.653 904.025 386.743 904.025 388.008L922.668 388.008 924.025 379.785Z" fill-rule="evenodd"/><path d="M0 2-1.56257 2 0.43743 0 0.43743 71.3803-1.56257 69.3803 73.8752 69.3803 73.8752 73.3803-3.56257 73.3803-3.56257-2 0-2ZM71.8752 65.3803 83.8752 71.3803 71.8752 77.3803Z" transform="matrix(1 0 0 -1 911 295.38)"/><text font-family="Malgun Gothic,Malgun Gothic_MSFontService,sans-serif" font-weight="700" font-size="32" transform="translate(1025.35 233)">1층의<tspan font-size="32" x="93.8333" y="0">weight</tspan></text><path d="M914 396 917.883 396 917.883 438.951 915.883 436.951 979.766 436.951 979.766 440.951 913.883 440.951 913.883 398 915.883 400 914 400ZM977.766 432.951 989.766 438.951 977.766 444.951Z"/><text font-family="Malgun Gothic,Malgun Gothic_MSFontService,sans-serif" font-weight="700" font-size="27" transform="translate(1004.48 445)">앞<tspan font-size="27" x="36" y="0">층의</tspan><tspan font-size="27" x="98.6667" y="0">2</tspan>번째<tspan font-size="27" x="0" y="32">neuro</tspan><tspan font-size="27" x="73.8667" y="32">n</tspan></text><path d="M0-2 164.297-2 164.348 93.7482 160.348 93.7503 160.298 0.0010636 162.298 2 0 2ZM168.297 91.6003 162.598 103.746 156.3 91.8994Z" transform="matrix(1.83697e-16 1 1 -1.83697e-16 885 398)"/><text font-family="Malgun Gothic,Malgun Gothic_MSFontService,sans-serif" font-weight="700" font-size="27" transform="translate(1004.1 570)">다음<tspan font-size="27" x="62.6667" y="0">층의</tspan><tspan font-size="27" x="125.333" y="0">1</tspan>번째<tspan font-size="27" x="0" y="32">neuron</tspan></text></g></svg>