<svg width="1280" height="720" xmlns="http://www.w3.org/2000/svg" xmlns:xlink="http://www.w3.org/1999/xlink" overflow="hidden"><defs><clipPath id="clip0"><rect x="0" y="0" width="1280" height="720"/></clipPath></defs><g clip-path="url(#clip0)"><rect x="0" y="0" width="1280" height="720" fill="#FFFFFF"/><path d="M89.5001 226.5C89.5001 201.095 110.095 180.5 135.5 180.5 160.905 180.5 181.5 201.095 181.5 226.5 181.5 251.905 160.905 272.5 135.5 272.5 110.095 272.5 89.5001 251.905 89.5001 226.5Z" stroke="#000000" stroke-width="1.33333" stroke-miterlimit="8" fill="none" fill-rule="evenodd"/><path d="M89.5001 513.5C89.5001 488.095 110.095 467.5 135.5 467.5 160.905 467.5 181.5 488.095 181.5 513.5 181.5 538.905 160.905 559.5 135.5 559.5 110.095 559.5 89.5001 538.905 89.5001 513.5Z" stroke="#000000" stroke-width="1.33333" stroke-miterlimit="8" fill="none" fill-rule="evenodd"/><path d="M813.5 231C813.5 205.319 833.871 184.5 859 184.5 884.129 184.5 904.5 205.319 904.5 231 904.5 256.681 884.129 277.5 859 277.5 833.871 277.5 813.5 256.681 813.5 231Z" stroke="#000000" stroke-width="1.33333" stroke-miterlimit="8" fill="none" fill-rule="evenodd"/><path d="M1.05294-2.80915 253.85 91.9449 251.744 97.5632-1.05294 2.80915ZM253.146 85.2736 278.079 104.23 246.829 102.129Z" transform="matrix(1 0 0 -1 181 225.23)"/><path d="M182.033 510.183 440.929 605.118 438.863 610.752 179.967 515.817ZM440.178 598.452 465.246 617.23 433.981 615.352Z"/><path d="M459.5 121.5C459.5 96.095 479.871 75.5001 505 75.5001 530.129 75.5001 550.5 96.095 550.5 121.5 550.5 146.905 530.129 167.5 505 167.5 479.871 167.5 459.5 146.905 459.5 121.5Z" stroke="#000000" stroke-width="1.33333" stroke-miterlimit="8" fill="none" fill-rule="evenodd"/><path d="M465.5 617.5C465.5 592.095 486.095 571.5 511.5 571.5 536.905 571.5 557.5 592.095 557.5 617.5 557.5 642.905 536.905 663.5 511.5 663.5 486.095 663.5 465.5 642.905 465.5 617.5Z" stroke="#000000" stroke-width="1.33333" stroke-miterlimit="8" fill="none" fill-rule="evenodd"/><path d="M183.428 224.237 451.81 593.864 446.955 597.389 178.572 227.763ZM454.902 587.911 465.246 617.474 440.337 598.487Z"/><path d="M2.44576-1.73731 264.889 367.726 259.998 371.201-2.44576 1.73731ZM268.043 361.805 278.079 391.475 253.369 372.229Z" transform="matrix(1 0 0 -1 181 512.475)"/><path d="M551.151 118.23 788.74 216.92 786.439 222.461 548.849 123.77ZM788.272 210.229 812.524 230.048 781.367 226.852Z"/><path d="M1.12993-2.77908 232.475 91.282 230.215 96.8401-1.12993 2.77908ZM231.956 84.594 256.357 104.23 225.177 101.268Z" transform="matrix(1 0 0 -1 557 617.23)"/><path d="M463.5 374.5C463.5 349.095 483.871 328.5 509 328.5 534.129 328.5 554.5 349.095 554.5 374.5 554.5 399.905 534.129 420.5 509 420.5 483.871 420.5 463.5 399.905 463.5 374.5Z" stroke="#000000" stroke-width="1.33333" stroke-miterlimit="8" fill="none" fill-rule="evenodd"/><path d="M1.32452-2.69177 259.186 124.192 256.537 129.575-1.32452 2.69177ZM259.143 117.484 282.087 138.804 251.196 133.634Z" transform="matrix(1 0 0 -1 181 512.804)"/><path d="M182.397 223.345 440.591 359.212 437.796 364.521 179.603 228.655ZM440.73 352.505 463.087 374.44 432.347 368.434Z"/><path d="M1.45694-2.62246 236.371 127.887 233.457 133.132-1.45694 2.62246ZM236.662 121.185 258.516 143.622 227.921 136.92Z" transform="matrix(1 0 0 -1 554 374.622)"/><path d="M813.5 513.5C813.5 488.095 833.871 467.5 859 467.5 884.129 467.5 904.5 488.095 904.5 513.5 904.5 538.905 884.129 559.5 859 559.5 833.871 559.5 813.5 538.905 813.5 513.5Z" stroke="#000000" stroke-width="1.33333" stroke-miterlimit="8" fill="none" fill-rule="evenodd"/><path d="M555.419 371.357 790.147 497.389 787.309 502.675 552.581 376.643ZM790.342 490.683 812.516 512.804 781.828 506.542Z"/><path d="M552.492 119.329 799.977 488.379 794.994 491.72 547.508 122.671ZM803.29 482.546 812.524 512.474 788.34 492.571Z"/><path d="M2.50036-1.65777 243.938 362.496 238.937 365.811-2.50036 1.65777ZM247.281 356.68 256.357 386.657 232.278 366.626Z" transform="matrix(1 0 0 -1 557 617.657)"/><path d="M1072.5 231C1072.5 205.319 1092.87 184.5 1118 184.5 1143.13 184.5 1163.5 205.319 1163.5 231 1163.5 256.681 1143.13 277.5 1118 277.5 1092.87 277.5 1072.5 256.681 1072.5 231Z" stroke="#000000" stroke-width="1.33333" stroke-miterlimit="8" fill="none" fill-rule="evenodd"/><path d="M1072.5 513.5C1072.5 488.095 1092.87 467.5 1118 467.5 1143.13 467.5 1163.5 488.095 1163.5 513.5 1163.5 538.905 1143.13 559.5 1118 559.5 1092.87 559.5 1072.5 538.905 1072.5 513.5Z" stroke="#000000" stroke-width="1.33333" stroke-miterlimit="8" fill="none" fill-rule="evenodd"/><path d="M904 228 1044.01 228 1044.01 234 904 234ZM1041.01 222 1071.01 231 1041.01 240Z"/><path d="M904 510 1044.01 510 1044.01 516 904 516ZM1041.01 504 1071.01 513 1041.01 522Z"/><path d="M906.582 229.473 1059.85 488.658 1054.69 491.712 901.418 232.527ZM1063.49 483.022 1071.01 513.426 1047.99 492.184Z"/><path d="M2.58229-1.52702 155.85 257.658 150.686 260.712-2.58229 1.52702ZM159.488 252.022 167.011 282.426 143.994 261.184Z" transform="matrix(1 0 0 -1 904 513.426)"/><path d="M130.66 222.571C130.889 221.538 131.767 217.882 134.437 217.882 134.628 217.882 135.544 217.882 136.345 218.399 135.277 218.597 134.514 219.591 134.514 220.544 134.514 221.18 134.933 221.935 135.963 221.935 136.803 221.935 138.024 221.22 138.024 219.63 138.024 217.564 135.773 217.008 134.475 217.008 132.263 217.008 130.927 219.114 130.469 220.028 129.516 217.405 127.455 217.008 126.349 217.008 122.381 217.008 120.206 222.134 120.206 223.127 120.206 223.524 120.588 223.524 120.664 223.524 120.969 223.524 121.084 223.445 121.16 223.087 122.457 218.875 124.975 217.882 126.273 217.882 126.997 217.882 128.333 218.24 128.333 220.544 128.333 221.776 127.684 224.438 126.273 230.001 125.662 232.465 124.327 234.134 122.648 234.134 122.419 234.134 121.542 234.134 120.74 233.617 121.694 233.418 122.534 232.584 122.534 231.471 122.534 230.399 121.694 230.081 121.122 230.081 119.977 230.081 119.024 231.114 119.024 232.385 119.024 234.213 120.931 235.008 122.61 235.008 125.128 235.008 126.502 232.226 126.616 231.988 127.074 233.458 128.447 235.008 130.736 235.008 134.666 235.008 136.841 229.882 136.841 228.889 136.841 228.491 136.497 228.491 136.383 228.491 136.04 228.491 135.963 228.65 135.887 228.928 134.628 233.18 132.034 234.134 130.813 234.134 129.325 234.134 128.714 232.862 128.714 231.511 128.714 230.637 128.943 229.763 129.363 228.014L130.66 222.571Z" fill-rule="evenodd"/><path d="M149.234 222.767C149.234 222.035 149.179 222.008 148.409 222.008 146.651 223.716 144.151 223.743 143.025 223.743L143.025 224.719C143.684 224.719 145.497 224.719 147.008 223.96L147.008 237.785C147.008 238.679 147.008 239.032 144.261 239.032L143.217 239.032 143.217 240.008C143.712 239.981 147.091 239.899 148.107 239.899 148.959 239.899 152.42 239.981 153.025 240.008L153.025 239.032 151.981 239.032C149.234 239.032 149.234 238.679 149.234 237.785L149.234 222.767Z" fill-rule="evenodd"/><path d="M129.274 510.571C129.515 509.538 130.439 505.882 133.25 505.882 133.451 505.882 134.414 505.882 135.258 506.399 134.133 506.597 133.33 507.591 133.33 508.544 133.33 509.18 133.772 509.935 134.856 509.935 135.74 509.935 137.025 509.22 137.025 507.63 137.025 505.564 134.655 505.008 133.29 505.008 130.961 505.008 129.555 507.114 129.073 508.028 128.069 505.405 125.9 505.008 124.736 505.008 120.559 505.008 118.27 510.134 118.27 511.127 118.27 511.524 118.671 511.524 118.752 511.524 119.073 511.524 119.193 511.445 119.274 511.087 120.639 506.875 123.29 505.882 124.655 505.882 125.418 505.882 126.824 506.24 126.824 508.544 126.824 509.776 126.141 512.438 124.655 518.001 124.013 520.465 122.607 522.134 120.84 522.134 120.599 522.134 119.675 522.134 118.832 521.617 119.836 521.418 120.72 520.584 120.72 519.471 120.72 518.399 119.836 518.081 119.234 518.081 118.029 518.081 117.025 519.114 117.025 520.385 117.025 522.213 119.033 523.008 120.8 523.008 123.45 523.008 124.896 520.226 125.017 519.988 125.499 521.458 126.944 523.008 129.354 523.008 133.491 523.008 135.78 517.882 135.78 516.889 135.78 516.491 135.418 516.491 135.298 516.491 134.936 516.491 134.856 516.65 134.776 516.928 133.451 521.18 130.72 522.134 129.434 522.134 127.868 522.134 127.226 520.862 127.226 519.511 127.226 518.637 127.467 517.763 127.908 516.014L129.274 510.571Z" fill-rule="evenodd"/><path d="M152.025 523.8 151.102 523.8C151.02 524.43 150.749 526.118 150.396 526.404 150.178 526.576 148.088 526.576 147.708 526.576L142.712 526.576C145.563 523.915 146.513 523.114 148.142 521.769 150.151 520.081 152.025 518.306 152.025 515.588 152.025 512.126 149.147 510.008 145.672 510.008 142.305 510.008 140.025 512.498 140.025 515.13 140.025 516.59 141.192 516.733 141.463 516.733 142.115 516.733 142.902 516.246 142.902 515.216 142.902 514.701 142.712 513.699 141.301 513.699 142.142 511.668 143.988 511.038 145.264 511.038 147.979 511.038 149.391 513.27 149.391 515.588 149.391 518.078 147.708 520.052 146.839 521.082L140.296 527.892C140.025 528.15 140.025 528.207 140.025 529.008L151.21 529.008 152.025 523.8Z" fill-rule="evenodd"/><path d="M1119.86 221.365C1120.03 220.824 1120.03 220.746 1120.03 220.476 1120.03 219.78 1119.45 219.433 1118.83 219.433 1118.42 219.433 1117.76 219.665 1117.39 220.244 1117.3 220.437 1116.97 221.635 1116.81 222.331 1116.52 223.335 1116.23 224.379 1115.99 225.422L1114.13 232.377C1113.97 232.957 1112.19 235.661 1109.47 235.661 1107.37 235.661 1106.92 233.961 1106.92 232.532 1106.92 230.754 1107.62 228.358 1109.02 224.958 1109.68 223.374 1109.84 222.949 1109.84 222.176 1109.84 220.437 1108.53 219.008 1106.47 219.008 1102.55 219.008 1101.02 224.61 1101.02 224.958 1101.02 225.345 1101.44 225.345 1101.52 225.345 1101.93 225.345 1101.97 225.267 1102.18 224.649 1103.29 221.017 1104.94 219.858 1106.34 219.858 1106.67 219.858 1107.37 219.858 1107.37 221.094 1107.37 222.06 1106.96 223.065 1106.67 223.799 1105.02 227.895 1104.28 230.097 1104.28 231.913 1104.28 235.352 1106.88 236.511 1109.31 236.511 1110.92 236.511 1112.32 235.855 1113.47 234.773 1112.94 236.782 1112.44 238.675 1110.79 240.723 1109.72 242.037 1108.16 243.158 1106.26 243.158 1105.68 243.158 1103.83 243.042 1103.13 241.535 1103.79 241.535 1104.32 241.535 1104.9 241.071 1105.31 240.723 1105.72 240.221 1105.72 239.487 1105.72 238.289 1104.61 238.134 1104.2 238.134 1103.25 238.134 1101.89 238.753 1101.89 240.646 1101.89 242.578 1103.7 244.008 1106.26 244.008 1110.5 244.008 1114.75 240.491 1115.9 236.125L1119.86 221.365Z" fill-rule="evenodd"/><path d="M1129.23 224.767C1129.23 224.035 1129.18 224.008 1128.41 224.008 1126.65 225.716 1124.15 225.743 1123.02 225.743L1123.02 226.719C1123.68 226.719 1125.5 226.719 1127.01 225.96L1127.01 239.785C1127.01 240.679 1127.01 241.032 1124.26 241.032L1123.22 241.032 1123.22 242.008C1123.71 241.981 1127.09 241.899 1128.11 241.899 1128.96 241.899 1132.42 241.981 1133.02 242.008L1133.02 241.032 1131.98 241.032C1129.23 241.032 1129.23 240.679 1129.23 239.785L1129.23 224.767Z" fill-rule="evenodd"/><path d="M1118.86 509.365C1119.03 508.824 1119.03 508.746 1119.03 508.476 1119.03 507.78 1118.45 507.433 1117.83 507.433 1117.42 507.433 1116.76 507.665 1116.39 508.244 1116.3 508.437 1115.97 509.635 1115.81 510.331 1115.52 511.335 1115.23 512.379 1114.99 513.422L1113.13 520.377C1112.97 520.957 1111.19 523.661 1108.47 523.661 1106.37 523.661 1105.92 521.961 1105.92 520.532 1105.92 518.754 1106.62 516.358 1108.02 512.958 1108.68 511.374 1108.84 510.949 1108.84 510.176 1108.84 508.437 1107.53 507.008 1105.47 507.008 1101.55 507.008 1100.02 512.61 1100.02 512.958 1100.02 513.345 1100.44 513.345 1100.52 513.345 1100.93 513.345 1100.97 513.267 1101.18 512.649 1102.29 509.017 1103.94 507.858 1105.34 507.858 1105.67 507.858 1106.37 507.858 1106.37 509.094 1106.37 510.06 1105.96 511.065 1105.67 511.799 1104.02 515.895 1103.28 518.097 1103.28 519.913 1103.28 523.352 1105.88 524.511 1108.31 524.511 1109.92 524.511 1111.32 523.855 1112.47 522.773 1111.94 524.782 1111.44 526.675 1109.79 528.723 1108.72 530.037 1107.16 531.158 1105.26 531.158 1104.68 531.158 1102.83 531.042 1102.13 529.535 1102.79 529.535 1103.32 529.535 1103.9 529.071 1104.31 528.723 1104.72 528.221 1104.72 527.487 1104.72 526.289 1103.61 526.134 1103.2 526.134 1102.25 526.134 1100.89 526.753 1100.89 528.646 1100.89 530.578 1102.7 532.008 1105.26 532.008 1109.5 532.008 1113.75 528.491 1114.9 524.125L1118.86 509.365Z" fill-rule="evenodd"/><path d="M1133.03 525.074 1132.03 525.074C1131.94 525.67 1131.64 527.27 1131.26 527.541 1131.03 527.704 1128.76 527.704 1128.35 527.704L1122.94 527.704C1126.03 525.182 1127.06 524.423 1128.82 523.149 1131 521.55 1133.03 519.869 1133.03 517.294 1133.03 514.014 1129.91 512.008 1126.14 512.008 1122.5 512.008 1120.03 514.366 1120.03 516.86 1120.03 518.243 1121.29 518.378 1121.58 518.378 1122.29 518.378 1123.14 517.917 1123.14 516.941 1123.14 516.454 1122.94 515.505 1121.41 515.505 1122.32 513.58 1124.32 512.984 1125.7 512.984 1128.64 512.984 1130.17 515.098 1130.17 517.294 1130.17 519.652 1128.35 521.523 1127.41 522.499L1120.32 528.951C1120.03 529.195 1120.03 529.249 1120.03 530.008L1132.14 530.008 1133.03 525.074Z" fill-rule="evenodd"/></g></svg>