<svg width="1280" height="720" xmlns="http://www.w3.org/2000/svg" xmlns:xlink="http://www.w3.org/1999/xlink" overflow="hidden"><defs><clipPath id="clip0"><rect x="0" y="0" width="1280" height="720"/></clipPath></defs><g clip-path="url(#clip0)"><rect x="0" y="0" width="1280" height="720" fill="#FFFFFF"/><path d="M394.5 141C394.5 101.512 426.736 69.5001 466.5 69.5001 506.265 69.5001 538.5 101.512 538.5 141 538.5 180.488 506.265 212.5 466.5 212.5 426.736 212.5 394.5 180.488 394.5 141Z" stroke="#000000" stroke-width="1.33333" stroke-miterlimit="8" fill="#C9C9C9" fill-rule="evenodd"/><path d="M472.312 117.921C472.312 116.155 472.312 116.008 470.709 116.008 466.388 120.716 460.255 120.716 458.024 120.716L458.024 122.997C459.418 122.997 463.53 122.997 467.155 121.084L467.155 159.195C467.155 161.844 466.945 162.727 460.673 162.727L458.442 162.727 458.442 165.008C460.882 164.787 466.945 164.787 469.733 164.787 472.521 164.787 478.585 164.787 481.024 165.008L481.024 162.727 478.794 162.727C472.521 162.727 472.312 161.918 472.312 159.195L472.312 117.921Z" fill-rule="evenodd"/><path d="M457.622 582.279C458.008 580.557 459.486 574.465 463.984 574.465 464.305 574.465 465.847 574.465 467.197 575.326 465.397 575.657 464.112 577.312 464.112 578.902 464.112 579.961 464.819 581.22 466.554 581.22 467.968 581.22 470.024 580.028 470.024 577.379 470.024 573.935 466.233 573.008 464.048 573.008 460.321 573.008 458.072 576.518 457.301 578.041 455.695 573.67 452.225 573.008 450.361 573.008 443.678 573.008 440.016 581.551 440.016 583.206 440.016 583.869 440.658 583.869 440.787 583.869 441.301 583.869 441.494 583.736 441.622 583.14 443.807 576.12 448.048 574.465 450.233 574.465 451.454 574.465 453.703 575.061 453.703 578.902 453.703 580.955 452.61 585.392 450.233 594.663 449.205 598.769 446.956 601.551 444.128 601.551 443.743 601.551 442.265 601.551 440.915 600.69 442.522 600.359 443.935 598.968 443.935 597.114 443.935 595.326 442.522 594.796 441.558 594.796 439.63 594.796 438.024 596.518 438.024 598.637 438.024 601.683 441.237 603.008 444.064 603.008 448.305 603.008 450.618 598.372 450.811 597.975 451.582 600.425 453.895 603.008 457.751 603.008 464.369 603.008 468.032 594.465 468.032 592.809 468.032 592.147 467.454 592.147 467.261 592.147 466.682 592.147 466.554 592.412 466.425 592.875 464.305 599.961 459.935 601.551 457.879 601.551 455.373 601.551 454.345 599.432 454.345 597.18 454.345 595.723 454.731 594.266 455.438 591.352L457.622 582.279Z" fill-rule="evenodd"/><path d="M496.025 603.511 494.486 603.511C494.35 604.538 493.898 607.293 493.31 607.76 492.948 608.04 489.463 608.04 488.83 608.04L480.504 608.04C485.255 603.698 486.839 602.391 489.554 600.196 492.902 597.442 496.025 594.547 496.025 590.112 496.025 584.463 491.228 581.008 485.436 581.008 479.826 581.008 476.025 585.07 476.025 589.365 476.025 591.746 477.97 591.979 478.423 591.979 479.509 591.979 480.821 591.186 480.821 589.505 480.821 588.665 480.504 587.031 478.151 587.031 479.554 583.716 482.631 582.689 484.758 582.689 489.282 582.689 491.635 586.33 491.635 590.112 491.635 594.174 488.83 597.395 487.382 599.076L476.477 610.187C476.025 610.607 476.025 610.701 476.025 612.008L494.667 612.008 496.025 603.511Z" fill-rule="evenodd"/><path d="M394.5 588.5C394.5 548.736 426.736 516.5 466.5 516.5 506.265 516.5 538.5 548.736 538.5 588.5 538.5 628.265 506.265 660.5 466.5 660.5 426.736 660.5 394.5 628.265 394.5 588.5Z" stroke="#000000" stroke-width="1.33333" stroke-miterlimit="8" fill="none" fill-rule="evenodd"/><path d="M747.5 365C747.5 302.316 798.316 251.5 861 251.5 923.684 251.5 974.5 302.316 974.5 365 974.5 427.684 923.684 478.5 861 478.5 798.316 478.5 747.5 427.684 747.5 365Z" stroke="#000000" stroke-width="1.33333" stroke-miterlimit="8" fill="none" fill-rule="evenodd"/><path d="M946.799 354.213C947.025 353.478 947.025 353.372 947.025 353.005 947.025 352.059 946.235 351.586 945.389 351.586 944.825 351.586 943.923 351.901 943.415 352.689 943.302 352.952 942.851 354.581 942.625 355.527 942.231 356.893 941.836 358.312 941.497 359.731L938.959 369.19C938.734 369.978 936.309 373.657 932.586 373.657 929.71 373.657 929.09 371.345 929.09 369.4 929.09 366.983 930.048 363.725 931.966 359.1 932.868 356.946 933.094 356.368 933.094 355.317 933.094 352.952 931.289 351.008 928.469 351.008 923.111 351.008 921.025 358.628 921.025 359.1 921.025 359.626 921.589 359.626 921.701 359.626 922.265 359.626 922.322 359.521 922.604 358.68 924.126 353.74 926.383 352.164 928.3 352.164 928.751 352.164 929.71 352.164 929.71 353.845 929.71 355.159 929.146 356.525 928.751 357.524 926.495 363.094 925.48 366.09 925.48 368.56 925.48 373.237 929.033 374.813 932.361 374.813 934.56 374.813 936.478 373.92 938.057 372.448 937.324 375.181 936.647 377.756 934.391 380.541 932.925 382.328 930.782 383.852 928.187 383.852 927.398 383.852 924.86 383.694 923.901 381.645 924.803 381.645 925.536 381.645 926.326 381.014 926.89 380.541 927.454 379.858 927.454 378.859 927.454 377.23 925.931 377.02 925.367 377.02 924.07 377.02 922.209 377.861 922.209 380.436 922.209 383.063 924.69 385.008 928.187 385.008 933.996 385.008 939.806 380.226 941.385 374.288L946.799 354.213Z" fill-rule="evenodd"/><path d="M539.985 137.751 748.861 322.109 744.891 326.607 536.015 142.249ZM750.582 315.625 758.122 334.284 738.671 329.12Z"/><path d="M1.98623-2.24831 210.866 182.283 206.894 186.78-1.98623 2.24831ZM212.591 175.801 220.122 194.463 200.673 189.291Z" transform="matrix(1 0 0 -1 538 587.463)"/><path d="M619.571 330.465C619.843 329.299 620.387 327.339 620.387 327.021 620.387 326.067 619.625 325.591 618.809 325.591 618.157 325.591 617.178 326.014 616.797 327.074 616.634 327.445 614.078 337.564 613.698 338.942 613.317 340.531 613.208 341.485 613.208 342.438 613.208 343.021 613.208 343.127 613.263 343.392 612.012 346.2 610.38 347.842 608.26 347.842 603.909 347.842 603.909 343.922 603.909 343.021 603.909 341.326 604.181 339.259 606.737 332.743 607.335 331.154 607.661 330.412 607.661 329.352 607.661 326.968 605.867 325.008 603.202 325.008 598.036 325.008 596.024 332.69 596.024 333.167 596.024 333.697 596.568 333.697 596.677 333.697 597.22 333.697 597.275 333.591 597.547 332.743 599.015 327.816 601.136 326.173 603.039 326.173 603.528 326.173 604.399 326.226 604.399 327.922 604.399 329.246 603.8 330.73 603.42 331.63 601.027 337.882 600.374 340.319 600.374 342.332 600.374 347.154 604.018 349.008 608.096 349.008 609.021 349.008 611.577 349.008 613.752 345.299 615.166 348.69 618.918 349.008 620.55 349.008 624.628 349.008 627.021 345.67 628.435 342.491 630.284 338.359 632.024 331.26 632.024 328.716 632.024 325.802 630.556 325.008 629.631 325.008 628.272 325.008 626.912 326.385 626.912 327.551 626.912 328.24 627.238 328.558 627.728 328.981 628.326 329.564 629.686 330.942 629.686 333.485 629.686 335.286 628.109 340.478 626.695 343.18 625.281 345.988 623.377 347.842 620.713 347.842 618.157 347.842 616.689 346.253 616.689 343.233 616.689 341.75 617.069 340.107 617.287 339.365L619.571 330.465Z" fill-rule="evenodd"/><path d="M646.095 333.02C646.095 332.044 646.023 332.008 645.023 332.008 642.737 334.285 639.487 334.321 638.023 334.321L638.023 335.622C638.88 335.622 641.237 335.622 643.202 334.61L643.202 353.044C643.202 354.237 643.202 354.707 639.63 354.707L638.273 354.707 638.273 356.008C638.916 355.972 643.309 355.863 644.63 355.863 645.737 355.863 650.237 355.972 651.023 356.008L651.023 354.707 649.666 354.707C646.095 354.707 646.095 354.237 646.095 353.044L646.095 333.02Z" fill-rule="evenodd"/><path d="M616.916 452.465C617.18 451.299 617.709 449.339 617.709 449.021 617.709 448.067 616.969 447.591 616.176 447.591 615.541 447.591 614.59 448.014 614.22 449.074 614.061 449.445 611.576 459.564 611.206 460.942 610.836 462.531 610.73 463.485 610.73 464.438 610.73 465.021 610.73 465.127 610.783 465.392 609.567 468.2 607.981 469.842 605.919 469.842 601.689 469.842 601.689 465.922 601.689 465.021 601.689 463.326 601.954 461.259 604.439 454.743 605.02 453.154 605.337 452.412 605.337 451.352 605.337 448.968 603.593 447.008 601.002 447.008 595.979 447.008 594.023 454.69 594.023 455.167 594.023 455.697 594.552 455.697 594.658 455.697 595.186 455.697 595.239 455.591 595.504 454.743 596.931 449.816 598.993 448.173 600.844 448.173 601.319 448.173 602.165 448.226 602.165 449.922 602.165 451.246 601.584 452.73 601.214 453.63 598.887 459.882 598.253 462.319 598.253 464.332 598.253 469.154 601.795 471.008 605.76 471.008 606.659 471.008 609.144 471.008 611.259 467.299 612.634 470.69 616.282 471.008 617.868 471.008 621.833 471.008 624.159 467.67 625.534 464.491 627.331 460.359 629.023 453.26 629.023 450.716 629.023 447.802 627.596 447.008 626.697 447.008 625.375 447.008 624.053 448.385 624.053 449.551 624.053 450.24 624.371 450.558 624.846 450.981 625.428 451.564 626.75 452.942 626.75 455.485 626.75 457.286 625.217 462.478 623.842 465.18 622.467 467.988 620.617 469.842 618.026 469.842 615.541 469.842 614.114 468.253 614.114 465.233 614.114 463.75 614.484 462.107 614.695 461.365L616.916 452.465Z" fill-rule="evenodd"/><path d="M650.025 471.156 648.717 471.156C648.602 471.984 648.217 474.205 647.717 474.582 647.41 474.808 644.448 474.808 643.91 474.808L636.833 474.808C640.871 471.306 642.217 470.252 644.525 468.483 647.371 466.261 650.025 463.927 650.025 460.35 650.025 455.794 645.948 453.008 641.025 453.008 636.256 453.008 633.025 456.284 633.025 459.748 633.025 461.668 634.679 461.856 635.063 461.856 635.987 461.856 637.102 461.216 637.102 459.861 637.102 459.183 636.833 457.865 634.833 457.865 636.025 455.192 638.64 454.364 640.448 454.364 644.294 454.364 646.294 457.3 646.294 460.35 646.294 463.626 643.91 466.224 642.679 467.579L633.41 476.54C633.025 476.879 633.025 476.954 633.025 478.008L648.871 478.008 650.025 471.156Z" fill-rule="evenodd"/><path d="M457.622 358.279C458.008 356.557 459.486 350.465 463.984 350.465 464.305 350.465 465.847 350.465 467.197 351.326 465.397 351.657 464.112 353.312 464.112 354.902 464.112 355.962 464.819 357.22 466.554 357.22 467.968 357.22 470.024 356.028 470.024 353.379 470.024 349.935 466.233 349.008 464.048 349.008 460.321 349.008 458.072 352.518 457.301 354.041 455.695 349.67 452.225 349.008 450.361 349.008 443.678 349.008 440.016 357.551 440.016 359.206 440.016 359.869 440.658 359.869 440.787 359.869 441.301 359.869 441.494 359.736 441.622 359.14 443.807 352.12 448.048 350.465 450.233 350.465 451.454 350.465 453.703 351.061 453.703 354.902 453.703 356.955 452.61 361.392 450.233 370.663 449.205 374.769 446.956 377.551 444.128 377.551 443.743 377.551 442.265 377.551 440.915 376.69 442.522 376.359 443.935 374.968 443.935 373.114 443.935 371.326 442.522 370.796 441.558 370.796 439.63 370.796 438.024 372.518 438.024 374.637 438.024 377.683 441.237 379.008 444.064 379.008 448.305 379.008 450.618 374.372 450.811 373.975 451.582 376.425 453.895 379.008 457.751 379.008 464.369 379.008 468.032 370.465 468.032 368.809 468.032 368.147 467.454 368.147 467.261 368.147 466.682 368.147 466.554 368.412 466.425 368.875 464.305 375.961 459.935 377.551 457.879 377.551 455.373 377.551 454.345 375.432 454.345 373.18 454.345 371.723 454.731 370.266 455.438 367.352L457.622 358.279Z" fill-rule="evenodd"/><path d="M487.958 359.273C487.958 358.053 487.87 358.008 486.639 358.008 483.826 360.854 479.826 360.899 478.024 360.899L478.024 362.526C479.079 362.526 481.98 362.526 484.398 361.261L484.398 384.303C484.398 385.794 484.398 386.381 480.002 386.381L478.332 386.381 478.332 388.008C479.123 387.963 484.529 387.827 486.156 387.827 487.518 387.827 493.057 387.963 494.024 388.008L494.024 386.381 492.354 386.381C487.958 386.381 487.958 385.794 487.958 384.303L487.958 359.273Z" fill-rule="evenodd"/><path d="M394.5 364.5C394.5 324.736 426.736 292.5 466.5 292.5 506.265 292.5 538.5 324.736 538.5 364.5 538.5 404.265 506.265 436.5 466.5 436.5 426.736 436.5 394.5 404.265 394.5 364.5Z" stroke="#000000" stroke-width="1.33333" stroke-miterlimit="8" fill="none" fill-rule="evenodd"/><path d="M0.000642279-3 193.902-2.95849 193.901 3.04151-0.000642279 3ZM190.904-8.95913 208.902 0.0447244 190.9 9.04087Z" transform="matrix(1 0 0 -1 538 364.045)"/><path d="M625.503 163.57C625.503 163.518 625.503 163.008 624.725 163.008 623.35 163.008 618.986 163.416 617.432 163.518 616.954 163.57 616.296 163.621 616.296 164.54 616.296 165.153 616.834 165.153 617.731 165.153 620.6 165.153 620.72 165.51 620.72 166.021 620.72 166.378 620.182 168.114 619.883 169.187L614.981 185.833C614.263 188.387 614.024 189.204 614.024 190.991 614.024 195.842 617.193 199.008 621.617 199.008 628.671 199.008 636.024 191.399 636.024 184.046 636.024 179.399 632.856 175.876 628.073 175.876 625.323 175.876 622.872 177.357 621.079 178.94L625.503 163.57ZM619.883 182.872C620.242 181.748 620.242 181.646 620.78 181.084 623.709 177.765 626.399 176.999 627.954 176.999 630.106 176.999 631.72 178.531 631.72 181.799 631.72 184.812 629.747 190.684 628.671 192.625 626.698 196.046 623.948 197.884 621.617 197.884 619.584 197.884 617.611 196.506 617.611 192.727 617.611 191.757 617.611 190.786 618.568 187.57L619.883 182.872Z" fill-rule="evenodd"/><path d="M746.5 365C746.5 342.08 765.08 323.5 788 323.5 810.92 323.5 829.5 342.08 829.5 365 829.5 387.92 810.92 406.5 788 406.5 765.08 406.5 746.5 387.92 746.5 365Z" stroke="#000000" stroke-width="1.33333" stroke-miterlimit="8" fill="none" fill-rule="evenodd"/><path d="M890.5 365C890.5 342.08 909.08 323.5 932 323.5 954.92 323.5 973.5 342.08 973.5 365 973.5 387.92 954.92 406.5 932 406.5 909.08 406.5 890.5 387.92 890.5 365Z" stroke="#000000" stroke-width="1.33333" stroke-miterlimit="8" fill="none" fill-rule="evenodd"/><path d="M829 361 874.967 361 874.967 367 829 367ZM871.967 355 889.967 364 871.967 373Z"/><path d="M793.929 355.822C792.907 353.617 791.26 352.008 788.706 352.008 782.064 352.008 775.025 360.769 775.025 369.471 775.025 375.074 778.147 379.008 782.575 379.008 783.71 379.008 786.549 378.77 789.955 374.538 790.409 377.041 792.396 379.008 795.121 379.008 797.108 379.008 798.413 377.637 799.322 375.73 800.287 373.584 801.025 369.948 801.025 369.829 801.025 369.233 800.514 369.233 800.344 369.233 799.776 369.233 799.719 369.471 799.549 370.306 798.584 374.18 797.562 377.697 795.234 377.697 793.702 377.697 793.531 376.147 793.531 374.955 793.531 373.644 793.645 373.167 794.269 370.544 794.894 368.041 795.007 367.445 795.518 365.18L797.562 356.836C797.959 355.167 797.959 355.048 797.959 354.809 797.959 353.796 797.278 353.2 796.313 353.2 794.951 353.2 794.099 354.511 793.929 355.822ZM790.239 371.26C789.955 372.332 789.955 372.452 789.103 373.465 786.605 376.743 784.278 377.697 782.688 377.697 779.85 377.697 779.055 374.418 779.055 372.094 779.055 369.114 780.872 361.783 782.177 359.041 783.937 355.524 786.492 353.319 788.763 353.319 792.453 353.319 793.247 358.207 793.247 358.564 793.247 358.922 793.134 359.279 793.077 359.577L790.239 371.26Z" fill-rule="evenodd"/><path d="M832.474 294.445C832.474 294.405 832.474 294.008 831.944 294.008 831.007 294.008 828.034 294.326 826.975 294.405 826.649 294.445 826.201 294.485 826.201 295.199 826.201 295.676 826.567 295.676 827.178 295.676 829.133 295.676 829.215 295.954 829.215 296.351L829.093 297.146 823.186 320.022C823.023 320.578 823.023 320.658 823.023 320.896 823.023 321.81 823.838 322.008 824.205 322.008 824.856 322.008 825.508 321.531 825.712 320.975L826.486 317.957 827.382 314.382C827.626 313.509 827.871 312.635 828.074 311.722 828.156 311.483 828.482 310.173 828.522 309.934 828.645 309.577 829.907 307.353 831.292 306.28 832.188 305.645 833.451 304.89 835.203 304.89 836.954 304.89 837.402 306.241 837.402 307.67 837.402 309.815 835.854 314.144 834.877 316.567 834.551 317.48 834.347 317.957 834.347 318.751 834.347 320.618 835.773 322.008 837.687 322.008 841.516 322.008 843.023 316.209 843.023 315.892 843.023 315.495 842.657 315.495 842.535 315.495 842.127 315.495 842.127 315.614 841.924 316.209 841.313 318.314 840.009 321.134 837.769 321.134 837.076 321.134 836.791 320.737 836.791 319.824 836.791 318.831 837.158 317.878 837.524 317.004 838.176 315.296 840.009 310.57 840.009 308.266 840.009 305.685 838.38 304.017 835.325 304.017 832.759 304.017 830.803 305.248 829.296 307.075L832.474 294.445Z" fill-rule="evenodd"/><path d="M857.023 330.618C857.023 330.501 857.023 330.423 856.363 329.76 851.514 324.846 850.273 317.475 850.273 311.508 850.273 304.722 851.747 297.936 856.519 293.061 857.023 292.593 857.023 292.515 857.023 292.398 857.023 292.125 856.868 292.008 856.635 292.008 856.247 292.008 852.756 294.66 850.467 299.613 848.488 303.903 848.023 308.232 848.023 311.508 848.023 314.55 848.45 319.269 850.583 323.676 852.911 328.473 856.247 331.008 856.635 331.008 856.868 331.008 857.023 330.891 857.023 330.618Z" fill-rule="evenodd"/><path d="M873.273 309.571C873.514 308.538 874.438 304.882 877.249 304.882 877.45 304.882 878.414 304.882 879.257 305.399 878.133 305.597 877.329 306.591 877.329 307.544 877.329 308.18 877.771 308.935 878.855 308.935 879.739 308.935 881.024 308.22 881.024 306.63 881.024 304.564 878.655 304.008 877.289 304.008 874.96 304.008 873.554 306.114 873.072 307.028 872.068 304.405 869.9 304.008 868.735 304.008 864.558 304.008 862.269 309.134 862.269 310.127 862.269 310.525 862.671 310.525 862.751 310.525 863.072 310.525 863.193 310.445 863.273 310.087 864.639 305.876 867.289 304.882 868.655 304.882 869.418 304.882 870.823 305.24 870.823 307.544 870.823 308.776 870.141 311.439 868.655 317.001 868.012 319.465 866.606 321.134 864.839 321.134 864.598 321.134 863.675 321.134 862.831 320.617 863.835 320.419 864.719 319.584 864.719 318.472 864.719 317.399 863.835 317.081 863.233 317.081 862.028 317.081 861.024 318.114 861.024 319.385 861.024 321.213 863.032 322.008 864.799 322.008 867.45 322.008 868.896 319.227 869.016 318.988 869.498 320.458 870.944 322.008 873.353 322.008 877.49 322.008 879.779 316.882 879.779 315.889 879.779 315.492 879.418 315.492 879.297 315.492 878.936 315.492 878.855 315.65 878.775 315.929 877.45 320.18 874.719 321.134 873.434 321.134 871.867 321.134 871.225 319.862 871.225 318.511 871.225 317.637 871.466 316.763 871.908 315.015L873.273 309.571Z" fill-rule="evenodd"/><path d="M895.027 311.508C895.027 308.466 894.552 303.747 892.182 299.34 889.595 294.543 885.889 292.008 885.458 292.008 885.199 292.008 885.026 292.164 885.026 292.398 885.026 292.515 885.026 292.593 885.845 293.295 890.07 297.156 892.527 303.357 892.527 311.508 892.527 318.177 890.932 325.041 885.587 329.955 885.026 330.423 885.026 330.501 885.026 330.618 885.026 330.852 885.199 331.008 885.458 331.008 885.889 331.008 889.768 328.356 892.311 323.403 894.509 319.113 895.027 314.784 895.027 311.508Z" fill-rule="evenodd"/></g></svg>