<svg width="1280" height="720" xmlns="http://www.w3.org/2000/svg" xmlns:xlink="http://www.w3.org/1999/xlink" overflow="hidden"><defs><clipPath id="clip0"><rect x="0" y="0" width="1280" height="720"/></clipPath></defs><g clip-path="url(#clip0)"><rect x="0" y="0" width="1280" height="720" fill="#FFFFFF"/><path d="M394.5 141C394.5 101.512 426.736 69.5001 466.5 69.5001 506.265 69.5001 538.5 101.512 538.5 141 538.5 180.488 506.265 212.5 466.5 212.5 426.736 212.5 394.5 180.488 394.5 141Z" stroke="#000000" stroke-width="1.33333" stroke-miterlimit="8" fill="#C9C9C9" fill-rule="evenodd"/><path d="M472.312 117.921C472.312 116.155 472.312 116.008 470.709 116.008 466.388 120.716 460.255 120.716 458.024 120.716L458.024 122.997C459.418 122.997 463.53 122.997 467.155 121.084L467.155 159.195C467.155 161.844 466.945 162.727 460.673 162.727L458.442 162.727 458.442 165.008C460.882 164.787 466.945 164.787 469.733 164.787 472.521 164.787 478.585 164.787 481.024 165.008L481.024 162.727 478.794 162.727C472.521 162.727 472.312 161.918 472.312 159.195L472.312 117.921Z" fill-rule="evenodd"/><path d="M457.622 582.279C458.008 580.557 459.486 574.465 463.984 574.465 464.305 574.465 465.847 574.465 467.197 575.326 465.397 575.657 464.112 577.312 464.112 578.902 464.112 579.961 464.819 581.22 466.554 581.22 467.968 581.22 470.024 580.028 470.024 577.379 470.024 573.935 466.233 573.008 464.048 573.008 460.321 573.008 458.072 576.518 457.301 578.041 455.695 573.67 452.225 573.008 450.361 573.008 443.678 573.008 440.016 581.551 440.016 583.206 440.016 583.869 440.658 583.869 440.787 583.869 441.301 583.869 441.494 583.736 441.622 583.14 443.807 576.12 448.048 574.465 450.233 574.465 451.454 574.465 453.703 575.061 453.703 578.902 453.703 580.955 452.61 585.392 450.233 594.663 449.205 598.769 446.956 601.551 444.128 601.551 443.743 601.551 442.265 601.551 440.915 600.69 442.522 600.359 443.935 598.968 443.935 597.114 443.935 595.326 442.522 594.796 441.558 594.796 439.63 594.796 438.024 596.518 438.024 598.637 438.024 601.683 441.237 603.008 444.064 603.008 448.305 603.008 450.618 598.372 450.811 597.975 451.582 600.425 453.895 603.008 457.751 603.008 464.369 603.008 468.032 594.465 468.032 592.809 468.032 592.147 467.454 592.147 467.261 592.147 466.682 592.147 466.554 592.412 466.425 592.875 464.305 599.961 459.935 601.551 457.879 601.551 455.373 601.551 454.345 599.432 454.345 597.18 454.345 595.723 454.731 594.266 455.438 591.352L457.622 582.279Z" fill-rule="evenodd"/><path d="M496.025 603.511 494.486 603.511C494.35 604.538 493.898 607.293 493.31 607.76 492.948 608.04 489.463 608.04 488.83 608.04L480.504 608.04C485.255 603.698 486.839 602.391 489.554 600.196 492.902 597.442 496.025 594.547 496.025 590.112 496.025 584.463 491.228 581.008 485.436 581.008 479.826 581.008 476.025 585.07 476.025 589.365 476.025 591.746 477.97 591.979 478.423 591.979 479.509 591.979 480.821 591.186 480.821 589.505 480.821 588.665 480.504 587.031 478.151 587.031 479.554 583.716 482.631 582.689 484.758 582.689 489.282 582.689 491.635 586.33 491.635 590.112 491.635 594.174 488.83 597.395 487.382 599.076L476.477 610.187C476.025 610.607 476.025 610.701 476.025 612.008L494.667 612.008 496.025 603.511Z" fill-rule="evenodd"/><path d="M394.5 588.5C394.5 548.736 426.736 516.5 466.5 516.5 506.265 516.5 538.5 548.736 538.5 588.5 538.5 628.265 506.265 660.5 466.5 660.5 426.736 660.5 394.5 628.265 394.5 588.5Z" stroke="#000000" stroke-width="1.33333" stroke-miterlimit="8" fill="none" fill-rule="evenodd"/><path d="M746.5 364.5C746.5 324.736 778.736 292.5 818.5 292.5 858.265 292.5 890.5 324.736 890.5 364.5 890.5 404.265 858.265 436.5 818.5 436.5 778.736 436.5 746.5 404.265 746.5 364.5Z" stroke="#000000" stroke-width="1.33333" stroke-miterlimit="8" fill="none" fill-rule="evenodd"/><path d="M836.746 351.062C837.024 350.131 837.024 349.999 837.024 349.533 837.024 348.337 836.052 347.739 835.011 347.739 834.317 347.739 833.206 348.138 832.582 349.135 832.443 349.467 831.888 351.527 831.61 352.723 831.124 354.451 830.638 356.246 830.222 358.04L827.098 370.003C826.82 371 823.835 375.652 819.254 375.652 815.714 375.652 814.95 372.728 814.95 370.269 814.95 367.212 816.13 363.091 818.49 357.243 819.601 354.518 819.879 353.787 819.879 352.458 819.879 349.467 817.658 347.008 814.187 347.008 807.593 347.008 805.024 356.645 805.024 357.243 805.024 357.907 805.718 357.907 805.857 357.907 806.551 357.907 806.621 357.774 806.968 356.711 808.842 350.464 811.619 348.47 813.979 348.47 814.534 348.47 815.714 348.47 815.714 350.597 815.714 352.258 815.02 353.986 814.534 355.249 811.757 362.294 810.508 366.082 810.508 369.206 810.508 375.121 814.881 377.115 818.976 377.115 821.684 377.115 824.044 375.985 825.987 374.124 825.085 377.58 824.252 380.836 821.475 384.359 819.671 386.618 817.033 388.546 813.84 388.546 812.868 388.546 809.744 388.346 808.564 385.754 809.675 385.754 810.577 385.754 811.549 384.957 812.243 384.359 812.937 383.495 812.937 382.232 812.937 380.172 811.063 379.906 810.369 379.906 808.773 379.906 806.482 380.969 806.482 384.226 806.482 387.549 809.536 390.008 813.84 390.008 820.99 390.008 828.139 383.96 830.083 376.45L836.746 351.062Z" fill-rule="evenodd"/><path d="M539.805 137.604 757.461 301.572 753.851 306.364 536.195 142.396ZM758.675 294.974 767.636 312.993 747.844 309.351Z"/><path d="M1.80511-2.39616 219.461 161.572 215.851 166.364-1.80511 2.39616ZM220.675 154.974 229.636 172.993 209.844 169.351Z" transform="matrix(1 0 0 -1 538 587.993)"/><path d="M623.458 323.829C623.797 322.372 624.477 319.922 624.477 319.524 624.477 318.332 623.525 317.736 622.506 317.736 621.69 317.736 620.467 318.266 619.991 319.591 619.787 320.054 616.592 332.703 616.116 334.425 615.64 336.412 615.504 337.604 615.504 338.796 615.504 339.524 615.504 339.657 615.572 339.988 614.009 343.498 611.97 345.551 609.319 345.551 603.88 345.551 603.88 340.65 603.88 339.524 603.88 337.405 604.22 334.822 607.415 326.677 608.163 324.69 608.571 323.763 608.571 322.438 608.571 319.458 606.328 317.008 602.997 317.008 596.539 317.008 594.024 326.611 594.024 327.206 594.024 327.869 594.704 327.869 594.84 327.869 595.519 327.869 595.587 327.736 595.927 326.677 597.763 320.518 600.414 318.465 602.793 318.465 603.405 318.465 604.492 318.531 604.492 320.65 604.492 322.306 603.745 324.16 603.269 325.286 600.278 333.101 599.462 336.147 599.462 338.663 599.462 344.69 604.016 347.008 609.115 347.008 610.27 347.008 613.465 347.008 616.184 342.372 617.951 346.61 622.642 347.008 624.681 347.008 629.779 347.008 632.77 342.836 634.538 338.862 636.849 333.697 639.024 324.822 639.024 321.644 639.024 318.001 637.189 317.008 636.033 317.008 634.334 317.008 632.634 318.73 632.634 320.187 632.634 321.048 633.042 321.445 633.654 321.975 634.402 322.703 636.101 324.425 636.101 327.604 636.101 329.855 634.13 336.346 632.362 339.723 630.595 343.233 628.216 345.551 624.885 345.551 621.69 345.551 619.855 343.564 619.855 339.789 619.855 337.935 620.331 335.882 620.603 334.955L623.458 323.829Z" fill-rule="evenodd"/><path d="M656.579 326.315C656.579 325.055 656.486 325.008 655.178 325.008 652.189 327.949 647.939 327.996 646.024 327.996L646.024 329.677C647.145 329.677 650.227 329.677 652.796 328.37L652.796 352.18C652.796 353.72 652.796 354.327 648.126 354.327L646.351 354.327 646.351 356.008C647.192 355.961 652.936 355.821 654.664 355.821 656.112 355.821 661.997 355.961 663.024 356.008L663.024 354.327 661.25 354.327C656.579 354.327 656.579 353.72 656.579 352.18L656.579 326.315Z" fill-rule="evenodd"/><path d="M621.803 452.829C622.135 451.372 622.8 448.922 622.8 448.524 622.8 447.332 621.869 446.736 620.872 446.736 620.075 446.736 618.878 447.266 618.413 448.591 618.214 449.054 615.09 461.703 614.625 463.425 614.159 465.412 614.026 466.604 614.026 467.796 614.026 468.524 614.026 468.657 614.093 468.988 612.564 472.498 610.57 474.551 607.978 474.551 602.661 474.551 602.661 469.65 602.661 468.524 602.661 466.405 602.993 463.822 606.117 455.677 606.848 453.69 607.247 452.763 607.247 451.438 607.247 448.458 605.054 446.008 601.797 446.008 595.483 446.008 593.023 455.611 593.023 456.206 593.023 456.869 593.688 456.869 593.821 456.869 594.486 456.869 594.552 456.736 594.884 455.677 596.679 449.518 599.271 447.465 601.597 447.465 602.196 447.465 603.259 447.531 603.259 449.65 603.259 451.306 602.528 453.16 602.063 454.286 599.138 462.101 598.341 465.147 598.341 467.663 598.341 473.69 602.794 476.008 607.779 476.008 608.909 476.008 612.032 476.008 614.691 471.372 616.419 475.61 621.005 476.008 622.999 476.008 627.984 476.008 630.909 471.836 632.637 467.862 634.897 462.697 637.023 453.822 637.023 450.644 637.023 447.001 635.229 446.008 634.099 446.008 632.437 446.008 630.776 447.73 630.776 449.187 630.776 450.048 631.174 450.445 631.773 450.975 632.504 451.703 634.165 453.425 634.165 456.604 634.165 458.855 632.238 465.346 630.51 468.723 628.782 472.233 626.456 474.551 623.199 474.551 620.075 474.551 618.28 472.564 618.28 468.789 618.28 466.935 618.745 464.882 619.011 463.955L621.803 452.829Z" fill-rule="evenodd"/><path d="M663.025 476.785 661.409 476.785C661.267 477.779 660.792 480.445 660.174 480.896 659.794 481.167 656.135 481.167 655.47 481.167L646.728 481.167C651.717 476.966 653.38 475.701 656.231 473.577 659.746 470.911 663.025 468.11 663.025 463.818 663.025 458.351 657.989 455.008 651.907 455.008 646.016 455.008 642.025 458.938 642.025 463.095 642.025 465.399 644.068 465.625 644.543 465.625 645.683 465.625 647.061 464.857 647.061 463.231 647.061 462.417 646.728 460.836 644.258 460.836 645.731 457.628 648.961 456.634 651.194 456.634 655.945 456.634 658.416 460.158 658.416 463.818 658.416 467.749 655.47 470.866 653.95 472.493L642.5 483.246C642.025 483.652 642.025 483.743 642.025 485.008L661.599 485.008 663.025 476.785Z" fill-rule="evenodd"/><path d="M457.622 358.279C458.008 356.557 459.486 350.465 463.984 350.465 464.305 350.465 465.847 350.465 467.197 351.326 465.397 351.657 464.112 353.312 464.112 354.902 464.112 355.962 464.819 357.22 466.554 357.22 467.968 357.22 470.024 356.028 470.024 353.379 470.024 349.935 466.233 349.008 464.048 349.008 460.321 349.008 458.072 352.518 457.301 354.041 455.695 349.67 452.225 349.008 450.361 349.008 443.678 349.008 440.016 357.551 440.016 359.206 440.016 359.869 440.658 359.869 440.787 359.869 441.301 359.869 441.494 359.736 441.622 359.14 443.807 352.12 448.048 350.465 450.233 350.465 451.454 350.465 453.703 351.061 453.703 354.902 453.703 356.955 452.61 361.392 450.233 370.663 449.205 374.769 446.956 377.551 444.128 377.551 443.743 377.551 442.265 377.551 440.915 376.69 442.522 376.359 443.935 374.968 443.935 373.114 443.935 371.326 442.522 370.796 441.558 370.796 439.63 370.796 438.024 372.518 438.024 374.637 438.024 377.683 441.237 379.008 444.064 379.008 448.305 379.008 450.618 374.372 450.811 373.975 451.582 376.425 453.895 379.008 457.751 379.008 464.369 379.008 468.032 370.465 468.032 368.809 468.032 368.147 467.454 368.147 467.261 368.147 466.682 368.147 466.554 368.412 466.425 368.875 464.305 375.961 459.935 377.551 457.879 377.551 455.373 377.551 454.345 375.432 454.345 373.18 454.345 371.723 454.731 370.266 455.438 367.352L457.622 358.279Z" fill-rule="evenodd"/><path d="M487.958 359.273C487.958 358.053 487.87 358.008 486.639 358.008 483.826 360.854 479.826 360.899 478.024 360.899L478.024 362.526C479.079 362.526 481.98 362.526 484.398 361.261L484.398 384.303C484.398 385.794 484.398 386.381 480.002 386.381L478.332 386.381 478.332 388.008C479.123 387.963 484.529 387.827 486.156 387.827 487.518 387.827 493.057 387.963 494.024 388.008L494.024 386.381 492.354 386.381C487.958 386.381 487.958 385.794 487.958 384.303L487.958 359.273Z" fill-rule="evenodd"/><path d="M394.5 364.5C394.5 324.736 426.736 292.5 466.5 292.5 506.265 292.5 538.5 324.736 538.5 364.5 538.5 404.265 506.265 436.5 466.5 436.5 426.736 436.5 394.5 404.265 394.5 364.5Z" stroke="#000000" stroke-width="1.33333" stroke-miterlimit="8" fill="none" fill-rule="evenodd"/><path d="M538 361 731.306 361 731.306 367 538 367ZM728.306 355 746.306 364 728.306 373Z"/><path d="M638.111 146.71C638.111 146.646 638.111 146.008 637.157 146.008 635.47 146.008 630.114 146.518 628.206 146.646 627.619 146.71 626.812 146.774 626.812 147.923 626.812 148.689 627.472 148.689 628.573 148.689 632.095 148.689 632.241 149.135 632.241 149.774 632.241 150.221 631.581 152.391 631.214 153.731L625.198 174.54C624.317 177.731 624.024 178.753 624.024 180.987 624.024 187.05 627.912 191.008 633.342 191.008 642 191.008 651.024 181.497 651.024 172.306 651.024 166.497 647.135 162.093 641.266 162.093 637.891 162.093 634.883 163.944 632.682 165.923L638.111 146.71ZM631.214 170.838C631.654 169.433 631.654 169.306 632.315 168.604 635.91 164.455 639.211 163.497 641.119 163.497 643.76 163.497 645.741 165.412 645.741 169.497 645.741 173.263 643.32 180.604 642 183.029 639.578 187.306 636.203 189.604 633.342 189.604 630.847 189.604 628.426 187.88 628.426 183.157 628.426 181.944 628.426 180.731 629.6 176.71L631.214 170.838Z" fill-rule="evenodd"/></g></svg>