<svg width="1280" height="720" xmlns="http://www.w3.org/2000/svg" xmlns:xlink="http://www.w3.org/1999/xlink" overflow="hidden"><defs><clipPath id="clip0"><rect x="0" y="0" width="1280" height="720"/></clipPath></defs><g clip-path="url(#clip0)"><rect x="0" y="0" width="1280" height="720" fill="#FFFFFF"/><path d="M175.622 260.279C176.008 258.557 177.486 252.465 181.984 252.465 182.305 252.465 183.847 252.465 185.197 253.326 183.397 253.657 182.112 255.313 182.112 256.902 182.112 257.962 182.819 259.22 184.554 259.22 185.968 259.22 188.024 258.028 188.024 255.379 188.024 251.935 184.233 251.008 182.048 251.008 178.321 251.008 176.072 254.518 175.301 256.041 173.695 251.67 170.225 251.008 168.361 251.008 161.678 251.008 158.016 259.551 158.016 261.206 158.016 261.869 158.658 261.869 158.787 261.869 159.301 261.869 159.494 261.736 159.622 261.14 161.807 254.12 166.048 252.465 168.233 252.465 169.454 252.465 171.703 253.061 171.703 256.902 171.703 258.955 170.61 263.392 168.233 272.663 167.205 276.769 164.956 279.551 162.128 279.551 161.743 279.551 160.265 279.551 158.915 278.69 160.522 278.359 161.935 276.968 161.935 275.114 161.935 273.326 160.522 272.796 159.558 272.796 157.63 272.796 156.024 274.518 156.024 276.637 156.024 279.683 159.237 281.008 162.064 281.008 166.305 281.008 168.618 276.372 168.811 275.975 169.582 278.425 171.895 281.008 175.751 281.008 182.369 281.008 186.032 272.465 186.032 270.809 186.032 270.147 185.454 270.147 185.261 270.147 184.683 270.147 184.554 270.412 184.425 270.875 182.305 277.961 177.935 279.551 175.879 279.551 173.373 279.551 172.345 277.432 172.345 275.18 172.345 273.723 172.731 272.266 173.438 269.352L175.622 260.279Z" fill-rule="evenodd"/><path d="M205.958 260.315C205.958 259.055 205.87 259.008 204.639 259.008 201.826 261.949 197.826 261.996 196.024 261.996L196.024 263.677C197.079 263.677 199.98 263.677 202.398 262.37L202.398 286.18C202.398 287.72 202.398 288.327 198.002 288.327L196.332 288.327 196.332 290.008C197.123 289.961 202.529 289.821 204.156 289.821 205.518 289.821 211.057 289.961 212.024 290.008L212.024 288.327 210.354 288.327C205.958 288.327 205.958 287.72 205.958 286.18L205.958 260.315Z" fill-rule="evenodd"/><path d="M112.5 266.5C112.5 226.736 144.736 194.5 184.5 194.5 224.265 194.5 256.5 226.736 256.5 266.5 256.5 306.265 224.265 338.5 184.5 338.5 144.736 338.5 112.5 306.265 112.5 266.5Z" stroke="#000000" stroke-width="1.33333" stroke-miterlimit="8" fill="none" fill-rule="evenodd"/><path d="M175.622 547.279C176.008 545.557 177.486 539.465 181.984 539.465 182.305 539.465 183.847 539.465 185.197 540.326 183.397 540.657 182.112 542.312 182.112 543.902 182.112 544.961 182.819 546.22 184.554 546.22 185.968 546.22 188.024 545.028 188.024 542.379 188.024 538.935 184.233 538.008 182.048 538.008 178.321 538.008 176.072 541.518 175.301 543.041 173.695 538.67 170.225 538.008 168.361 538.008 161.678 538.008 158.016 546.551 158.016 548.206 158.016 548.869 158.658 548.869 158.787 548.869 159.301 548.869 159.494 548.736 159.622 548.14 161.807 541.12 166.048 539.465 168.233 539.465 169.454 539.465 171.703 540.061 171.703 543.902 171.703 545.955 170.61 550.392 168.233 559.663 167.205 563.769 164.956 566.551 162.128 566.551 161.743 566.551 160.265 566.551 158.915 565.69 160.522 565.359 161.935 563.968 161.935 562.114 161.935 560.326 160.522 559.796 159.558 559.796 157.63 559.796 156.024 561.518 156.024 563.637 156.024 566.683 159.237 568.008 162.064 568.008 166.305 568.008 168.618 563.372 168.811 562.975 169.582 565.425 171.895 568.008 175.751 568.008 182.369 568.008 186.032 559.465 186.032 557.809 186.032 557.147 185.454 557.147 185.261 557.147 184.683 557.147 184.554 557.412 184.425 557.875 182.305 564.961 177.935 566.551 175.879 566.551 173.373 566.551 172.345 564.432 172.345 562.18 172.345 560.723 172.731 559.266 173.438 556.352L175.622 547.279Z" fill-rule="evenodd"/><path d="M214.025 568.511 212.486 568.511C212.35 569.538 211.898 572.293 211.31 572.76 210.948 573.04 207.463 573.04 206.83 573.04L198.504 573.04C203.255 568.698 204.839 567.391 207.554 565.196 210.902 562.442 214.025 559.547 214.025 555.112 214.025 549.463 209.228 546.008 203.436 546.008 197.825 546.008 194.025 550.07 194.025 554.365 194.025 556.746 195.97 556.979 196.423 556.979 197.509 556.979 198.821 556.186 198.821 554.505 198.821 553.665 198.504 552.031 196.151 552.031 197.554 548.716 200.631 547.689 202.758 547.689 207.282 547.689 209.635 551.33 209.635 555.112 209.635 559.174 206.83 562.395 205.382 564.076L194.477 575.187C194.025 575.607 194.025 575.701 194.025 577.008L212.667 577.008 214.025 568.511Z" fill-rule="evenodd"/><path d="M112.5 553.5C112.5 513.736 144.736 481.5 184.5 481.5 224.265 481.5 256.5 513.736 256.5 553.5 256.5 593.265 224.265 625.5 184.5 625.5 144.736 625.5 112.5 593.265 112.5 553.5Z" stroke="#000000" stroke-width="1.33333" stroke-miterlimit="8" fill="none" fill-rule="evenodd"/><path d="M836.5 414.5C836.5 374.736 868.512 342.5 908 342.5 947.488 342.5 979.5 374.736 979.5 414.5 979.5 454.265 947.488 486.5 908 486.5 868.512 486.5 836.5 454.265 836.5 414.5Z" stroke="#000000" stroke-width="1.33333" stroke-miterlimit="8" fill="none" fill-rule="evenodd"/><path d="M926.746 401.062C927.024 400.131 927.024 399.999 927.024 399.533 927.024 398.337 926.052 397.739 925.011 397.739 924.317 397.739 923.206 398.138 922.582 399.135 922.443 399.467 921.888 401.527 921.61 402.723 921.124 404.451 920.638 406.246 920.222 408.04L917.098 420.003C916.82 421 913.835 425.652 909.254 425.652 905.714 425.652 904.95 422.728 904.95 420.269 904.95 417.212 906.13 413.091 908.49 407.243 909.601 404.518 909.879 403.787 909.879 402.458 909.879 399.467 907.658 397.008 904.187 397.008 897.593 397.008 895.024 406.645 895.024 407.243 895.024 407.907 895.718 407.907 895.857 407.907 896.551 407.907 896.621 407.774 896.968 406.711 898.842 400.464 901.619 398.47 903.979 398.47 904.534 398.47 905.714 398.47 905.714 400.597 905.714 402.258 905.02 403.986 904.534 405.249 901.757 412.294 900.508 416.082 900.508 419.206 900.508 425.121 904.881 427.115 908.976 427.115 911.684 427.115 914.044 425.985 915.987 424.124 915.085 427.58 914.252 430.836 911.475 434.359 909.671 436.618 907.033 438.546 903.84 438.546 902.868 438.546 899.744 438.346 898.564 435.754 899.675 435.754 900.577 435.754 901.549 434.957 902.243 434.359 902.937 433.495 902.937 432.232 902.937 430.172 901.063 429.906 900.369 429.906 898.773 429.906 896.482 430.969 896.482 434.226 896.482 437.549 899.536 440.008 903.84 440.008 910.99 440.008 918.139 433.96 920.083 426.45L926.746 401.062Z" fill-rule="evenodd"/><path d="M256 263 452.803 263 452.803 269 256 269ZM449.803 257 479.803 266 449.803 275Z"/><path d="M256 550 452.803 550 452.803 556 256 556ZM449.803 544 479.803 553 449.803 562Z"/><path d="M539.144 237.757C539.144 237.689 539.144 237.008 538.297 237.008 536.798 237.008 532.04 237.552 530.346 237.689 529.825 237.757 529.108 237.825 529.108 239.05 529.108 239.867 529.694 239.867 530.672 239.867 533.8 239.867 533.93 240.344 533.93 241.025L533.735 242.387 524.285 281.604C524.024 282.557 524.024 282.693 524.024 283.101 524.024 284.667 525.328 285.008 525.914 285.008 526.957 285.008 528 284.191 528.326 283.238L529.564 278.063 530.998 271.936C531.389 270.438 531.78 268.94 532.106 267.374 532.236 266.965 532.757 264.718 532.823 264.31 533.018 263.697 535.038 259.884 537.254 258.046 538.688 256.957 540.708 255.663 543.511 255.663 546.313 255.663 547.03 257.978 547.03 260.429 547.03 264.106 544.554 271.527 542.99 275.68 542.468 277.246 542.142 278.063 542.142 279.425 542.142 282.625 544.423 285.008 547.487 285.008 553.613 285.008 556.024 275.067 556.024 274.523 556.024 273.842 555.438 273.842 555.242 273.842 554.59 273.842 554.59 274.046 554.265 275.067 553.287 278.676 551.201 283.51 547.617 283.51 546.509 283.51 546.053 282.829 546.053 281.263 546.053 279.561 546.639 277.927 547.226 276.429 548.269 273.501 551.201 265.399 551.201 261.45 551.201 257.025 548.594 254.165 543.706 254.165 539.601 254.165 536.472 256.276 534.061 259.408L539.144 237.757Z" fill-rule="evenodd"/><path d="M572.58 264.357C572.58 263.056 572.487 263.008 571.179 263.008 568.19 266.044 563.94 266.092 562.025 266.092L562.025 267.827C563.146 267.827 566.229 267.827 568.797 266.478L568.797 291.056C568.797 292.647 568.797 293.273 564.127 293.273L562.352 293.273 562.352 295.008C563.193 294.96 568.937 294.815 570.665 294.815 572.113 294.815 577.998 294.96 579.025 295.008L579.025 293.273 577.251 293.273C572.58 293.273 572.58 292.647 572.58 291.056L572.58 264.357Z" fill-rule="evenodd"/><path d="M480.5 266.5C480.5 226.736 512.512 194.5 552 194.5 591.488 194.5 623.5 226.736 623.5 266.5 623.5 306.265 591.488 338.5 552 338.5 512.512 338.5 480.5 306.265 480.5 266.5Z" stroke="#000000" stroke-width="1.33333" stroke-miterlimit="8" fill="none" fill-rule="evenodd"/><path d="M542.144 524.757C542.144 524.689 542.144 524.008 541.297 524.008 539.798 524.008 535.04 524.552 533.346 524.689 532.825 524.757 532.108 524.825 532.108 526.05 532.108 526.867 532.694 526.867 533.672 526.867 536.8 526.867 536.93 527.344 536.93 528.025L536.735 529.387 527.285 568.604C527.024 569.557 527.024 569.693 527.024 570.101 527.024 571.667 528.328 572.008 528.914 572.008 529.957 572.008 531 571.191 531.326 570.238L532.564 565.063 533.998 558.935C534.389 557.438 534.78 555.94 535.106 554.374 535.236 553.965 535.757 551.718 535.823 551.31 536.018 550.697 538.038 546.884 540.254 545.046 541.688 543.957 543.708 542.663 546.511 542.663 549.313 542.663 550.03 544.978 550.03 547.429 550.03 551.106 547.554 558.527 545.99 562.68 545.468 564.246 545.142 565.063 545.142 566.425 545.142 569.625 547.423 572.008 550.487 572.008 556.613 572.008 559.024 562.067 559.024 561.523 559.024 560.842 558.438 560.842 558.242 560.842 557.59 560.842 557.59 561.046 557.265 562.067 556.287 565.676 554.201 570.51 550.617 570.51 549.509 570.51 549.053 569.829 549.053 568.263 549.053 566.561 549.639 564.927 550.226 563.429 551.269 560.501 554.201 552.399 554.201 548.45 554.201 544.025 551.594 541.165 546.706 541.165 542.601 541.165 539.472 543.276 537.061 546.408L542.144 524.757Z" fill-rule="evenodd"/><path d="M584.025 572.511 582.486 572.511C582.35 573.538 581.898 576.292 581.31 576.759 580.948 577.039 577.463 577.039 576.83 577.039L568.504 577.039C573.255 572.698 574.839 571.39 577.554 569.196 580.902 566.442 584.025 563.547 584.025 559.112 584.025 553.463 579.228 550.008 573.436 550.008 567.826 550.008 564.025 554.07 564.025 558.365 564.025 560.746 565.97 560.979 566.423 560.979 567.509 560.979 568.821 560.185 568.821 558.505 568.821 557.664 568.504 556.03 566.151 556.03 567.554 552.716 570.631 551.689 572.758 551.689 577.282 551.689 579.635 555.33 579.635 559.112 579.635 563.173 576.83 566.395 575.382 568.076L564.477 579.187C564.025 579.607 564.025 579.701 564.025 581.008L582.667 581.008 584.025 572.511Z" fill-rule="evenodd"/><path d="M480.5 553.5C480.5 513.736 512.512 481.5 552 481.5 591.488 481.5 623.5 513.736 623.5 553.5 623.5 593.265 591.488 625.5 552 625.5 512.512 625.5 480.5 593.265 480.5 553.5Z" stroke="#000000" stroke-width="1.33333" stroke-miterlimit="8" fill="none" fill-rule="evenodd"/><path d="M258.366 264.156 465.575 530.102 460.842 533.79 253.633 267.844ZM468.464 524.048 479.803 553.244 454.265 535.111Z"/><path d="M2.3665-1.84383 209.575 264.102 204.842 267.79-2.3665 1.84383ZM212.464 258.048 223.803 287.244 198.265 269.111Z" transform="matrix(1 0 0 -1 256 553.244)"/><path d="M624.536 263.423 813.909 376.306 810.837 381.46 621.464 268.577ZM814.405 369.616 835.566 392.707 805.188 385.077Z"/><path d="M1.45195-2.62523 190.39 101.872 187.486 107.122-1.45195 2.62523ZM190.669 95.1694 212.566 117.565 181.958 110.921Z" transform="matrix(1 0 0 -1 623 552.565)"/><path d="M1067.5 414.5C1067.5 374.736 1099.51 342.5 1139 342.5 1178.49 342.5 1210.5 374.736 1210.5 414.5 1210.5 454.265 1178.49 486.5 1139 486.5 1099.51 486.5 1067.5 454.265 1067.5 414.5Z" stroke="#000000" stroke-width="1.33333" stroke-miterlimit="8" fill="none" fill-rule="evenodd"/><path d="M1107.81 400.496C1108.02 399.696 1108.02 399.581 1108.02 399.181 1108.02 398.152 1107.26 397.637 1106.45 397.637 1105.91 397.637 1105.04 397.98 1104.55 398.838 1104.44 399.124 1104.01 400.897 1103.79 401.926 1103.41 403.413 1103.03 404.957 1102.71 406.501L1100.27 416.795C1100.05 417.652 1097.72 421.655 1094.14 421.655 1091.38 421.655 1090.78 419.139 1090.78 417.023 1090.78 414.393 1091.7 410.847 1093.54 405.815 1094.41 403.47 1094.63 402.841 1094.63 401.697 1094.63 399.124 1092.89 397.008 1090.18 397.008 1085.03 397.008 1083.02 405.3 1083.02 405.815 1083.02 406.387 1083.57 406.387 1083.67 406.387 1084.22 406.387 1084.27 406.272 1084.54 405.357 1086.01 399.982 1088.18 398.266 1090.02 398.266 1090.45 398.266 1091.38 398.266 1091.38 400.096 1091.38 401.526 1090.83 403.013 1090.45 404.099 1088.28 410.161 1087.31 413.421 1087.31 416.108 1087.31 421.198 1090.72 422.914 1093.92 422.914 1096.04 422.914 1097.88 421.941 1099.4 420.34 1098.7 423.314 1098.05 426.116 1095.88 429.147 1094.47 431.091 1092.41 432.75 1089.91 432.75 1089.15 432.75 1086.71 432.578 1085.79 430.348 1086.66 430.348 1087.36 430.348 1088.12 429.662 1088.66 429.147 1089.21 428.404 1089.21 427.317 1089.21 425.544 1087.74 425.316 1087.2 425.316 1085.95 425.316 1084.16 426.23 1084.16 429.033 1084.16 431.892 1086.55 434.008 1089.91 434.008 1095.5 434.008 1101.08 428.804 1102.6 422.342L1107.81 400.496Z" fill-rule="evenodd"/><path d="M1110.75 435.173C1110.5 436.276 1110.42 436.591 1108.99 436.591 1108.52 436.591 1108.02 436.591 1108.02 437.417 1108.02 437.85 1108.35 438.008 1108.52 438.008 1109.46 438.008 1110.64 437.85 1111.61 437.85 1112.83 437.85 1114.19 438.008 1115.37 438.008 1115.69 438.008 1116.09 437.89 1116.09 437.142 1116.09 436.591 1115.59 436.591 1115.16 436.591 1114.37 436.591 1113.4 436.591 1113.4 436.118 1113.4 435.921 1113.65 434.898 1113.79 434.307 1114.22 432.221 1114.73 430.094 1115.12 428.441 1115.55 429.228 1116.66 430.764 1118.81 430.764 1123.18 430.764 1128.02 425.449 1128.02 419.583 1128.02 414.976 1125.12 413.008 1122.65 413.008 1120.42 413.008 1118.52 414.661 1117.56 415.764 1116.95 413.52 1114.94 413.008 1113.87 413.008 1112.47 413.008 1111.61 414.031 1111.03 415.095 1110.32 416.433 1109.74 418.795 1109.74 419.031 1109.74 419.543 1110.25 419.543 1110.35 419.543 1110.85 419.543 1110.89 419.425 1111.14 418.362 1111.68 416.079 1112.36 414.11 1113.76 414.11 1114.69 414.11 1114.94 414.976 1114.94 416.039 1114.94 416.472 1114.87 416.984 1114.83 417.221L1110.75 435.173ZM1117.52 417.732C1119.6 414.701 1121.39 414.11 1122.54 414.11 1123.94 414.11 1125.16 415.252 1125.16 417.929 1125.16 419.543 1124.37 423.559 1123.29 425.843 1122.4 427.772 1120.64 429.661 1118.81 429.661 1116.27 429.661 1115.62 426.63 1115.62 426.236 1115.62 426.079 1115.69 425.803 1115.73 425.646L1117.52 417.732Z" fill-rule="evenodd"/><path d="M1138.3 422.547C1138.34 422.307 1139.23 418.715 1139.31 418.516 1139.39 418.196 1140.51 416.201 1141.75 415.243 1142.17 414.924 1143.22 414.125 1144.88 414.125 1145.27 414.125 1146.24 414.165 1147.01 414.684 1145.77 415.044 1145.31 416.161 1145.31 416.879 1145.31 417.757 1145.97 418.356 1146.86 418.356 1147.75 418.356 1149.03 417.598 1149.03 415.922 1149.03 413.846 1146.9 413.008 1144.92 413.008 1142.91 413.008 1141.17 413.846 1139.46 415.842 1138.77 413.407 1136.41 413.008 1135.48 413.008 1134.04 413.008 1133.08 413.926 1132.46 415.044 1131.57 416.6 1131.03 418.915 1131.03 419.114 1131.03 419.633 1131.57 419.633 1131.68 419.633 1132.23 419.633 1132.26 419.514 1132.54 418.436 1133.12 416.001 1133.85 414.125 1135.36 414.125 1136.37 414.125 1136.64 415.004 1136.64 416.081 1136.64 416.84 1136.29 418.316 1136.02 419.394 1135.75 420.471 1135.36 422.108 1135.17 422.986L1133.93 428.094C1133.77 428.613 1133.54 429.611 1133.54 429.731 1133.54 430.609 1134.24 431.008 1134.86 431.008 1135.44 431.008 1136.21 430.649 1136.52 429.851 1136.6 429.611 1137.03 427.855 1137.26 426.857L1138.3 422.547Z" fill-rule="evenodd"/><path d="M1158.89 421.509C1159.94 421.509 1162.89 421.429 1164.91 420.671 1167.68 419.633 1168.2 417.718 1168.2 416.52 1168.2 414.325 1166.15 413.008 1163.57 413.008 1159.08 413.008 1153.02 416.68 1153.02 423.505 1153.02 427.536 1155.38 431.008 1159.75 431.008 1166.07 431.008 1169.02 427.057 1169.02 426.498 1169.02 426.259 1168.69 425.82 1168.39 425.82 1168.17 425.82 1168.09 425.899 1167.79 426.219 1164.88 429.891 1160.5 429.891 1159.83 429.891 1157.59 429.891 1156.09 428.294 1156.09 425.061 1156.09 424.502 1156.09 423.704 1156.54 421.509L1158.89 421.509ZM1156.84 420.392C1158.37 414.604 1162.52 414.125 1163.57 414.125 1165.21 414.125 1166.59 415.004 1166.59 416.52 1166.59 420.392 1160.28 420.392 1158.67 420.392L1156.84 420.392Z" fill-rule="evenodd"/><path d="M1191.88 404.201C1191.91 404.122 1192.03 403.605 1192.03 403.565 1192.03 403.366 1191.88 403.008 1191.43 403.008 1190.69 403.008 1187.63 403.326 1186.7 403.406 1186.41 403.446 1185.89 403.485 1185.89 404.32 1185.89 404.877 1186.41 404.877 1186.85 404.877 1188.62 404.877 1188.62 405.156 1188.62 405.474 1188.62 405.752 1188.55 405.991 1188.48 406.349L1186.37 415.417C1185.59 414.105 1184.34 413.07 1182.56 413.07 1177.83 413.07 1173.03 418.678 1173.03 424.406 1173.03 428.264 1175.43 431.008 1178.61 431.008 1180.6 431.008 1182.38 429.775 1183.86 428.224 1184.56 430.61 1186.7 431.008 1187.66 431.008 1188.99 431.008 1189.92 430.133 1190.58 428.9 1191.4 427.349 1191.88 425.082 1191.88 424.923 1191.88 424.406 1191.4 424.406 1191.29 424.406 1190.77 424.406 1190.73 424.565 1190.47 425.639 1190.03 427.548 1189.33 429.894 1187.77 429.894 1186.81 429.894 1186.55 429.019 1186.55 427.946 1186.55 427.19 1186.63 426.832 1186.74 426.315L1191.88 404.201ZM1184 425.639C1183.74 426.752 1182.93 427.548 1182.12 428.304 1181.79 428.622 1180.31 429.894 1178.72 429.894 1177.35 429.894 1176.02 428.86 1176.02 426.036 1176.02 423.929 1177.09 419.553 1177.94 417.963 1179.64 414.781 1181.53 414.184 1182.56 414.184 1185.15 414.184 1185.85 417.207 1185.85 417.644 1185.85 417.804 1185.78 418.082 1185.74 418.201L1184 425.639Z" fill-rule="evenodd"/><path d="M979 411 1039.13 411 1039.13 417 979 417ZM1036.13 405 1066.13 414 1036.13 423Z"/><path d="M362.684 232.101C362.888 231.226 363.296 229.756 363.296 229.518 363.296 228.803 362.725 228.445 362.113 228.445 361.624 228.445 360.89 228.763 360.604 229.557 360.482 229.836 358.565 237.425 358.279 238.458 357.994 239.65 357.912 240.365 357.912 241.081 357.912 241.518 357.912 241.597 357.953 241.796 357.015 243.902 355.791 245.134 354.201 245.134 350.938 245.134 350.938 242.193 350.938 241.518 350.938 240.246 351.142 238.697 353.059 233.809 353.507 232.617 353.752 232.061 353.752 231.266 353.752 229.478 352.406 228.008 350.408 228.008 346.533 228.008 345.024 233.769 345.024 234.127 345.024 234.524 345.432 234.524 345.513 234.524 345.921 234.524 345.962 234.445 346.166 233.809 347.267 230.114 348.858 228.882 350.285 228.882 350.652 228.882 351.305 228.922 351.305 230.193 351.305 231.187 350.856 232.299 350.571 232.975 348.776 237.663 348.287 239.491 348.287 241.001 348.287 244.617 351.019 246.008 354.078 246.008 354.772 246.008 356.689 246.008 358.32 243.226 359.38 245.769 362.195 246.008 363.418 246.008 366.477 246.008 368.272 243.505 369.332 241.12 370.719 238.021 372.024 232.697 372.024 230.789 372.024 228.604 370.923 228.008 370.229 228.008 369.21 228.008 368.19 229.041 368.19 229.915 368.19 230.432 368.435 230.67 368.802 230.988 369.251 231.425 370.27 232.458 370.27 234.365 370.27 235.716 369.087 239.61 368.027 241.637 366.967 243.743 365.539 245.134 363.541 245.134 361.624 245.134 360.522 243.942 360.522 241.677 360.522 240.564 360.808 239.332 360.971 238.776L362.684 232.101Z" fill-rule="evenodd"/><path d="M382.856 233.809C382.856 233.037 382.795 233.008 381.949 233.008 380.015 234.811 377.265 234.84 376.026 234.84L376.026 235.87C376.751 235.87 378.746 235.87 380.408 235.068L380.408 249.662C380.408 250.606 380.408 250.978 377.386 250.978L376.238 250.978 376.238 252.008C376.782 251.98 380.499 251.894 381.617 251.894 382.554 251.894 386.361 251.98 387.026 252.008L387.026 250.978 385.878 250.978C382.856 250.978 382.856 250.606 382.856 249.662L382.856 233.809Z" fill-rule="evenodd"/><path d="M366.684 575.101C366.888 574.226 367.296 572.756 367.296 572.518 367.296 571.802 366.725 571.445 366.113 571.445 365.624 571.445 364.89 571.763 364.604 572.557 364.482 572.836 362.565 580.425 362.279 581.458 361.994 582.65 361.912 583.365 361.912 584.081 361.912 584.518 361.912 584.597 361.953 584.796 361.015 586.902 359.791 588.134 358.201 588.134 354.938 588.134 354.938 585.193 354.938 584.518 354.938 583.246 355.142 581.697 357.059 576.809 357.507 575.617 357.752 575.061 357.752 574.266 357.752 572.478 356.406 571.008 354.408 571.008 350.533 571.008 349.024 576.769 349.024 577.127 349.024 577.524 349.432 577.524 349.513 577.524 349.921 577.524 349.962 577.445 350.166 576.809 351.267 573.114 352.858 571.882 354.285 571.882 354.652 571.882 355.305 571.922 355.305 573.193 355.305 574.187 354.856 575.299 354.571 575.975 352.776 580.663 352.287 582.491 352.287 584.001 352.287 587.617 355.019 589.008 358.078 589.008 358.772 589.008 360.689 589.008 362.32 586.226 363.38 588.769 366.195 589.008 367.418 589.008 370.477 589.008 372.272 586.505 373.332 584.12 374.719 581.021 376.024 575.697 376.024 573.789 376.024 571.604 374.923 571.008 374.229 571.008 373.21 571.008 372.19 572.041 372.19 572.915 372.19 573.432 372.435 573.67 372.802 573.988 373.251 574.425 374.27 575.458 374.27 577.365 374.27 578.716 373.087 582.61 372.027 584.637 370.967 586.743 369.539 588.134 367.541 588.134 365.624 588.134 364.522 586.942 364.522 584.677 364.522 583.564 364.808 582.332 364.971 581.776L366.684 575.101Z" fill-rule="evenodd"/><path d="M392.025 589.074 391.025 589.074C390.937 589.67 390.643 591.27 390.261 591.541 390.025 591.704 387.761 591.704 387.349 591.704L381.937 591.704C385.025 589.182 386.055 588.423 387.82 587.149 389.996 585.55 392.025 583.869 392.025 581.294 392.025 578.014 388.908 576.008 385.143 576.008 381.496 576.008 379.025 578.366 379.025 580.86 379.025 582.243 380.29 582.378 380.584 582.378 381.29 582.378 382.143 581.917 382.143 580.941 382.143 580.454 381.937 579.505 380.408 579.505 381.32 577.58 383.32 576.984 384.702 576.984 387.643 576.984 389.172 579.098 389.172 581.294 389.172 583.652 387.349 585.523 386.408 586.499L379.32 592.951C379.025 593.195 379.025 593.249 379.025 594.008L391.143 594.008 392.025 589.074Z" fill-rule="evenodd"/><path d="M273.684 336.101C273.888 335.226 274.296 333.756 274.296 333.518 274.296 332.802 273.725 332.445 273.113 332.445 272.624 332.445 271.89 332.763 271.604 333.557 271.482 333.836 269.565 341.425 269.279 342.458 268.994 343.65 268.912 344.365 268.912 345.081 268.912 345.518 268.912 345.597 268.953 345.796 268.015 347.902 266.791 349.134 265.201 349.134 261.938 349.134 261.938 346.193 261.938 345.518 261.938 344.246 262.142 342.697 264.059 337.809 264.507 336.617 264.752 336.061 264.752 335.266 264.752 333.478 263.406 332.008 261.408 332.008 257.533 332.008 256.024 337.769 256.024 338.127 256.024 338.524 256.432 338.524 256.513 338.524 256.921 338.524 256.962 338.445 257.166 337.809 258.267 334.114 259.858 332.882 261.285 332.882 261.652 332.882 262.305 332.922 262.305 334.193 262.305 335.187 261.856 336.299 261.571 336.975 259.776 341.663 259.287 343.491 259.287 345.001 259.287 348.617 262.019 350.008 265.078 350.008 265.772 350.008 267.689 350.008 269.32 347.226 270.38 349.769 273.195 350.008 274.418 350.008 277.477 350.008 279.272 347.505 280.332 345.12 281.719 342.021 283.024 336.697 283.024 334.789 283.024 332.604 281.923 332.008 281.229 332.008 280.21 332.008 279.19 333.041 279.19 333.915 279.19 334.432 279.435 334.67 279.802 334.988 280.251 335.425 281.27 336.458 281.27 338.365 281.27 339.716 280.087 343.61 279.027 345.637 277.967 347.743 276.539 349.134 274.541 349.134 272.624 349.134 271.522 347.942 271.522 345.677 271.522 344.564 271.808 343.332 271.971 342.776L273.684 336.101Z" fill-rule="evenodd"/><path d="M291.214 346.175C293.418 346.175 295.001 347.675 295.001 350.647 295.001 354.091 292.966 355.119 291.327 355.119 290.196 355.119 287.709 354.814 286.522 353.175 287.851 353.119 288.161 352.202 288.161 351.619 288.161 350.73 287.483 350.091 286.607 350.091 285.816 350.091 285.024 350.564 285.024 351.702 285.024 354.314 287.964 356.008 291.383 356.008 295.311 356.008 298.024 353.425 298.024 350.647 298.024 348.48 296.216 346.314 293.107 345.675 296.074 344.619 297.148 342.536 297.148 340.841 297.148 338.647 294.577 337.008 291.44 337.008 288.303 337.008 285.901 338.508 285.901 340.73 285.901 341.675 286.522 342.202 287.37 342.202 288.246 342.202 288.811 341.564 288.811 340.786 288.811 339.98 288.246 339.397 287.37 339.341 288.359 338.119 290.309 337.814 291.355 337.814 292.627 337.814 294.407 338.425 294.407 340.841 294.407 342.008 294.011 343.286 293.277 344.147 292.344 345.202 291.553 345.258 290.14 345.341 289.433 345.397 289.377 345.397 289.235 345.425 289.179 345.425 288.953 345.48 288.953 345.786 288.953 346.175 289.207 346.175 289.687 346.175L291.214 346.175Z" fill-rule="evenodd"/><path d="M273.684 466.101C273.888 465.226 274.296 463.756 274.296 463.518 274.296 462.802 273.725 462.445 273.113 462.445 272.624 462.445 271.89 462.763 271.604 463.557 271.482 463.836 269.565 471.425 269.279 472.458 268.994 473.65 268.912 474.365 268.912 475.081 268.912 475.518 268.912 475.597 268.953 475.796 268.015 477.902 266.791 479.134 265.201 479.134 261.938 479.134 261.938 476.193 261.938 475.518 261.938 474.246 262.142 472.697 264.059 467.809 264.507 466.617 264.752 466.061 264.752 465.266 264.752 463.478 263.406 462.008 261.408 462.008 257.533 462.008 256.024 467.769 256.024 468.127 256.024 468.524 256.432 468.524 256.513 468.524 256.921 468.524 256.962 468.445 257.166 467.809 258.267 464.114 259.858 462.882 261.285 462.882 261.652 462.882 262.305 462.922 262.305 464.193 262.305 465.187 261.856 466.299 261.571 466.975 259.776 471.663 259.287 473.491 259.287 475.001 259.287 478.617 262.019 480.008 265.078 480.008 265.772 480.008 267.689 480.008 269.32 477.226 270.38 479.769 273.195 480.008 274.418 480.008 277.477 480.008 279.272 477.505 280.332 475.12 281.719 472.021 283.024 466.697 283.024 464.789 283.024 462.604 281.923 462.008 281.229 462.008 280.21 462.008 279.19 463.041 279.19 463.915 279.19 464.432 279.435 464.67 279.802 464.988 280.251 465.425 281.27 466.458 281.27 468.365 281.27 469.716 280.087 473.61 279.027 475.637 277.967 477.743 276.539 479.134 274.541 479.134 272.624 479.134 271.522 477.942 271.522 475.677 271.522 474.564 271.808 473.332 271.971 472.776L273.684 466.101Z" fill-rule="evenodd"/><path d="M299.025 481.385 299.025 480.37 295.853 480.37 295.853 467.797C295.853 467.205 295.853 467.008 295.225 467.008 294.882 467.008 294.768 467.008 294.482 467.403L285.025 480.37 285.025 481.385 293.425 481.385 293.425 483.697C293.425 484.655 293.425 484.993 291.11 484.993L290.339 484.993 290.339 486.008C291.768 485.952 293.596 485.895 294.625 485.895 295.682 485.895 297.51 485.952 298.939 486.008L298.939 484.993 298.168 484.993C295.853 484.993 295.853 484.655 295.853 483.697L295.853 481.385 299.025 481.385ZM293.625 470.053 293.625 480.37 286.082 480.37 293.625 470.053Z" fill-rule="evenodd"/><path d="M730.684 295.101C730.888 294.226 731.296 292.756 731.296 292.518 731.296 291.802 730.725 291.445 730.113 291.445 729.624 291.445 728.89 291.763 728.604 292.557 728.482 292.836 726.565 300.425 726.279 301.458 725.994 302.65 725.912 303.365 725.912 304.081 725.912 304.518 725.912 304.597 725.953 304.796 725.015 306.902 723.791 308.134 722.201 308.134 718.938 308.134 718.938 305.193 718.938 304.518 718.938 303.246 719.142 301.697 721.059 296.809 721.507 295.617 721.752 295.061 721.752 294.266 721.752 292.478 720.406 291.008 718.408 291.008 714.533 291.008 713.024 296.769 713.024 297.127 713.024 297.524 713.432 297.524 713.513 297.524 713.921 297.524 713.962 297.445 714.166 296.809 715.267 293.114 716.858 291.882 718.285 291.882 718.652 291.882 719.305 291.922 719.305 293.193 719.305 294.187 718.856 295.299 718.571 295.975 716.776 300.663 716.287 302.491 716.287 304.001 716.287 307.617 719.019 309.008 722.078 309.008 722.772 309.008 724.689 309.008 726.32 306.226 727.38 308.769 730.195 309.008 731.418 309.008 734.477 309.008 736.272 306.505 737.332 304.12 738.719 301.021 740.024 295.697 740.024 293.789 740.024 291.604 738.923 291.008 738.229 291.008 737.21 291.008 736.19 292.041 736.19 292.915 736.19 293.432 736.435 293.67 736.802 293.988 737.251 294.425 738.27 295.458 738.27 297.365 738.27 298.716 737.087 302.61 736.027 304.637 734.967 306.743 733.539 308.134 731.541 308.134 729.624 308.134 728.522 306.942 728.522 304.677 728.522 303.564 728.808 302.332 728.971 301.776L730.684 295.101Z" fill-rule="evenodd"/><path d="M745.731 298.952C747.231 299.314 748.114 299.314 748.584 299.314 752.467 299.314 754.761 296.814 754.761 296.397 754.761 296.091 754.555 296.008 754.408 296.008 754.349 296.008 754.29 296.008 754.172 296.091 753.467 296.341 751.908 296.897 749.731 296.897 748.908 296.897 747.349 296.841 745.437 296.147 745.143 296.008 745.084 296.008 745.055 296.008 744.673 296.008 744.673 296.314 744.673 296.758L744.673 304.952C744.673 305.425 744.673 305.758 745.143 305.758 745.408 305.758 745.437 305.702 745.731 305.369 746.996 303.841 748.79 303.619 749.82 303.619 751.584 303.619 752.378 304.952 752.525 305.175 753.055 306.091 753.231 307.147 753.231 308.758 753.231 309.591 753.231 311.23 752.349 312.452 751.614 313.452 750.349 314.119 748.908 314.119 746.996 314.119 745.025 313.119 744.29 311.286 745.408 311.369 745.967 310.675 745.967 309.925 745.967 308.73 744.878 308.508 744.496 308.508 744.437 308.508 743.025 308.508 743.025 310.008 743.025 312.508 745.437 315.008 748.967 315.008 752.731 315.008 756.025 312.369 756.025 308.869 756.025 305.73 753.496 302.841 749.849 302.841 748.555 302.841 747.025 303.147 745.731 304.202L745.731 298.952Z" fill-rule="evenodd"/><path d="M733.684 525.101C733.888 524.226 734.296 522.756 734.296 522.518 734.296 521.802 733.725 521.445 733.113 521.445 732.624 521.445 731.89 521.763 731.604 522.557 731.482 522.836 729.565 530.425 729.279 531.458 728.994 532.65 728.912 533.365 728.912 534.081 728.912 534.518 728.912 534.597 728.953 534.796 728.015 536.902 726.791 538.134 725.201 538.134 721.938 538.134 721.938 535.193 721.938 534.518 721.938 533.246 722.142 531.697 724.059 526.809 724.507 525.617 724.752 525.061 724.752 524.266 724.752 522.478 723.406 521.008 721.408 521.008 717.533 521.008 716.024 526.769 716.024 527.127 716.024 527.524 716.432 527.524 716.513 527.524 716.921 527.524 716.962 527.445 717.166 526.809 718.267 523.114 719.858 521.882 721.285 521.882 721.652 521.882 722.305 521.922 722.305 523.193 722.305 524.187 721.856 525.299 721.571 525.975 719.776 530.663 719.287 532.491 719.287 534.001 719.287 537.617 722.019 539.008 725.078 539.008 725.772 539.008 727.689 539.008 729.32 536.226 730.38 538.769 733.195 539.008 734.418 539.008 737.477 539.008 739.272 536.505 740.332 534.12 741.719 531.021 743.024 525.697 743.024 523.789 743.024 521.604 741.923 521.008 741.229 521.008 740.21 521.008 739.19 522.041 739.19 522.915 739.19 523.432 739.435 523.67 739.802 523.988 740.251 524.425 741.27 525.458 741.27 527.365 741.27 528.716 740.087 532.61 739.027 534.637 737.967 536.743 736.539 538.134 734.541 538.134 732.624 538.134 731.522 536.942 731.522 534.677 731.522 533.564 731.808 532.332 731.971 531.776L733.684 525.101Z" fill-rule="evenodd"/><path d="M748.737 535.369C748.737 533.091 748.935 531.036 750.009 529.341 750.97 527.841 752.496 526.814 754.305 526.814 755.153 526.814 756.283 527.036 756.848 527.786 756.142 527.841 755.548 528.314 755.548 529.119 755.548 529.814 756.029 530.425 756.877 530.425 757.724 530.425 758.233 529.869 758.233 529.064 758.233 527.452 757.046 526.008 754.248 526.008 750.179 526.008 746.024 529.675 746.024 535.647 746.024 542.841 749.472 545.008 752.581 545.008 756.029 545.008 759.024 542.425 759.024 538.786 759.024 535.258 756.17 532.647 752.864 532.647 750.603 532.647 749.359 534.119 748.737 535.369ZM752.581 544.119C751.168 544.119 750.066 543.314 749.472 542.091 749.048 541.258 748.822 539.869 748.822 538.202 748.822 535.508 750.461 533.425 752.722 533.425 754.022 533.425 754.898 533.925 755.605 534.952 756.283 536.008 756.311 537.175 756.311 538.786 756.311 540.369 756.311 541.536 755.548 542.619 754.87 543.591 753.966 544.119 752.581 544.119Z" fill-rule="evenodd"/><path d="M0.73406-1.30811 77.8632 41.9737 76.3951 44.5899-0.73406 1.30811ZM78.0232 38.6234 83.6697 46.9521 73.6189 46.4721Z" fill="#FF0000" transform="matrix(-1 0 0 1 759.17 462.5)"/><path d="M755.493 359.567 680.172 314.631 681.709 312.055 757.03 356.991ZM679.923 317.976 674.5 309.5 684.535 310.247Z" fill="#FF0000"/><path d="M1.66691e-06-1.5 86.9741-1.4999 86.9741 1.5001-1.66691e-06 1.5ZM85.4741-4.4999 94.4741 0.000104987 85.4741 4.50009Z" fill="#FF0000" transform="matrix(-1 0 0 1 418.974 541.5)"/><path d="M1.66691e-06-1.5 86.9741-1.4999 86.9741 1.5001-1.66691e-06 1.5ZM85.4741-4.4999 94.4741 0.000104987 85.4741 4.50009Z" fill="#FF0000" transform="matrix(-1 0 0 1 413.974 279.5)"/><path d="M353.934 372.008 308.931 314.336 311.297 312.49 356.299 370.162ZM307.489 317.364 305.5 307.5 314.584 311.827Z" fill="#FF0000"/><path d="M1.17525-0.93209 47.7562 57.8006 45.4057 59.6648-1.17525 0.93209ZM49.1746 54.7612 51.2414 64.6089 42.1231 60.3537Z" fill="#FF0000" transform="matrix(-1 0 0 1 356.741 443.5)"/><text font-family="Malgun Gothic,Malgun Gothic_MSFontService,sans-serif" font-weight="400" font-size="24" transform="translate(695.543 418)">수정<tspan font-size="24" x="-363.591" y="-100">수정</tspan><tspan font-size="24" x="-366.042" y="104">수정</tspan></text><path d="M113 146 346.678 146 346.678 150 113 150ZM115 154 103 148 115 142ZM344.678 142 356.678 148 344.678 154Z"/><path d="M370 146 730.633 146 730.633 150 370 150ZM372 154 360 148 372 142ZM728.632 142 740.632 148 728.632 154Z"/><path d="M754 146 1182.3 146 1182.3 150 754 150ZM756 154 744 148 756 142ZM1180.3 142 1192.3 148 1180.3 154Z"/><text font-family="KoPubWorldDotum Medium,KoPubWorldDotum Medium_MSFontService,sans-serif" font-weight="500" font-size="21" transform="translate(181.263 135)">Input Layer<tspan font-size="21" x="306.771" y="0">Hidden Layer</tspan><tspan font-size="21" x="735.519" y="-2">Output Layer</tspan></text><path d="M103 89 1181.9 89.0001 1181.9 93.0001 103 93ZM1179.9 85.0001 1191.9 91.0001 1179.9 97.0001Z" fill="#4472C4"/><text font-family="KoPubWorldDotum Bold,KoPubWorldDotum Bold_MSFontService,sans-serif" font-weight="700" font-size="27" transform="translate(565.012 73)">Feedforward</text><path d="M117.999 649 1196.9 649 1196.9 653 117.999 653ZM120 657 108 651 120 645Z" fill="#FF0000"/><text font-family="KoPubWorldDotum Bold,KoPubWorldDotum Bold_MSFontService,sans-serif" font-weight="700" font-size="27" transform="translate(542.412 684)">Backpropagation</text></g></svg>