<svg width="1280" height="720" xmlns="http://www.w3.org/2000/svg" xmlns:xlink="http://www.w3.org/1999/xlink" overflow="hidden"><defs><clipPath id="clip0"><rect x="0" y="0" width="1280" height="720"/></clipPath></defs><g clip-path="url(#clip0)"><rect x="0" y="0" width="1280" height="720" fill="#FFFFFF"/><path d="M269.622 210.279C270.008 208.557 271.486 202.465 275.984 202.465 276.305 202.465 277.847 202.465 279.197 203.326 277.397 203.657 276.112 205.313 276.112 206.902 276.112 207.962 276.819 209.22 278.554 209.22 279.968 209.22 282.024 208.028 282.024 205.379 282.024 201.935 278.233 201.008 276.048 201.008 272.321 201.008 270.072 204.518 269.301 206.041 267.695 201.67 264.225 201.008 262.361 201.008 255.678 201.008 252.016 209.551 252.016 211.206 252.016 211.869 252.658 211.869 252.787 211.869 253.301 211.869 253.494 211.736 253.622 211.14 255.807 204.12 260.048 202.465 262.233 202.465 263.454 202.465 265.703 203.061 265.703 206.902 265.703 208.955 264.61 213.392 262.233 222.663 261.205 226.769 258.956 229.551 256.128 229.551 255.743 229.551 254.265 229.551 252.915 228.69 254.522 228.359 255.935 226.968 255.935 225.114 255.935 223.326 254.522 222.796 253.558 222.796 251.63 222.796 250.024 224.518 250.024 226.637 250.024 229.683 253.237 231.008 256.064 231.008 260.305 231.008 262.618 226.372 262.811 225.975 263.582 228.425 265.895 231.008 269.751 231.008 276.369 231.008 280.032 222.465 280.032 220.809 280.032 220.147 279.454 220.147 279.261 220.147 278.682 220.147 278.554 220.412 278.425 220.875 276.305 227.961 271.935 229.551 269.879 229.551 267.373 229.551 266.345 227.432 266.345 225.18 266.345 223.723 266.731 222.266 267.438 219.352L269.622 210.279Z" fill-rule="evenodd"/><path d="M299.958 211.315C299.958 210.055 299.87 210.008 298.639 210.008 295.826 212.949 291.826 212.996 290.024 212.996L290.024 214.677C291.079 214.677 293.98 214.677 296.398 213.37L296.398 237.18C296.398 238.72 296.398 239.327 292.002 239.327L290.332 239.327 290.332 241.008C291.123 240.961 296.529 240.821 298.156 240.821 299.518 240.821 305.057 240.961 306.024 241.008L306.024 239.327 304.354 239.327C299.958 239.327 299.958 238.72 299.958 237.18L299.958 211.315Z" fill-rule="evenodd"/><path d="M206.5 217C206.5 177.512 238.736 145.5 278.5 145.5 318.265 145.5 350.5 177.512 350.5 217 350.5 256.488 318.265 288.5 278.5 288.5 238.736 288.5 206.5 256.488 206.5 217Z" stroke="#000000" stroke-width="1.33333" stroke-miterlimit="8" fill="none" fill-rule="evenodd"/><path d="M269.622 498.279C270.008 496.557 271.486 490.465 275.984 490.465 276.305 490.465 277.847 490.465 279.197 491.326 277.397 491.657 276.112 493.312 276.112 494.902 276.112 495.962 276.819 497.22 278.554 497.22 279.968 497.22 282.024 496.028 282.024 493.379 282.024 489.935 278.233 489.008 276.048 489.008 272.321 489.008 270.072 492.518 269.301 494.041 267.695 489.67 264.225 489.008 262.361 489.008 255.678 489.008 252.016 497.551 252.016 499.206 252.016 499.869 252.658 499.869 252.787 499.869 253.301 499.869 253.494 499.736 253.622 499.14 255.807 492.12 260.048 490.465 262.233 490.465 263.454 490.465 265.703 491.061 265.703 494.902 265.703 496.955 264.61 501.392 262.233 510.663 261.205 514.769 258.956 517.551 256.128 517.551 255.743 517.551 254.265 517.551 252.915 516.69 254.522 516.359 255.935 514.968 255.935 513.114 255.935 511.326 254.522 510.796 253.558 510.796 251.63 510.796 250.024 512.518 250.024 514.637 250.024 517.683 253.237 519.008 256.064 519.008 260.305 519.008 262.618 514.372 262.811 513.975 263.582 516.425 265.895 519.008 269.751 519.008 276.369 519.008 280.032 510.465 280.032 508.809 280.032 508.147 279.454 508.147 279.261 508.147 278.682 508.147 278.554 508.412 278.425 508.875 276.305 515.961 271.935 517.551 269.879 517.551 267.373 517.551 266.345 515.432 266.345 513.18 266.345 511.723 266.731 510.266 267.438 507.352L269.622 498.279Z" fill-rule="evenodd"/><path d="M308.025 519.511 306.486 519.511C306.35 520.538 305.898 523.293 305.31 523.76 304.948 524.04 301.463 524.04 300.83 524.04L292.504 524.04C297.255 519.698 298.839 518.391 301.554 516.196 304.902 513.442 308.025 510.547 308.025 506.112 308.025 500.463 303.228 497.008 297.436 497.008 291.826 497.008 288.025 501.07 288.025 505.365 288.025 507.746 289.97 507.979 290.423 507.979 291.509 507.979 292.821 507.186 292.821 505.505 292.821 504.665 292.504 503.031 290.151 503.031 291.554 499.716 294.631 498.689 296.758 498.689 301.282 498.689 303.635 502.33 303.635 506.112 303.635 510.174 300.83 513.395 299.382 515.076L288.477 526.187C288.025 526.607 288.025 526.701 288.025 528.008L306.667 528.008 308.025 519.511Z" fill-rule="evenodd"/><path d="M206.5 504C206.5 464.512 238.736 432.5 278.5 432.5 318.265 432.5 350.5 464.512 350.5 504 350.5 543.488 318.265 575.5 278.5 575.5 238.736 575.5 206.5 543.488 206.5 504Z" stroke="#000000" stroke-width="1.33333" stroke-miterlimit="8" fill="none" fill-rule="evenodd"/><path d="M930.5 365C930.5 325.512 962.736 293.5 1002.5 293.5 1042.26 293.5 1074.5 325.512 1074.5 365 1074.5 404.488 1042.26 436.5 1002.5 436.5 962.736 436.5 930.5 404.488 930.5 365Z" stroke="#000000" stroke-width="1.33333" stroke-miterlimit="8" fill="none" fill-rule="evenodd"/><path d="M1020.75 352.062C1021.02 351.131 1021.02 350.999 1021.02 350.533 1021.02 349.337 1020.05 348.739 1019.01 348.739 1018.32 348.739 1017.21 349.138 1016.58 350.135 1016.44 350.467 1015.89 352.527 1015.61 353.723 1015.12 355.451 1014.64 357.246 1014.22 359.04L1011.1 371.003C1010.82 372 1007.84 376.652 1003.25 376.652 999.714 376.652 998.95 373.728 998.95 371.269 998.95 368.212 1000.13 364.091 1002.49 358.243 1003.6 355.518 1003.88 354.787 1003.88 353.458 1003.88 350.467 1001.66 348.008 998.187 348.008 991.593 348.008 989.024 357.645 989.024 358.243 989.024 358.907 989.718 358.907 989.857 358.907 990.551 358.907 990.621 358.774 990.968 357.711 992.842 351.464 995.619 349.47 997.979 349.47 998.534 349.47 999.714 349.47 999.714 351.597 999.714 353.258 999.02 354.986 998.534 356.249 995.757 363.294 994.508 367.082 994.508 370.206 994.508 376.121 998.881 378.115 1002.98 378.115 1005.68 378.115 1008.04 376.985 1009.99 375.124 1009.08 378.58 1008.25 381.836 1005.48 385.359 1003.67 387.618 1001.03 389.546 997.84 389.546 996.868 389.546 993.744 389.346 992.564 386.754 993.675 386.754 994.577 386.754 995.549 385.957 996.243 385.359 996.937 384.495 996.937 383.232 996.937 381.172 995.063 380.906 994.369 380.906 992.773 380.906 990.482 381.969 990.482 385.226 990.482 388.549 993.536 391.008 997.84 391.008 1004.99 391.008 1012.14 384.96 1014.08 377.45L1020.75 352.062Z" fill-rule="evenodd"/><path d="M350 213 546.803 213 546.803 219 350 219ZM543.803 207 573.803 216 543.803 225Z"/><path d="M350 501 546.803 501 546.803 507 350 507ZM543.803 495 573.803 504 543.803 513Z"/><path d="M640.055 206.511C638.152 206.577 636.794 208.034 636.794 209.491 636.794 210.418 637.405 211.412 638.9 211.412 640.394 211.412 642.025 210.286 642.025 207.703 642.025 204.723 639.103 202.008 633.94 202.008 624.973 202.008 622.459 208.763 622.459 211.677 622.459 216.842 627.487 217.836 629.457 218.233 632.989 218.895 636.522 219.624 636.522 223.266 636.522 224.988 634.959 230.551 626.807 230.551 625.856 230.551 620.625 230.551 619.063 227.041 621.644 227.372 623.342 225.385 623.342 223.531 623.342 222.008 622.256 221.213 620.829 221.213 619.063 221.213 617.025 222.604 617.025 225.584 617.025 229.359 620.897 232.008 626.739 232.008 637.745 232.008 640.394 223.995 640.394 221.014 640.394 218.63 639.103 216.975 638.288 216.18 636.454 214.326 634.484 213.995 631.495 213.399 629.049 212.869 626.332 212.405 626.332 209.425 626.332 207.505 627.962 203.465 633.94 203.465 635.639 203.465 639.035 203.928 640.055 206.511Z" fill-rule="evenodd"/><path d="M660.58 211.315C660.58 210.055 660.486 210.008 659.179 210.008 656.19 212.949 651.939 212.996 650.025 212.996L650.025 214.677C651.146 214.677 654.228 214.677 656.797 213.37L656.797 237.18C656.797 238.72 656.797 239.327 652.126 239.327L650.352 239.327 650.352 241.008C651.192 240.961 656.937 240.821 658.665 240.821 660.113 240.821 665.997 240.961 667.025 241.008L667.025 239.327 665.25 239.327C660.58 239.327 660.58 238.72 660.58 237.18L660.58 211.315Z" fill-rule="evenodd"/><path d="M574.5 217C574.5 177.512 606.512 145.5 646 145.5 685.488 145.5 717.5 177.512 717.5 217 717.5 256.488 685.488 288.5 646 288.5 606.512 288.5 574.5 256.488 574.5 217Z" stroke="#000000" stroke-width="1.33333" stroke-miterlimit="8" fill="none" fill-rule="evenodd"/><path d="M640.055 492.511C638.152 492.577 636.794 494.034 636.794 495.491 636.794 496.418 637.405 497.412 638.9 497.412 640.394 497.412 642.025 496.286 642.025 493.703 642.025 490.723 639.103 488.008 633.94 488.008 624.973 488.008 622.459 494.763 622.459 497.677 622.459 502.842 627.487 503.836 629.457 504.233 632.989 504.895 636.522 505.624 636.522 509.266 636.522 510.988 634.959 516.551 626.807 516.551 625.856 516.551 620.625 516.551 619.063 513.041 621.644 513.372 623.342 511.385 623.342 509.531 623.342 508.008 622.256 507.213 620.829 507.213 619.063 507.213 617.025 508.604 617.025 511.584 617.025 515.359 620.897 518.008 626.739 518.008 637.745 518.008 640.394 509.995 640.394 507.014 640.394 504.63 639.103 502.975 638.288 502.18 636.454 500.326 634.484 499.995 631.495 499.399 629.049 498.869 626.332 498.405 626.332 495.425 626.332 493.505 627.962 489.465 633.94 489.465 635.639 489.465 639.035 489.928 640.055 492.511Z" fill-rule="evenodd"/><path d="M668.024 519.511 666.485 519.511C666.35 520.538 665.897 523.293 665.309 523.76 664.947 524.04 661.463 524.04 660.829 524.04L652.504 524.04C657.255 519.698 658.838 518.391 661.553 516.196 664.902 513.442 668.024 510.547 668.024 506.112 668.024 500.463 663.228 497.008 657.436 497.008 651.825 497.008 648.024 501.07 648.024 505.365 648.024 507.746 649.97 507.979 650.422 507.979 651.508 507.979 652.82 507.186 652.82 505.505 652.82 504.665 652.504 503.031 650.151 503.031 651.553 499.716 654.63 498.689 656.757 498.689 661.282 498.689 663.635 502.33 663.635 506.112 663.635 510.174 660.829 513.395 659.381 515.076L648.476 526.187C648.024 526.607 648.024 526.701 648.024 528.008L666.667 528.008 668.024 519.511Z" fill-rule="evenodd"/><path d="M574.5 504C574.5 464.512 606.512 432.5 646 432.5 685.488 432.5 717.5 464.512 717.5 504 717.5 543.488 685.488 575.5 646 575.5 606.512 575.5 574.5 543.488 574.5 504Z" stroke="#000000" stroke-width="1.33333" stroke-miterlimit="8" fill="none" fill-rule="evenodd"/><path d="M352.366 214.156 559.575 480.102 554.842 483.79 347.634 217.844ZM562.464 474.048 573.803 503.244 548.265 485.111Z"/><path d="M2.3665-1.84383 209.575 264.102 204.842 267.79-2.3665 1.84383ZM212.464 258.048 223.803 287.244 198.265 269.111Z" transform="matrix(1 0 0 -1 350 503.244)"/><path d="M718.536 213.423 907.909 326.306 904.837 331.46 715.464 218.577ZM908.405 319.616 929.566 342.707 899.188 335.077Z"/><path d="M1.45195-2.62523 190.39 101.872 187.486 107.122-1.45195 2.62523ZM190.669 95.1694 212.566 117.565 181.958 110.921Z" transform="matrix(1 0 0 -1 717 503.565)"/></g></svg>