<svg width="1280" height="720" xmlns="http://www.w3.org/2000/svg" xmlns:xlink="http://www.w3.org/1999/xlink" overflow="hidden"><defs><clipPath id="clip0"><rect x="0" y="0" width="1280" height="720"/></clipPath></defs><g clip-path="url(#clip0)"><rect x="0" y="0" width="1280" height="720" fill="#FFFFFF"/><path d="M4-7.23335e-07 4.0001 560.571-3.9999 560.571-4 7.23335e-07ZM12.0001 556.571 0.000104987 580.571-11.9999 556.571Z" transform="matrix(1 0 0 -1 434 650.571)"/><path d="M293 525 966.333 525 966.333 533 293 533ZM962.333 517 986.333 529 962.333 541Z"/><path d="M961.111 568.498C961.388 567.293 962.45 563.028 965.683 563.028 965.914 563.028 967.022 563.028 967.992 563.63 966.699 563.862 965.776 565.021 965.776 566.134 965.776 566.875 966.284 567.756 967.531 567.756 968.547 567.756 970.024 566.922 970.024 565.067 970.024 562.657 967.3 562.008 965.729 562.008 963.051 562.008 961.434 564.465 960.88 565.531 959.725 562.471 957.231 562.008 955.892 562.008 951.089 562.008 948.456 567.988 948.456 569.147 948.456 569.61 948.918 569.61 949.01 569.61 949.38 569.61 949.518 569.518 949.611 569.101 951.181 564.187 954.229 563.028 955.8 563.028 956.677 563.028 958.294 563.445 958.294 566.134 958.294 567.571 957.508 570.677 955.8 577.167 955.061 580.041 953.444 581.988 951.412 581.988 951.135 581.988 950.073 581.988 949.103 581.385 950.257 581.154 951.273 580.18 951.273 578.882 951.273 577.63 950.257 577.26 949.565 577.26 948.179 577.26 947.024 578.465 947.024 579.948 947.024 582.081 949.334 583.008 951.366 583.008 954.414 583.008 956.077 579.763 956.215 579.485 956.769 581.2 958.432 583.008 961.203 583.008 965.96 583.008 968.593 577.028 968.593 575.869 968.593 575.405 968.177 575.405 968.039 575.405 967.623 575.405 967.531 575.591 967.438 575.915 965.914 580.875 962.774 581.988 961.296 581.988 959.494 581.988 958.755 580.505 958.755 578.928 958.755 577.909 959.032 576.889 959.541 574.849L961.111 568.498Z" fill-rule="evenodd"/><path d="M982.476 568.893C982.476 568.039 982.41 568.008 981.487 568.008 979.377 570 976.377 570.032 975.026 570.032L975.026 571.17C975.817 571.17 977.993 571.17 979.806 570.285L979.806 586.414C979.806 587.458 979.806 587.869 976.509 587.869L975.256 587.869 975.256 589.008C975.85 588.976 979.905 588.881 981.124 588.881 982.146 588.881 986.3 588.976 987.026 589.008L987.026 587.869 985.773 587.869C982.476 587.869 982.476 587.458 982.476 586.414L982.476 568.893Z" fill-rule="evenodd"/><path d="M377.111 76.4979C377.388 75.2926 378.45 71.0277 381.683 71.0277 381.914 71.0277 383.022 71.0277 383.992 71.6303 382.699 71.8621 381.776 73.021 381.776 74.1336 381.776 74.8754 382.284 75.7562 383.531 75.7562 384.547 75.7562 386.025 74.9218 386.025 73.0674 386.025 70.6568 383.3 70.0079 381.729 70.0079 379.051 70.0079 377.434 72.4648 376.88 73.5311 375.725 70.4714 373.231 70.0079 371.892 70.0079 367.089 70.0079 364.456 75.988 364.456 77.1469 364.456 77.6104 364.918 77.6104 365.01 77.6104 365.38 77.6104 365.518 77.5178 365.611 77.1005 367.181 72.1866 370.229 71.0277 371.8 71.0277 372.677 71.0277 374.294 71.4449 374.294 74.1336 374.294 75.5707 373.508 78.6767 371.8 85.1668 371.061 88.0409 369.444 89.988 367.412 89.988 367.135 89.988 366.073 89.988 365.103 89.3854 366.257 89.1535 367.273 88.1801 367.273 86.882 367.273 85.6304 366.257 85.2595 365.565 85.2595 364.179 85.2595 363.025 86.4648 363.025 87.9483 363.025 90.0807 365.334 91.0079 367.366 91.0079 370.414 91.0079 372.077 87.7628 372.215 87.4846 372.77 89.1999 374.432 91.0079 377.203 91.0079 381.96 91.0079 384.593 85.0277 384.593 83.8688 384.593 83.4052 384.177 83.4052 384.039 83.4052 383.623 83.4052 383.531 83.5907 383.438 83.9152 381.914 88.8754 378.774 89.988 377.296 89.988 375.494 89.988 374.755 88.5046 374.755 86.9284 374.755 85.9085 375.032 84.8886 375.541 82.8489L377.111 76.4979Z" fill-rule="evenodd"/><path d="M404.025 91.2518 402.948 91.2518C402.853 91.9476 402.536 93.8135 402.124 94.1298 401.871 94.3196 399.432 94.3196 398.988 94.3196L393.16 94.3196C396.486 91.3783 397.595 90.4927 399.495 89.0063 401.839 87.1404 404.025 85.1795 404.025 82.175 404.025 78.3481 400.667 76.0078 396.613 76.0078 392.685 76.0078 390.025 78.7593 390.025 81.6689 390.025 83.2819 391.387 83.44 391.703 83.44 392.464 83.44 393.382 82.9023 393.382 81.7638 393.382 81.1945 393.16 80.0876 391.513 80.0876 392.495 77.8421 394.649 77.1464 396.138 77.1464 399.305 77.1464 400.952 79.6132 400.952 82.175 400.952 84.9265 398.988 87.1087 397.975 88.2472L390.341 95.7744C390.025 96.059 390.025 96.1223 390.025 97.0079L403.074 97.0079 404.025 91.2518Z" fill-rule="evenodd"/><path d="M416.025 495.112C416.025 490.927 415.775 486.74 414.03 482.868 411.735 477.845 407.645 477.008 405.55 477.008 402.557 477.008 398.916 478.368 396.87 483.235 395.274 486.845 395.025 490.927 395.025 495.112 395.025 499.037 395.224 503.746 397.269 507.723 399.414 511.961 403.056 513.008 405.5 513.008 408.193 513.008 411.984 511.909 414.179 506.938 415.775 503.328 416.025 499.246 416.025 495.112ZM405.5 511.857C403.555 511.857 400.612 510.549 399.714 505.525 399.165 502.386 399.165 497.572 399.165 494.485 399.165 491.136 399.165 487.682 399.564 484.857 400.512 478.63 404.253 478.159 405.5 478.159 407.146 478.159 410.438 479.101 411.386 484.281 411.885 487.211 411.885 491.188 411.885 494.485 411.885 498.409 411.885 501.967 411.336 505.316 410.588 510.287 407.745 511.857 405.5 511.857Z" fill-rule="evenodd"/><path d="M405.964 175.374C405.964 174.113 405.964 174.008 404.848 174.008 401.842 177.371 397.576 177.371 396.024 177.371L396.024 179C396.994 179 399.854 179 402.376 177.634L402.376 204.856C402.376 206.748 402.23 207.379 397.866 207.379L396.315 207.379 396.315 209.008C398.012 208.85 402.23 208.85 404.17 208.85 406.109 208.85 410.327 208.85 412.024 209.008L412.024 207.379 410.473 207.379C406.109 207.379 405.964 206.801 405.964 204.856L405.964 175.374Z" fill-rule="evenodd"/><path d="M794.964 551.374C794.964 550.113 794.964 550.008 793.848 550.008 790.842 553.371 786.576 553.371 785.024 553.371L785.024 555C785.994 555 788.854 555 791.376 553.634L791.376 580.856C791.376 582.748 791.23 583.379 786.867 583.379L785.315 583.379 785.315 585.008C787.012 584.85 791.23 584.85 793.17 584.85 795.109 584.85 799.327 584.85 801.024 585.008L801.024 583.379 799.473 583.379C795.109 583.379 794.964 582.801 794.964 580.856L794.964 551.374Z" fill-rule="evenodd"/><path d="M482.025 494.112C482.025 489.927 481.775 485.74 480.03 481.868 477.735 476.845 473.645 476.008 471.55 476.008 468.557 476.008 464.916 477.368 462.87 482.235 461.274 485.845 461.025 489.927 461.025 494.112 461.025 498.037 461.224 502.746 463.269 506.723 465.414 510.961 469.056 512.008 471.5 512.008 474.193 512.008 477.984 510.909 480.179 505.938 481.775 502.328 482.025 498.246 482.025 494.112ZM471.5 510.857C469.555 510.857 466.611 509.549 465.714 504.525 465.165 501.386 465.165 496.572 465.165 493.485 465.165 490.136 465.165 486.682 465.564 483.857 466.512 477.63 470.253 477.159 471.5 477.159 473.146 477.159 476.438 478.101 477.386 483.281 477.885 486.211 477.885 490.188 477.885 493.485 477.885 497.409 477.885 500.967 477.336 504.316 476.588 509.287 473.745 510.857 471.5 510.857Z" fill="#FF0000" fill-rule="evenodd"/><path d="M792.964 477.374C792.964 476.113 792.964 476.008 791.848 476.008 788.842 479.371 784.576 479.371 783.024 479.371L783.024 481C783.994 481 786.854 481 789.376 479.634L789.376 506.856C789.376 508.748 789.23 509.379 784.867 509.379L783.315 509.379 783.315 511.008C785.012 510.85 789.23 510.85 791.17 510.85 793.109 510.85 797.327 510.85 799.024 511.008L799.024 509.379 797.473 509.379C793.109 509.379 792.964 508.801 792.964 506.856L792.964 477.374Z" fill="#FF0000" fill-rule="evenodd"/><path d="M800.025 192.112C800.025 187.926 799.775 183.74 798.03 179.868 795.735 174.845 791.645 174.008 789.55 174.008 786.557 174.008 782.916 175.368 780.87 180.235 779.274 183.845 779.025 187.926 779.025 192.112 779.025 196.037 779.224 200.746 781.269 204.723 783.414 208.961 787.056 210.008 789.5 210.008 792.193 210.008 795.984 208.909 798.179 203.938 799.775 200.328 800.025 196.246 800.025 192.112ZM789.5 208.857C787.555 208.857 784.612 207.549 783.714 202.525 783.165 199.386 783.165 194.572 783.165 191.485 783.165 188.136 783.165 184.682 783.564 181.857 784.512 175.63 788.253 175.159 789.5 175.159 791.146 175.159 794.438 176.101 795.386 181.281 795.885 184.211 795.885 188.188 795.885 191.485 795.885 195.409 795.885 198.967 795.336 202.316 794.588 207.287 791.745 208.857 789.5 208.857Z" fill="#FF0000" fill-rule="evenodd"/><path d="M474.964 176.374C474.964 175.113 474.964 175.008 473.848 175.008 470.842 178.371 466.576 178.371 465.024 178.371L465.024 180C465.994 180 468.854 180 471.376 178.634L471.376 205.856C471.376 207.748 471.23 208.379 466.866 208.379L465.315 208.379 465.315 210.008C467.012 209.85 471.23 209.85 473.17 209.85 475.109 209.85 479.327 209.85 481.024 210.008L481.024 208.379 479.473 208.379C475.109 208.379 474.964 207.801 474.964 205.856L474.964 176.374Z" fill="#FF0000" fill-rule="evenodd"/><path d="M284 193 744.571 651.652" stroke="#7030A0" stroke-width="6" stroke-miterlimit="8" stroke-dasharray="24 18" fill="none" fill-rule="evenodd"/></g></svg>