<svg width="1280" height="720" xmlns="http://www.w3.org/2000/svg" xmlns:xlink="http://www.w3.org/1999/xlink" overflow="hidden"><defs><clipPath id="clip0"><rect x="0" y="0" width="1280" height="720"/></clipPath></defs><g clip-path="url(#clip0)"><rect x="0" y="0" width="1280" height="720" fill="#FFFFFF"/><path d="M453.622 214.589C454.008 212.809 455.486 206.514 459.984 206.514 460.305 206.514 461.847 206.514 463.197 207.403 461.397 207.745 460.112 209.456 460.112 211.099 460.112 212.194 460.819 213.494 462.554 213.494 463.968 213.494 466.024 212.262 466.024 209.525 466.024 205.966 462.233 205.008 460.048 205.008 456.321 205.008 454.072 208.635 453.301 210.209 451.695 205.692 448.225 205.008 446.361 205.008 439.678 205.008 436.016 213.836 436.016 215.547 436.016 216.231 436.658 216.231 436.787 216.231 437.301 216.231 437.494 216.094 437.622 215.478 439.807 208.224 444.048 206.514 446.233 206.514 447.454 206.514 449.703 207.129 449.703 211.099 449.703 213.22 448.61 217.805 446.233 227.386 445.205 231.628 442.956 234.503 440.128 234.503 439.743 234.503 438.265 234.503 436.915 233.613 438.522 233.271 439.935 231.834 439.935 229.918 439.935 228.07 438.522 227.522 437.558 227.522 435.63 227.522 434.024 229.302 434.024 231.492 434.024 234.64 437.237 236.008 440.064 236.008 444.305 236.008 446.618 231.218 446.811 230.807 447.582 233.339 449.895 236.008 453.751 236.008 460.369 236.008 464.032 227.18 464.032 225.469 464.032 224.785 463.454 224.785 463.261 224.785 462.682 224.785 462.554 225.059 462.425 225.538 460.305 232.86 455.935 234.503 453.879 234.503 451.373 234.503 450.345 232.313 450.345 229.986 450.345 228.481 450.731 226.975 451.438 223.964L453.622 214.589Z" fill-rule="evenodd"/><path d="M483.958 215.315C483.958 214.055 483.87 214.008 482.639 214.008 479.826 216.949 475.826 216.996 474.024 216.996L474.024 218.677C475.079 218.677 477.98 218.677 480.398 217.37L480.398 241.18C480.398 242.72 480.398 243.327 476.002 243.327L474.332 243.327 474.332 245.008C475.123 244.961 480.529 244.821 482.156 244.821 483.518 244.821 489.057 244.961 490.024 245.008L490.024 243.327 488.354 243.327C483.958 243.327 483.958 242.72 483.958 241.18L483.958 215.315Z" fill-rule="evenodd"/><path d="M390.5 221C390.5 181.512 422.736 149.5 462.5 149.5 502.265 149.5 534.5 181.512 534.5 221 534.5 260.488 502.265 292.5 462.5 292.5 422.736 292.5 390.5 260.488 390.5 221Z" stroke="#000000" stroke-width="1.33333" stroke-miterlimit="8" fill="none" fill-rule="evenodd"/><path d="M453.622 502.279C454.008 500.557 455.486 494.465 459.984 494.465 460.305 494.465 461.847 494.465 463.197 495.326 461.397 495.657 460.112 497.312 460.112 498.902 460.112 499.962 460.819 501.22 462.554 501.22 463.968 501.22 466.024 500.028 466.024 497.379 466.024 493.935 462.233 493.008 460.048 493.008 456.321 493.008 454.072 496.518 453.301 498.041 451.695 493.67 448.225 493.008 446.361 493.008 439.678 493.008 436.016 501.551 436.016 503.206 436.016 503.869 436.658 503.869 436.787 503.869 437.301 503.869 437.494 503.736 437.622 503.14 439.807 496.12 444.048 494.465 446.233 494.465 447.454 494.465 449.703 495.061 449.703 498.902 449.703 500.955 448.61 505.392 446.233 514.663 445.205 518.769 442.956 521.551 440.128 521.551 439.743 521.551 438.265 521.551 436.915 520.69 438.522 520.359 439.935 518.968 439.935 517.114 439.935 515.326 438.522 514.796 437.558 514.796 435.63 514.796 434.024 516.518 434.024 518.637 434.024 521.683 437.237 523.008 440.064 523.008 444.305 523.008 446.618 518.372 446.811 517.975 447.582 520.425 449.895 523.008 453.751 523.008 460.369 523.008 464.032 514.465 464.032 512.809 464.032 512.147 463.454 512.147 463.261 512.147 462.682 512.147 462.554 512.412 462.425 512.875 460.305 519.961 455.935 521.551 453.879 521.551 451.373 521.551 450.345 519.432 450.345 517.18 450.345 515.723 450.731 514.266 451.438 511.352L453.622 502.279Z" fill-rule="evenodd"/><path d="M492.025 523.511 490.486 523.511C490.35 524.538 489.898 527.293 489.31 527.76 488.948 528.04 485.463 528.04 484.83 528.04L476.504 528.04C481.255 523.698 482.839 522.391 485.554 520.196 488.902 517.442 492.025 514.547 492.025 510.112 492.025 504.463 487.228 501.008 481.436 501.008 475.826 501.008 472.025 505.07 472.025 509.365 472.025 511.746 473.97 511.979 474.423 511.979 475.509 511.979 476.821 511.186 476.821 509.505 476.821 508.665 476.504 507.031 474.151 507.031 475.554 503.716 478.631 502.689 480.758 502.689 485.282 502.689 487.635 506.33 487.635 510.112 487.635 514.174 484.83 517.395 483.382 519.076L472.477 530.187C472.025 530.607 472.025 530.701 472.025 532.008L490.667 532.008 492.025 523.511Z" fill-rule="evenodd"/><path d="M390.5 508.5C390.5 468.736 422.736 436.5 462.5 436.5 502.265 436.5 534.5 468.736 534.5 508.5 534.5 548.265 502.265 580.5 462.5 580.5 422.736 580.5 390.5 548.265 390.5 508.5Z" stroke="#000000" stroke-width="1.33333" stroke-miterlimit="8" fill="none" fill-rule="evenodd"/><path d="M746.5 364.5C746.5 324.736 778.736 292.5 818.5 292.5 858.265 292.5 890.5 324.736 890.5 364.5 890.5 404.265 858.265 436.5 818.5 436.5 778.736 436.5 746.5 404.265 746.5 364.5Z" stroke="#000000" stroke-width="1.33333" stroke-miterlimit="8" fill="none" fill-rule="evenodd"/><path d="M836.746 351.062C837.024 350.131 837.024 349.999 837.024 349.533 837.024 348.337 836.052 347.739 835.011 347.739 834.317 347.739 833.206 348.138 832.582 349.135 832.443 349.467 831.888 351.527 831.61 352.723 831.124 354.451 830.638 356.246 830.222 358.04L827.098 370.003C826.82 371 823.835 375.652 819.254 375.652 815.714 375.652 814.95 372.728 814.95 370.269 814.95 367.212 816.13 363.091 818.49 357.243 819.601 354.518 819.879 353.787 819.879 352.458 819.879 349.467 817.658 347.008 814.187 347.008 807.593 347.008 805.024 356.645 805.024 357.243 805.024 357.907 805.718 357.907 805.857 357.907 806.551 357.907 806.621 357.774 806.968 356.711 808.842 350.464 811.619 348.47 813.979 348.47 814.534 348.47 815.714 348.47 815.714 350.597 815.714 352.258 815.02 353.986 814.534 355.249 811.757 362.294 810.508 366.082 810.508 369.206 810.508 375.121 814.881 377.115 818.976 377.115 821.684 377.115 824.044 375.985 825.987 374.124 825.085 377.58 824.252 380.836 821.475 384.359 819.671 386.618 817.033 388.546 813.84 388.546 812.868 388.546 809.744 388.346 808.564 385.754 809.675 385.754 810.577 385.754 811.549 384.957 812.243 384.359 812.937 383.495 812.937 382.232 812.937 380.172 811.063 379.906 810.369 379.906 808.773 379.906 806.482 380.969 806.482 384.226 806.482 387.549 809.536 390.008 813.84 390.008 820.99 390.008 828.139 383.96 830.083 376.45L836.746 351.062Z" fill-rule="evenodd"/><path d="M535.536 218.423 735.217 337.45 732.145 342.604 532.464 223.577ZM735.712 330.76 746.566 347.707 726.496 346.222Z"/><path d="M1.45195-2.62523 200.891 107.68 197.987 112.93-1.45195 2.62523ZM201.17 100.977 212.566 117.565 192.458 116.729Z" transform="matrix(1 0 0 -1 534 507.565)"/><path d="M650.458 222.829C650.797 221.372 651.477 218.922 651.477 218.524 651.477 217.332 650.525 216.736 649.506 216.736 648.69 216.736 647.467 217.266 646.991 218.591 646.787 219.054 643.592 231.703 643.116 233.425 642.64 235.412 642.504 236.604 642.504 237.796 642.504 238.524 642.504 238.657 642.572 238.988 641.009 242.498 638.97 244.551 636.319 244.551 630.88 244.551 630.88 239.65 630.88 238.524 630.88 236.405 631.22 233.822 634.415 225.677 635.163 223.69 635.571 222.763 635.571 221.438 635.571 218.458 633.328 216.008 629.997 216.008 623.539 216.008 621.024 225.611 621.024 226.206 621.024 226.869 621.704 226.869 621.84 226.869 622.519 226.869 622.587 226.736 622.927 225.677 624.763 219.518 627.414 217.465 629.793 217.465 630.405 217.465 631.492 217.531 631.492 219.65 631.492 221.306 630.745 223.16 630.269 224.286 627.278 232.101 626.462 235.147 626.462 237.663 626.462 243.69 631.016 246.008 636.115 246.008 637.27 246.008 640.465 246.008 643.184 241.372 644.951 245.61 649.642 246.008 651.681 246.008 656.779 246.008 659.77 241.836 661.538 237.862 663.849 232.697 666.024 223.822 666.024 220.644 666.024 217.001 664.189 216.008 663.033 216.008 661.334 216.008 659.634 217.73 659.634 219.187 659.634 220.048 660.042 220.445 660.654 220.975 661.402 221.703 663.101 223.425 663.101 226.604 663.101 228.855 661.13 235.346 659.362 238.723 657.595 242.233 655.216 244.551 651.885 244.551 648.69 244.551 646.855 242.564 646.855 238.789 646.855 236.935 647.331 234.882 647.603 233.955L650.458 222.829Z" fill-rule="evenodd"/><path d="M683.579 225.315C683.579 224.055 683.486 224.008 682.178 224.008 679.189 226.949 674.939 226.996 673.024 226.996L673.024 228.677C674.145 228.677 677.227 228.677 679.796 227.37L679.796 251.18C679.796 252.72 679.796 253.327 675.126 253.327L673.351 253.327 673.351 255.008C674.192 254.961 679.936 254.821 681.664 254.821 683.112 254.821 688.997 254.961 690.024 255.008L690.024 253.327 688.25 253.327C683.579 253.327 683.579 252.72 683.579 251.18L683.579 225.315Z" fill-rule="evenodd"/><path d="M653.458 479.829C653.797 478.372 654.477 475.922 654.477 475.524 654.477 474.332 653.525 473.736 652.506 473.736 651.69 473.736 650.467 474.266 649.991 475.591 649.787 476.054 646.592 488.703 646.116 490.425 645.64 492.412 645.504 493.604 645.504 494.796 645.504 495.524 645.504 495.657 645.572 495.988 644.009 499.498 641.97 501.551 639.319 501.551 633.88 501.551 633.88 496.65 633.88 495.524 633.88 493.405 634.22 490.822 637.415 482.677 638.163 480.69 638.571 479.763 638.571 478.438 638.571 475.458 636.328 473.008 632.997 473.008 626.539 473.008 624.024 482.611 624.024 483.206 624.024 483.869 624.704 483.869 624.84 483.869 625.519 483.869 625.587 483.736 625.927 482.677 627.763 476.518 630.414 474.465 632.793 474.465 633.405 474.465 634.492 474.531 634.492 476.65 634.492 478.306 633.745 480.16 633.269 481.286 630.278 489.101 629.462 492.147 629.462 494.663 629.462 500.69 634.016 503.008 639.115 503.008 640.27 503.008 643.465 503.008 646.184 498.372 647.951 502.61 652.642 503.008 654.681 503.008 659.779 503.008 662.77 498.836 664.538 494.862 666.849 489.697 669.024 480.822 669.024 477.644 669.024 474.001 667.189 473.008 666.033 473.008 664.334 473.008 662.634 474.73 662.634 476.187 662.634 477.048 663.042 477.445 663.654 477.975 664.402 478.703 666.101 480.425 666.101 483.604 666.101 485.855 664.13 492.346 662.362 495.723 660.595 499.233 658.216 501.551 654.885 501.551 651.69 501.551 649.855 499.564 649.855 495.789 649.855 493.935 650.331 491.882 650.603 490.955L653.458 479.829Z" fill-rule="evenodd"/><path d="M695.025 504.511 693.409 504.511C693.267 505.538 692.792 508.293 692.174 508.76 691.794 509.04 688.135 509.04 687.47 509.04L678.728 509.04C683.717 504.698 685.38 503.391 688.231 501.196 691.746 498.442 695.025 495.547 695.025 491.112 695.025 485.463 689.989 482.008 683.907 482.008 678.016 482.008 674.025 486.07 674.025 490.365 674.025 492.746 676.068 492.979 676.543 492.979 677.683 492.979 679.061 492.186 679.061 490.505 679.061 489.665 678.728 488.031 676.258 488.031 677.731 484.716 680.961 483.689 683.194 483.689 687.945 483.689 690.416 487.33 690.416 491.112 690.416 495.174 687.47 498.395 685.95 500.076L674.5 511.187C674.025 511.607 674.025 511.701 674.025 513.008L693.599 513.008 695.025 504.511Z" fill-rule="evenodd"/></g></svg>