<svg width="1280" height="720" xmlns="http://www.w3.org/2000/svg" xmlns:xlink="http://www.w3.org/1999/xlink" overflow="hidden"><defs><clipPath id="clip0"><rect x="0" y="0" width="1280" height="720"/></clipPath></defs><g clip-path="url(#clip0)"><rect x="0" y="0" width="1280" height="720" fill="#FFFFFF"/><path d="M380.5 367.5C380.5 242.131 482.131 140.5 607.5 140.5 732.869 140.5 834.5 242.131 834.5 367.5 834.5 492.869 732.869 594.5 607.5 594.5 482.131 594.5 380.5 492.869 380.5 367.5Z" stroke="#000000" stroke-width="1.33333" stroke-miterlimit="8" fill="none" fill-rule="evenodd"/><path d="M0.190372-0.981712 216.637 40.9914 216.257 42.9548-0.190372 0.981712ZM215.9 37.7925 222.992 43.2423 214.377 45.6462Z" transform="matrix(1 0 0 -1 607 367.242)"/><path d="M0.980044-0.198778 44.8834 216.26 42.9233 216.658-0.980044 0.198778ZM47.5584 214.357 45.2285 222.992 39.718 215.947Z" transform="matrix(1 0 0 -1 607 366.992)"/><path d="M829.053 324.453 655.976 149.443 657.398 148.037 830.475 323.047ZM654.781 152.501 652 144 660.469 146.876Z"/><path d="M0.703533-0.710663 130.024 127.312 128.617 128.734-0.703533 0.710663ZM131.187 124.242 134.058 132.713 125.559 129.928Z" fill="#FF0000" transform="matrix(1 0 0 -1 607 366.713)"/><path d="M658.203 109.891C658.431 109.297 658.582 109 661.008 109L661.008 107.007C660.06 107.091 658.961 107.134 658.013 107.134 657.066 107.134 655.36 107.049 654.564 107.007L654.564 109C655.284 109 656.384 109.127 656.384 109.466 656.384 109.509 656.346 109.594 656.194 109.975L651.797 120.578 646.983 109 649.03 109 649.03 107.007C647.779 107.091 644.367 107.134 644.329 107.134 643.268 107.134 641.562 107.049 640.008 107.007L640.008 109 642.434 109 649.068 124.946C649.523 126.007 650.015 126.007 650.508 126.007 651.153 126.007 651.532 125.879 651.911 124.989L658.203 109.891Z" fill-rule="evenodd"/><path d="M672.815 121.195 675.398 121.195C675.926 121.195 676.269 121.195 676.269 120.541 676.269 120.125 675.926 120.125 675.451 120.125L672.999 120.125C673.606 116.348 673.817 114.98 674.028 114.118 674.159 113.464 674.739 112.839 675.372 112.839 675.398 112.839 676.11 112.839 676.611 113.196 675.53 113.583 675.451 114.653 675.451 114.832 675.451 115.486 675.899 115.932 676.506 115.932 677.218 115.932 678.009 115.248 678.009 114.118 678.009 112.75 676.717 112.007 675.372 112.007 674.212 112.007 672.92 112.75 672.208 114.237 671.681 115.337 671.47 116.675 670.916 120.125L668.833 120.125C668.306 120.125 667.963 120.125 667.963 120.779 667.963 121.195 668.306 121.195 668.781 121.195L670.732 121.195C670.705 121.373 669.044 132.078 668.412 135.26 668.28 135.914 667.832 138.174 666.566 138.174 666.54 138.174 665.907 138.174 665.406 137.817 666.487 137.431 666.566 136.36 666.566 136.182 666.566 135.528 666.118 135.082 665.511 135.082 664.8 135.082 664.009 135.766 664.009 136.895 664.009 138.234 665.248 139.007 666.566 139.007 668.253 139.007 669.414 137.044 669.73 136.39 670.679 134.398 671.286 130.74 671.338 130.383L672.815 121.195Z" fill-rule="evenodd"/><path d="M868.069 315.739C868.308 315.176 868.467 314.895 871.008 314.895L871.008 313.007C870.015 313.087 868.864 313.127 867.871 313.127 866.878 313.127 865.091 313.047 864.257 313.007L864.257 314.895C865.012 314.895 866.163 315.016 866.163 315.337 866.163 315.377 866.124 315.458 865.965 315.819L861.358 325.864 856.315 314.895 858.459 314.895 858.459 313.007C857.149 313.087 853.575 313.127 853.535 313.127 852.423 313.127 850.636 313.047 849.008 313.007L849.008 314.895 851.55 314.895 858.499 330.002C858.976 331.007 859.492 331.007 860.008 331.007 860.683 331.007 861.08 330.886 861.477 330.042L868.069 315.739Z" fill-rule="evenodd"/><path d="M881.322 320.023C881.322 319.595 881.005 319.006 880.266 319.006 879.553 319.006 878.787 319.702 878.787 320.478 878.787 320.932 879.13 321.494 879.843 321.494 880.609 321.494 881.322 320.745 881.322 320.023ZM875.936 333.61C875.83 333.958 875.698 334.278 875.698 334.733 875.698 335.99 876.754 337.007 878.206 337.007 880.846 337.007 882.008 333.316 882.008 332.914 882.008 332.567 881.665 332.567 881.586 332.567 881.216 332.567 881.19 332.727 881.084 333.021 880.477 335.161 879.315 336.258 878.285 336.258 877.757 336.258 877.625 335.91 877.625 335.321 877.625 334.706 877.81 334.198 878.048 333.61 878.312 332.888 878.602 332.165 878.893 331.47 879.13 330.828 880.081 328.394 880.186 328.073 880.266 327.806 880.345 327.485 880.345 327.217 880.345 325.96 879.289 324.944 877.837 324.944 875.223 324.944 874.008 328.582 874.008 329.036 874.008 329.384 874.378 329.384 874.457 329.384 874.827 329.384 874.853 329.25 874.932 328.956 875.619 326.656 876.781 325.693 877.757 325.693 878.18 325.693 878.417 325.907 878.417 326.629 878.417 327.244 878.259 327.645 877.599 329.304L875.936 333.61Z" fill-rule="evenodd"/><path d="M676.203 247.739C676.43 247.176 676.582 246.895 679.008 246.895L679.008 245.007C678.06 245.087 676.961 245.127 676.013 245.127 675.066 245.127 673.36 245.047 672.564 245.007L672.564 246.895C673.284 246.895 674.383 247.016 674.383 247.337 674.383 247.377 674.345 247.458 674.194 247.819L669.797 257.864 664.983 246.895 667.029 246.895 667.029 245.007C665.779 245.087 662.367 245.127 662.329 245.127 661.268 245.127 659.562 245.047 658.008 245.007L658.008 246.895 660.434 246.895 667.068 262.002C667.522 263.007 668.015 263.007 668.508 263.007 669.152 263.007 669.531 262.886 669.91 262.042L676.203 247.739Z" fill-rule="evenodd"/><path d="M691.934 257.881C691.217 258.054 690.776 258.659 690.776 259.235 690.776 259.898 691.327 260.158 691.685 260.158 691.961 260.158 693.009 259.985 693.009 258.515 693.009 256.641 691.024 256.007 689.342 256.007 685.041 256.007 684.269 259.322 684.269 260.215 684.269 261.282 684.848 261.974 685.234 262.32 685.951 262.896 686.447 263.011 688.35 263.357 688.929 263.473 690.693 263.819 690.693 265.26 690.693 265.75 690.39 266.845 689.232 267.566 688.157 268.2 686.806 268.2 686.475 268.2 685.372 268.2 683.801 267.941 683.167 266.989 684.076 266.874 684.683 266.153 684.683 265.346 684.683 264.626 684.187 264.28 683.608 264.28 682.808 264.28 682.009 264.943 682.009 266.211 682.009 267.941 683.773 269.007 686.447 269.007 691.52 269.007 692.457 265.375 692.457 264.251 692.457 261.599 689.673 261.08 688.653 260.878 688.405 260.821 687.716 260.705 687.55 260.648 686.53 260.446 686.034 259.841 686.034 259.207 686.034 258.544 686.53 257.765 687.137 257.362 687.881 256.872 688.846 256.814 689.315 256.814 689.893 256.814 691.327 256.901 691.934 257.881Z" fill-rule="evenodd"/><path d="M850.826 184.859C849.685 184.901 848.87 185.823 848.87 186.746 848.87 187.333 849.237 187.963 850.133 187.963 851.03 187.963 852.008 187.249 852.008 185.614 852.008 183.726 850.256 182.007 847.158 182.007 841.777 182.007 840.269 186.285 840.269 188.13 840.269 191.402 843.285 192.031 844.467 192.283 846.587 192.702 848.707 193.163 848.707 195.47 848.707 196.561 847.769 200.084 842.878 200.084 842.307 200.084 839.169 200.084 838.231 197.861 839.78 198.071 840.799 196.812 840.799 195.638 840.799 194.673 840.147 194.17 839.291 194.17 838.231 194.17 837.008 195.051 837.008 196.938 837.008 199.329 839.332 201.007 842.837 201.007 849.44 201.007 851.03 195.932 851.03 194.044 851.03 192.534 850.256 191.486 849.766 190.982 848.666 189.808 847.484 189.598 845.69 189.221 844.223 188.885 842.593 188.592 842.593 186.704 842.593 185.488 843.571 182.929 847.158 182.929 848.177 182.929 850.215 183.223 850.826 184.859Z" fill-rule="evenodd"/><path d="M867.008 210.587C867.008 210.461 867.008 210.377 866.349 209.663 861.5 204.371 860.258 196.433 860.258 190.007 860.258 182.699 861.733 175.391 866.504 170.141 867.008 169.637 867.008 169.553 867.008 169.427 867.008 169.133 866.853 169.007 866.62 169.007 866.233 169.007 862.741 171.863 860.452 177.197 858.474 181.817 858.008 186.479 858.008 190.007 858.008 193.283 858.435 198.365 860.569 203.111 862.896 208.277 866.233 211.007 866.62 211.007 866.853 211.007 867.008 210.881 867.008 210.587Z" fill-rule="evenodd"/><path d="M889.07 184.891C889.309 184.297 889.467 184 892.009 184L892.009 182.007C891.016 182.092 889.865 182.134 888.872 182.134 887.879 182.134 886.092 182.049 885.258 182.007L885.258 184C886.013 184 887.164 184.127 887.164 184.467 887.164 184.509 887.125 184.594 886.966 184.975L882.359 195.578 877.316 184 879.46 184 879.46 182.007C878.15 182.092 874.576 182.134 874.536 182.134 873.424 182.134 871.637 182.049 870.009 182.007L870.009 184 872.55 184 879.5 199.947C879.976 201.007 880.493 201.007 881.009 201.007 881.684 201.007 882.081 200.88 882.478 199.989L889.07 184.891Z" fill-rule="evenodd"/><path d="M904.445 195.195 907.213 195.195C907.778 195.195 908.145 195.195 908.145 194.541 908.145 194.125 907.778 194.125 907.27 194.125L904.643 194.125C905.292 190.348 905.518 188.98 905.744 188.118 905.885 187.464 906.507 186.839 907.185 186.839 907.213 186.839 907.976 186.839 908.513 187.196 907.354 187.583 907.27 188.653 907.27 188.832 907.27 189.486 907.75 189.932 908.4 189.932 909.162 189.932 910.01 189.248 910.01 188.118 910.01 186.75 908.626 186.007 907.185 186.007 905.942 186.007 904.558 186.75 903.795 188.237 903.23 189.337 903.004 190.675 902.411 194.125L900.179 194.125C899.614 194.125 899.247 194.125 899.247 194.779 899.247 195.195 899.614 195.195 900.123 195.195L902.213 195.195C902.185 195.374 900.405 206.079 899.727 209.26 899.586 209.914 899.106 212.174 897.75 212.174 897.722 212.174 897.044 212.174 896.507 211.818 897.665 211.431 897.75 210.36 897.75 210.182 897.75 209.528 897.27 209.082 896.62 209.082 895.857 209.082 895.01 209.766 895.01 210.896 895.01 212.234 896.337 213.007 897.75 213.007 899.558 213.007 900.801 211.044 901.14 210.39 902.157 208.398 902.806 204.74 902.863 204.384L904.445 195.195Z" fill-rule="evenodd"/><path d="M949.579 191.008C950.274 191.008 951.011 191.008 951.011 190.008 951.011 189.008 950.274 189.008 949.579 189.008L927.443 189.008C926.747 189.008 926.011 189.008 926.011 190.008 926.011 191.008 926.747 191.008 927.443 191.008L949.579 191.008Z" fill-rule="evenodd"/><path d="M983.073 184.891C983.311 184.297 983.47 184 986.011 184L986.011 182.007C985.019 182.092 983.867 182.134 982.874 182.134 981.881 182.134 980.094 182.049 979.26 182.007L979.26 184C980.015 184 981.167 184.127 981.167 184.467 981.167 184.509 981.127 184.594 980.968 184.975L976.362 195.578 971.318 184 973.463 184 973.463 182.007C972.152 182.092 968.578 182.134 968.538 182.134 967.427 182.134 965.64 182.049 964.011 182.007L964.011 184 966.553 184 973.502 199.947C973.979 201.007 974.495 201.007 975.011 201.007 975.686 201.007 976.084 200.88 976.481 199.989L983.073 184.891Z" fill-rule="evenodd"/><path d="M996.241 188.136C996.241 187.661 995.884 187.007 995.052 187.007 994.25 187.007 993.389 187.78 993.389 188.641 993.389 189.146 993.775 189.771 994.577 189.771 995.439 189.771 996.241 188.939 996.241 188.136ZM990.181 203.233C990.062 203.619 989.914 203.976 989.914 204.481 989.914 205.878 991.102 207.007 992.736 207.007 995.706 207.007 997.013 202.906 997.013 202.46 997.013 202.074 996.627 202.074 996.538 202.074 996.122 202.074 996.092 202.252 995.973 202.579 995.29 204.956 993.983 206.175 992.825 206.175 992.231 206.175 992.082 205.788 992.082 205.135 992.082 204.451 992.29 203.887 992.557 203.233 992.854 202.43 993.181 201.628 993.508 200.855 993.775 200.142 994.845 197.438 994.963 197.081 995.052 196.784 995.142 196.427 995.142 196.13 995.142 194.733 993.953 193.604 992.32 193.604 989.379 193.604 988.013 197.646 988.013 198.151 988.013 198.537 988.429 198.537 988.518 198.537 988.934 198.537 988.963 198.389 989.052 198.062 989.825 195.506 991.132 194.436 992.231 194.436 992.706 194.436 992.973 194.674 992.973 195.476 992.973 196.16 992.795 196.606 992.052 198.448L990.181 203.233Z" fill-rule="evenodd"/><path d="M1012.01 190.007C1012.01 186.731 1011.59 181.649 1009.45 176.903 1007.12 171.737 1003.79 169.007 1003.4 169.007 1003.17 169.007 1003.01 169.175 1003.01 169.427 1003.01 169.553 1003.01 169.637 1003.75 170.393 1007.55 174.551 1009.76 181.229 1009.76 190.007 1009.76 197.189 1008.33 204.581 1003.52 209.873 1003.01 210.377 1003.01 210.461 1003.01 210.587 1003.01 210.839 1003.17 211.007 1003.4 211.007 1003.79 211.007 1007.28 208.151 1009.57 202.817 1011.55 198.197 1012.01 193.535 1012.01 190.007Z" fill-rule="evenodd"/><path d="M0.122527-0.992465 5.28983-0.354527 10.3541 1.39849 15.077 4.11577 19.2721 7.66544 22.8184 11.8566 25.5998 16.5785 27.3543 21.6469 27.9923 26.751 28.6173 31.751 28.5687 31.5441 30.2562 36.3566 30.1793 36.1888 32.8043 40.7513 32.6951 40.5973 36.1951 44.6598 36.0834 44.5491 40.1459 47.9866 39.9987 47.8832 44.5612 50.5082 44.3421 50.4149 47.6359 51.3741 47.0767 53.2943 43.6678 52.3016 38.923 49.5717 34.7314 46.0249 31.118 41.8309 28.3995 37.1059 26.646 32.1051 26.0077 26.999 25.3827 21.999 25.43 22.2021 23.7425 17.3271 23.8259 17.5075 21.1384 12.945 21.2366 13.0834 17.7991 9.02094 17.9166 9.13839 13.8541 5.70089 14.0013 5.80428 9.43881 3.17928 9.61039 3.25749 4.73539 1.56999 4.93997 1.61747-0.122527 0.992465ZM46.8368 48.1499 53.8924 53.6471 45.2613 55.9932Z" transform="matrix(-1 1.22465e-16 1.22465e-16 1 819.892 191)"/></g></svg>