<svg width="1280" height="720" xmlns="http://www.w3.org/2000/svg" xmlns:xlink="http://www.w3.org/1999/xlink" overflow="hidden"><defs><clipPath id="clip0"><rect x="0" y="0" width="1280" height="720"/></clipPath></defs><g clip-path="url(#clip0)"><rect x="0" y="0" width="1280" height="720" fill="#FFFFFF"/><path d="M380.5 367.5C380.5 242.131 482.131 140.5 607.5 140.5 732.869 140.5 834.5 242.131 834.5 367.5 834.5 492.869 732.869 594.5 607.5 594.5 482.131 594.5 380.5 492.869 380.5 367.5Z" stroke="#000000" stroke-width="1.33333" stroke-miterlimit="8" fill="none" fill-rule="evenodd"/><path d="M0.190372-0.981712 216.637 40.9914 216.257 42.9548-0.190372 0.981712ZM215.9 37.7925 222.992 43.2423 214.377 45.6462Z" transform="matrix(1 0 0 -1 607 367.242)"/><path d="M0.980044-0.198778 44.8834 216.26 42.9233 216.658-0.980044 0.198778ZM47.5584 214.357 45.2285 222.992 39.718 215.947Z" transform="matrix(1 0 0 -1 607 366.992)"/><path d="M829.053 324.453 655.976 149.443 657.398 148.037 830.475 323.047ZM654.781 152.501 652 144 660.469 146.876Z"/><path d="M0.867934-0.49668 110.498 191.079 108.762 192.072-0.867934 0.49668ZM112.439 188.431 112.941 197.361 105.496 192.405Z" fill="#FF0000" transform="matrix(1 0 0 -1 607 366.361)"/><path d="M658.203 109.891C658.431 109.297 658.582 109 661.008 109L661.008 107.007C660.06 107.091 658.961 107.134 658.013 107.134 657.066 107.134 655.36 107.049 654.564 107.007L654.564 109C655.284 109 656.384 109.127 656.384 109.466 656.384 109.509 656.346 109.594 656.194 109.975L651.797 120.578 646.983 109 649.03 109 649.03 107.007C647.779 107.091 644.367 107.134 644.329 107.134 643.268 107.134 641.562 107.049 640.008 107.007L640.008 109 642.434 109 649.068 124.946C649.523 126.007 650.015 126.007 650.508 126.007 651.153 126.007 651.532 125.879 651.911 124.989L658.203 109.891Z" fill-rule="evenodd"/><path d="M672.815 121.195 675.398 121.195C675.926 121.195 676.269 121.195 676.269 120.541 676.269 120.125 675.926 120.125 675.451 120.125L672.999 120.125C673.606 116.348 673.817 114.98 674.028 114.118 674.159 113.464 674.739 112.839 675.372 112.839 675.398 112.839 676.11 112.839 676.611 113.196 675.53 113.583 675.451 114.653 675.451 114.832 675.451 115.486 675.899 115.932 676.506 115.932 677.218 115.932 678.009 115.248 678.009 114.118 678.009 112.75 676.717 112.007 675.372 112.007 674.212 112.007 672.92 112.75 672.208 114.237 671.681 115.337 671.47 116.675 670.916 120.125L668.833 120.125C668.306 120.125 667.963 120.125 667.963 120.779 667.963 121.195 668.306 121.195 668.781 121.195L670.732 121.195C670.705 121.373 669.044 132.078 668.412 135.26 668.28 135.914 667.832 138.174 666.566 138.174 666.54 138.174 665.907 138.174 665.406 137.817 666.487 137.431 666.566 136.36 666.566 136.182 666.566 135.528 666.118 135.082 665.511 135.082 664.8 135.082 664.009 135.766 664.009 136.895 664.009 138.234 665.248 139.007 666.566 139.007 668.253 139.007 669.414 137.044 669.73 136.39 670.679 134.398 671.286 130.74 671.338 130.383L672.815 121.195Z" fill-rule="evenodd"/><path d="M868.069 315.739C868.308 315.176 868.467 314.895 871.008 314.895L871.008 313.007C870.015 313.087 868.864 313.127 867.871 313.127 866.878 313.127 865.091 313.047 864.257 313.007L864.257 314.895C865.012 314.895 866.163 315.016 866.163 315.337 866.163 315.377 866.124 315.458 865.965 315.819L861.358 325.864 856.315 314.895 858.459 314.895 858.459 313.007C857.149 313.087 853.575 313.127 853.535 313.127 852.423 313.127 850.636 313.047 849.008 313.007L849.008 314.895 851.55 314.895 858.499 330.002C858.976 331.007 859.492 331.007 860.008 331.007 860.683 331.007 861.08 330.886 861.477 330.042L868.069 315.739Z" fill-rule="evenodd"/><path d="M881.322 320.023C881.322 319.595 881.005 319.006 880.266 319.006 879.553 319.006 878.787 319.702 878.787 320.478 878.787 320.932 879.13 321.494 879.843 321.494 880.609 321.494 881.322 320.745 881.322 320.023ZM875.936 333.61C875.83 333.958 875.698 334.278 875.698 334.733 875.698 335.99 876.754 337.007 878.206 337.007 880.846 337.007 882.008 333.316 882.008 332.914 882.008 332.567 881.665 332.567 881.586 332.567 881.216 332.567 881.19 332.727 881.084 333.021 880.477 335.161 879.315 336.258 878.285 336.258 877.757 336.258 877.625 335.91 877.625 335.321 877.625 334.706 877.81 334.198 878.048 333.61 878.312 332.888 878.602 332.165 878.893 331.47 879.13 330.828 880.081 328.394 880.186 328.073 880.266 327.806 880.345 327.485 880.345 327.217 880.345 325.96 879.289 324.944 877.837 324.944 875.223 324.944 874.008 328.582 874.008 329.036 874.008 329.384 874.378 329.384 874.457 329.384 874.827 329.384 874.853 329.25 874.932 328.956 875.619 326.656 876.781 325.693 877.757 325.693 878.18 325.693 878.417 325.907 878.417 326.629 878.417 327.244 878.259 327.645 877.599 329.304L875.936 333.61Z" fill-rule="evenodd"/><path d="M829.826 106.009C828.685 106.053 827.87 107.024 827.87 107.995 827.87 108.614 828.237 109.276 829.133 109.276 830.03 109.276 831.008 108.525 831.008 106.803 831.008 104.817 829.256 103.007 826.158 103.007 820.777 103.007 819.269 107.51 819.269 109.452 819.269 112.896 822.285 113.558 823.467 113.823 825.587 114.265 827.707 114.75 827.707 117.179 827.707 118.327 826.769 122.035 821.878 122.035 821.307 122.035 818.169 122.035 817.231 119.695 818.78 119.916 819.799 118.592 819.799 117.355 819.799 116.34 819.147 115.81 818.291 115.81 817.231 115.81 816.008 116.737 816.008 118.724 816.008 121.241 818.332 123.007 821.837 123.007 828.44 123.007 830.03 117.664 830.03 115.678 830.03 114.088 829.256 112.984 828.766 112.455 827.666 111.218 826.484 110.998 824.69 110.6 823.223 110.247 821.593 109.938 821.593 107.951 821.593 106.671 822.571 103.978 826.158 103.978 827.177 103.978 829.215 104.287 829.826 106.009Z" fill-rule="evenodd"/><path d="M871.629 107.887C872.238 107.887 873.009 107.887 873.009 106.947 873.009 106.007 872.238 106.007 871.669 106.007L847.349 106.007C846.78 106.007 846.009 106.007 846.009 106.947 846.009 107.887 846.78 107.887 847.389 107.887L871.629 107.887ZM871.669 117.007C872.238 117.007 873.009 117.007 873.009 116.067 873.009 115.127 872.238 115.127 871.629 115.127L847.389 115.127C846.78 115.127 846.009 115.127 846.009 116.067 846.009 117.007 846.78 117.007 847.349 117.007L871.669 117.007Z" fill-rule="evenodd"/><path d="M904.01 108.597C904.01 104.992 903.82 101.387 902.489 98.0531 900.741 93.7275 897.625 93.0066 896.029 93.0066 893.748 93.0066 890.974 94.1781 889.416 98.3686 888.2 101.478 888.01 104.992 888.01 108.597 888.01 111.976 888.161 116.031 889.72 119.456 891.354 123.106 894.128 124.007 895.991 124.007 898.043 124.007 900.931 123.06 902.603 118.78 903.82 115.671 904.01 112.156 904.01 108.597ZM895.991 123.015C894.508 123.015 892.266 121.889 891.582 117.563 891.164 114.86 891.164 110.714 891.164 108.056 891.164 105.172 891.164 102.199 891.468 99.7653 892.19 94.4035 895.04 93.9979 895.991 93.9979 897.245 93.9979 899.753 94.809 900.475 99.2697 900.855 101.793 900.855 105.217 900.855 108.056 900.855 111.435 900.855 114.499 900.437 117.383 899.867 121.664 897.701 123.015 895.991 123.015Z" fill-rule="evenodd"/><path d="M914.01 120.507C914.01 119.139 913.104 118.007 912.01 118.007 910.916 118.007 910.01 119.139 910.01 120.507 910.01 121.875 910.916 123.007 912.01 123.007 913.104 123.007 914.01 121.875 914.01 120.507Z" fill-rule="evenodd"/><path d="M935.654 95.9821C936.011 95.4492 936.011 95.3604 936.011 94.4278L926.381 94.4278C921.547 94.4278 921.468 93.8503 921.309 93.0066L920.318 93.0066 919.011 102.156 920.001 102.156C920.12 101.445 920.477 98.647 920.992 98.1139 921.269 97.8475 924.36 97.8475 924.876 97.8475L933.078 97.8475C932.642 98.5581 929.512 103.399 928.64 104.865 925.074 110.86 923.766 117.034 923.766 121.564 923.766 122.008 923.766 124.007 925.589 124.007 927.412 124.007 927.412 122.008 927.412 121.564L927.412 119.299C927.412 116.856 927.53 114.413 927.848 112.015 928.006 110.994 928.561 107.174 930.304 104.421L935.654 95.9821Z" fill-rule="evenodd"/><path d="M955.011 113.959C955.011 108.597 951.723 104.091 947.392 104.091 945.467 104.091 943.743 104.812 942.3 106.389L942.3 97.6025C943.102 97.8729 944.425 98.1883 945.708 98.1883 950.64 98.1883 953.447 94.088 953.447 93.5023 953.447 93.2319 953.327 93.0066 953.046 93.0066 953.006 93.0066 952.926 93.0066 952.726 93.1418 951.924 93.5473 949.959 94.4484 947.272 94.4484 945.668 94.4484 943.823 94.133 941.939 93.1869 941.618 93.0517 941.538 93.0517 941.458 93.0517 941.056 93.0517 941.056 93.4121 941.056 94.133L941.056 107.47C941.056 108.281 941.056 108.642 941.618 108.642 941.899 108.642 941.979 108.507 942.139 108.236 942.58 107.515 944.064 105.082 947.312 105.082 949.397 105.082 950.4 107.155 950.721 107.966 951.362 109.633 951.442 111.39 951.442 113.643 951.442 115.22 951.442 117.924 950.48 119.816 949.518 121.574 948.034 122.745 946.189 122.745 943.262 122.745 940.976 120.357 940.295 117.699 940.415 117.744 940.535 117.789 940.976 117.789 942.3 117.789 942.981 116.662 942.981 115.581 942.981 114.499 942.3 113.373 940.976 113.373 940.415 113.373 939.011 113.688 939.011 115.761 939.011 119.636 941.778 124.007 946.27 124.007 950.921 124.007 955.011 119.681 955.011 113.959Z" fill-rule="evenodd"/><path d="M0.0286767-0.999589 15.3066-0.561288 30.1143 0.693602 43.9136 2.70077 50.3283 3.89567 56.3632 5.27866 61.9025 6.72643 66.8936 8.3059 71.3259 10.0155 75.0974 11.7415 78.141 13.6194 80.5352 15.5481 82.1129 17.6278 82.6211 19.8055 82.8744 27.2158 82.8722 27.1747 83.1222 30.4872 83.111 30.3958 83.5771 33.1528 81.6051 33.4862 81.1313 30.6837 80.8763 27.3047 80.6256 19.9717 80.6512 20.1647 80.2137 18.2897 80.3908 18.6669 79.0158 16.8544 79.1852 17.0288 76.9352 15.2163 77.0374 15.2885 74.0999 13.476 74.2089 13.5343 70.5214 11.8468 70.5776 11.8705 66.2026 10.183 66.2608 10.2034 61.3233 8.6409 61.3721 8.655 55.8721 7.2175 55.9016 7.22473 49.9016 5.84973 49.9419 5.85809 43.5669 4.67059 43.6061 4.67709 29.8561 2.67709 29.9156 2.68393 15.1656 1.43393 15.2213 1.43709-0.0286767 0.999589ZM86.1595 31.0735 84.1758 39.7951 78.3888 32.9752Z" transform="matrix(-1 1.22465e-16 1.22465e-16 1 807.176 119)"/><path d="M0.706329-0.707884 156.288 154.532 154.875 155.947-0.706329 0.707884ZM157.462 151.466 160.3 159.948 151.811 157.129Z" fill="#FF0000" transform="matrix(1 0 0 -1 607 366.948)"/><path d="M0.492082-0.870549 192.246 107.519 191.262 109.261-0.492082 0.870549ZM192.562 104.252 197.558 111.671 188.625 111.216Z" fill="#FF0000" transform="matrix(1 0 0 -1 608 367.671)"/><path d="M863.904 172.009C862.839 172.053 862.078 173.024 862.078 173.996 862.078 174.614 862.421 175.276 863.258 175.276 864.095 175.276 865.008 174.525 865.008 172.804 865.008 170.817 863.372 169.007 860.481 169.007 855.459 169.007 854.051 173.51 854.051 175.453 854.051 178.896 856.866 179.558 857.97 179.823 859.948 180.265 861.926 180.751 861.926 183.179 861.926 184.327 861.051 188.035 856.486 188.035 855.953 188.035 853.024 188.035 852.149 185.695 853.595 185.916 854.546 184.592 854.546 183.355 854.546 182.34 853.937 181.81 853.138 181.81 852.149 181.81 851.008 182.737 851.008 184.724 851.008 187.241 853.176 189.007 856.448 189.007 862.611 189.007 864.095 183.665 864.095 181.678 864.095 180.088 863.372 178.985 862.915 178.455 861.888 177.218 860.785 176.998 859.111 176.6 857.741 176.247 856.22 175.938 856.22 173.951 856.22 172.671 857.133 169.978 860.481 169.978 861.432 169.978 863.334 170.287 863.904 172.009Z" fill-rule="evenodd"/><path d="M905.629 173.716C906.238 173.716 907.009 173.716 907.009 172.861 907.009 172.006 906.238 172.006 905.669 172.006L881.349 172.006C880.781 172.006 880.009 172.006 880.009 172.861 880.009 173.716 880.781 173.716 881.39 173.716L905.629 173.716ZM905.669 182.006C906.238 182.006 907.009 182.006 907.009 181.152 907.009 180.297 906.238 180.297 905.629 180.297L881.39 180.297C880.781 180.297 880.009 180.297 880.009 181.152 880.009 182.006 880.781 182.006 881.349 182.006L905.669 182.006Z" fill-rule="evenodd"/><path d="M938.01 174.094C938.01 170.605 937.808 167.117 936.395 163.89 934.537 159.704 931.226 159.007 929.53 159.007 927.108 159.007 924.16 160.14 922.504 164.196 921.212 167.204 921.01 170.605 921.01 174.094 921.01 177.364 921.172 181.289 922.827 184.603 924.564 188.134 927.511 189.007 929.49 189.007 931.671 189.007 934.739 188.091 936.516 183.948 937.808 180.94 938.01 177.539 938.01 174.094ZM929.49 188.047C927.915 188.047 925.533 186.957 924.806 182.771 924.362 180.155 924.362 176.143 924.362 173.571 924.362 170.78 924.362 167.902 924.685 165.547 925.452 160.358 928.48 159.966 929.49 159.966 930.823 159.966 933.488 160.751 934.255 165.068 934.659 167.509 934.659 170.823 934.659 173.571 934.659 176.841 934.659 179.806 934.214 182.597 933.609 186.739 931.307 188.047 929.49 188.047Z" fill-rule="evenodd"/><path d="M947.01 185.507C947.01 184.139 946.104 183.007 945.01 183.007 943.916 183.007 943.01 184.139 943.01 185.507 943.01 186.875 943.916 188.007 945.01 188.007 946.104 188.007 947.01 186.875 947.01 185.507Z" fill-rule="evenodd"/><path d="M968.01 179.283C968.01 174.094 964.928 169.733 960.867 169.733 959.063 169.733 957.446 170.431 956.093 171.957L956.093 163.454C956.845 163.716 958.085 164.021 959.289 164.021 963.913 164.021 966.544 160.053 966.544 159.486 966.544 159.225 966.431 159.007 966.168 159.007 966.131 159.007 966.055 159.007 965.867 159.137 965.115 159.53 963.273 160.402 960.755 160.402 959.251 160.402 957.521 160.097 955.755 159.181 955.454 159.05 955.379 159.05 955.303 159.05 954.928 159.05 954.928 159.399 954.928 160.097L954.928 173.004C954.928 173.789 954.928 174.137 955.454 174.137 955.717 174.137 955.792 174.007 955.943 173.745 956.356 173.047 957.747 170.693 960.792 170.693 962.747 170.693 963.687 172.698 963.988 173.483 964.589 175.097 964.664 176.797 964.664 178.977 964.664 180.504 964.664 183.12 963.762 184.951 962.86 186.652 961.469 187.786 959.74 187.786 956.995 187.786 954.852 185.475 954.213 182.902 954.326 182.945 954.439 182.989 954.852 182.989 956.093 182.989 956.732 181.899 956.732 180.852 956.732 179.806 956.093 178.716 954.852 178.716 954.326 178.716 953.01 179.021 953.01 181.027 953.01 184.777 955.604 189.007 959.815 189.007 964.176 189.007 968.01 184.82 968.01 179.283Z" fill-rule="evenodd"/><path d="M0.021734-0.999764 11.5391-0.749387 22.6414-0.122138 33.1205 0.944595 42.479 2.26359 46.6417 3.08352 50.3517 3.90097 53.7185 4.72678 56.5415 5.68918 58.874 6.66104 60.7187 7.68589 61.9793 8.8677 62.4742 10.1872 63.0521 14.1688 62.864 13.7145 64.3223 15.6693 62.7192 16.8652 61.1093 14.7072 60.5104 10.5812 60.5637 10.7886 60.1887 9.78862 60.4411 10.167 59.4411 9.22954 59.6394 9.37416 57.9519 8.43666 58.0529 8.48558 55.8029 7.54808 55.8648 7.57151 53.1148 6.63401 53.1993 6.65871 49.8868 5.84621 49.9098 5.85157 46.2223 5.03907 46.2442 5.04365 42.1192 4.23115 42.1729 4.24021 32.8604 2.92771 32.8987 2.93236 22.4612 1.86986 22.5061 1.87341 11.4436 1.24841 11.4783 1.24976-0.021734 0.999764ZM65.3015 12.4453 68.3633 20.8492 59.8031 18.2563Z" transform="matrix(-1 1.22465e-16 1.22465e-16 1 844.363 181)"/><path d="M0.0282906-0.9996 6.68801-0.811117 13.1218-0.180358 19.1185 0.703372 24.5711 1.90802 29.2335 3.37698 32.8171 5.00591 35.2809 6.78533 36.1218 7.9626 36.3528 9.04047 36.5403 9.91547 36.3551 9.51529 36.9801 10.3278 36.7875 10.1375 39.0375 11.825 38.8513 11.7146 42.2888 13.2771 42.1635 13.23 46.726 14.605 46.6532 14.586 52.0282 15.7735 51.9583 15.7607 57.8958 16.6357 57.8349 16.6286 64.1192 17.1641 63.9494 19.1569 57.6345 18.6188 51.6315 17.7341 46.185 16.5308 41.5222 15.1256 37.9246 13.4903 35.4782 11.6555 34.6321 10.5555 34.3972 9.45953 34.2097 8.58453 34.3738 8.95624 33.7488 8.08124 33.977 8.31068 31.727 6.68568 31.8987 6.78537 28.4612 5.22287 28.5745 5.26628 24.012 3.82878 24.0968 3.85145 18.7218 2.66395 18.7917 2.67682 12.8542 1.80182 12.9024 1.80773 6.52743 1.18273 6.59671 1.1871-0.0282906 0.9996ZM62.8519 14.1133 70.6963 18.4105 62.5519 22.1077Z" transform="matrix(-1 1.22465e-16 1.22465e-16 1 865.696 251)"/><path d="M890.826 242.009C889.685 242.053 888.87 243.024 888.87 243.996 888.87 244.614 889.237 245.276 890.133 245.276 891.03 245.276 892.008 244.525 892.008 242.804 892.008 240.817 890.256 239.007 887.158 239.007 881.777 239.007 880.269 243.51 880.269 245.453 880.269 248.896 883.285 249.558 884.467 249.823 886.587 250.265 888.707 250.751 888.707 253.179 888.707 254.327 887.769 258.035 882.878 258.035 882.307 258.035 879.169 258.035 878.231 255.695 879.78 255.916 880.799 254.592 880.799 253.355 880.799 252.34 880.147 251.81 879.291 251.81 878.231 251.81 877.008 252.737 877.008 254.724 877.008 257.241 879.332 259.007 882.837 259.007 889.44 259.007 891.03 253.665 891.03 251.678 891.03 250.088 890.256 248.985 889.766 248.455 888.666 247.218 887.484 246.998 885.69 246.6 884.223 246.247 882.593 245.938 882.593 243.951 882.593 242.671 883.571 239.978 887.158 239.978 888.177 239.978 890.215 240.287 890.826 242.009Z" fill-rule="evenodd"/><path d="M932.629 244.716C933.238 244.716 934.009 244.716 934.009 243.861 934.009 243.006 933.238 243.006 932.669 243.006L908.349 243.006C907.78 243.006 907.009 243.006 907.009 243.861 907.009 244.716 907.78 244.716 908.389 244.716L932.629 244.716ZM932.669 253.006C933.238 253.006 934.009 253.006 934.009 252.152 934.009 251.297 933.238 251.297 932.629 251.297L908.389 251.297C907.78 251.297 907.009 251.297 907.009 252.152 907.009 253.006 907.78 253.006 908.349 253.006L932.669 253.006Z" fill-rule="evenodd"/><path d="M965.01 244.597C965.01 240.992 964.82 237.388 963.489 234.053 961.741 229.728 958.625 229.007 957.029 229.007 954.748 229.007 951.974 230.178 950.416 234.369 949.2 237.478 949.01 240.992 949.01 244.597 949.01 247.976 949.161 252.031 950.72 255.456 952.354 259.106 955.128 260.007 956.991 260.007 959.043 260.007 961.931 259.061 963.603 254.78 964.82 251.671 965.01 248.156 965.01 244.597ZM956.991 259.016C955.508 259.016 953.266 257.889 952.582 253.563 952.164 250.86 952.164 246.715 952.164 244.056 952.164 241.173 952.164 238.199 952.468 235.765 953.19 230.404 956.04 229.998 956.991 229.998 958.245 229.998 960.753 230.809 961.475 235.27 961.855 237.793 961.855 241.217 961.855 244.056 961.855 247.436 961.855 250.499 961.437 253.383 960.867 257.664 958.701 259.016 956.991 259.016Z" fill-rule="evenodd"/><path d="M975.012 256.507C975.012 255.139 973.88 254.007 972.512 254.007 971.144 254.007 970.012 255.139 970.012 256.507 970.012 257.875 971.144 259.007 972.512 259.007 973.88 259.007 975.012 257.875 975.012 256.507Z" fill-rule="evenodd"/><path d="M983.099 255.538 987.349 250.899C993.605 244.682 996.011 242.25 996.011 237.746 996.011 232.61 992.402 229.007 987.51 229.007 982.978 229.007 980.011 233.151 980.011 237.16 980.011 239.682 982.016 239.682 982.136 239.682 982.818 239.682 984.221 239.142 984.221 237.295 984.221 236.124 983.5 234.953 982.096 234.953 981.775 234.953 981.695 234.953 981.575 234.998 982.497 232.07 984.662 230.403 986.988 230.403 990.637 230.403 992.362 234.052 992.362 237.746 992.362 241.349 990.357 244.908 988.151 247.7L980.452 257.34C980.011 257.836 980.011 257.926 980.011 259.007L994.888 259.007 996.011 251.169 995.008 251.169C994.808 252.52 994.527 254.502 994.126 255.178 993.845 255.538 991.199 255.538 990.317 255.538L983.099 255.538Z" fill-rule="evenodd"/><path d="M1016.01 249.959C1016.01 244.597 1012.72 240.091 1008.39 240.091 1006.47 240.091 1004.74 240.812 1003.3 242.389L1003.3 233.603C1004.1 233.873 1005.42 234.188 1006.71 234.188 1011.64 234.188 1014.45 230.088 1014.45 229.502 1014.45 229.232 1014.33 229.007 1014.05 229.007 1014.01 229.007 1013.93 229.007 1013.73 229.142 1012.92 229.547 1010.96 230.449 1008.27 230.449 1006.67 230.449 1004.82 230.133 1002.94 229.187 1002.62 229.052 1002.54 229.052 1002.46 229.052 1002.06 229.052 1002.06 229.412 1002.06 230.133L1002.06 243.47C1002.06 244.281 1002.06 244.642 1002.62 244.642 1002.9 244.642 1002.98 244.507 1003.14 244.236 1003.58 243.516 1005.06 241.082 1008.31 241.082 1010.4 241.082 1011.4 243.155 1011.72 243.966 1012.36 245.633 1012.44 247.391 1012.44 249.643 1012.44 251.22 1012.44 253.924 1011.48 255.816 1010.52 257.574 1009.03 258.745 1007.19 258.745 1004.26 258.745 1001.98 256.357 1001.29 253.699 1001.41 253.744 1001.54 253.789 1001.98 253.789 1003.3 253.789 1003.98 252.662 1003.98 251.581 1003.98 250.499 1003.3 249.373 1001.98 249.373 1001.41 249.373 1000.01 249.688 1000.01 251.761 1000.01 255.636 1002.78 260.007 1007.27 260.007 1011.92 260.007 1016.01 255.681 1016.01 249.959Z" fill-rule="evenodd"/></g></svg>